<?xml version="1.0" encoding="UTF-8" standalone="no"?>
<!-- Generator: Adobe Illustrator 26.0.2, SVG Export Plug-In . SVG Version: 6.00 Build 0)  -->

<svg
   version="1.1"
   id="Capa_1"
   x="0px"
   y="0px"
   viewBox="0 0 1289.11 292.6"
   style="enable-background:new 0 0 1289.11 292.6;"
   xml:space="preserve"
   sodipodi:docname="1-implementacion.svg"
   inkscape:version="1.3 (0e150ed6c4, 2023-07-21)"
   xmlns:inkscape="http://www.inkscape.org/namespaces/inkscape"
   xmlns:sodipodi="http://sodipodi.sourceforge.net/DTD/sodipodi-0.dtd"
   xmlns:xlink="http://www.w3.org/1999/xlink"
   xmlns="http://www.w3.org/2000/svg"
   xmlns:svg="http://www.w3.org/2000/svg"><defs
   id="defs305" /><sodipodi:namedview
   id="namedview303"
   pagecolor="#ffffff"
   bordercolor="#666666"
   borderopacity="1.0"
   inkscape:showpageshadow="2"
   inkscape:pageopacity="0.0"
   inkscape:pagecheckerboard="0"
   inkscape:deskcolor="#d1d1d1"
   showgrid="false"
   inkscape:zoom="1.0728332"
   inkscape:cx="644.08894"
   inkscape:cy="146.80754"
   inkscape:window-width="1920"
   inkscape:window-height="1051"
   inkscape:window-x="0"
   inkscape:window-y="0"
   inkscape:window-maximized="1"
   inkscape:current-layer="Capa_1" />&#10;<style
   type="text/css"
   id="style2">&#10;	.st0{clip-path:url(#SVGID_00000088815843057575221910000004406179713527428267_);}&#10;	.st1{fill:#6CC72B;}&#10;	.st2{fill:#74598F;}&#10;	.st3{fill:#3E90C5;}&#10;	.st4{fill:#E24486;}&#10;	.st5{fill:#FFFFFF;}&#10;	.st6{fill:none;}&#10;	.st7{fill:#857F7B;}&#10;	.st8{fill:none;stroke:#74598F;stroke-miterlimit:10;}&#10;	.st9{fill:#575756;}&#10;	.st10{fill:none;stroke:#82CCD8;stroke-width:2;stroke-miterlimit:10;}&#10;	.st11{fill:url(#SVGID_00000036241158033584305300000016169891776150364302_);stroke:#6CC72B;stroke-width:3;stroke-miterlimit:10;}&#10;	.st12{fill:#6CC72B;stroke:#6CC72B;stroke-width:3;stroke-miterlimit:10;}&#10;	.st13{fill:#006633;}&#10;	.st14{fill:url(#SVGID_00000058559182587244827350000012864210759011780009_);stroke:#3E90C5;stroke-width:3;stroke-miterlimit:10;}&#10;	.st15{fill:#3E90C5;stroke:#3E90C5;stroke-width:3;stroke-miterlimit:10;}&#10;	.st16{fill:#4390C3;}&#10;	.st17{fill:url(#SVGID_00000147191804121560778250000010596800547648358299_);stroke:#74598F;stroke-width:5;stroke-miterlimit:10;}&#10;	.st18{fill:#74598F;stroke:#74598F;stroke-miterlimit:10;}&#10;	.st19{fill:url(#SVGID_00000133512685094315799830000016632392810373403558_);stroke:#E04264;stroke-width:5;stroke-miterlimit:10;}&#10;	.st20{fill:#E24486;stroke:#E04264;stroke-miterlimit:10;}&#10;	.st21{fill:#CBBBA0;}&#10;	.st22{fill:#3AAA35;}&#10;	.st23{fill:#2D2E83;}&#10;	.st24{fill:#9D9D9C;}&#10;	.st25{clip-path:url(#SVGID_00000103980021292536043320000015837875235843614093_);fill:#857F7B;}&#10;	.st26{clip-path:url(#SVGID_00000090269515154994689240000005589936706571648179_);fill:#857F7B;}&#10;	.st27{clip-path:url(#SVGID_00000179606811932145387200000006088111787855102640_);fill:#857F7B;}&#10;	.st28{clip-path:url(#SVGID_00000113336353456205047670000009019480945938748553_);fill:#6CC72B;}&#10;	.st29{clip-path:url(#SVGID_00000113336353456205047670000009019480945938748553_);fill:#74598F;}&#10;	.st30{fill:#046C76;}&#10;	.st31{fill:#F29177;}&#10;	.st32{fill:#E71D73;}&#10;</style>&#10;<g
   id="g18">&#10;	<defs
   id="defs5">&#10;		<rect
   id="SVGID_1_"
   x="7.29"
   y="21.6"
   width="1278.51"
   height="78.59" />&#10;	</defs>&#10;	<clipPath
   id="SVGID_00000014610608836265643370000007582912021265109170_">&#10;		<use
   xlink:href="#SVGID_1_"
   style="overflow:visible;"
   id="use7" />&#10;	</clipPath>&#10;	<g
   style="clip-path:url(#SVGID_00000014610608836265643370000007582912021265109170_);"
   clip-path="url(#SVGID_00000014610608836265643370000007582912021265109170_)"
   id="g16">&#10;		<path
   class="st1"
   d="M803.75-323.29v-48.3c0-133.13-34.21-237.32-102.64-312.56c-68.42-75.24-163.02-112.86-283.77-112.86    c-114.56,0-206.82,37.16-276.81,111.47C70.56-611.24,35.57-512.78,35.57-390.17l0,490.37h769.66L803.75-323.29z"
   id="path10" />&#10;		<rect
   x="830.12"
   y="-215.73"
   class="st3"
   width="209.86"
   height="314.97"
   id="rect12" />&#10;		<rect
   x="1063.46"
   y="-215.73"
   class="st4"
   width="207.24"
   height="315.92"
   id="rect14" />&#10;	</g>&#10;</g>&#10;<g
   id="g154">&#10;	<rect
   x="323.88"
   y="165.7"
   class="st6"
   width="692.51"
   height="90.23"
   id="rect20" />&#10;	<path
   class="st7"
   d="M336.8,186.87h-4.93v9.65h-5v-25.63h9.93c5.29,0,8.46,3.64,8.46,7.99S342.09,186.87,336.8,186.87z    M336.55,175.35h-4.68v7.02h4.68c2.27,0,3.71-1.4,3.71-3.49S338.82,175.35,336.55,175.35z"
   id="path22" />&#10;	<path
   class="st7"
   d="M359.34,182.87c-0.72-0.72-1.33-1.12-2.48-1.12c-1.44,0-3.02,1.08-3.02,3.46v11.3h-4.68v-18.75h4.57v1.8   c0.9-1.08,2.7-2.02,4.72-2.02c1.84,0,3.13,0.47,4.43,1.76L359.34,182.87z"
   id="path24" />&#10;	<path
   class="st7"
   d="M377.41,194.43c-1.15,1.22-3.06,2.3-5.83,2.3c-2.77,0-4.64-1.08-5.8-2.3c-1.69-1.76-2.12-3.89-2.12-7.31   c0-3.38,0.43-5.51,2.12-7.27c1.15-1.22,3.02-2.3,5.8-2.3c2.77,0,4.68,1.08,5.83,2.3c1.69,1.76,2.12,3.89,2.12,7.27   C379.53,190.54,379.1,192.66,377.41,194.43z M373.77,182.59c-0.54-0.54-1.26-0.83-2.2-0.83c-0.94,0-1.62,0.29-2.16,0.83   c-0.97,0.97-1.08,2.59-1.08,4.54c0,1.94,0.11,3.6,1.08,4.57c0.54,0.54,1.22,0.83,2.16,0.83c0.94,0,1.66-0.29,2.2-0.83   c0.97-0.97,1.08-2.63,1.08-4.57C374.85,185.18,374.74,183.56,373.77,182.59z"
   id="path26" />&#10;	<path
   class="st7"
   d="M390.51,203.61c-2.88,0-4.86-0.58-6.8-2.45l2.92-2.95c1.04,1.01,2.09,1.44,3.67,1.44   c2.81,0,3.78-1.98,3.78-3.89v-1.91c-1.22,1.37-2.63,1.87-4.46,1.87s-3.42-0.61-4.46-1.66c-1.76-1.76-1.91-4.17-1.91-7.45   c0-3.28,0.14-5.65,1.91-7.42c1.04-1.04,2.66-1.66,4.5-1.66c1.98,0,3.28,0.54,4.57,1.98v-1.76h4.54v18.07   C398.75,200.33,395.55,203.61,390.51,203.61z M390.98,181.76c-2.77,0-3.06,2.38-3.06,4.86c0,2.48,0.29,4.9,3.06,4.9   c2.77,0,3.1-2.41,3.1-4.9C394.08,184.13,393.75,181.76,390.98,181.76z"
   id="path28" />&#10;	<path
   class="st7"
   d="M414.24,182.87c-0.72-0.72-1.33-1.12-2.48-1.12c-1.44,0-3.02,1.08-3.02,3.46v11.3h-4.68v-18.75h4.57v1.8   c0.9-1.08,2.7-2.02,4.72-2.02c1.84,0,3.13,0.47,4.43,1.76L414.24,182.87z"
   id="path30" />&#10;	<path
   class="st7"
   d="M429.72,196.52v-1.62c-1.26,1.26-2.45,1.8-4.61,1.8c-2.12,0-3.67-0.54-4.79-1.66   c-1.01-1.04-1.55-2.56-1.55-4.21c0-2.99,2.05-5.44,6.41-5.44h4.43v-0.94c0-2.05-1.01-2.95-3.49-2.95c-1.8,0-2.63,0.43-3.6,1.55   l-2.99-2.92c1.84-2.02,3.64-2.59,6.77-2.59c5.26,0,7.99,2.23,7.99,6.62v12.35H429.72z M429.61,188.6h-3.71   c-1.69,0-2.63,0.79-2.63,2.12c0,1.3,0.86,2.16,2.7,2.16c1.3,0,2.12-0.11,2.95-0.9c0.5-0.47,0.68-1.22,0.68-2.38V188.6z"
   id="path32" />&#10;	<path
   class="st7"
   d="M461.18,196.52v-11.34c0-2.56-1.62-3.42-3.1-3.42c-1.44,0-3.13,0.86-3.13,3.31v11.45h-4.68v-11.34   c0-2.56-1.62-3.42-3.1-3.42c-1.48,0-3.13,0.86-3.13,3.42v11.34h-4.68v-18.75h4.57v1.73c1.22-1.26,2.95-1.94,4.68-1.94   c2.09,0,3.78,0.76,4.97,2.38c1.58-1.66,3.28-2.38,5.62-2.38c1.87,0,3.56,0.61,4.61,1.66c1.51,1.51,2.05,3.28,2.05,5.33v11.99   H461.18z"
   id="path34" />&#10;	<path
   class="st7"
   d="M480.55,196.52v-1.62c-1.26,1.26-2.45,1.8-4.61,1.8c-2.12,0-3.67-0.54-4.79-1.66   c-1.01-1.04-1.55-2.56-1.55-4.21c0-2.99,2.05-5.44,6.41-5.44h4.43v-0.94c0-2.05-1.01-2.95-3.49-2.95c-1.8,0-2.63,0.43-3.6,1.55   l-2.99-2.92c1.84-2.02,3.64-2.59,6.77-2.59c5.26,0,7.99,2.23,7.99,6.62v12.35H480.55z M480.44,188.6h-3.71   c-1.69,0-2.63,0.79-2.63,2.12c0,1.3,0.86,2.16,2.7,2.16c1.3,0,2.12-0.11,2.95-0.9c0.5-0.47,0.68-1.22,0.68-2.38V188.6z"
   id="path36" />&#10;	<path
   class="st7"
   d="M508.95,196.52v-1.76c-1.3,1.44-2.66,1.98-4.64,1.98c-1.84,0-3.56-0.65-4.61-1.69   c-1.87-1.87-1.91-5.11-1.91-7.92s0.04-6.01,1.91-7.88c1.04-1.04,2.74-1.69,4.57-1.69c1.91,0,3.35,0.5,4.57,1.87v-8.53h4.68v25.63   H508.95z M505.64,181.76c-2.81,0-3.17,2.3-3.17,5.36c0,3.06,0.36,5.4,3.17,5.4s3.2-2.34,3.2-5.4   C508.84,184.06,508.45,181.76,505.64,181.76z"
   id="path38" />&#10;	<path
   class="st7"
   d="M522.49,188.6c0,2.41,1.48,4.17,4.1,4.17c2.05,0,3.06-0.58,4.25-1.76l2.84,2.77   c-1.91,1.91-3.74,2.95-7.13,2.95c-4.43,0-8.67-2.02-8.67-9.61c0-6.12,3.31-9.57,8.17-9.57c5.22,0,8.17,3.82,8.17,8.96v2.09H522.49z    M529.18,183.38c-0.5-1.12-1.55-1.94-3.13-1.94c-1.58,0-2.63,0.83-3.13,1.94c-0.29,0.68-0.4,1.19-0.43,2.02h7.13   C529.58,184.56,529.47,184.06,529.18,183.38z"
   id="path40" />&#10;	<path
   class="st7"
   d="M547.33,196.52v-25.63h5v25.63H547.33z"
   id="path42" />&#10;	<path
   class="st7"
   d="M579.8,196.52v-11.34c0-2.56-1.62-3.42-3.1-3.42c-1.44,0-3.13,0.86-3.13,3.31v11.45h-4.68v-11.34   c0-2.56-1.62-3.42-3.1-3.42s-3.13,0.86-3.13,3.42v11.34h-4.68v-18.75h4.57v1.73c1.22-1.26,2.95-1.94,4.68-1.94   c2.09,0,3.78,0.76,4.97,2.38c1.58-1.66,3.28-2.38,5.62-2.38c1.87,0,3.56,0.61,4.61,1.66c1.51,1.51,2.05,3.28,2.05,5.33v11.99H579.8   z"
   id="path44" />&#10;	<path
   class="st7"
   d="M603.34,195.04c-1.04,1.04-2.74,1.69-4.57,1.69c-1.91,0-3.31-0.5-4.54-1.87v8.53h-4.68v-25.63h4.54v1.76   c1.3-1.44,2.7-1.98,4.68-1.98c1.84,0,3.53,0.65,4.57,1.69c1.87,1.87,1.91,5.08,1.91,7.88S605.21,193.17,603.34,195.04z    M597.4,181.76c-2.81,0-3.17,2.3-3.17,5.36c0,3.06,0.36,5.4,3.17,5.4s3.17-2.34,3.17-5.4C600.57,184.06,600.21,181.76,597.4,181.76   z"
   id="path46" />&#10;	<path
   class="st7"
   d="M615.04,196.52c-3.85,0-5.47-2.7-5.47-5.36v-20.27h4.68v19.98c0,1.12,0.47,1.69,1.66,1.69h1.8v3.96H615.04z"
   id="path48" />&#10;	<path
   class="st7"
   d="M624.26,188.6c0,2.41,1.48,4.17,4.1,4.17c2.05,0,3.06-0.58,4.25-1.76l2.84,2.77   c-1.91,1.91-3.74,2.95-7.13,2.95c-4.43,0-8.68-2.02-8.68-9.61c0-6.12,3.31-9.57,8.17-9.57c5.22,0,8.17,3.82,8.17,8.96v2.09H624.26z    M630.95,183.38c-0.5-1.12-1.55-1.94-3.13-1.94c-1.58,0-2.63,0.83-3.13,1.94c-0.29,0.68-0.4,1.19-0.43,2.02h7.13   C631.35,184.56,631.24,184.06,630.95,183.38z"
   id="path50" />&#10;	<path
   class="st7"
   d="M662.17,196.52v-11.34c0-2.56-1.62-3.42-3.1-3.42c-1.44,0-3.13,0.86-3.13,3.31v11.45h-4.68v-11.34   c0-2.56-1.62-3.42-3.1-3.42s-3.13,0.86-3.13,3.42v11.34h-4.68v-18.75h4.57v1.73c1.22-1.26,2.95-1.94,4.68-1.94   c2.09,0,3.78,0.76,4.97,2.38c1.58-1.66,3.28-2.38,5.62-2.38c1.87,0,3.56,0.61,4.61,1.66c1.51,1.51,2.05,3.28,2.05,5.33v11.99   H662.17z"
   id="path52" />&#10;	<path
   class="st7"
   d="M675.6,188.6c0,2.41,1.48,4.17,4.1,4.17c2.05,0,3.06-0.58,4.25-1.76l2.84,2.77c-1.91,1.91-3.74,2.95-7.13,2.95   c-4.43,0-8.68-2.02-8.68-9.61c0-6.12,3.31-9.57,8.17-9.57c5.22,0,8.17,3.82,8.17,8.96v2.09H675.6z M682.29,183.38   c-0.5-1.12-1.55-1.94-3.13-1.94c-1.58,0-2.63,0.83-3.13,1.94c-0.29,0.68-0.4,1.19-0.43,2.02h7.13   C682.69,184.56,682.58,184.06,682.29,183.38z"
   id="path54" />&#10;	<path
   class="st7"
   d="M702.59,196.52v-11.34c0-2.56-1.62-3.42-3.1-3.42s-3.13,0.86-3.13,3.42v11.34h-4.68v-18.75h4.57v1.73   c1.22-1.3,2.95-1.94,4.68-1.94c1.87,0,3.38,0.61,4.43,1.66c1.51,1.51,1.91,3.28,1.91,5.33v11.99H702.59z"
   id="path56" />&#10;	<path
   class="st7"
   d="M718.22,196.52c-3.82,0-5.44-2.7-5.44-5.36v-9.29h-1.98v-3.56h1.98v-5.54h4.68v5.54h3.31v3.56h-3.31v9   c0,1.08,0.5,1.69,1.62,1.69h1.69v3.96H718.22z"
   id="path58" />&#10;	<path
   class="st7"
   d="M734.56,196.52v-1.62c-1.26,1.26-2.45,1.8-4.61,1.8c-2.12,0-3.67-0.54-4.79-1.66   c-1.01-1.04-1.55-2.56-1.55-4.21c0-2.99,2.05-5.44,6.41-5.44h4.43v-0.94c0-2.05-1.01-2.95-3.49-2.95c-1.8,0-2.63,0.43-3.6,1.55   l-2.99-2.92c1.84-2.02,3.64-2.59,6.77-2.59c5.25,0,7.99,2.23,7.99,6.62v12.35H734.56z M734.45,188.6h-3.71   c-1.69,0-2.63,0.79-2.63,2.12c0,1.3,0.86,2.16,2.7,2.16c1.3,0,2.12-0.11,2.95-0.9c0.5-0.47,0.68-1.22,0.68-2.38V188.6z"
   id="path60" />&#10;	<path
   class="st7"
   d="M751.66,196.73c-3.74,0-8.39-2.02-8.39-9.61c0-7.59,4.64-9.57,8.39-9.57c2.59,0,4.54,0.79,6.19,2.52   l-3.17,3.17c-0.97-1.04-1.8-1.48-3.02-1.48c-1.12,0-1.98,0.4-2.66,1.22c-0.72,0.9-1.04,2.16-1.04,4.14c0,1.98,0.32,3.28,1.04,4.18   c0.68,0.83,1.55,1.22,2.66,1.22c1.22,0,2.05-0.43,3.02-1.48l3.17,3.13C756.2,195.9,754.25,196.73,751.66,196.73z"
   id="path62" />&#10;	<path
   class="st7"
   d="M761.46,174.56v-3.82h4.79v3.82H761.46z M761.53,196.52v-18.75h4.68v18.75H761.53z"
   id="path64" />&#10;	<path
   class="st7"
   d="M784.42,194.43c-1.15,1.22-3.06,2.3-5.83,2.3s-4.64-1.08-5.79-2.3c-1.69-1.76-2.12-3.89-2.12-7.31   c0-3.38,0.43-5.51,2.12-7.27c1.15-1.22,3.02-2.3,5.79-2.3s4.68,1.08,5.83,2.3c1.69,1.76,2.12,3.89,2.12,7.27   C786.54,190.54,786.11,192.66,784.42,194.43z M780.78,182.59c-0.54-0.54-1.26-0.83-2.2-0.83s-1.62,0.29-2.16,0.83   c-0.97,0.97-1.08,2.59-1.08,4.54c0,1.94,0.11,3.6,1.08,4.57c0.54,0.54,1.22,0.83,2.16,0.83s1.66-0.29,2.2-0.83   c0.97-0.97,1.08-2.63,1.08-4.57C781.86,185.18,781.76,183.56,780.78,182.59z M779.78,174.77h-3.13l2.3-6.12h4.93L779.78,174.77z"
   id="path66" />&#10;	<path
   class="st7"
   d="M801.95,196.52v-11.34c0-2.56-1.62-3.42-3.1-3.42s-3.13,0.86-3.13,3.42v11.34h-4.68v-18.75h4.57v1.73   c1.22-1.3,2.95-1.94,4.68-1.94c1.87,0,3.38,0.61,4.43,1.66c1.51,1.51,1.91,3.28,1.91,5.33v11.99H801.95z"
   id="path68" />&#10;	<path
   class="st7"
   d="M830.46,196.52v-1.76c-1.3,1.44-2.66,1.98-4.64,1.98c-1.83,0-3.56-0.65-4.61-1.69   c-1.87-1.87-1.91-5.11-1.91-7.92s0.04-6.01,1.91-7.88c1.04-1.04,2.74-1.69,4.57-1.69c1.91,0,3.35,0.5,4.57,1.87v-8.53h4.68v25.63   H830.46z M827.15,181.76c-2.81,0-3.17,2.3-3.17,5.36c0,3.06,0.36,5.4,3.17,5.4s3.2-2.34,3.2-5.4   C830.36,184.06,829.96,181.76,827.15,181.76z"
   id="path70" />&#10;	<path
   class="st7"
   d="M844,188.6c0,2.41,1.48,4.17,4.1,4.17c2.05,0,3.06-0.58,4.25-1.76l2.84,2.77c-1.91,1.91-3.74,2.95-7.13,2.95   c-4.43,0-8.68-2.02-8.68-9.61c0-6.12,3.31-9.57,8.17-9.57c5.22,0,8.17,3.82,8.17,8.96v2.09H844z M850.69,183.38   c-0.5-1.12-1.55-1.94-3.13-1.94c-1.58,0-2.63,0.83-3.13,1.94c-0.29,0.68-0.4,1.19-0.43,2.02h7.13   C851.09,184.56,850.98,184.06,850.69,183.38z"
   id="path72" />&#10;	<path
   class="st7"
   d="M873.77,196.52c-3.85,0-5.47-2.7-5.47-5.36v-20.27h4.68v19.98c0,1.12,0.47,1.69,1.66,1.69h1.8v3.96H873.77z"
   id="path74" />&#10;	<path
   class="st7"
   d="M889.83,196.52v-1.62c-1.26,1.26-2.45,1.8-4.61,1.8c-2.12,0-3.67-0.54-4.79-1.66   c-1.01-1.04-1.55-2.56-1.55-4.21c0-2.99,2.05-5.44,6.41-5.44h4.43v-0.94c0-2.05-1.01-2.95-3.49-2.95c-1.8,0-2.63,0.43-3.6,1.55   l-2.99-2.92c1.84-2.02,3.64-2.59,6.77-2.59c5.25,0,7.99,2.23,7.99,6.62v12.35H889.83z M889.72,188.6h-3.71   c-1.69,0-2.63,0.79-2.63,2.12c0,1.3,0.86,2.16,2.7,2.16c1.3,0,2.12-0.11,2.95-0.9c0.5-0.47,0.68-1.22,0.68-2.38V188.6z"
   id="path76" />&#10;	<path
   class="st7"
   d="M344.38,224.6c-0.4,0.91-0.94,1.69-1.62,2.32c-0.68,0.64-1.5,1.12-2.45,1.44c-0.95,0.32-1.97,0.49-3.08,0.49   h-7.45v10.87h-1.94v-25.63h9.4c1.1,0,2.13,0.17,3.08,0.5c0.95,0.34,1.76,0.82,2.45,1.44c0.68,0.62,1.22,1.39,1.62,2.3   s0.59,1.96,0.59,3.13S344.78,223.68,344.38,224.6z M342.58,218.96c-0.3-0.71-0.71-1.3-1.24-1.76c-0.53-0.47-1.16-0.82-1.89-1.04   c-0.73-0.23-1.54-0.34-2.43-0.34h-7.24v11.3h7.24c0.89,0,1.7-0.11,2.43-0.34c0.73-0.23,1.36-0.58,1.89-1.04   c0.53-0.47,0.94-1.06,1.24-1.76c0.3-0.71,0.45-1.54,0.45-2.5S342.88,219.67,342.58,218.96z"
   id="path78" />&#10;	<path
   class="st7"
   d="M362.33,234.78c-0.26,1.25-0.85,2.33-1.76,3.24c-0.62,0.62-1.34,1.1-2.14,1.42c-0.8,0.32-1.7,0.49-2.68,0.49   c-1.94,0-3.55-0.64-4.82-1.91c-0.91-0.91-1.5-1.99-1.76-3.24c-0.26-1.25-0.4-2.5-0.4-3.74s0.13-2.5,0.4-3.74s0.85-2.33,1.76-3.24   c1.27-1.27,2.88-1.91,4.82-1.91c0.98,0,1.88,0.16,2.68,0.49c0.8,0.32,1.52,0.8,2.14,1.42c0.91,0.91,1.5,1.99,1.76,3.24   c0.26,1.25,0.4,2.5,0.4,3.74S362.59,233.54,362.33,234.78z M360.85,229.49c-0.02-0.53-0.09-1.05-0.2-1.57   c-0.11-0.52-0.26-1-0.47-1.46c-0.2-0.46-0.49-0.86-0.85-1.22c-0.48-0.48-1.03-0.85-1.64-1.1c-0.61-0.25-1.27-0.38-1.96-0.38   c-1.42,0-2.62,0.49-3.6,1.48c-0.36,0.36-0.64,0.77-0.85,1.22c-0.2,0.46-0.36,0.94-0.47,1.46c-0.11,0.52-0.17,1.04-0.2,1.57   c-0.02,0.53-0.04,1.04-0.04,1.55c0,0.5,0.01,1.02,0.04,1.55c0.02,0.53,0.09,1.05,0.2,1.57c0.11,0.52,0.26,1,0.47,1.46   c0.2,0.46,0.49,0.86,0.85,1.22c0.98,0.98,2.18,1.48,3.6,1.48c0.7,0,1.35-0.13,1.96-0.38c0.61-0.25,1.16-0.62,1.64-1.1   c0.36-0.36,0.64-0.77,0.85-1.22c0.2-0.46,0.36-0.94,0.47-1.46c0.11-0.52,0.17-1.04,0.2-1.57c0.02-0.53,0.04-1.04,0.04-1.55   C360.89,230.54,360.87,230.02,360.85,229.49z"
   id="path80" />&#10;	<path
   class="st7"
   d="M372.84,239.72c-1.42,0-2.47-0.41-3.15-1.22c-0.68-0.82-1.03-1.91-1.03-3.28v-21.13h1.84v21.1   c0,0.98,0.19,1.72,0.56,2.2c0.37,0.48,1.07,0.72,2.11,0.72h1.26v1.62H372.84z"
   id="path82" />&#10;	<path
   class="st7"
   d="M379.1,239.72v-17.35h1.84v17.35H379.1z M381.23,218.48h-2.09l3.49-5.29h2.41L381.23,218.48z"
   id="path84" />&#10;	<path
   class="st7"
   d="M392.57,239.72c-1.37,0-2.41-0.43-3.11-1.28c-0.71-0.85-1.06-1.94-1.06-3.26v-11.45h-2.38v-1.37h2.38v-5.54   h1.84v5.54h3.92v1.37h-3.92v11.48c0,0.91,0.22,1.62,0.65,2.12c0.43,0.5,1.1,0.76,2.02,0.76h1.26v1.62H392.57z"
   id="path86" />&#10;	<path
   class="st7"
   d="M399.48,216.35v-2.27h2.27v2.27H399.48z M399.69,239.72v-17.35h1.84v17.35H399.69z"
   id="path88" />&#10;	<path
   class="st7"
   d="M419.53,238.55c-0.43,0.35-0.87,0.62-1.31,0.83c-0.44,0.2-0.91,0.35-1.4,0.43c-0.49,0.08-1.04,0.13-1.64,0.13   c-1.18,0-2.24-0.2-3.19-0.61c-0.95-0.41-1.75-1-2.41-1.76c-0.66-0.77-1.16-1.7-1.51-2.81c-0.35-1.1-0.52-2.34-0.52-3.71   c0-1.37,0.17-2.6,0.52-3.71c0.35-1.1,0.85-2.04,1.51-2.81c0.66-0.77,1.46-1.36,2.41-1.76c0.95-0.41,2.01-0.61,3.19-0.61   c0.6,0,1.15,0.04,1.64,0.13c0.49,0.08,0.96,0.23,1.4,0.43c0.44,0.2,0.88,0.48,1.31,0.83c0.43,0.35,0.89,0.77,1.37,1.28l-1.26,1.15   c-0.74-0.82-1.45-1.39-2.11-1.71c-0.66-0.32-1.45-0.49-2.36-0.49c-0.98,0-1.87,0.19-2.65,0.58c-0.78,0.38-1.43,0.96-1.96,1.73   c-0.43,0.62-0.74,1.31-0.92,2.07c-0.18,0.76-0.27,1.72-0.27,2.9s0.09,2.14,0.27,2.9c0.18,0.76,0.49,1.45,0.92,2.07   c0.53,0.77,1.18,1.34,1.96,1.73c0.78,0.38,1.66,0.58,2.65,0.58c0.46,0,0.88-0.04,1.26-0.11c0.38-0.07,0.75-0.19,1.1-0.36   c0.35-0.17,0.7-0.4,1.04-0.68c0.35-0.29,0.7-0.63,1.06-1.04l1.26,1.15C420.42,237.77,419.96,238.2,419.53,238.55z"
   id="path90" />&#10;	<path
   class="st7"
   d="M435.98,239.72v-1.73c-0.74,0.74-1.51,1.25-2.29,1.53c-0.78,0.28-1.78,0.41-3.01,0.41   c-1.3,0-2.33-0.12-3.11-0.36c-0.78-0.24-1.45-0.65-2-1.22c-0.41-0.41-0.72-0.91-0.94-1.51c-0.22-0.6-0.32-1.22-0.32-1.87   c0-1.58,0.53-2.81,1.6-3.69c1.07-0.88,2.55-1.31,4.45-1.31h5.62v-1.94c0-1.39-0.37-2.45-1.12-3.17c-0.74-0.72-2-1.08-3.78-1.08   c-1.22,0-2.19,0.17-2.9,0.5c-0.71,0.34-1.34,0.9-1.89,1.69l-1.33-1.15c0.74-1.03,1.6-1.73,2.56-2.11c0.96-0.37,2.15-0.56,3.56-0.56   c2.3,0,4,0.49,5.09,1.48c1.09,0.98,1.64,2.39,1.64,4.21v11.88H435.98z M435.98,231.44h-5.4c-2.95,0-4.43,1.16-4.43,3.49   c0,1.15,0.36,2,1.08,2.56c0.72,0.55,1.87,0.83,3.46,0.83c0.79,0,1.55-0.07,2.29-0.22c0.73-0.14,1.41-0.52,2.03-1.12   c0.65-0.6,0.97-1.7,0.97-3.31V231.44z"
   id="path92" />&#10;	<path
   class="st7"
   d="M471.12,239.72l-14.8-22.28v22.28h-1.94v-25.63h1.94l14.8,22.21v-22.21h1.94v25.63H471.12z"
   id="path94" />&#10;	<path
   class="st7"
   d="M490.74,239.72v-1.73c-0.74,0.74-1.51,1.25-2.29,1.53c-0.78,0.28-1.78,0.41-3.01,0.41   c-1.3,0-2.33-0.12-3.11-0.36c-0.78-0.24-1.45-0.65-2-1.22c-0.41-0.41-0.72-0.91-0.94-1.51c-0.22-0.6-0.32-1.22-0.32-1.87   c0-1.58,0.53-2.81,1.6-3.69c1.07-0.88,2.55-1.31,4.45-1.31h5.62v-1.94c0-1.39-0.37-2.45-1.12-3.17c-0.74-0.72-2-1.08-3.78-1.08   c-1.22,0-2.19,0.17-2.9,0.5c-0.71,0.34-1.34,0.9-1.89,1.69l-1.33-1.15c0.74-1.03,1.6-1.73,2.56-2.11c0.96-0.37,2.15-0.56,3.56-0.56   c2.3,0,4,0.49,5.09,1.48c1.09,0.98,1.64,2.39,1.64,4.21v11.88H490.74z M490.74,231.44h-5.4c-2.95,0-4.43,1.16-4.43,3.49   c0,1.15,0.36,2,1.08,2.56c0.72,0.55,1.87,0.83,3.46,0.83c0.79,0,1.55-0.07,2.29-0.22c0.73-0.14,1.41-0.52,2.03-1.12   c0.65-0.6,0.97-1.7,0.97-3.31V231.44z"
   id="path96" />&#10;	<path
   class="st7"
   d="M510.43,238.55c-0.43,0.35-0.87,0.62-1.31,0.83c-0.44,0.2-0.91,0.35-1.4,0.43c-0.49,0.08-1.04,0.13-1.64,0.13   c-1.18,0-2.24-0.2-3.19-0.61c-0.95-0.41-1.75-1-2.41-1.76c-0.66-0.77-1.16-1.7-1.51-2.81c-0.35-1.1-0.52-2.34-0.52-3.71   c0-1.37,0.17-2.6,0.52-3.71c0.35-1.1,0.85-2.04,1.51-2.81c0.66-0.77,1.46-1.36,2.41-1.76c0.95-0.41,2.01-0.61,3.19-0.61   c0.6,0,1.15,0.04,1.64,0.13c0.49,0.08,0.96,0.23,1.4,0.43c0.44,0.2,0.88,0.48,1.31,0.83c0.43,0.35,0.89,0.77,1.37,1.28l-1.26,1.15   c-0.74-0.82-1.45-1.39-2.11-1.71c-0.66-0.32-1.45-0.49-2.36-0.49c-0.98,0-1.87,0.19-2.65,0.58c-0.78,0.38-1.43,0.96-1.96,1.73   c-0.43,0.62-0.74,1.31-0.92,2.07c-0.18,0.76-0.27,1.72-0.27,2.9s0.09,2.14,0.27,2.9c0.18,0.76,0.49,1.45,0.92,2.07   c0.53,0.77,1.18,1.34,1.96,1.73c0.78,0.38,1.66,0.58,2.65,0.58c0.46,0,0.88-0.04,1.26-0.11c0.38-0.07,0.75-0.19,1.1-0.36   c0.35-0.17,0.7-0.4,1.04-0.68c0.35-0.29,0.7-0.63,1.06-1.04l1.26,1.15C511.32,237.77,510.86,238.2,510.43,238.55z"
   id="path98" />&#10;	<path
   class="st7"
   d="M517.02,216.35v-2.27h2.27v2.27H517.02z M517.23,239.72v-17.35h1.84v17.35H517.23z"
   id="path100" />&#10;	<path
   class="st7"
   d="M538.65,234.78c-0.26,1.25-0.85,2.33-1.76,3.24c-0.62,0.62-1.34,1.1-2.14,1.42c-0.8,0.32-1.7,0.49-2.68,0.49   c-1.94,0-3.55-0.64-4.82-1.91c-0.91-0.91-1.5-1.99-1.76-3.24c-0.26-1.25-0.4-2.5-0.4-3.74s0.13-2.5,0.4-3.74   c0.26-1.25,0.85-2.33,1.76-3.24c1.27-1.27,2.88-1.91,4.82-1.91c0.98,0,1.88,0.16,2.68,0.49c0.8,0.32,1.52,0.8,2.14,1.42   c0.91,0.91,1.5,1.99,1.76,3.24s0.4,2.5,0.4,3.74S538.91,233.54,538.65,234.78z M537.18,229.49c-0.02-0.53-0.09-1.05-0.2-1.57   c-0.11-0.52-0.26-1-0.47-1.46c-0.2-0.46-0.49-0.86-0.85-1.22c-0.48-0.48-1.03-0.85-1.64-1.1c-0.61-0.25-1.27-0.38-1.96-0.38   c-1.42,0-2.62,0.49-3.6,1.48c-0.36,0.36-0.64,0.77-0.85,1.22c-0.21,0.46-0.36,0.94-0.47,1.46c-0.11,0.52-0.17,1.04-0.2,1.57   c-0.02,0.53-0.04,1.04-0.04,1.55c0,0.5,0.01,1.02,0.04,1.55c0.02,0.53,0.09,1.05,0.2,1.57c0.11,0.52,0.26,1,0.47,1.46   c0.2,0.46,0.49,0.86,0.85,1.22c0.98,0.98,2.18,1.48,3.6,1.48c0.7,0,1.35-0.13,1.96-0.38c0.61-0.25,1.16-0.62,1.64-1.1   c0.36-0.36,0.64-0.77,0.85-1.22c0.2-0.46,0.36-0.94,0.47-1.46c0.11-0.52,0.17-1.04,0.2-1.57c0.02-0.53,0.04-1.04,0.04-1.55   C537.21,230.54,537.2,230.02,537.18,229.49z"
   id="path102" />&#10;	<path
   class="st7"
   d="M556.58,239.72v-10.76c0-1.68-0.41-2.96-1.22-3.85c-0.82-0.89-2-1.33-3.56-1.33c-1.56,0-2.77,0.45-3.62,1.35   c-0.85,0.9-1.28,2.18-1.28,3.83v10.76h-1.84v-17.35h1.84v2.05c1.3-1.51,3-2.27,5.11-2.27c1.92,0,3.46,0.55,4.61,1.66   c1.2,1.15,1.8,2.76,1.8,4.82v11.09H556.58z"
   id="path104" />&#10;	<path
   class="st7"
   d="M575.41,239.72v-1.73c-0.74,0.74-1.51,1.25-2.29,1.53c-0.78,0.28-1.78,0.41-3.01,0.41   c-1.3,0-2.33-0.12-3.11-0.36c-0.78-0.24-1.45-0.65-2-1.22c-0.41-0.41-0.72-0.91-0.94-1.51s-0.32-1.22-0.32-1.87   c0-1.58,0.53-2.81,1.6-3.69c1.07-0.88,2.55-1.31,4.45-1.31h5.62v-1.94c0-1.39-0.37-2.45-1.12-3.17c-0.75-0.72-2-1.08-3.78-1.08   c-1.22,0-2.19,0.17-2.9,0.5c-0.71,0.34-1.34,0.9-1.89,1.69l-1.33-1.15c0.74-1.03,1.6-1.73,2.56-2.11s2.15-0.56,3.56-0.56   c2.3,0,4,0.49,5.09,1.48c1.09,0.98,1.64,2.39,1.64,4.21v11.88H575.41z M575.41,231.44h-5.4c-2.95,0-4.43,1.16-4.43,3.49   c0,1.15,0.36,2,1.08,2.56c0.72,0.55,1.87,0.83,3.46,0.83c0.79,0,1.55-0.07,2.29-0.22c0.73-0.14,1.41-0.52,2.03-1.12   c0.65-0.6,0.97-1.7,0.97-3.31V231.44z"
   id="path106" />&#10;	<path
   class="st7"
   d="M588.22,239.72c-1.42,0-2.47-0.41-3.15-1.22c-0.68-0.82-1.03-1.91-1.03-3.28v-21.13h1.84v21.1   c0,0.98,0.19,1.72,0.56,2.2c0.37,0.48,1.07,0.72,2.11,0.72h1.26v1.62H588.22z"
   id="path108" />&#10;	<path
   class="st7"
   d="M619.25,239.72l-2.23-6.23h-11.95l-2.23,6.23h-2.09l9.43-25.63h1.73l9.43,25.63H619.25z M611.05,216.68   l-5.36,15.08h10.73L611.05,216.68z"
   id="path110" />&#10;	<path
   class="st7"
   d="M636.93,239.72v-10.76c0-1.68-0.41-2.96-1.22-3.85c-0.82-0.89-2-1.33-3.56-1.33c-1.56,0-2.77,0.45-3.62,1.35   c-0.85,0.9-1.28,2.18-1.28,3.83v10.76h-1.84v-17.35h1.84v2.05c1.3-1.51,3-2.27,5.11-2.27c1.92,0,3.46,0.55,4.61,1.66   c1.2,1.15,1.8,2.76,1.8,4.82v11.09H636.93z"
   id="path112" />&#10;	<path
   class="st7"
   d="M650.18,239.72c-1.37,0-2.41-0.43-3.11-1.28c-0.71-0.85-1.06-1.94-1.06-3.26v-11.45h-2.38v-1.37H646v-5.54   h1.84v5.54h3.92v1.37h-3.92v11.48c0,0.91,0.22,1.62,0.65,2.12c0.43,0.5,1.1,0.76,2.02,0.76h1.26v1.62H650.18z"
   id="path114" />&#10;	<path
   class="st7"
   d="M657.09,216.35v-2.27h2.27v2.27H657.09z M657.31,239.72v-17.35h1.84v17.35H657.31z"
   id="path116" />&#10;	<path
   class="st7"
   d="M677.14,238.55c-0.43,0.35-0.87,0.62-1.31,0.83c-0.44,0.2-0.91,0.35-1.4,0.43s-1.04,0.13-1.64,0.13   c-1.18,0-2.24-0.2-3.19-0.61c-0.95-0.41-1.75-1-2.41-1.76c-0.66-0.77-1.16-1.7-1.51-2.81c-0.35-1.1-0.52-2.34-0.52-3.71   c0-1.37,0.17-2.6,0.52-3.71c0.35-1.1,0.85-2.04,1.51-2.81c0.66-0.77,1.46-1.36,2.41-1.76s2.01-0.61,3.19-0.61   c0.6,0,1.15,0.04,1.64,0.13c0.49,0.08,0.96,0.23,1.4,0.43c0.44,0.2,0.88,0.48,1.31,0.83c0.43,0.35,0.89,0.77,1.37,1.28l-1.26,1.15   c-0.74-0.82-1.45-1.39-2.11-1.71c-0.66-0.32-1.45-0.49-2.36-0.49c-0.98,0-1.87,0.19-2.65,0.58s-1.43,0.96-1.96,1.73   c-0.43,0.62-0.74,1.31-0.92,2.07s-0.27,1.72-0.27,2.9s0.09,2.14,0.27,2.9s0.49,1.45,0.92,2.07c0.53,0.77,1.18,1.34,1.96,1.73   c0.78,0.38,1.66,0.58,2.65,0.58c0.46,0,0.88-0.04,1.26-0.11c0.38-0.07,0.75-0.19,1.1-0.36s0.7-0.4,1.04-0.68s0.7-0.63,1.06-1.04   l1.26,1.15C678.03,237.77,677.57,238.2,677.14,238.55z"
   id="path118" />&#10;	<path
   class="st7"
   d="M695.97,234.78c-0.26,1.25-0.85,2.33-1.76,3.24c-0.62,0.62-1.34,1.1-2.14,1.42c-0.8,0.32-1.7,0.49-2.68,0.49   c-1.94,0-3.55-0.64-4.82-1.91c-0.91-0.91-1.5-1.99-1.76-3.24c-0.26-1.25-0.4-2.5-0.4-3.74s0.13-2.5,0.4-3.74   c0.26-1.25,0.85-2.33,1.76-3.24c1.27-1.27,2.88-1.91,4.82-1.91c0.98,0,1.88,0.16,2.68,0.49c0.8,0.32,1.52,0.8,2.14,1.42   c0.91,0.91,1.5,1.99,1.76,3.24s0.4,2.5,0.4,3.74S696.23,233.54,695.97,234.78z M694.49,229.49c-0.02-0.53-0.09-1.05-0.2-1.57   c-0.11-0.52-0.26-1-0.47-1.46c-0.2-0.46-0.49-0.86-0.85-1.22c-0.48-0.48-1.03-0.85-1.64-1.1c-0.61-0.25-1.27-0.38-1.96-0.38   c-1.42,0-2.62,0.49-3.6,1.48c-0.36,0.36-0.64,0.77-0.85,1.22c-0.21,0.46-0.36,0.94-0.47,1.46c-0.11,0.52-0.17,1.04-0.2,1.57   c-0.02,0.53-0.04,1.04-0.04,1.55c0,0.5,0.01,1.02,0.04,1.55c0.02,0.53,0.09,1.05,0.2,1.57c0.11,0.52,0.26,1,0.47,1.46   c0.2,0.46,0.49,0.86,0.85,1.22c0.98,0.98,2.18,1.48,3.6,1.48c0.7,0,1.35-0.13,1.96-0.38c0.61-0.25,1.16-0.62,1.64-1.1   c0.36-0.36,0.64-0.77,0.85-1.22c0.2-0.46,0.36-0.94,0.47-1.46c0.11-0.52,0.17-1.04,0.2-1.57c0.02-0.53,0.04-1.04,0.04-1.55   C694.53,230.54,694.52,230.02,694.49,229.49z"
   id="path120" />&#10;	<path
   class="st7"
   d="M712.13,225.14c-0.53-0.53-1.03-0.89-1.49-1.08s-1.06-0.29-1.78-0.29c-0.74,0-1.4,0.14-1.98,0.43   s-1.06,0.67-1.46,1.15c-0.4,0.48-0.7,1.04-0.9,1.67c-0.2,0.64-0.31,1.3-0.31,2v10.69h-1.84v-17.35h1.84v2.3   c0.5-0.82,1.22-1.44,2.14-1.87c0.92-0.43,1.9-0.65,2.93-0.65c0.84,0,1.59,0.12,2.25,0.36c0.66,0.24,1.3,0.67,1.93,1.3   L712.13,225.14z"
   id="path122" />&#10;	<path
   class="st7"
   d="M726.89,225.14c-0.53-0.53-1.03-0.89-1.49-1.08s-1.06-0.29-1.78-0.29c-0.74,0-1.4,0.14-1.98,0.43   s-1.06,0.67-1.46,1.15c-0.4,0.48-0.7,1.04-0.9,1.67c-0.2,0.64-0.31,1.3-0.31,2v10.69h-1.84v-17.35h1.84v2.3   c0.5-0.82,1.22-1.44,2.14-1.87c0.92-0.43,1.9-0.65,2.93-0.65c0.84,0,1.59,0.12,2.25,0.36c0.66,0.24,1.3,0.67,1.93,1.3   L726.89,225.14z"
   id="path124" />&#10;	<path
   class="st7"
   d="M743.2,239.72v-2.05c-1.3,1.51-3,2.27-5.11,2.27c-1.92,0-3.46-0.55-4.61-1.66c-1.2-1.15-1.8-2.76-1.8-4.82   v-11.09h1.84v10.76c0,1.68,0.41,2.96,1.22,3.85c0.82,0.89,2,1.33,3.56,1.33c1.56,0,2.77-0.45,3.62-1.35   c0.85-0.9,1.28-2.18,1.28-3.83v-10.76h1.84v17.35H743.2z"
   id="path126" />&#10;	<path
   class="st7"
   d="M765.07,235.09c-0.3,1.33-0.89,2.44-1.78,3.33c-0.46,0.46-1.05,0.82-1.78,1.1c-0.73,0.28-1.55,0.41-2.47,0.41   c-0.98,0-1.9-0.16-2.74-0.47c-0.84-0.31-1.64-0.97-2.41-1.98V248h-1.84v-25.63h1.84v2.23c0.77-1.01,1.57-1.67,2.41-1.98   c0.84-0.31,1.75-0.47,2.74-0.47c0.91,0,1.73,0.14,2.47,0.41c0.73,0.28,1.33,0.64,1.78,1.1c0.89,0.89,1.48,2,1.78,3.33   s0.45,2.68,0.45,4.05C765.52,232.41,765.37,233.76,765.07,235.09z M763.52,228.39c-0.11-0.88-0.34-1.66-0.68-2.34   c-0.35-0.68-0.85-1.24-1.49-1.66c-0.65-0.42-1.5-0.63-2.56-0.63c-1.06,0-1.91,0.21-2.56,0.63s-1.15,0.97-1.49,1.66   c-0.35,0.68-0.58,1.46-0.68,2.34c-0.11,0.88-0.16,1.76-0.16,2.65c0,0.91,0.05,1.8,0.16,2.66c0.11,0.86,0.34,1.64,0.68,2.32   c0.35,0.68,0.85,1.24,1.49,1.66s1.5,0.63,2.56,0.63c1.06,0,1.91-0.21,2.56-0.63c0.65-0.42,1.15-0.97,1.49-1.66   c0.35-0.68,0.58-1.46,0.68-2.32c0.11-0.86,0.16-1.75,0.16-2.66C763.68,230.15,763.63,229.27,763.52,228.39z"
   id="path128" />&#10;	<path
   class="st7"
   d="M782.51,238.55c-0.43,0.35-0.87,0.62-1.31,0.83c-0.44,0.2-0.91,0.35-1.4,0.43s-1.04,0.13-1.64,0.13   c-1.18,0-2.24-0.2-3.19-0.61c-0.95-0.41-1.75-1-2.41-1.76c-0.66-0.77-1.16-1.7-1.51-2.81c-0.35-1.1-0.52-2.34-0.52-3.71   c0-1.37,0.17-2.6,0.52-3.71c0.35-1.1,0.85-2.04,1.51-2.81c0.66-0.77,1.46-1.36,2.41-1.76s2.01-0.61,3.19-0.61   c0.6,0,1.15,0.04,1.64,0.13c0.49,0.08,0.96,0.23,1.4,0.43c0.44,0.2,0.88,0.48,1.31,0.83c0.43,0.35,0.89,0.77,1.37,1.28l-1.26,1.15   c-0.74-0.82-1.45-1.39-2.11-1.71c-0.66-0.32-1.45-0.49-2.36-0.49c-0.98,0-1.87,0.19-2.65,0.58s-1.43,0.96-1.96,1.73   c-0.43,0.62-0.74,1.31-0.92,2.07s-0.27,1.72-0.27,2.9s0.09,2.14,0.27,2.9s0.49,1.45,0.92,2.07c0.53,0.77,1.18,1.34,1.96,1.73   c0.78,0.38,1.66,0.58,2.65,0.58c0.46,0,0.88-0.04,1.26-0.11c0.38-0.07,0.75-0.19,1.1-0.36s0.7-0.4,1.04-0.68s0.7-0.63,1.06-1.04   l1.26,1.15C783.4,237.77,782.94,238.2,782.51,238.55z"
   id="path130" />&#10;	<path
   class="st7"
   d="M789.1,216.35v-2.27h2.27v2.27H789.1z M789.32,239.72v-17.35h1.84v17.35H789.32z"
   id="path132" />&#10;	<path
   class="st7"
   d="M810.73,234.78c-0.26,1.25-0.85,2.33-1.76,3.24c-0.62,0.62-1.34,1.1-2.14,1.42c-0.8,0.32-1.7,0.49-2.68,0.49   c-1.94,0-3.55-0.64-4.82-1.91c-0.91-0.91-1.5-1.99-1.76-3.24c-0.26-1.25-0.4-2.5-0.4-3.74s0.13-2.5,0.4-3.74   c0.26-1.25,0.85-2.33,1.76-3.24c1.27-1.27,2.88-1.91,4.82-1.91c0.98,0,1.88,0.16,2.68,0.49c0.8,0.32,1.52,0.8,2.14,1.42   c0.91,0.91,1.5,1.99,1.76,3.24s0.4,2.5,0.4,3.74S811,233.54,810.73,234.78z M809.26,229.49c-0.02-0.53-0.09-1.05-0.2-1.57   c-0.11-0.52-0.26-1-0.47-1.46c-0.2-0.46-0.49-0.86-0.85-1.22c-0.48-0.48-1.03-0.85-1.64-1.1c-0.61-0.25-1.27-0.38-1.96-0.38   c-1.42,0-2.62,0.49-3.6,1.48c-0.36,0.36-0.64,0.77-0.85,1.22c-0.21,0.46-0.36,0.94-0.47,1.46c-0.11,0.52-0.17,1.04-0.2,1.57   c-0.02,0.53-0.04,1.04-0.04,1.55c0,0.5,0.01,1.02,0.04,1.55c0.02,0.53,0.09,1.05,0.2,1.57c0.11,0.52,0.26,1,0.47,1.46   c0.2,0.46,0.49,0.86,0.85,1.22c0.98,0.98,2.18,1.48,3.6,1.48c0.7,0,1.35-0.13,1.96-0.38c0.61-0.25,1.16-0.62,1.64-1.1   c0.36-0.36,0.64-0.77,0.85-1.22c0.2-0.46,0.36-0.94,0.47-1.46c0.11-0.52,0.17-1.04,0.2-1.57c0.02-0.53,0.04-1.04,0.04-1.55   C809.3,230.54,809.28,230.02,809.26,229.49z M804.54,218.48h-2.09l3.49-5.29h2.41L804.54,218.48z"
   id="path134" />&#10;	<path
   class="st7"
   d="M828.66,239.72v-10.76c0-1.68-0.41-2.96-1.22-3.85c-0.82-0.89-2-1.33-3.56-1.33c-1.56,0-2.77,0.45-3.62,1.35   c-0.85,0.9-1.28,2.18-1.28,3.83v10.76h-1.84v-17.35h1.84v2.05c1.3-1.51,3-2.27,5.11-2.27c1.92,0,3.46,0.55,4.61,1.66   c1.2,1.15,1.8,2.76,1.8,4.82v11.09H828.66z"
   id="path136" />&#10;	<path
   class="st7"
   d="M849.58,243.1c-0.55-0.55-1.01-1.03-1.39-1.44s-0.7-0.89-0.99-1.44s-0.47-1.1-0.56-1.66   c-0.08-0.55-0.13-1.12-0.13-1.69v-19.94c0-0.58,0.04-1.14,0.13-1.69c0.08-0.55,0.27-1.1,0.56-1.66c0.29-0.55,0.62-1.03,0.99-1.44   s0.83-0.89,1.39-1.44l1.26,1.26c-0.41,0.41-0.78,0.79-1.12,1.13c-0.34,0.35-0.61,0.75-0.83,1.21c-0.36,0.77-0.54,1.72-0.54,2.84   v19.51c0,1.15,0.18,2.1,0.54,2.84c0.22,0.46,0.49,0.86,0.83,1.21c0.34,0.35,0.71,0.73,1.12,1.13L849.58,243.1z"
   id="path138" />&#10;	<path
   class="st7"
   d="M873.79,224.6c-0.4,0.91-0.94,1.69-1.62,2.32c-0.68,0.64-1.5,1.12-2.45,1.44s-1.97,0.49-3.08,0.49h-7.45v10.87   h-1.94v-25.63h9.4c1.1,0,2.13,0.17,3.08,0.5s1.76,0.82,2.45,1.44c0.68,0.62,1.22,1.39,1.62,2.3c0.4,0.91,0.59,1.96,0.59,3.13   S874.18,223.68,873.79,224.6z M871.99,218.96c-0.3-0.71-0.71-1.3-1.24-1.76c-0.53-0.47-1.16-0.82-1.89-1.04   c-0.73-0.23-1.54-0.34-2.43-0.34h-7.24v11.3h7.24c0.89,0,1.7-0.11,2.43-0.34c0.73-0.23,1.36-0.58,1.89-1.04   c0.53-0.47,0.94-1.06,1.24-1.76c0.3-0.71,0.45-1.54,0.45-2.5S872.29,219.67,871.99,218.96z"
   id="path140" />&#10;	<path
   class="st7"
   d="M880,239.72v-25.63h1.94v25.63H880z"
   id="path142" />&#10;	<path
   class="st7"
   d="M888.89,231.08v-1.69h9.43v1.69H888.89z"
   id="path144" />&#10;	<path
   class="st7"
   d="M921.81,224.6c-0.4,0.91-0.94,1.69-1.62,2.32c-0.68,0.64-1.5,1.12-2.45,1.44s-1.97,0.49-3.08,0.49h-7.45v10.87   h-1.94v-25.63h9.4c1.1,0,2.13,0.17,3.08,0.5s1.76,0.82,2.45,1.44c0.68,0.62,1.22,1.39,1.62,2.3c0.4,0.91,0.59,1.96,0.59,3.13   S922.21,223.68,921.81,224.6z M920.01,218.96c-0.3-0.71-0.71-1.3-1.24-1.76c-0.53-0.47-1.16-0.82-1.89-1.04   c-0.73-0.23-1.54-0.34-2.43-0.34h-7.24v11.3h7.24c0.89,0,1.7-0.11,2.43-0.34c0.73-0.23,1.36-0.58,1.89-1.04   c0.53-0.47,0.94-1.06,1.24-1.76c0.3-0.71,0.45-1.54,0.45-2.5S920.31,219.67,920.01,218.96z"
   id="path146" />&#10;	<path
   class="st7"
   d="M944.76,239.72l-14.8-22.28v22.28h-1.94v-25.63h1.94l14.8,22.21v-22.21h1.94v25.63H944.76z"
   id="path148" />&#10;	<path
   class="st7"
   d="M969.74,239.72l-2.23-6.23h-11.95l-2.23,6.23h-2.09l9.43-25.63h1.73l9.43,25.63H969.74z M961.54,216.68   l-5.36,15.08h10.73L961.54,216.68z"
   id="path150" />&#10;	<path
   class="st7"
   d="M979.03,238.56c-0.07,0.55-0.26,1.1-0.58,1.66c-0.29,0.55-0.62,1.03-0.99,1.44s-0.83,0.89-1.39,1.44   l-1.33-1.33c0.41-0.41,0.78-0.79,1.12-1.13c0.34-0.35,0.61-0.75,0.83-1.21c0.19-0.38,0.32-0.8,0.4-1.26   c0.07-0.46,0.11-0.96,0.11-1.51v-19.51c0-0.55-0.04-1.06-0.11-1.51c-0.07-0.46-0.2-0.88-0.4-1.26c-0.22-0.46-0.49-0.86-0.83-1.21   c-0.34-0.35-0.71-0.73-1.12-1.13l1.33-1.33c0.55,0.55,1.01,1.03,1.39,1.44s0.7,0.89,0.99,1.44c0.31,0.55,0.5,1.1,0.58,1.66   c0.07,0.55,0.11,1.12,0.11,1.69v19.94C979.14,237.45,979.11,238.01,979.03,238.56z"
   id="path152" />&#10;</g>&#10;<g
   id="g166">&#10;	<path
   class="st1"
   d="M280.86,211h2.92c8.06,0,14.36-2.07,18.92-6.21c4.55-4.14,6.83-9.87,6.83-17.18c0-6.93-2.25-12.52-6.75-16.75   c-4.5-4.23-10.46-6.35-17.88-6.35h-29.68v46.58L280.86,211z"
   id="path156" />&#10;	<rect
   x="279.83"
   y="212.51"
   class="st2"
   width="16.36"
   height="26.77"
   id="rect158" />&#10;	<rect
   x="255.29"
   y="212.59"
   class="st3"
   width="19.06"
   height="12.7"
   id="rect160" />&#10;	<rect
   x="255.23"
   y="226.72"
   class="st4"
   width="19.12"
   height="12.54"
   id="rect162" />&#10;	<circle
   class="st5"
   cx="287.73"
   cy="200.02"
   r="7.27"
   id="circle164" />&#10;</g>&#10;&#10;&#10;&#10;</svg>
