<?xml version="1.0" encoding="utf-8"?>
<!-- Generator: Adobe Illustrator 26.0.2, SVG Export Plug-In . SVG Version: 6.00 Build 0)  -->
<svg version="1.1" id="Capa_1" xmlns="http://www.w3.org/2000/svg" xmlns:xlink="http://www.w3.org/1999/xlink" x="0px" y="0px"
	 viewBox="0 0 888.81 101.37" style="enable-background:new 0 0 888.81 101.37;" xml:space="preserve">
<style type="text/css">
	.st0{clip-path:url(#SVGID_00000070079678513649483660000003694726848379560833_);}
	.st1{fill:#6CC72B;}
	.st2{fill:#74598F;}
	.st3{fill:#3E90C5;}
	.st4{fill:#E24486;}
	.st5{fill:#FFFFFF;}
	.st6{fill:none;}
	.st7{fill:#857F7B;}
	.st8{fill:none;stroke:#74598F;stroke-miterlimit:10;}
	.st9{fill:#575756;}
	.st10{fill:none;stroke:#82CCD8;stroke-width:2;stroke-miterlimit:10;}
	.st11{fill:url(#SVGID_00000015328349322320405190000012258923482555205025_);stroke:#6CC72B;stroke-width:3;stroke-miterlimit:10;}
	.st12{fill:#6CC72B;stroke:#6CC72B;stroke-width:3;stroke-miterlimit:10;}
	.st13{fill:#006633;}
	.st14{fill:url(#SVGID_00000039091755016022687790000012229825223056671905_);stroke:#3E90C5;stroke-width:3;stroke-miterlimit:10;}
	.st15{fill:#3E90C5;stroke:#3E90C5;stroke-width:3;stroke-miterlimit:10;}
	.st16{fill:#4390C3;}
	.st17{fill:url(#SVGID_00000066478585105533774930000003000821418220897693_);stroke:#74598F;stroke-width:5;stroke-miterlimit:10;}
	.st18{fill:#74598F;stroke:#74598F;stroke-miterlimit:10;}
	.st19{fill:url(#SVGID_00000167398738018018324180000017427114799805904300_);stroke:#E04264;stroke-width:5;stroke-miterlimit:10;}
	.st20{fill:#E24486;stroke:#E04264;stroke-miterlimit:10;}
	.st21{fill:#CBBBA0;}
	.st22{fill:#3AAA35;}
	.st23{fill:#2D2E83;}
	.st24{fill:#9D9D9C;}
	.st25{clip-path:url(#SVGID_00000159469156968016701140000016351918408450466468_);fill:#857F7B;}
	.st26{clip-path:url(#SVGID_00000009557882236295471320000010799374349579315089_);fill:#857F7B;}
	.st27{clip-path:url(#SVGID_00000137132987952604917550000016739670869257604229_);fill:#857F7B;}
	.st28{clip-path:url(#SVGID_00000018945133942910775920000001650506666396383411_);fill:#6CC72B;}
	.st29{clip-path:url(#SVGID_00000018945133942910775920000001650506666396383411_);fill:#74598F;}
	.st30{fill:#046C76;}
	.st31{fill:#F29177;}
	.st32{fill:#E71D73;}
</style>
<g>
	<path class="st9" d="M39.79,39.4c-0.63,1.12-1,2.35-1,3.66v12.05c0,4.91,5.01,8.92,11.13,8.92h774.42l-5.56,4.46l-2.32,1.86
		c-4.32,3.47-4.32,9.15,0,12.62l9.49,7.61c4.32,3.46,11.37,3.47,15.71,0.02c0.01-0.01,0.02-0.02,0.03-0.02l17.38-13.94l1.27-1.02
		c2.72-2.18,6.55-5.25,10.08-8.08c0.04-0.04,0.09-0.07,0.13-0.11c2.03-1.63,3.96-3.17,5.52-4.43l3.97-3.18l5.51-4.42
		c4.33-3.47,4.33-9.15,0-12.62l-9.49-7.61c-4.33-3.47-11.41-9.15-15.74-12.62L841.69,7.6c-4.33-3.47-11.41-3.47-15.74,0l-9.49,7.61
		c0,0-0.01,0.01-0.01,0.01c-4.31,3.47-4.3,9.14,0.01,12.6l7.88,6.32h-11.13H49.93C45.43,34.14,41.55,36.31,39.79,39.4z"/>
	<path class="st2" d="M82.48,80.21H16.2C7.25,80.21,0,72.96,0,64.01v-32.2c0-8.95,7.25-16.2,16.2-16.2h66.28
		c8.95,0,16.2,7.25,16.2,16.2v32.2C98.68,72.96,91.43,80.21,82.48,80.21z"/>
	<path class="st2" d="M213.37,80.51h-87.45c-8.95,0-16.2-7.25-16.2-16.2V32.84c0-8.95,7.25-16.2,16.2-16.2h87.45
		c8.95,0,16.2,7.25,16.2,16.2v31.47C229.57,73.26,222.31,80.51,213.37,80.51z"/>
	<path class="st2" d="M355.27,82.96H252.95c-8.95,0-16.2-7.25-16.2-16.2V31.79c0-8.95,7.25-16.2,16.2-16.2h102.32
		c8.95,0,16.2,7.25,16.2,16.2v34.97C371.47,75.71,364.22,82.96,355.27,82.96z"/>
	<path class="st2" d="M474.67,84.02h-76.88c-8.95,0-16.2-7.25-16.2-16.2v-38.5c0-8.95,7.25-16.2,16.2-16.2h76.88
		c8.95,0,16.2,7.25,16.2,16.2v38.5C490.87,76.77,483.62,84.02,474.67,84.02z"/>
	<g>
		<path class="st5" d="M28.91,36.18v3.12h-6.13v6.65h-3.52V29.4h10.68v3.12h-7.16v3.66H28.91z"/>
		<path class="st5" d="M43.34,45.95h-3.73l-0.98-3.12h-5.2l-0.98,3.12h-3.71l5.88-16.55h2.82L43.34,45.95z M37.65,39.82l-1.63-5.13
			l-1.61,5.13H37.65z"/>
		<path class="st5" d="M43.43,40.59h3.36c0.09,0.93,0.35,1.58,0.79,1.93c0.4,0.33,1.05,0.49,1.89,0.49c1.61,0,2.35-0.61,2.35-1.89
			c0-0.58-0.14-1-0.44-1.28c-0.3-0.3-0.82-0.51-1.52-0.63l-1.52-0.26c-3.01-0.51-4.55-2.08-4.55-4.71c0-1.56,0.51-2.8,1.56-3.73
			c1.03-0.91,2.4-1.35,4.08-1.35c1.63,0,2.96,0.44,3.92,1.33c1.03,0.91,1.59,2.24,1.68,3.94h-3.43c0-0.84-0.21-1.42-0.61-1.77
			c-0.35-0.3-0.89-0.47-1.61-0.47c-0.75,0-1.28,0.16-1.63,0.49c-0.37,0.33-0.54,0.75-0.54,1.33c0,0.49,0.16,0.89,0.47,1.17
			c0.3,0.28,0.82,0.49,1.56,0.63l1.7,0.3c2.87,0.51,4.34,2.12,4.34,4.76c0,1.68-0.54,2.98-1.63,3.89c-1.07,0.89-2.52,1.33-4.34,1.33
			c-1.77,0-3.17-0.44-4.2-1.35C44.09,43.78,43.53,42.41,43.43,40.59z"/>
		<path class="st5" d="M66.65,36.04v3.12h-6.11v3.66h7.16v3.12H57.03V29.4H67.7v3.12h-7.16v3.52H66.65z"/>
		<path class="st5" d="M74.23,31.54l2.87-2.14h3.36v16.55h-3.52V33.48l-2.7,1.96V31.54z"/>
	</g>
	<g>
		<path class="st5" d="M142.58,30.89v3.22h-6.31v6.84h-3.62V23.91h10.99v3.22h-7.37v3.77H142.58z"/>
		<path class="st5" d="M157.44,40.95h-3.84l-1.01-3.22h-5.35l-1.01,3.22h-3.82l6.05-17.04h2.9L157.44,40.95z M151.58,34.64
			l-1.68-5.28l-1.66,5.28H151.58z"/>
		<path class="st5" d="M157.53,35.43h3.46c0.1,0.96,0.36,1.63,0.82,1.99c0.41,0.34,1.08,0.5,1.94,0.5c1.66,0,2.42-0.62,2.42-1.94
			c0-0.6-0.14-1.03-0.46-1.32c-0.31-0.31-0.84-0.53-1.56-0.65l-1.56-0.26c-3.1-0.53-4.68-2.14-4.68-4.85c0-1.61,0.53-2.88,1.61-3.84
			c1.06-0.94,2.47-1.39,4.2-1.39c1.68,0,3.05,0.46,4.03,1.37c1.06,0.94,1.63,2.3,1.73,4.06h-3.53c0-0.86-0.22-1.46-0.62-1.82
			c-0.36-0.31-0.91-0.48-1.66-0.48c-0.77,0-1.32,0.17-1.68,0.5c-0.38,0.34-0.55,0.77-0.55,1.37c0,0.5,0.17,0.91,0.48,1.2
			s0.84,0.5,1.61,0.65l1.75,0.31c2.95,0.53,4.46,2.18,4.46,4.9c0,1.73-0.55,3.07-1.68,4.01c-1.1,0.91-2.59,1.37-4.46,1.37
			c-1.82,0-3.26-0.46-4.32-1.39C158.2,38.72,157.63,37.3,157.53,35.43z"/>
		<path class="st5" d="M181.43,30.75v3.22h-6.29v3.77h7.37v3.22h-10.99V23.91h10.99v3.22h-7.37v3.62H181.43z"/>
		<path class="st5" d="M195.93,28.76v-0.34c0-0.53-0.14-0.91-0.41-1.2s-0.62-0.43-1.08-0.43s-0.82,0.14-1.06,0.46
			c-0.26,0.29-0.41,0.72-0.41,1.3v0.62h-3.53v-0.82c0-0.89,0.22-1.7,0.62-2.42c0.41-0.72,1.01-1.27,1.78-1.68
			c0.79-0.41,1.68-0.6,2.71-0.6c0.98,0,1.87,0.22,2.64,0.62c0.77,0.43,1.37,0.98,1.78,1.7c0.41,0.72,0.62,1.51,0.62,2.35v0.41
			c0,0.74-0.12,1.44-0.41,2.09c-0.26,0.62-0.65,1.25-1.15,1.92l-3.84,4.97h5.4v3.24h-10.08v-2.81l5.54-7.2
			C195.64,30.17,195.93,29.43,195.93,28.76z"/>
	</g>
	<path class="st2" d="M794.57,83.68H517.64c-8.95,0-16.2-7.25-16.2-16.2V30.69c0-8.95,7.25-16.2,16.2-16.2h276.93
		c8.95,0,16.2,7.25,16.2,16.2v36.79C810.77,76.43,803.52,83.68,794.57,83.68z"/>
	<g>
		<path class="st5" d="M277.18,31.59v3.22h-6.31v6.84h-3.62V24.61h10.99v3.22h-7.37v3.77H277.18z"/>
		<path class="st5" d="M292.03,41.65h-3.84l-1.01-3.22h-5.35l-1.01,3.22h-3.82l6.05-17.04h2.9L292.03,41.65z M286.18,35.34
			l-1.68-5.28l-1.66,5.28H286.18z"/>
		<path class="st5" d="M292.13,36.13h3.46c0.1,0.96,0.36,1.63,0.82,1.99c0.41,0.34,1.08,0.5,1.94,0.5c1.66,0,2.42-0.62,2.42-1.94
			c0-0.6-0.14-1.03-0.46-1.32c-0.31-0.31-0.84-0.53-1.56-0.65l-1.56-0.26c-3.1-0.53-4.68-2.14-4.68-4.85c0-1.61,0.53-2.88,1.61-3.84
			c1.06-0.94,2.47-1.39,4.2-1.39c1.68,0,3.05,0.46,4.03,1.37c1.06,0.94,1.63,2.3,1.73,4.06h-3.53c0-0.86-0.22-1.46-0.62-1.82
			c-0.36-0.31-0.91-0.48-1.66-0.48c-0.77,0-1.32,0.17-1.68,0.5c-0.38,0.34-0.55,0.77-0.55,1.37c0,0.5,0.17,0.91,0.48,1.2
			s0.84,0.5,1.61,0.65l1.75,0.31c2.95,0.53,4.46,2.18,4.46,4.9c0,1.73-0.55,3.07-1.68,4.01c-1.1,0.91-2.59,1.37-4.46,1.37
			c-1.82,0-3.26-0.46-4.32-1.39C292.8,39.42,292.22,38,292.13,36.13z"/>
		<path class="st5" d="M316.03,31.45v3.22h-6.29v3.77h7.37v3.22h-10.99V24.61h10.99v3.22h-7.37v3.62H316.03z"/>
		<path class="st5" d="M324.05,37.4v-0.74h3.41v0.6c0,0.5,0.14,0.89,0.41,1.13c0.29,0.26,0.7,0.38,1.27,0.38
			c0.53,0,0.94-0.17,1.22-0.5c0.31-0.34,0.46-0.79,0.46-1.39v-0.43c0-0.65-0.17-1.15-0.48-1.49c-0.34-0.34-0.79-0.5-1.44-0.5h-1.08
			v-3.14h1.06c0.55,0,0.96-0.14,1.25-0.46c0.29-0.31,0.43-0.74,0.43-1.3v-0.36c0-0.55-0.14-0.96-0.41-1.27
			c-0.26-0.29-0.62-0.43-1.1-0.43c-0.5,0-0.86,0.12-1.13,0.38c-0.26,0.29-0.38,0.65-0.38,1.13v0.65h-3.36V29
			c0-1.46,0.46-2.62,1.34-3.43c0.89-0.82,2.11-1.22,3.65-1.22c1.51,0,2.71,0.41,3.6,1.25s1.32,1.97,1.32,3.36v0.36
			c0,0.74-0.17,1.44-0.53,2.06c-0.29,0.48-0.67,0.89-1.15,1.2c0.58,0.31,1.01,0.77,1.34,1.34c0.41,0.7,0.6,1.54,0.6,2.5v0.46
			c0,1.01-0.22,1.9-0.65,2.66c-0.46,0.77-1.08,1.34-1.85,1.75c-0.79,0.43-1.68,0.62-2.66,0.62c-1.61,0-2.86-0.38-3.77-1.18
			S324.05,38.82,324.05,37.4z"/>
	</g>
	<g>
		<path class="st5" d="M412.52,30.89v3.22h-6.31v6.84h-3.62V23.91h10.99v3.22h-7.37v3.77H412.52z"/>
		<path class="st5" d="M427.38,40.95h-3.84l-1.01-3.22h-5.35l-1.01,3.22h-3.82l6.05-17.04h2.9L427.38,40.95z M421.52,34.63
			l-1.68-5.28l-1.66,5.28H421.52z"/>
		<path class="st5" d="M427.47,35.43h3.46c0.1,0.96,0.36,1.63,0.82,1.99c0.41,0.34,1.08,0.5,1.94,0.5c1.66,0,2.42-0.62,2.42-1.94
			c0-0.6-0.14-1.03-0.46-1.32c-0.31-0.31-0.84-0.53-1.56-0.65l-1.56-0.26c-3.1-0.53-4.68-2.14-4.68-4.85c0-1.61,0.53-2.88,1.61-3.84
			c1.06-0.94,2.47-1.39,4.2-1.39c1.68,0,3.05,0.46,4.03,1.37c1.06,0.94,1.63,2.3,1.73,4.06h-3.53c0-0.86-0.22-1.46-0.62-1.82
			c-0.36-0.31-0.91-0.48-1.66-0.48c-0.77,0-1.32,0.17-1.68,0.5c-0.38,0.34-0.55,0.77-0.55,1.37c0,0.5,0.17,0.91,0.48,1.2
			s0.84,0.5,1.61,0.65l1.75,0.31c2.95,0.53,4.46,2.18,4.46,4.9c0,1.73-0.55,3.07-1.68,4.01c-1.1,0.91-2.59,1.37-4.46,1.37
			c-1.82,0-3.26-0.46-4.32-1.39C428.14,38.71,427.57,37.3,427.47,35.43z"/>
		<path class="st5" d="M451.38,30.75v3.22h-6.29v3.77h7.37v3.22h-10.99V23.91h10.99v3.22h-7.37v3.62H451.38z"/>
		<path class="st5" d="M469.11,40.95h-3.62v-2.64h-6.34v-3.05l4.8-11.35h3.67l-4.73,11.16h2.59v-3.89h3.62v3.89h1.34v3.24h-1.34
			V40.95z"/>
	</g>
	<g>
		<path class="st5" d="M638.02,30.89v3.22h-6.31v6.84h-3.62V23.91h10.99v3.22h-7.37v3.77H638.02z"/>
		<path class="st5" d="M652.88,40.95h-3.84l-1.01-3.22h-5.35l-1.01,3.22h-3.82l6.05-17.04h2.9L652.88,40.95z M647.02,34.63
			l-1.68-5.28l-1.66,5.28H647.02z"/>
		<path class="st5" d="M652.97,35.43h3.46c0.1,0.96,0.36,1.63,0.82,1.99c0.41,0.34,1.08,0.5,1.94,0.5c1.66,0,2.42-0.62,2.42-1.94
			c0-0.6-0.14-1.03-0.46-1.32c-0.31-0.31-0.84-0.53-1.56-0.65l-1.56-0.26c-3.1-0.53-4.68-2.14-4.68-4.85c0-1.61,0.53-2.88,1.61-3.84
			c1.06-0.94,2.47-1.39,4.2-1.39c1.68,0,3.05,0.46,4.03,1.37c1.06,0.94,1.63,2.3,1.73,4.06h-3.53c0-0.86-0.22-1.46-0.62-1.82
			c-0.36-0.31-0.91-0.48-1.66-0.48c-0.77,0-1.32,0.17-1.68,0.5c-0.38,0.34-0.55,0.77-0.55,1.37c0,0.5,0.17,0.91,0.48,1.2
			s0.84,0.5,1.61,0.65l1.75,0.31c2.95,0.53,4.46,2.18,4.46,4.9c0,1.73-0.55,3.07-1.68,4.01c-1.1,0.91-2.59,1.37-4.46,1.37
			c-1.82,0-3.26-0.46-4.32-1.39C653.65,38.71,653.07,37.3,652.97,35.43z"/>
		<path class="st5" d="M676.88,30.75v3.22h-6.29v3.77h7.37v3.22h-10.99V23.91h10.99v3.22h-7.37v3.62H676.88z"/>
		<path class="st5" d="M685.01,36.89v-0.6h3.36v0.38c0,0.46,0.14,0.77,0.41,1.03c0.26,0.24,0.65,0.36,1.15,0.36
			c0.53,0,0.91-0.17,1.18-0.5c0.24-0.34,0.38-0.86,0.38-1.56v-1.25c0-0.72-0.14-1.27-0.38-1.58c-0.26-0.34-0.65-0.48-1.2-0.48
			c-0.77,0-1.25,0.36-1.54,1.13h-3.12v-9.91h9.43v3.17h-6.24v3.05c0.6-0.36,1.3-0.55,2.11-0.55c1.46,0,2.57,0.43,3.34,1.32
			c0.74,0.86,1.13,2.11,1.13,3.7v1.56c0,1.58-0.46,2.83-1.34,3.72c-0.91,0.89-2.16,1.34-3.74,1.34c-1.49,0-2.69-0.38-3.58-1.13
			C685.47,39.31,685.01,38.23,685.01,36.89z"/>
	</g>
	<g>
		<rect x="6.45" y="56.96" class="st6" width="86.95" height="24.58"/>
		<path class="st5" d="M27.43,59.82c0,0.85-0.27,1.53-0.81,2.03c-0.53,0.5-1.25,0.76-2.17,0.76h-1.48v3.31h-1.91v-8.97h3.39
			c0.92,0,1.64,0.25,2.17,0.77C27.17,58.23,27.43,58.93,27.43,59.82z M25.52,59.82c0-0.39-0.1-0.68-0.3-0.87
			c-0.19-0.2-0.48-0.3-0.85-0.3h-1.4v2.26h1.4c0.37,0,0.64-0.09,0.85-0.28C25.42,60.44,25.52,60.17,25.52,59.82z"/>
		<path class="st5" d="M28.16,63.8v-6.85h1.82v6.75c0,0.24,0.04,0.4,0.11,0.49c0.08,0.09,0.19,0.13,0.38,0.13h0.66v1.6h-0.85
			c-0.67,0-1.19-0.19-1.57-0.56C28.35,65,28.16,64.47,28.16,63.8z"/>
		<path class="st5" d="M37,61.47v4.45h-1.77v-0.4c-0.16,0.14-0.33,0.24-0.49,0.32C34.49,65.95,34.17,66,33.81,66
			c-0.71,0-1.26-0.19-1.65-0.58c-0.39-0.38-0.59-0.92-0.59-1.59c0-0.62,0.21-1.12,0.63-1.49c0.43-0.37,1.01-0.54,1.74-0.54h1.26
			V61.4c0-0.63-0.29-0.92-0.92-0.92c-0.27,0-0.47,0.06-0.62,0.19c-0.14,0.13-0.21,0.28-0.21,0.49v0.16h-1.71v-0.18
			c0-0.66,0.24-1.17,0.71-1.55c0.46-0.38,1.07-0.57,1.84-0.57c0.86,0,1.53,0.2,2.01,0.62C36.76,60.06,37,60.68,37,61.47z
			 M35.2,63.46v-0.34h-1.01c-0.59,0-0.86,0.21-0.86,0.67c0,0.48,0.27,0.69,0.83,0.69c0.38,0,0.64-0.09,0.8-0.24
			C35.12,64.08,35.2,63.81,35.2,63.46z"/>
		<path class="st5" d="M39.89,59.52c0.16-0.13,0.33-0.23,0.53-0.32c0.29-0.11,0.59-0.18,0.9-0.18c0.71,0,1.26,0.23,1.67,0.67
			c0.39,0.46,0.58,1.06,0.58,1.82v4.41h-1.82V61.7c0-0.34-0.09-0.59-0.24-0.77c-0.16-0.18-0.38-0.27-0.66-0.27
			c-0.27,0-0.49,0.09-0.66,0.27c-0.18,0.18-0.27,0.43-0.27,0.77v4.22h-1.82V59.1h1.78V59.52z"/>
		<path class="st5" d="M46.37,63.1v0.05c0,0.46,0.1,0.77,0.29,0.96s0.48,0.28,0.85,0.28c0.28,0,0.51-0.06,0.66-0.18
			c0.15-0.1,0.23-0.25,0.24-0.47l0.05-0.14h1.71v0.19c0,0.66-0.25,1.2-0.75,1.6C48.94,65.8,48.28,66,47.45,66
			c-0.87,0-1.58-0.25-2.1-0.76c-0.52-0.52-0.78-1.29-0.78-2.34v-0.8c0-1.02,0.25-1.78,0.76-2.3c0.51-0.52,1.2-0.78,2.07-0.78
			c0.86,0,1.54,0.26,2.06,0.78c0.51,0.52,0.76,1.29,0.76,2.3v1H46.37z M46.64,60.89c-0.16,0.16-0.25,0.47-0.27,0.88h2.02v-0.04
			c0-0.77-0.32-1.12-1-1.12C47.05,60.62,46.8,60.7,46.64,60.89z"/>
		<path class="st5" d="M56.43,61.47v4.45h-1.77v-0.4c-0.16,0.14-0.33,0.24-0.49,0.32C53.91,65.95,53.6,66,53.23,66
			c-0.71,0-1.26-0.19-1.66-0.58c-0.39-0.38-0.59-0.92-0.59-1.59c0-0.62,0.21-1.12,0.63-1.49c0.43-0.37,1.01-0.54,1.74-0.54h1.26
			V61.4c0-0.63-0.29-0.92-0.92-0.92c-0.27,0-0.47,0.06-0.62,0.19c-0.14,0.13-0.21,0.28-0.21,0.49v0.16h-1.71v-0.18
			c0-0.66,0.24-1.17,0.71-1.55c0.45-0.38,1.07-0.57,1.84-0.57c0.86,0,1.53,0.2,2.01,0.62C56.19,60.06,56.43,60.68,56.43,61.47z
			 M54.62,63.46v-0.34h-1.01c-0.59,0-0.86,0.21-0.86,0.67c0,0.48,0.27,0.69,0.83,0.69c0.38,0,0.64-0.09,0.8-0.24
			C54.54,64.08,54.62,63.81,54.62,63.46z"/>
		<path class="st5" d="M57.42,63.12v-1.23c0-0.97,0.25-1.69,0.76-2.16c0.49-0.47,1.17-0.71,2.03-0.71c0.83,0,1.5,0.21,1.98,0.66
			c0.48,0.43,0.72,1.04,0.72,1.81v0.25h-1.74v-0.2c0-0.28-0.08-0.49-0.24-0.64c-0.16-0.15-0.39-0.23-0.69-0.23
			c-0.68,0-1.01,0.4-1.01,1.25v1.19c0,0.47,0.09,0.8,0.27,0.97c0.18,0.19,0.42,0.28,0.75,0.28c0.3,0,0.53-0.08,0.69-0.21
			c0.16-0.15,0.24-0.35,0.24-0.62v-0.2h1.74v0.21c0,0.76-0.24,1.36-0.72,1.81C61.72,65.78,61.05,66,60.21,66
			c-0.86,0-1.54-0.24-2.03-0.71C57.67,64.82,57.42,64.09,57.42,63.12z"/>
		<path class="st5" d="M65.79,58.45h-1.84v-1.5h1.84V58.45z M65.78,65.92h-1.81V59.1h1.81V65.92z"/>
		<path class="st5" d="M66.84,63.12v-1.23c0-0.97,0.25-1.69,0.76-2.16c0.49-0.47,1.17-0.71,2.03-0.71c0.85,0,1.53,0.24,2.02,0.71
			s0.75,1.19,0.75,2.16v1.23c0,0.97-0.25,1.71-0.75,2.17C71.16,65.76,70.48,66,69.63,66c-0.86,0-1.54-0.24-2.03-0.71
			C67.09,64.82,66.84,64.09,66.84,63.12z M69.86,58.49h-1.67l1.57-1.93h2.11L69.86,58.49z M69.63,60.67c-0.67,0-0.99,0.4-0.99,1.25
			v1.19c0,0.85,0.32,1.25,0.99,1.25c0.64,0,0.96-0.4,0.96-1.25v-1.19C70.59,61.07,70.28,60.67,69.63,60.67z"/>
		<path class="st5" d="M75.18,59.52c0.16-0.13,0.33-0.23,0.53-0.32c0.29-0.11,0.59-0.18,0.9-0.18c0.71,0,1.26,0.23,1.67,0.67
			c0.39,0.46,0.58,1.06,0.58,1.82v4.41h-1.82V61.7c0-0.34-0.09-0.59-0.24-0.77c-0.16-0.18-0.38-0.27-0.66-0.27
			c-0.27,0-0.49,0.09-0.66,0.27c-0.18,0.18-0.27,0.43-0.27,0.77v4.22H73.4V59.1h1.78V59.52z"/>
	</g>
	<g>
		<rect x="98.68" y="47.05" class="st6" width="131.73" height="27.87"/>
		<path class="st5" d="M125.08,50c0,0.87-0.27,1.57-0.83,2.09c-0.55,0.52-1.29,0.78-2.24,0.78h-1.52v3.41h-1.96v-9.23h3.48
			c0.95,0,1.69,0.26,2.24,0.79C124.81,48.36,125.08,49.09,125.08,50z M123.12,50c0-0.4-0.1-0.7-0.31-0.9
			c-0.19-0.21-0.49-0.31-0.87-0.31h-1.44v2.33h1.44c0.38,0,0.66-0.09,0.87-0.29C123.02,50.63,123.12,50.36,123.12,50z"/>
		<path class="st5" d="M129.82,49.19v1.79c-0.35-0.13-0.68-0.2-0.94-0.2c-0.35,0-0.64,0.1-0.85,0.33c-0.22,0.22-0.32,0.55-0.32,0.97
			v4.19h-1.87v-7.02h1.83v0.44c0.13-0.16,0.3-0.27,0.48-0.36c0.3-0.14,0.62-0.22,0.99-0.22C129.37,49.11,129.61,49.14,129.82,49.19z
			"/>
		<path class="st5" d="M132.43,48.59h-1.9v-1.55h1.9V48.59z M132.42,56.28h-1.86v-7.02h1.86V56.28z"/>
		<path class="st5" d="M135.46,49.7c0.16-0.13,0.34-0.25,0.55-0.33c0.29-0.13,0.6-0.2,0.92-0.2c0.74,0,1.33,0.26,1.74,0.78
			c0.52-0.52,1.16-0.78,1.9-0.78c0.75,0,1.35,0.23,1.78,0.69c0.43,0.46,0.64,1.09,0.64,1.87v4.54h-1.87v-4.34
			c0-0.35-0.09-0.62-0.26-0.81c-0.17-0.17-0.39-0.26-0.66-0.26c-0.3,0-0.52,0.09-0.69,0.27c-0.17,0.19-0.26,0.44-0.26,0.75v4.38
			h-1.87v-4.34c0-0.35-0.09-0.62-0.26-0.81c-0.17-0.17-0.39-0.26-0.66-0.26c-0.29,0-0.51,0.09-0.69,0.27
			c-0.17,0.18-0.26,0.44-0.26,0.79v4.34h-1.87v-7.02h1.83V49.7z"/>
		<path class="st5" d="M145.87,53.38v0.05c0,0.47,0.1,0.79,0.3,0.99c0.19,0.2,0.49,0.29,0.87,0.29c0.29,0,0.52-0.06,0.68-0.18
			c0.16-0.1,0.23-0.26,0.25-0.48l0.05-0.14h1.76v0.2c0,0.68-0.26,1.23-0.77,1.65c-0.49,0.4-1.17,0.61-2.03,0.61
			c-0.9,0-1.62-0.26-2.16-0.78c-0.53-0.53-0.81-1.33-0.81-2.41v-0.82c0-1.05,0.26-1.83,0.78-2.37s1.24-0.81,2.13-0.81
			c0.88,0,1.59,0.27,2.12,0.81c0.52,0.53,0.78,1.33,0.78,2.37v1.03H145.87z M146.14,51.1c-0.17,0.17-0.26,0.48-0.27,0.91h2.08v-0.04
			c0-0.79-0.32-1.16-1.03-1.16C146.57,50.82,146.31,50.91,146.14,51.1z"/>
		<path class="st5" d="M154.83,49.19v1.79c-0.35-0.13-0.68-0.2-0.94-0.2c-0.35,0-0.64,0.1-0.85,0.33c-0.22,0.22-0.32,0.55-0.32,0.97
			v4.19h-1.87v-7.02h1.83v0.44c0.13-0.16,0.3-0.27,0.48-0.36c0.3-0.14,0.62-0.22,0.99-0.22C154.39,49.11,154.62,49.14,154.83,49.19z
			"/>
		<path class="st5" d="M160.74,51.7v4.58h-1.82v-0.42c-0.17,0.14-0.34,0.25-0.51,0.33c-0.26,0.12-0.58,0.17-0.96,0.17
			c-0.73,0-1.3-0.2-1.7-0.6c-0.4-0.39-0.61-0.95-0.61-1.64c0-0.64,0.22-1.16,0.65-1.53c0.44-0.38,1.04-0.56,1.79-0.56h1.3v-0.4
			c0-0.65-0.3-0.95-0.95-0.95c-0.27,0-0.48,0.07-0.64,0.2c-0.14,0.13-0.22,0.29-0.22,0.51v0.17h-1.75v-0.18
			c0-0.68,0.25-1.21,0.73-1.6c0.47-0.39,1.1-0.59,1.9-0.59c0.88,0,1.57,0.21,2.07,0.64C160.5,50.24,160.74,50.88,160.74,51.7z
			 M158.88,53.74v-0.35h-1.04c-0.61,0-0.88,0.22-0.88,0.69c0,0.49,0.27,0.72,0.86,0.72c0.39,0,0.66-0.09,0.82-0.25
			C158.81,54.38,158.88,54.1,158.88,53.74z"/>
		<path class="st5" d="M168.58,49.19v1.79c-0.35-0.13-0.68-0.2-0.94-0.2c-0.35,0-0.64,0.1-0.85,0.33c-0.22,0.22-0.32,0.55-0.32,0.97
			v4.19h-1.87v-7.02h1.83v0.44c0.13-0.16,0.3-0.27,0.48-0.36c0.3-0.14,0.62-0.22,0.99-0.22C168.14,49.11,168.37,49.14,168.58,49.19z
			"/>
		<path class="st5" d="M168.88,53.39v-1.26c0-1,0.26-1.74,0.78-2.22c0.51-0.48,1.21-0.73,2.09-0.73c0.87,0,1.57,0.25,2.08,0.73
			s0.77,1.22,0.77,2.22v1.26c0,1-0.26,1.75-0.77,2.24c-0.51,0.48-1.21,0.73-2.08,0.73c-0.88,0-1.59-0.25-2.09-0.73
			C169.14,55.14,168.88,54.39,168.88,53.39z M171.75,50.87c-0.69,0-1.01,0.42-1.01,1.29v1.22c0,0.87,0.33,1.29,1.01,1.29
			c0.66,0,0.99-0.42,0.99-1.29v-1.22C172.74,51.28,172.42,50.87,171.75,50.87z"/>
		<path class="st5" d="M177.46,49.68c0.17-0.13,0.34-0.23,0.55-0.33c0.3-0.12,0.61-0.18,0.92-0.18c0.73,0,1.3,0.23,1.72,0.69
			c0.4,0.47,0.6,1.09,0.6,1.87v4.54h-1.87v-4.34c0-0.35-0.09-0.61-0.25-0.79c-0.17-0.18-0.39-0.27-0.68-0.27
			c-0.27,0-0.51,0.09-0.68,0.27c-0.18,0.18-0.27,0.44-0.27,0.79v4.34h-1.87v-7.02h1.83V49.68z"/>
		<path class="st5" d="M182.27,53.43v-1.34c0-0.96,0.22-1.69,0.65-2.18c0.44-0.48,1.01-0.73,1.7-0.73c0.58,0,1.07,0.18,1.44,0.55
			v-2.68h1.86v9.23h-1.83v-0.43c-0.38,0.34-0.86,0.51-1.46,0.51c-0.69,0-1.26-0.25-1.7-0.74C182.49,55.13,182.27,54.39,182.27,53.43
			z M186.07,53.38v-1.22c0-0.43-0.09-0.75-0.26-0.97c-0.17-0.21-0.4-0.31-0.72-0.31c-0.64,0-0.95,0.42-0.95,1.29v1.22
			c0,0.88,0.3,1.29,0.91,1.29c0.32,0,0.57-0.1,0.74-0.31C185.98,54.13,186.07,53.81,186.07,53.38z"/>
		<path class="st5" d="M194.44,51.7v4.58h-1.82v-0.42c-0.17,0.14-0.34,0.25-0.51,0.33c-0.26,0.12-0.58,0.17-0.96,0.17
			c-0.73,0-1.3-0.2-1.7-0.6c-0.4-0.39-0.61-0.95-0.61-1.64c0-0.64,0.22-1.16,0.65-1.53c0.44-0.38,1.04-0.56,1.79-0.56h1.3v-0.4
			c0-0.65-0.3-0.95-0.95-0.95c-0.27,0-0.48,0.07-0.64,0.2c-0.14,0.13-0.22,0.29-0.22,0.51v0.17h-1.75v-0.18
			c0-0.68,0.25-1.21,0.73-1.6c0.47-0.39,1.1-0.59,1.9-0.59c0.88,0,1.57,0.21,2.07,0.64C194.19,50.24,194.44,50.88,194.44,51.7z
			 M192.58,53.74v-0.35h-1.04c-0.61,0-0.88,0.22-0.88,0.69c0,0.49,0.27,0.72,0.86,0.72c0.39,0,0.66-0.09,0.82-0.25
			C192.5,54.38,192.58,54.1,192.58,53.74z"/>
		<path class="st5" d="M198.25,53.43v-1.34c0-0.96,0.22-1.69,0.65-2.18c0.44-0.48,1.01-0.73,1.7-0.73c0.58,0,1.07,0.18,1.44,0.55
			v-2.68h1.86v9.23h-1.83v-0.43c-0.38,0.34-0.86,0.51-1.46,0.51c-0.69,0-1.26-0.25-1.7-0.74C198.47,55.13,198.25,54.39,198.25,53.43
			z M202.04,53.38v-1.22c0-0.43-0.09-0.75-0.26-0.97c-0.17-0.21-0.4-0.31-0.72-0.31c-0.64,0-0.95,0.42-0.95,1.29v1.22
			c0,0.88,0.3,1.29,0.91,1.29c0.32,0,0.57-0.1,0.74-0.31C201.95,54.13,202.04,53.81,202.04,53.38z"/>
		<path class="st5" d="M206.79,53.38v0.05c0,0.47,0.1,0.79,0.3,0.99c0.19,0.2,0.49,0.29,0.87,0.29c0.29,0,0.52-0.06,0.68-0.18
			c0.16-0.1,0.23-0.26,0.25-0.48l0.05-0.14h1.76v0.2c0,0.68-0.26,1.23-0.77,1.65c-0.49,0.4-1.17,0.61-2.03,0.61
			c-0.9,0-1.62-0.26-2.16-0.78c-0.53-0.53-0.81-1.33-0.81-2.41v-0.82c0-1.05,0.26-1.83,0.78-2.37s1.24-0.81,2.13-0.81
			c0.88,0,1.59,0.27,2.12,0.81c0.52,0.53,0.78,1.33,0.78,2.37v1.03H206.79z M207.06,51.1c-0.17,0.17-0.26,0.48-0.27,0.91h2.08v-0.04
			c0-0.79-0.32-1.16-1.03-1.16C207.49,50.82,207.23,50.91,207.06,51.1z"/>
		<path class="st5" d="M120.18,65.3c0.16-0.13,0.34-0.25,0.55-0.33c0.29-0.13,0.6-0.19,0.92-0.19c0.74,0,1.33,0.26,1.74,0.78
			c0.52-0.52,1.16-0.78,1.9-0.78c0.75,0,1.35,0.23,1.78,0.69s0.64,1.09,0.64,1.87v4.54h-1.87v-4.34c0-0.35-0.09-0.62-0.26-0.81
			c-0.17-0.17-0.39-0.26-0.66-0.26c-0.3,0-0.52,0.09-0.69,0.27c-0.17,0.19-0.26,0.44-0.26,0.75v4.38h-1.87v-4.34
			c0-0.35-0.09-0.62-0.26-0.81c-0.17-0.17-0.39-0.26-0.66-0.26c-0.29,0-0.51,0.09-0.69,0.27c-0.17,0.18-0.26,0.44-0.26,0.79v4.34
			h-1.87v-7.02h1.83V65.3z"/>
		<path class="st5" d="M130.59,68.98v0.05c0,0.47,0.1,0.79,0.3,0.99c0.19,0.2,0.49,0.29,0.87,0.29c0.29,0,0.52-0.06,0.68-0.18
			c0.16-0.1,0.23-0.26,0.25-0.48l0.05-0.14h1.76v0.2c0,0.68-0.26,1.23-0.77,1.65c-0.49,0.4-1.17,0.61-2.03,0.61
			c-0.9,0-1.62-0.26-2.16-0.78c-0.53-0.53-0.81-1.33-0.81-2.41v-0.82c0-1.05,0.26-1.83,0.78-2.37s1.24-0.81,2.13-0.81
			c0.88,0,1.59,0.27,2.12,0.81c0.52,0.53,0.78,1.33,0.78,2.37v1.03H130.59z M130.86,66.7c-0.17,0.17-0.26,0.48-0.27,0.91h2.08v-0.04
			c0-0.79-0.32-1.16-1.03-1.16C131.29,66.42,131.03,66.51,130.86,66.7z"/>
		<path class="st5" d="M135.33,69.74v-0.18h1.77v0.16c0,0.21,0.08,0.36,0.25,0.48c0.18,0.13,0.43,0.19,0.73,0.19
			c0.34,0,0.58-0.05,0.77-0.17c0.16-0.1,0.23-0.25,0.23-0.45c0-0.17-0.05-0.29-0.17-0.38c-0.13-0.09-0.35-0.17-0.69-0.22l-0.71-0.12
			c-0.69-0.12-1.22-0.34-1.56-0.66c-0.35-0.32-0.52-0.79-0.52-1.39c0-0.68,0.26-1.22,0.75-1.62s1.13-0.6,1.9-0.6
			c0.52,0,0.98,0.09,1.39,0.26c0.39,0.18,0.71,0.43,0.95,0.75c0.22,0.33,0.34,0.68,0.34,1.08v0.21H139v-0.17
			c0-0.2-0.07-0.34-0.22-0.44c-0.17-0.1-0.4-0.17-0.7-0.17c-0.3,0-0.53,0.05-0.68,0.17c-0.14,0.1-0.21,0.23-0.21,0.42
			c0,0.17,0.05,0.29,0.16,0.36c0.12,0.1,0.3,0.17,0.58,0.21l0.79,0.12c0.72,0.1,1.24,0.31,1.6,0.66c0.36,0.34,0.55,0.82,0.55,1.42
			c0,0.73-0.27,1.31-0.81,1.72c-0.53,0.39-1.21,0.58-2.04,0.58c-0.81,0-1.44-0.2-1.94-0.6C135.58,70.95,135.33,70.42,135.33,69.74z"
			/>
		<path class="st5" d="M147.1,67.3v4.58h-1.82v-0.42c-0.17,0.14-0.34,0.25-0.51,0.33c-0.26,0.12-0.58,0.17-0.96,0.17
			c-0.73,0-1.3-0.2-1.7-0.6c-0.4-0.39-0.61-0.95-0.61-1.64c0-0.64,0.22-1.16,0.65-1.53c0.44-0.38,1.04-0.56,1.79-0.56h1.3v-0.4
			c0-0.65-0.3-0.95-0.95-0.95c-0.27,0-0.48,0.07-0.64,0.2c-0.14,0.13-0.22,0.29-0.22,0.51v0.17h-1.75v-0.18
			c0-0.68,0.25-1.21,0.73-1.6c0.47-0.39,1.1-0.58,1.9-0.58c0.88,0,1.57,0.21,2.07,0.64C146.85,65.84,147.1,66.48,147.1,67.3z
			 M145.24,69.34v-0.35h-1.04c-0.61,0-0.88,0.22-0.88,0.69c0,0.49,0.27,0.71,0.86,0.71c0.39,0,0.66-0.09,0.82-0.25
			C145.16,69.98,145.24,69.71,145.24,69.34z"/>
		<path class="st5" d="M147.94,69.74v-0.18h1.77v0.16c0,0.21,0.08,0.36,0.25,0.48c0.18,0.13,0.43,0.19,0.73,0.19
			c0.34,0,0.58-0.05,0.77-0.17c0.16-0.1,0.23-0.25,0.23-0.45c0-0.17-0.05-0.29-0.17-0.38c-0.13-0.09-0.35-0.17-0.69-0.22l-0.71-0.12
			c-0.69-0.12-1.22-0.34-1.56-0.66c-0.35-0.32-0.52-0.79-0.52-1.39c0-0.68,0.26-1.22,0.75-1.62s1.13-0.6,1.9-0.6
			c0.52,0,0.98,0.09,1.39,0.26c0.39,0.18,0.71,0.43,0.95,0.75c0.22,0.33,0.34,0.68,0.34,1.08v0.21h-1.76v-0.17
			c0-0.2-0.06-0.34-0.22-0.44c-0.17-0.1-0.4-0.17-0.7-0.17s-0.53,0.05-0.68,0.17c-0.14,0.1-0.21,0.23-0.21,0.42
			c0,0.17,0.05,0.29,0.16,0.36c0.12,0.1,0.3,0.17,0.58,0.21l0.79,0.12c0.72,0.1,1.24,0.31,1.6,0.66c0.36,0.34,0.55,0.82,0.55,1.42
			c0,0.73-0.27,1.31-0.81,1.72c-0.53,0.39-1.21,0.58-2.04,0.58c-0.81,0-1.44-0.2-1.94-0.6C148.19,70.95,147.94,70.42,147.94,69.74z"
			/>
		<path class="st5" d="M157.01,69.03v-1.34c0-0.96,0.22-1.69,0.65-2.18c0.44-0.48,1.01-0.73,1.7-0.73c0.58,0,1.07,0.18,1.44,0.55
			v-2.68h1.86v9.23h-1.83v-0.43c-0.38,0.34-0.86,0.51-1.46,0.51c-0.69,0-1.26-0.25-1.7-0.74C157.23,70.73,157.01,69.99,157.01,69.03
			z M160.8,68.98v-1.22c0-0.43-0.09-0.75-0.26-0.97c-0.17-0.21-0.4-0.31-0.71-0.31c-0.64,0-0.95,0.42-0.95,1.29v1.22
			c0,0.88,0.3,1.29,0.91,1.29c0.32,0,0.57-0.1,0.74-0.31C160.71,69.73,160.8,69.41,160.8,68.98z"/>
		<path class="st5" d="M165.55,68.98v0.05c0,0.47,0.1,0.79,0.3,0.99c0.19,0.2,0.49,0.29,0.87,0.29c0.29,0,0.52-0.06,0.68-0.18
			c0.16-0.1,0.23-0.26,0.25-0.48l0.05-0.14h1.76v0.2c0,0.68-0.26,1.23-0.77,1.65c-0.49,0.4-1.17,0.61-2.03,0.61
			c-0.9,0-1.62-0.26-2.16-0.78c-0.53-0.53-0.81-1.33-0.81-2.41v-0.82c0-1.05,0.26-1.83,0.78-2.37s1.24-0.81,2.13-0.81
			c0.88,0,1.59,0.27,2.12,0.81c0.52,0.53,0.78,1.33,0.78,2.37v1.03H165.55z M165.82,66.7c-0.17,0.17-0.26,0.48-0.27,0.91h2.08v-0.04
			c0-0.79-0.32-1.16-1.03-1.16C166.25,66.42,165.99,66.51,165.82,66.7z"/>
		<path class="st5" d="M176.32,70.25h0.64v1.62h-0.9c-0.65,0-1.17-0.18-1.55-0.56c-0.39-0.38-0.59-0.88-0.59-1.52v-3.55H173v-1.39
			h0.94v-1.29l1.86-0.65v1.94h1.3v1.39h-1.3v3.45C175.79,70.08,175.96,70.25,176.32,70.25z"/>
		<path class="st5" d="M181.86,64.79v1.79c-0.35-0.13-0.68-0.2-0.94-0.2c-0.35,0-0.64,0.1-0.85,0.33c-0.22,0.22-0.33,0.55-0.33,0.98
			v4.19h-1.87v-7.02h1.83v0.44c0.13-0.16,0.3-0.27,0.48-0.36c0.3-0.14,0.62-0.22,0.99-0.22C181.42,64.71,181.65,64.74,181.86,64.79z
			"/>
		<path class="st5" d="M187.78,67.3v4.58h-1.82v-0.42c-0.17,0.14-0.34,0.25-0.51,0.33c-0.26,0.12-0.58,0.17-0.96,0.17
			c-0.73,0-1.3-0.2-1.7-0.6c-0.4-0.39-0.61-0.95-0.61-1.64c0-0.64,0.22-1.16,0.65-1.53c0.44-0.38,1.04-0.56,1.79-0.56h1.3v-0.4
			c0-0.65-0.3-0.95-0.95-0.95c-0.27,0-0.48,0.07-0.64,0.2c-0.14,0.13-0.22,0.29-0.22,0.51v0.17h-1.75v-0.18
			c0-0.68,0.25-1.21,0.73-1.6c0.47-0.39,1.1-0.58,1.9-0.58c0.88,0,1.57,0.21,2.07,0.64C187.53,65.84,187.78,66.48,187.78,67.3z
			 M185.92,69.34v-0.35h-1.04c-0.61,0-0.88,0.22-0.88,0.69c0,0.49,0.27,0.71,0.86,0.71c0.39,0,0.66-0.09,0.82-0.25
			C185.84,69.98,185.92,69.71,185.92,69.34z"/>
		<path class="st5" d="M188.92,71.88v-9.23h1.87v2.68c0.36-0.36,0.83-0.55,1.38-0.55c0.71,0,1.3,0.25,1.74,0.73
			c0.45,0.49,0.68,1.22,0.68,2.18v1.34c0,0.96-0.22,1.7-0.68,2.18c-0.44,0.49-1.01,0.74-1.69,0.74c-0.6,0-1.09-0.17-1.47-0.51v0.43
			H188.92z M192.46,66.75c-0.17-0.2-0.39-0.29-0.69-0.29c-0.31,0-0.55,0.1-0.71,0.31c-0.18,0.22-0.27,0.55-0.27,0.97v1.22
			c0,0.43,0.09,0.75,0.27,0.98c0.18,0.21,0.43,0.31,0.75,0.31c0.61,0,0.91-0.4,0.91-1.29v-1.22
			C192.72,67.29,192.63,66.95,192.46,66.75z"/>
		<path class="st5" d="M200.98,67.3v4.58h-1.82v-0.42c-0.17,0.14-0.34,0.25-0.51,0.33c-0.26,0.12-0.58,0.17-0.96,0.17
			c-0.73,0-1.3-0.2-1.7-0.6c-0.4-0.39-0.61-0.95-0.61-1.64c0-0.64,0.22-1.16,0.65-1.53c0.44-0.38,1.04-0.56,1.79-0.56h1.3v-0.4
			c0-0.65-0.3-0.95-0.95-0.95c-0.27,0-0.48,0.07-0.64,0.2c-0.14,0.13-0.22,0.29-0.22,0.51v0.17h-1.75v-0.18
			c0-0.68,0.25-1.21,0.73-1.6c0.47-0.39,1.1-0.58,1.9-0.58c0.88,0,1.57,0.21,2.07,0.64C200.74,65.84,200.98,66.48,200.98,67.3z
			 M199.13,69.34v-0.35h-1.04c-0.61,0-0.88,0.22-0.88,0.69c0,0.49,0.27,0.71,0.86,0.71c0.39,0,0.66-0.09,0.82-0.25
			C199.05,69.98,199.13,69.71,199.13,69.34z"/>
		<path class="st5" d="M202.06,72.11c0.09-0.09,0.13-0.26,0.13-0.49v-6.76h1.86v6.86c0,0.69-0.19,1.24-0.57,1.61
			c-0.38,0.38-0.91,0.57-1.6,0.57H201v-1.65h0.68C201.87,72.25,201.99,72.2,202.06,72.11z M204.05,64.19h-1.9v-1.55h1.9V64.19z"/>
		<path class="st5" d="M205.14,68.99v-1.26c0-1,0.26-1.74,0.78-2.22c0.51-0.48,1.21-0.73,2.09-0.73c0.87,0,1.57,0.25,2.08,0.73
			s0.77,1.22,0.77,2.22v1.26c0,1-0.26,1.75-0.77,2.24c-0.51,0.48-1.21,0.73-2.08,0.73c-0.88,0-1.59-0.25-2.09-0.73
			C205.4,70.75,205.14,69.99,205.14,68.99z M208.02,66.47c-0.69,0-1.01,0.42-1.01,1.29v1.22c0,0.87,0.33,1.29,1.01,1.29
			c0.66,0,0.99-0.42,0.99-1.29v-1.22C209,66.88,208.68,66.47,208.02,66.47z"/>
	</g>
	<g>
		<rect x="241.94" y="51.26" class="st6" width="123.23" height="55.11"/>
		<path class="st5" d="M253.04,57.28c0,0.78-0.24,1.4-0.71,1.83c-0.47,0.44-1.13,0.66-1.96,0.66h-3.44v-8.52h3.31
			c0.84,0,1.49,0.2,1.97,0.64c0.48,0.42,0.72,1.02,0.72,1.79c0,0.38-0.1,0.74-0.29,1.08c-0.16,0.25-0.37,0.47-0.62,0.64
			c0.3,0.17,0.54,0.38,0.71,0.67C252.93,56.41,253.04,56.81,253.04,57.28z M250.12,54.64c0.34,0,0.58-0.07,0.74-0.23
			c0.16-0.14,0.24-0.36,0.24-0.64c0-0.3-0.08-0.53-0.24-0.68c-0.17-0.16-0.41-0.23-0.74-0.23h-1.38v1.77H250.12z M251.23,57.17
			c0-0.3-0.08-0.52-0.24-0.68c-0.17-0.16-0.42-0.24-0.77-0.24h-1.48v1.92h1.48c0.35,0,0.6-0.08,0.76-0.25
			C251.14,57.74,251.23,57.5,251.23,57.17z"/>
		<path class="st5" d="M253.94,57.11v-1.16c0-0.92,0.24-1.61,0.72-2.05c0.47-0.44,1.12-0.67,1.93-0.67c0.8,0,1.45,0.23,1.92,0.67
			s0.71,1.13,0.71,2.05v1.16c0,0.92-0.24,1.62-0.71,2.06c-0.47,0.44-1.12,0.67-1.92,0.67c-0.82,0-1.46-0.23-1.93-0.67
			C254.18,58.73,253.94,58.04,253.94,57.11z M256.59,54.79c-0.64,0-0.94,0.38-0.94,1.19v1.13c0,0.8,0.3,1.19,0.94,1.19
			c0.61,0,0.91-0.38,0.91-1.19v-1.13C257.5,55.17,257.21,54.79,256.59,54.79z"/>
		<path class="st5" d="M263.84,53.24v1.65c-0.32-0.12-0.62-0.18-0.86-0.18c-0.32,0-0.59,0.1-0.78,0.3c-0.2,0.2-0.3,0.5-0.3,0.9v3.86
			h-1.73V53.3h1.69v0.41c0.12-0.14,0.28-0.25,0.44-0.34c0.28-0.13,0.58-0.2,0.91-0.2C263.43,53.17,263.65,53.19,263.84,53.24z"/>
		<path class="st5" d="M268.14,53.24v1.65c-0.32-0.12-0.62-0.18-0.86-0.18c-0.32,0-0.59,0.1-0.78,0.3c-0.2,0.2-0.3,0.5-0.3,0.9v3.86
			h-1.73V53.3h1.69v0.41c0.12-0.14,0.28-0.25,0.44-0.34c0.28-0.13,0.58-0.2,0.91-0.2C267.73,53.17,267.94,53.19,268.14,53.24z"/>
		<path class="st5" d="M273.6,55.55v4.22h-1.68v-0.38c-0.16,0.13-0.31,0.23-0.47,0.3c-0.24,0.11-0.54,0.16-0.89,0.16
			c-0.67,0-1.2-0.18-1.57-0.55c-0.37-0.36-0.56-0.88-0.56-1.51c0-0.59,0.2-1.07,0.6-1.42c0.41-0.35,0.96-0.52,1.65-0.52h1.2v-0.37
			c0-0.6-0.28-0.88-0.88-0.88c-0.25,0-0.44,0.06-0.59,0.18c-0.13,0.12-0.2,0.26-0.2,0.47v0.16h-1.62v-0.17
			c0-0.62,0.23-1.12,0.67-1.48c0.43-0.36,1.02-0.54,1.75-0.54c0.82,0,1.45,0.19,1.91,0.59C273.37,54.21,273.6,54.8,273.6,55.55z
			 M271.88,57.44v-0.32h-0.96c-0.56,0-0.82,0.2-0.82,0.64c0,0.46,0.25,0.66,0.79,0.66c0.36,0,0.61-0.08,0.76-0.23
			C271.81,58.02,271.88,57.77,271.88,57.44z"/>
		<path class="st5" d="M274.55,57.15v-1.24c0-0.89,0.2-1.56,0.6-2.01c0.41-0.44,0.94-0.67,1.57-0.67c0.54,0,0.98,0.17,1.33,0.5
			v-2.47h1.71v8.52h-1.69v-0.4c-0.35,0.31-0.79,0.47-1.34,0.47c-0.64,0-1.16-0.23-1.57-0.68C274.75,58.72,274.55,58.04,274.55,57.15
			z M278.05,57.1v-1.13c0-0.4-0.08-0.7-0.24-0.9c-0.16-0.19-0.37-0.29-0.66-0.29c-0.59,0-0.88,0.38-0.88,1.19v1.13
			c0,0.82,0.28,1.19,0.84,1.19c0.3,0,0.53-0.1,0.68-0.29C277.96,57.8,278.05,57.5,278.05,57.1z"/>
		<path class="st5" d="M280.71,57.11v-1.16c0-0.92,0.24-1.61,0.72-2.05c0.47-0.44,1.12-0.67,1.93-0.67c0.8,0,1.45,0.23,1.92,0.67
			s0.71,1.13,0.71,2.05v1.16c0,0.92-0.24,1.62-0.71,2.06c-0.47,0.44-1.12,0.67-1.92,0.67c-0.82,0-1.46-0.23-1.93-0.67
			C280.95,58.73,280.71,58.04,280.71,57.11z M283.36,54.79c-0.64,0-0.94,0.38-0.94,1.19v1.13c0,0.8,0.3,1.19,0.94,1.19
			c0.61,0,0.91-0.38,0.91-1.19v-1.13C284.28,55.17,283.98,54.79,283.36,54.79z"/>
		<path class="st5" d="M290.61,53.24v1.65c-0.32-0.12-0.62-0.18-0.86-0.18c-0.32,0-0.59,0.1-0.78,0.3c-0.2,0.2-0.3,0.5-0.3,0.9v3.86
			h-1.73V53.3h1.69v0.41c0.12-0.14,0.28-0.25,0.44-0.34c0.28-0.13,0.58-0.2,0.91-0.2C290.2,53.17,290.42,53.19,290.61,53.24z"/>
		<path class="st5" d="M293.7,57.15v-1.24c0-0.89,0.2-1.56,0.6-2.01c0.41-0.44,0.94-0.67,1.57-0.67c0.54,0,0.98,0.17,1.33,0.5v-2.47
			h1.71v8.52h-1.69v-0.4c-0.35,0.31-0.79,0.47-1.34,0.47c-0.64,0-1.16-0.23-1.57-0.68C293.9,58.72,293.7,58.04,293.7,57.15z
			 M297.2,57.1v-1.13c0-0.4-0.08-0.7-0.24-0.9c-0.16-0.19-0.37-0.29-0.66-0.29c-0.59,0-0.88,0.38-0.88,1.19v1.13
			c0,0.82,0.28,1.19,0.84,1.19c0.3,0,0.53-0.1,0.68-0.29C297.12,57.8,297.2,57.5,297.2,57.1z"/>
		<path class="st5" d="M301.58,57.1v0.05c0,0.43,0.1,0.73,0.28,0.91c0.18,0.18,0.46,0.26,0.8,0.26c0.26,0,0.48-0.06,0.62-0.17
			c0.14-0.1,0.22-0.24,0.23-0.44l0.05-0.13h1.62v0.18c0,0.62-0.24,1.14-0.71,1.52c-0.46,0.37-1.08,0.56-1.87,0.56
			c-0.83,0-1.5-0.24-1.99-0.72c-0.49-0.49-0.74-1.22-0.74-2.22v-0.76c0-0.97,0.24-1.69,0.72-2.18c0.48-0.49,1.14-0.74,1.97-0.74
			c0.82,0,1.46,0.25,1.95,0.74c0.48,0.49,0.72,1.22,0.72,2.18v0.95H301.58z M301.83,55c-0.16,0.16-0.24,0.44-0.25,0.84h1.92v-0.04
			c0-0.73-0.3-1.07-0.95-1.07C302.23,54.74,301.99,54.82,301.83,55z"/>
		<path class="st5" d="M306.18,57.76v-6.5h1.73v6.4c0,0.23,0.04,0.38,0.11,0.47c0.07,0.08,0.18,0.12,0.36,0.12H309v1.52h-0.8
			c-0.64,0-1.13-0.18-1.49-0.53C306.36,58.9,306.18,58.4,306.18,57.76z"/>
		<path class="st5" d="M318.35,53.98c0,0.8-0.25,1.45-0.77,1.93c-0.5,0.48-1.19,0.72-2.06,0.72h-1.4v3.14h-1.81v-8.52h3.21
			c0.88,0,1.56,0.24,2.06,0.73C318.1,52.47,318.35,53.14,318.35,53.98z M316.54,53.98c0-0.37-0.1-0.65-0.29-0.83
			c-0.18-0.19-0.46-0.29-0.8-0.29h-1.33v2.15h1.33c0.35,0,0.61-0.08,0.8-0.26S316.54,54.32,316.54,53.98z"/>
		<path class="st5" d="M322.72,53.24v1.65c-0.32-0.12-0.62-0.18-0.86-0.18c-0.32,0-0.59,0.1-0.78,0.3c-0.2,0.2-0.3,0.5-0.3,0.9v3.86
			h-1.73V53.3h1.69v0.41c0.12-0.14,0.28-0.25,0.44-0.34c0.28-0.13,0.58-0.2,0.91-0.2C322.32,53.17,322.53,53.19,322.72,53.24z"/>
		<path class="st5" d="M323,57.11v-1.16c0-0.92,0.24-1.61,0.72-2.05c0.47-0.44,1.12-0.67,1.93-0.67c0.8,0,1.45,0.23,1.92,0.67
			s0.71,1.13,0.71,2.05v1.16c0,0.92-0.24,1.62-0.71,2.06c-0.47,0.44-1.12,0.67-1.92,0.67c-0.82,0-1.46-0.23-1.93-0.67
			C323.24,58.73,323,58.04,323,57.11z M325.65,54.79c-0.64,0-0.94,0.38-0.94,1.19v1.13c0,0.8,0.3,1.19,0.94,1.19
			c0.61,0,0.91-0.38,0.91-1.19v-1.13C326.56,55.17,326.26,54.79,325.65,54.79z"/>
		<path class="st5" d="M329.21,59.69h1.65c0.01,0.2,0.11,0.36,0.28,0.48c0.16,0.11,0.35,0.16,0.61,0.16c0.61,0,0.9-0.32,0.9-1.03
			v-0.47c-0.35,0.31-0.79,0.47-1.34,0.47c-0.64,0-1.16-0.23-1.57-0.68c-0.41-0.44-0.61-1.13-0.61-2.02v-0.68
			c0-0.89,0.2-1.56,0.6-2.01c0.41-0.44,0.94-0.67,1.57-0.67c0.54,0,0.98,0.17,1.33,0.5V53.3h1.71v5.9c0,0.78-0.24,1.39-0.71,1.86
			c-0.47,0.46-1.12,0.68-1.94,0.68c-0.76,0-1.34-0.17-1.77-0.5C329.46,60.87,329.22,60.35,329.21,59.69z M332.62,56.55v-0.58
			c0-0.4-0.08-0.7-0.24-0.9c-0.16-0.19-0.37-0.29-0.66-0.29c-0.59,0-0.88,0.38-0.88,1.19v0.58c0,0.82,0.28,1.19,0.84,1.19
			c0.3,0,0.53-0.1,0.68-0.29C332.54,57.24,332.62,56.94,332.62,56.55z"/>
		<path class="st5" d="M339.07,53.24v1.65c-0.32-0.12-0.62-0.18-0.86-0.18c-0.32,0-0.59,0.1-0.78,0.3c-0.2,0.2-0.3,0.5-0.3,0.9v3.86
			h-1.73V53.3h1.69v0.41c0.12-0.14,0.28-0.25,0.44-0.34c0.28-0.13,0.58-0.2,0.91-0.2C338.66,53.17,338.88,53.19,339.07,53.24z"/>
		<path class="st5" d="M344.53,55.55v4.22h-1.68v-0.38c-0.16,0.13-0.31,0.23-0.47,0.3c-0.24,0.11-0.54,0.16-0.89,0.16
			c-0.67,0-1.2-0.18-1.57-0.55c-0.37-0.36-0.56-0.88-0.56-1.51c0-0.59,0.2-1.07,0.6-1.42c0.41-0.35,0.96-0.52,1.65-0.52h1.2v-0.37
			c0-0.6-0.28-0.88-0.88-0.88c-0.25,0-0.44,0.06-0.59,0.18c-0.13,0.12-0.2,0.26-0.2,0.47v0.16h-1.62v-0.17
			c0-0.62,0.23-1.12,0.67-1.48c0.43-0.36,1.02-0.54,1.75-0.54c0.82,0,1.45,0.19,1.91,0.59C344.3,54.21,344.53,54.8,344.53,55.55z
			 M342.81,57.44v-0.32h-0.96c-0.56,0-0.82,0.2-0.82,0.64c0,0.46,0.25,0.66,0.79,0.66c0.36,0,0.61-0.08,0.76-0.23
			C342.74,58.02,342.81,57.77,342.81,57.44z"/>
		<path class="st5" d="M347.28,53.71c0.14-0.12,0.31-0.23,0.5-0.3c0.26-0.12,0.55-0.18,0.85-0.18c0.68,0,1.22,0.24,1.61,0.72
			c0.48-0.48,1.07-0.72,1.75-0.72c0.7,0,1.25,0.22,1.64,0.64c0.4,0.42,0.59,1.01,0.59,1.73v4.19h-1.73v-4.01
			c0-0.32-0.08-0.58-0.24-0.74c-0.16-0.16-0.36-0.24-0.61-0.24c-0.28,0-0.48,0.08-0.64,0.25c-0.16,0.18-0.24,0.41-0.24,0.7v4.04
			h-1.73v-4.01c0-0.32-0.08-0.58-0.24-0.74c-0.16-0.16-0.36-0.24-0.61-0.24c-0.26,0-0.47,0.08-0.64,0.25
			c-0.16,0.17-0.24,0.41-0.24,0.73v4.01h-1.73V53.3h1.69V53.71z"/>
		<path class="st5" d="M360.23,55.55v4.22h-1.68v-0.38c-0.16,0.13-0.31,0.23-0.47,0.3c-0.24,0.11-0.54,0.16-0.89,0.16
			c-0.67,0-1.2-0.18-1.57-0.55c-0.37-0.36-0.56-0.88-0.56-1.51c0-0.59,0.2-1.07,0.6-1.42c0.41-0.35,0.96-0.52,1.65-0.52h1.2v-0.37
			c0-0.6-0.28-0.88-0.88-0.88c-0.25,0-0.44,0.06-0.59,0.18c-0.13,0.12-0.2,0.26-0.2,0.47v0.16h-1.62v-0.17
			c0-0.62,0.23-1.12,0.67-1.48c0.43-0.36,1.02-0.54,1.75-0.54c0.82,0,1.45,0.19,1.91,0.59C360.01,54.21,360.23,54.8,360.23,55.55z
			 M358.52,57.44v-0.32h-0.96c-0.56,0-0.82,0.2-0.82,0.64c0,0.46,0.25,0.66,0.79,0.66c0.36,0,0.61-0.08,0.76-0.23
			C358.45,58.02,358.52,57.77,358.52,57.44z"/>
		<path class="st5" d="M255.39,71.55v-1.24c0-0.89,0.2-1.56,0.6-2.01c0.41-0.44,0.94-0.67,1.57-0.67c0.54,0,0.98,0.17,1.33,0.5
			v-2.47h1.71v8.52h-1.69v-0.4c-0.35,0.31-0.79,0.47-1.34,0.47c-0.64,0-1.16-0.23-1.57-0.68C255.6,73.12,255.39,72.44,255.39,71.55z
			 M258.9,71.5v-1.13c0-0.4-0.08-0.7-0.24-0.9c-0.16-0.19-0.37-0.29-0.66-0.29c-0.59,0-0.88,0.38-0.88,1.19v1.13
			c0,0.82,0.28,1.19,0.84,1.19c0.3,0,0.53-0.1,0.68-0.29C258.81,72.2,258.9,71.9,258.9,71.5z"/>
		<path class="st5" d="M263.28,71.5v0.05c0,0.43,0.1,0.73,0.28,0.91c0.18,0.18,0.46,0.26,0.8,0.26c0.26,0,0.48-0.06,0.62-0.17
			c0.14-0.1,0.22-0.24,0.23-0.44l0.05-0.13h1.62v0.18c0,0.62-0.24,1.14-0.71,1.52c-0.46,0.37-1.08,0.56-1.87,0.56
			c-0.83,0-1.5-0.24-1.99-0.72c-0.49-0.49-0.74-1.22-0.74-2.22v-0.76c0-0.97,0.24-1.69,0.72-2.18c0.48-0.49,1.14-0.74,1.97-0.74
			c0.82,0,1.46,0.25,1.95,0.74c0.48,0.49,0.72,1.22,0.72,2.18v0.95H263.28z M263.53,69.4c-0.16,0.16-0.24,0.44-0.25,0.84h1.92v-0.04
			c0-0.73-0.3-1.07-0.95-1.07C263.93,69.14,263.69,69.22,263.53,69.4z"/>
		<path class="st5" d="M272.45,74.17h-1.81v-8.52h1.81V74.17z"/>
		<path class="st5" d="M275.33,68.11c0.14-0.12,0.31-0.23,0.5-0.3c0.26-0.12,0.55-0.18,0.85-0.18c0.68,0,1.22,0.24,1.61,0.72
			c0.48-0.48,1.07-0.72,1.75-0.72c0.7,0,1.25,0.22,1.64,0.64c0.4,0.42,0.59,1.01,0.59,1.73v4.19h-1.73v-4.01
			c0-0.32-0.08-0.58-0.24-0.74c-0.16-0.16-0.36-0.24-0.61-0.24c-0.28,0-0.48,0.08-0.64,0.25c-0.16,0.18-0.24,0.41-0.24,0.7v4.04
			h-1.73v-4.01c0-0.32-0.08-0.58-0.24-0.74c-0.16-0.16-0.36-0.24-0.61-0.24c-0.26,0-0.47,0.08-0.64,0.25
			c-0.16,0.17-0.24,0.41-0.24,0.73v4.01h-1.73V67.7h1.69V68.11z"/>
		<path class="st5" d="M285.02,68.14c0.36-0.35,0.79-0.52,1.31-0.52c0.66,0,1.2,0.23,1.61,0.67c0.42,0.46,0.62,1.13,0.62,2.01v1.24
			c0,0.89-0.2,1.57-0.62,2.01c-0.41,0.46-0.94,0.68-1.56,0.68c-0.53,0-0.97-0.16-1.32-0.46v2.25h-1.73V67.7h1.69V68.14z
			 M286.59,69.45c-0.16-0.18-0.36-0.26-0.64-0.26c-0.29,0-0.5,0.1-0.66,0.29c-0.17,0.2-0.25,0.5-0.25,0.9v1.13
			c0,0.4,0.08,0.7,0.25,0.9c0.17,0.19,0.4,0.29,0.7,0.29c0.56,0,0.84-0.37,0.84-1.19v-1.13C286.83,69.94,286.75,69.63,286.59,69.45z
			"/>
		<path class="st5" d="M289.51,72.16v-6.5h1.73v6.4c0,0.23,0.04,0.38,0.11,0.47c0.07,0.08,0.18,0.12,0.36,0.12h0.62v1.52h-0.8
			c-0.64,0-1.13-0.18-1.49-0.53C289.69,73.3,289.51,72.8,289.51,72.16z"/>
		<path class="st5" d="M294.56,71.5v0.05c0,0.43,0.1,0.73,0.28,0.91c0.18,0.18,0.46,0.26,0.8,0.26c0.26,0,0.48-0.06,0.62-0.17
			c0.14-0.1,0.22-0.24,0.23-0.44l0.05-0.13h1.62v0.18c0,0.62-0.24,1.14-0.71,1.52c-0.46,0.37-1.08,0.56-1.87,0.56
			c-0.83,0-1.5-0.24-1.99-0.72c-0.49-0.49-0.74-1.22-0.74-2.22v-0.76c0-0.97,0.24-1.69,0.72-2.18c0.48-0.49,1.14-0.74,1.97-0.74
			c0.82,0,1.46,0.25,1.95,0.74c0.48,0.49,0.72,1.22,0.72,2.18v0.95H294.56z M294.81,69.4c-0.16,0.16-0.24,0.44-0.25,0.84h1.92v-0.04
			c0-0.73-0.3-1.07-0.95-1.07C295.21,69.14,294.97,69.22,294.81,69.4z"/>
		<path class="st5" d="M300.85,68.11c0.14-0.12,0.31-0.23,0.5-0.3c0.26-0.12,0.55-0.18,0.85-0.18c0.68,0,1.22,0.24,1.61,0.72
			c0.48-0.48,1.07-0.72,1.75-0.72c0.7,0,1.25,0.22,1.64,0.64c0.4,0.42,0.59,1.01,0.59,1.73v4.19h-1.73v-4.01
			c0-0.32-0.08-0.58-0.24-0.74c-0.16-0.16-0.36-0.24-0.61-0.24c-0.28,0-0.48,0.08-0.64,0.25c-0.16,0.18-0.24,0.41-0.24,0.7v4.04
			h-1.73v-4.01c0-0.32-0.08-0.58-0.24-0.74c-0.16-0.16-0.36-0.24-0.61-0.24c-0.26,0-0.47,0.08-0.64,0.25
			c-0.16,0.17-0.24,0.41-0.24,0.73v4.01h-1.73V67.7h1.69V68.11z"/>
		<path class="st5" d="M310.46,71.5v0.05c0,0.43,0.1,0.73,0.28,0.91c0.18,0.18,0.46,0.26,0.8,0.26c0.26,0,0.48-0.06,0.62-0.17
			c0.14-0.1,0.22-0.24,0.23-0.44l0.05-0.13h1.62v0.18c0,0.62-0.24,1.14-0.71,1.52c-0.46,0.37-1.08,0.56-1.87,0.56
			c-0.83,0-1.5-0.24-1.99-0.72c-0.49-0.49-0.74-1.22-0.74-2.22v-0.76c0-0.97,0.24-1.69,0.72-2.18c0.48-0.49,1.14-0.74,1.97-0.74
			c0.82,0,1.46,0.25,1.95,0.74c0.48,0.49,0.72,1.22,0.72,2.18v0.95H310.46z M310.71,69.4c-0.16,0.16-0.24,0.44-0.25,0.84h1.92v-0.04
			c0-0.73-0.3-1.07-0.95-1.07C311.11,69.14,310.87,69.22,310.71,69.4z"/>
		<path class="st5" d="M316.75,68.09c0.16-0.12,0.31-0.22,0.5-0.3c0.28-0.11,0.56-0.17,0.85-0.17c0.67,0,1.2,0.22,1.58,0.64
			c0.37,0.43,0.55,1.01,0.55,1.73v4.19h-1.73v-4.01c0-0.32-0.08-0.56-0.23-0.73c-0.16-0.17-0.36-0.25-0.62-0.25
			c-0.25,0-0.47,0.08-0.62,0.25c-0.17,0.17-0.25,0.41-0.25,0.73v4.01h-1.73V67.7h1.69V68.09z"/>
		<path class="st5" d="M323.96,72.68h0.59v1.5h-0.83c-0.6,0-1.08-0.17-1.43-0.52c-0.36-0.35-0.54-0.82-0.54-1.4v-3.27h-0.86V67.7
			h0.86v-1.19l1.71-0.6v1.79h1.2v1.28h-1.2v3.18C323.47,72.52,323.63,72.68,323.96,72.68z"/>
		<path class="st5" d="M330.3,69.95v4.22h-1.68v-0.38c-0.16,0.13-0.31,0.23-0.47,0.3c-0.24,0.11-0.54,0.16-0.89,0.16
			c-0.67,0-1.2-0.18-1.57-0.55c-0.37-0.36-0.56-0.88-0.56-1.51c0-0.59,0.2-1.07,0.6-1.42c0.41-0.35,0.96-0.52,1.65-0.52h1.2v-0.37
			c0-0.6-0.28-0.88-0.88-0.88c-0.25,0-0.44,0.06-0.59,0.18c-0.13,0.12-0.2,0.26-0.2,0.47v0.16h-1.62v-0.17
			c0-0.62,0.23-1.12,0.67-1.47c0.43-0.36,1.02-0.54,1.75-0.54c0.82,0,1.45,0.19,1.91,0.59C330.07,68.61,330.3,69.2,330.3,69.95z
			 M328.58,71.84v-0.32h-0.96c-0.56,0-0.82,0.2-0.82,0.64c0,0.46,0.25,0.66,0.79,0.66c0.36,0,0.61-0.08,0.76-0.23
			C328.51,72.42,328.58,72.17,328.58,71.84z"/>
		<path class="st5" d="M331.25,71.51v-1.16c0-0.92,0.24-1.61,0.72-2.05c0.47-0.44,1.12-0.67,1.93-0.67c0.79,0,1.43,0.2,1.88,0.62
			c0.46,0.41,0.68,0.98,0.68,1.71v0.24h-1.65v-0.19c0-0.26-0.07-0.47-0.23-0.61s-0.37-0.22-0.66-0.22c-0.65,0-0.96,0.38-0.96,1.19
			v1.13c0,0.44,0.08,0.76,0.25,0.92c0.17,0.18,0.4,0.26,0.71,0.26c0.29,0,0.5-0.07,0.66-0.2c0.16-0.14,0.23-0.34,0.23-0.59V71.7
			h1.65v0.2c0,0.72-0.23,1.29-0.68,1.71c-0.46,0.42-1.09,0.62-1.88,0.62c-0.82,0-1.46-0.23-1.93-0.67
			C331.49,73.13,331.25,72.44,331.25,71.51z"/>
		<path class="st5" d="M339.2,67.09h-1.75v-1.43h1.75V67.09z M339.19,74.17h-1.71V67.7h1.71V74.17z"/>
		<path class="st5" d="M340.2,71.51v-1.16c0-0.92,0.24-1.61,0.72-2.05c0.47-0.44,1.12-0.67,1.93-0.67c0.8,0,1.45,0.23,1.92,0.67
			s0.71,1.13,0.71,2.05v1.16c0,0.92-0.24,1.62-0.71,2.06c-0.47,0.44-1.12,0.67-1.92,0.67c-0.82,0-1.46-0.23-1.93-0.67
			C340.44,73.13,340.2,72.44,340.2,71.51z M343.06,67.12h-1.58l1.49-1.83h2L343.06,67.12z M342.85,69.19
			c-0.64,0-0.94,0.38-0.94,1.19v1.13c0,0.8,0.3,1.19,0.94,1.19c0.61,0,0.91-0.38,0.91-1.19v-1.13
			C343.76,69.57,343.46,69.19,342.85,69.19z"/>
		<path class="st5" d="M348.12,68.09c0.16-0.12,0.31-0.22,0.5-0.3c0.28-0.11,0.56-0.17,0.85-0.17c0.67,0,1.2,0.22,1.58,0.64
			c0.37,0.43,0.55,1.01,0.55,1.73v4.19h-1.73v-4.01c0-0.32-0.08-0.56-0.23-0.73c-0.16-0.17-0.36-0.25-0.62-0.25
			c-0.25,0-0.47,0.08-0.62,0.25c-0.17,0.17-0.25,0.41-0.25,0.73v4.01h-1.73V67.7h1.69V68.09z"/>
	</g>
	<g>
		<rect x="368.72" y="50.35" class="st6" width="135.01" height="24.98"/>
		<path class="st5" d="M387.85,56.59h1.87c0.05,0.52,0.19,0.88,0.44,1.08c0.22,0.18,0.58,0.27,1.05,0.27c0.9,0,1.31-0.34,1.31-1.05
			c0-0.32-0.08-0.56-0.25-0.71c-0.17-0.17-0.46-0.29-0.85-0.35l-0.84-0.14c-1.68-0.29-2.54-1.16-2.54-2.63
			c0-0.87,0.29-1.56,0.87-2.08c0.57-0.51,1.34-0.75,2.27-0.75c0.91,0,1.65,0.25,2.18,0.74c0.57,0.51,0.88,1.25,0.94,2.2h-1.91
			c0-0.47-0.12-0.79-0.34-0.99c-0.19-0.17-0.49-0.26-0.9-0.26c-0.42,0-0.72,0.09-0.91,0.27c-0.21,0.18-0.3,0.42-0.3,0.74
			c0,0.27,0.09,0.49,0.26,0.65c0.17,0.16,0.46,0.27,0.87,0.35l0.95,0.17c1.6,0.29,2.42,1.18,2.42,2.65c0,0.94-0.3,1.66-0.91,2.17
			c-0.6,0.49-1.4,0.74-2.42,0.74c-0.99,0-1.77-0.25-2.34-0.75C388.22,58.37,387.9,57.61,387.85,56.59z"/>
		<path class="st5" d="M397.11,56.68v0.05c0,0.47,0.1,0.79,0.3,0.99c0.19,0.2,0.49,0.29,0.87,0.29c0.29,0,0.52-0.06,0.68-0.18
			c0.16-0.1,0.23-0.26,0.25-0.48l0.05-0.14h1.76v0.2c0,0.68-0.26,1.23-0.77,1.65c-0.49,0.4-1.17,0.61-2.03,0.61
			c-0.9,0-1.62-0.26-2.16-0.78c-0.53-0.53-0.81-1.33-0.81-2.41v-0.82c0-1.05,0.26-1.83,0.78-2.37s1.24-0.81,2.13-0.81
			c0.88,0,1.59,0.27,2.12,0.81c0.52,0.53,0.78,1.33,0.78,2.37v1.03H397.11z M397.38,54.41c-0.17,0.17-0.26,0.48-0.27,0.91h2.08
			v-0.04c0-0.79-0.32-1.16-1.03-1.16C397.81,54.12,397.55,54.21,397.38,54.41z"/>
		<path class="st5" d="M402.06,59.49h1.79c0.01,0.22,0.12,0.39,0.3,0.52c0.17,0.12,0.38,0.17,0.66,0.17c0.66,0,0.98-0.35,0.98-1.12
			v-0.51c-0.38,0.34-0.86,0.51-1.46,0.51c-0.69,0-1.26-0.25-1.7-0.74c-0.44-0.48-0.66-1.22-0.66-2.18V55.4
			c0-0.96,0.22-1.69,0.65-2.18c0.44-0.48,1.01-0.73,1.7-0.73c0.58,0,1.07,0.18,1.44,0.55v-0.47h1.86v6.4c0,0.84-0.26,1.51-0.77,2.02
			c-0.51,0.49-1.21,0.74-2.11,0.74c-0.82,0-1.46-0.18-1.92-0.55C402.33,60.77,402.07,60.21,402.06,59.49z M405.77,56.09v-0.62
			c0-0.43-0.09-0.75-0.26-0.97c-0.17-0.21-0.4-0.31-0.71-0.31c-0.64,0-0.95,0.42-0.95,1.29v0.62c0,0.88,0.3,1.29,0.91,1.29
			c0.32,0,0.57-0.1,0.74-0.31C405.68,56.84,405.77,56.51,405.77,56.09z"/>
		<path class="st5" d="M410.64,52.56v4.08c0,0.46,0.07,0.79,0.2,1.01c0.12,0.21,0.36,0.31,0.74,0.31c0.39,0,0.62-0.09,0.74-0.29
			c0.13-0.21,0.19-0.56,0.19-1.04v-4.08h1.87v4.16c0,0.98-0.23,1.7-0.7,2.2c-0.47,0.49-1.17,0.74-2.11,0.74
			c-1.86,0-2.81-1-2.81-2.94v-4.16H410.64z"/>
		<path class="st5" d="M417.36,52.99c0.17-0.13,0.34-0.23,0.55-0.33c0.3-0.12,0.61-0.18,0.92-0.18c0.73,0,1.3,0.23,1.72,0.69
			c0.4,0.47,0.6,1.09,0.6,1.87v4.54h-1.87v-4.34c0-0.35-0.09-0.61-0.25-0.79c-0.17-0.18-0.39-0.27-0.68-0.27
			c-0.27,0-0.51,0.09-0.68,0.27c-0.18,0.18-0.27,0.44-0.27,0.79v4.34h-1.87v-7.02h1.83V52.99z"/>
		<path class="st5" d="M422.17,56.74V55.4c0-0.96,0.22-1.69,0.65-2.18c0.44-0.48,1.01-0.73,1.7-0.73c0.58,0,1.07,0.18,1.44,0.55
			v-2.68h1.86v9.23h-1.83v-0.43c-0.38,0.34-0.86,0.51-1.46,0.51c-0.69,0-1.26-0.25-1.7-0.74C422.39,58.44,422.17,57.7,422.17,56.74z
			 M425.97,56.68v-1.22c0-0.43-0.09-0.75-0.26-0.97c-0.17-0.21-0.4-0.31-0.72-0.31c-0.64,0-0.95,0.42-0.95,1.29v1.22
			c0,0.88,0.3,1.29,0.91,1.29c0.32,0,0.57-0.1,0.74-0.31C425.88,57.44,425.97,57.11,425.97,56.68z"/>
		<path class="st5" d="M434.34,55.01v4.58h-1.82v-0.42c-0.17,0.14-0.34,0.25-0.51,0.33c-0.26,0.12-0.58,0.17-0.96,0.17
			c-0.73,0-1.3-0.2-1.7-0.6c-0.4-0.39-0.61-0.95-0.61-1.64c0-0.64,0.22-1.16,0.65-1.53c0.44-0.38,1.04-0.56,1.79-0.56h1.3v-0.4
			c0-0.65-0.3-0.95-0.95-0.95c-0.27,0-0.48,0.07-0.64,0.2c-0.14,0.13-0.22,0.29-0.22,0.51v0.17h-1.75v-0.18
			c0-0.68,0.25-1.21,0.73-1.6c0.47-0.39,1.1-0.59,1.9-0.59c0.88,0,1.57,0.21,2.07,0.64C434.09,53.55,434.34,54.19,434.34,55.01z
			 M432.48,57.05V56.7h-1.04c-0.61,0-0.88,0.22-0.88,0.69c0,0.49,0.27,0.72,0.86,0.72c0.39,0,0.66-0.09,0.82-0.25
			C432.4,57.69,432.48,57.41,432.48,57.05z"/>
		<path class="st5" d="M442.18,52.5v1.79c-0.35-0.13-0.68-0.2-0.94-0.2c-0.35,0-0.64,0.1-0.85,0.33c-0.22,0.22-0.33,0.55-0.33,0.97
			v4.19h-1.87v-7.02h1.83v0.44c0.13-0.16,0.3-0.27,0.48-0.36c0.3-0.14,0.62-0.22,0.99-0.22C441.74,52.42,441.97,52.45,442.18,52.5z"
			/>
		<path class="st5" d="M442.48,56.7v-1.26c0-1,0.26-1.74,0.78-2.22c0.51-0.48,1.21-0.73,2.09-0.73c0.87,0,1.57,0.25,2.08,0.73
			s0.77,1.22,0.77,2.22v1.26c0,1-0.26,1.75-0.77,2.24c-0.51,0.48-1.21,0.73-2.08,0.73c-0.88,0-1.59-0.25-2.09-0.73
			C442.74,58.45,442.48,57.7,442.48,56.7z M445.35,54.17c-0.69,0-1.01,0.42-1.01,1.29v1.22c0,0.87,0.33,1.29,1.01,1.29
			c0.66,0,0.99-0.42,0.99-1.29v-1.22C446.34,54.59,446.01,54.17,445.35,54.17z"/>
		<path class="st5" d="M451.06,52.99c0.17-0.13,0.34-0.23,0.55-0.33c0.3-0.12,0.61-0.18,0.92-0.18c0.73,0,1.3,0.23,1.72,0.69
			c0.4,0.47,0.6,1.09,0.6,1.87v4.54h-1.87v-4.34c0-0.35-0.09-0.61-0.25-0.79c-0.17-0.18-0.39-0.27-0.68-0.27
			c-0.27,0-0.51,0.09-0.68,0.27c-0.18,0.18-0.27,0.44-0.27,0.79v4.34h-1.87v-7.02h1.83V52.99z"/>
		<path class="st5" d="M455.87,56.74V55.4c0-0.96,0.22-1.69,0.65-2.18c0.44-0.48,1.01-0.73,1.7-0.73c0.58,0,1.07,0.18,1.44,0.55
			v-2.68h1.86v9.23h-1.83v-0.43c-0.38,0.34-0.86,0.51-1.46,0.51c-0.69,0-1.26-0.25-1.7-0.74C456.09,58.44,455.87,57.7,455.87,56.74z
			 M459.66,56.68v-1.22c0-0.43-0.09-0.75-0.26-0.97c-0.17-0.21-0.4-0.31-0.71-0.31c-0.64,0-0.95,0.42-0.95,1.29v1.22
			c0,0.88,0.3,1.29,0.91,1.29c0.32,0,0.57-0.1,0.74-0.31C459.57,57.44,459.66,57.11,459.66,56.68z"/>
		<path class="st5" d="M468.04,55.01v4.58h-1.82v-0.42c-0.17,0.14-0.34,0.25-0.51,0.33c-0.26,0.12-0.58,0.17-0.96,0.17
			c-0.73,0-1.3-0.2-1.7-0.6c-0.4-0.39-0.61-0.95-0.61-1.64c0-0.64,0.22-1.16,0.65-1.53c0.44-0.38,1.04-0.56,1.79-0.56h1.3v-0.4
			c0-0.65-0.3-0.95-0.95-0.95c-0.27,0-0.48,0.07-0.64,0.2c-0.14,0.13-0.22,0.29-0.22,0.51v0.17h-1.75v-0.18
			c0-0.68,0.25-1.21,0.73-1.6c0.47-0.39,1.1-0.59,1.9-0.59c0.88,0,1.57,0.21,2.07,0.64C467.79,53.55,468.04,54.19,468.04,55.01z
			 M466.18,57.05V56.7h-1.04c-0.61,0-0.88,0.22-0.88,0.69c0,0.49,0.27,0.72,0.86,0.72c0.39,0,0.66-0.09,0.82-0.25
			C466.1,57.69,466.18,57.41,466.18,57.05z"/>
		<path class="st5" d="M471.84,56.74V55.4c0-0.96,0.22-1.69,0.65-2.18c0.44-0.48,1.01-0.73,1.7-0.73c0.58,0,1.07,0.18,1.44,0.55
			v-2.68h1.86v9.23h-1.83v-0.43c-0.38,0.34-0.86,0.51-1.46,0.51c-0.69,0-1.26-0.25-1.7-0.74C472.07,58.44,471.84,57.7,471.84,56.74z
			 M475.64,56.68v-1.22c0-0.43-0.09-0.75-0.26-0.97c-0.17-0.21-0.4-0.31-0.71-0.31c-0.64,0-0.95,0.42-0.95,1.29v1.22
			c0,0.88,0.3,1.29,0.91,1.29c0.32,0,0.57-0.1,0.74-0.31C475.55,57.44,475.64,57.11,475.64,56.68z"/>
		<path class="st5" d="M480.39,56.68v0.05c0,0.47,0.1,0.79,0.3,0.99c0.19,0.2,0.49,0.29,0.87,0.29c0.29,0,0.52-0.06,0.68-0.18
			c0.16-0.1,0.23-0.26,0.25-0.48l0.05-0.14h1.76v0.2c0,0.68-0.26,1.23-0.77,1.65c-0.49,0.4-1.17,0.61-2.03,0.61
			c-0.9,0-1.62-0.26-2.16-0.78c-0.53-0.53-0.81-1.33-0.81-2.41v-0.82c0-1.05,0.26-1.83,0.78-2.37s1.24-0.81,2.13-0.81
			c0.88,0,1.59,0.27,2.12,0.81c0.52,0.53,0.78,1.33,0.78,2.37v1.03H480.39z M480.66,54.41c-0.17,0.17-0.26,0.48-0.27,0.91h2.08
			v-0.04c0-0.79-0.32-1.16-1.03-1.16C481.09,54.12,480.83,54.21,480.66,54.41z"/>
		<path class="st5" d="M391.86,68.61c0.16-0.13,0.34-0.25,0.55-0.33c0.29-0.13,0.6-0.19,0.92-0.19c0.74,0,1.33,0.26,1.74,0.78
			c0.52-0.52,1.16-0.78,1.9-0.78c0.75,0,1.35,0.23,1.78,0.69c0.43,0.46,0.64,1.09,0.64,1.87v4.54h-1.87v-4.34
			c0-0.35-0.09-0.62-0.26-0.81c-0.17-0.17-0.39-0.26-0.66-0.26c-0.3,0-0.52,0.09-0.69,0.27c-0.17,0.19-0.26,0.44-0.26,0.75v4.38
			h-1.87v-4.34c0-0.35-0.09-0.62-0.26-0.81c-0.17-0.17-0.39-0.26-0.66-0.26c-0.29,0-0.51,0.09-0.69,0.27
			c-0.17,0.18-0.26,0.44-0.26,0.79v4.34h-1.87v-7.02h1.83V68.61z"/>
		<path class="st5" d="M402.28,72.28v0.05c0,0.47,0.1,0.79,0.3,0.99c0.19,0.2,0.49,0.29,0.87,0.29c0.29,0,0.52-0.06,0.68-0.18
			c0.16-0.1,0.23-0.26,0.25-0.48l0.05-0.14h1.76V73c0,0.68-0.26,1.23-0.77,1.65c-0.49,0.4-1.17,0.61-2.03,0.61
			c-0.9,0-1.62-0.26-2.16-0.78c-0.53-0.53-0.81-1.33-0.81-2.41v-0.82c0-1.05,0.26-1.83,0.78-2.37s1.24-0.81,2.13-0.81
			c0.88,0,1.59,0.27,2.12,0.81c0.52,0.53,0.78,1.33,0.78,2.37v1.03H402.28z M402.55,70.01c-0.17,0.17-0.26,0.48-0.27,0.91h2.08
			v-0.04c0-0.79-0.32-1.16-1.03-1.16C402.98,69.72,402.72,69.81,402.55,70.01z"/>
		<path class="st5" d="M407.02,73.05v-0.18h1.77v0.16c0,0.21,0.08,0.36,0.25,0.48c0.18,0.13,0.43,0.19,0.73,0.19
			c0.34,0,0.58-0.05,0.77-0.17c0.16-0.1,0.23-0.25,0.23-0.45c0-0.17-0.05-0.29-0.17-0.38c-0.13-0.09-0.35-0.17-0.69-0.22l-0.71-0.12
			c-0.69-0.12-1.22-0.34-1.56-0.66c-0.35-0.32-0.52-0.79-0.52-1.39c0-0.68,0.26-1.22,0.75-1.62s1.13-0.6,1.9-0.6
			c0.52,0,0.98,0.09,1.39,0.26c0.39,0.18,0.71,0.43,0.95,0.75c0.22,0.33,0.34,0.68,0.34,1.08v0.21h-1.76v-0.17
			c0-0.2-0.06-0.34-0.22-0.44c-0.17-0.1-0.4-0.17-0.7-0.17s-0.53,0.05-0.68,0.17c-0.14,0.1-0.21,0.23-0.21,0.42
			c0,0.17,0.05,0.29,0.16,0.36c0.12,0.1,0.3,0.17,0.58,0.21l0.79,0.12c0.72,0.1,1.24,0.31,1.6,0.66c0.36,0.34,0.55,0.82,0.55,1.42
			c0,0.73-0.27,1.31-0.81,1.72c-0.53,0.39-1.21,0.58-2.04,0.58c-0.81,0-1.44-0.2-1.94-0.6C407.27,74.26,407.02,73.73,407.02,73.05z"
			/>
		<path class="st5" d="M418.79,70.61v4.58h-1.82v-0.42c-0.17,0.14-0.34,0.25-0.51,0.33c-0.26,0.12-0.58,0.17-0.96,0.17
			c-0.73,0-1.3-0.2-1.7-0.6c-0.4-0.39-0.61-0.95-0.61-1.64c0-0.64,0.22-1.16,0.65-1.53c0.44-0.38,1.04-0.56,1.79-0.56h1.3v-0.4
			c0-0.65-0.3-0.95-0.95-0.95c-0.27,0-0.48,0.07-0.64,0.2c-0.14,0.13-0.22,0.29-0.22,0.51v0.17h-1.75v-0.18
			c0-0.68,0.25-1.21,0.73-1.6c0.47-0.39,1.1-0.58,1.9-0.58c0.88,0,1.57,0.21,2.07,0.64C418.54,69.15,418.79,69.79,418.79,70.61z
			 M416.93,72.65V72.3h-1.04c-0.61,0-0.88,0.22-0.88,0.69c0,0.49,0.27,0.71,0.86,0.71c0.39,0,0.66-0.09,0.82-0.25
			C416.85,73.29,416.93,73.01,416.93,72.65z"/>
		<path class="st5" d="M419.63,73.05v-0.18h1.77v0.16c0,0.21,0.08,0.36,0.25,0.48c0.18,0.13,0.43,0.19,0.73,0.19
			c0.34,0,0.58-0.05,0.77-0.17c0.16-0.1,0.23-0.25,0.23-0.45c0-0.17-0.05-0.29-0.17-0.38c-0.13-0.09-0.35-0.17-0.69-0.22l-0.71-0.12
			c-0.69-0.12-1.22-0.34-1.56-0.66c-0.35-0.32-0.52-0.79-0.52-1.39c0-0.68,0.26-1.22,0.75-1.62s1.13-0.6,1.9-0.6
			c0.52,0,0.98,0.09,1.39,0.26c0.39,0.18,0.71,0.43,0.95,0.75c0.22,0.33,0.34,0.68,0.34,1.08v0.21h-1.75v-0.17
			c0-0.2-0.07-0.34-0.22-0.44c-0.17-0.1-0.4-0.17-0.7-0.17c-0.3,0-0.53,0.05-0.68,0.17c-0.14,0.1-0.21,0.23-0.21,0.42
			c0,0.17,0.05,0.29,0.16,0.36c0.12,0.1,0.3,0.17,0.58,0.21l0.79,0.12c0.72,0.1,1.24,0.31,1.6,0.66c0.36,0.34,0.55,0.82,0.55,1.42
			c0,0.73-0.27,1.31-0.81,1.72c-0.53,0.39-1.21,0.58-2.04,0.58c-0.81,0-1.44-0.2-1.94-0.6C419.88,74.26,419.63,73.73,419.63,73.05z"
			/>
		<path class="st5" d="M428.69,72.34V71c0-0.96,0.22-1.69,0.65-2.18c0.44-0.48,1.01-0.73,1.7-0.73c0.58,0,1.07,0.18,1.44,0.55v-2.68
			h1.86v9.23h-1.83v-0.43c-0.38,0.34-0.86,0.51-1.46,0.51c-0.69,0-1.26-0.25-1.7-0.74C428.91,74.04,428.69,73.3,428.69,72.34z
			 M432.49,72.28v-1.22c0-0.43-0.09-0.75-0.26-0.97c-0.17-0.21-0.4-0.31-0.72-0.31c-0.64,0-0.95,0.42-0.95,1.29v1.22
			c0,0.88,0.3,1.29,0.91,1.29c0.32,0,0.57-0.1,0.74-0.31C432.4,73.04,432.49,72.71,432.49,72.28z"/>
		<path class="st5" d="M437.23,72.28v0.05c0,0.47,0.1,0.79,0.3,0.99c0.19,0.2,0.49,0.29,0.87,0.29c0.29,0,0.52-0.06,0.68-0.18
			c0.16-0.1,0.23-0.26,0.25-0.48l0.05-0.14h1.76V73c0,0.68-0.26,1.23-0.77,1.65c-0.49,0.4-1.17,0.61-2.03,0.61
			c-0.9,0-1.62-0.26-2.16-0.78c-0.53-0.53-0.81-1.33-0.81-2.41v-0.82c0-1.05,0.26-1.83,0.78-2.37s1.24-0.81,2.13-0.81
			c0.88,0,1.59,0.27,2.12,0.81c0.52,0.53,0.78,1.33,0.78,2.37v1.03H437.23z M437.51,70.01c-0.17,0.17-0.26,0.48-0.27,0.91h2.08
			v-0.04c0-0.79-0.32-1.16-1.03-1.16C437.94,69.72,437.67,69.81,437.51,70.01z"/>
		<path class="st5" d="M448.01,73.56h0.64v1.62h-0.9c-0.65,0-1.17-0.18-1.55-0.56c-0.39-0.38-0.58-0.88-0.58-1.52v-3.55h-0.94v-1.39
			h0.94v-1.29l1.86-0.65v1.94h1.3v1.39h-1.3V73C447.48,73.39,447.65,73.56,448.01,73.56z"/>
		<path class="st5" d="M453.55,68.1v1.79c-0.35-0.13-0.68-0.2-0.94-0.2c-0.35,0-0.64,0.1-0.85,0.33c-0.22,0.22-0.32,0.55-0.32,0.98
			v4.19h-1.87v-7.02h1.83v0.44c0.13-0.16,0.3-0.27,0.48-0.36c0.3-0.14,0.62-0.22,0.99-0.22C453.11,68.02,453.34,68.05,453.55,68.1z"
			/>
		<path class="st5" d="M459.46,70.61v4.58h-1.82v-0.42c-0.17,0.14-0.34,0.25-0.51,0.33c-0.26,0.12-0.58,0.17-0.96,0.17
			c-0.73,0-1.3-0.2-1.7-0.6c-0.4-0.39-0.61-0.95-0.61-1.64c0-0.64,0.22-1.16,0.65-1.53c0.44-0.38,1.04-0.56,1.79-0.56h1.3v-0.4
			c0-0.65-0.3-0.95-0.95-0.95c-0.27,0-0.48,0.07-0.64,0.2c-0.14,0.13-0.22,0.29-0.22,0.51v0.17h-1.75v-0.18
			c0-0.68,0.25-1.21,0.73-1.6c0.47-0.39,1.1-0.58,1.9-0.58c0.88,0,1.57,0.21,2.07,0.64C459.22,69.15,459.46,69.79,459.46,70.61z
			 M457.6,72.65V72.3h-1.04c-0.61,0-0.88,0.22-0.88,0.69c0,0.49,0.27,0.71,0.86,0.71c0.39,0,0.66-0.09,0.82-0.25
			C457.53,73.29,457.6,73.01,457.6,72.65z"/>
		<path class="st5" d="M460.61,75.18v-9.23h1.87v2.68c0.36-0.36,0.83-0.55,1.38-0.55c0.71,0,1.3,0.25,1.74,0.73
			c0.46,0.49,0.68,1.22,0.68,2.18v1.34c0,0.96-0.22,1.7-0.68,2.18c-0.44,0.49-1.01,0.74-1.69,0.74c-0.6,0-1.09-0.17-1.47-0.51v0.43
			H460.61z M464.14,70.06c-0.17-0.2-0.39-0.29-0.69-0.29c-0.31,0-0.55,0.1-0.71,0.31c-0.18,0.22-0.27,0.55-0.27,0.97v1.22
			c0,0.43,0.09,0.75,0.27,0.98c0.18,0.21,0.43,0.31,0.75,0.31c0.61,0,0.91-0.4,0.91-1.29v-1.22
			C464.4,70.59,464.31,70.26,464.14,70.06z"/>
		<path class="st5" d="M472.67,70.61v4.58h-1.82v-0.42c-0.17,0.14-0.34,0.25-0.51,0.33c-0.26,0.12-0.58,0.17-0.96,0.17
			c-0.73,0-1.3-0.2-1.7-0.6c-0.4-0.39-0.61-0.95-0.61-1.64c0-0.64,0.22-1.16,0.65-1.53c0.44-0.38,1.04-0.56,1.79-0.56h1.3v-0.4
			c0-0.65-0.3-0.95-0.95-0.95c-0.27,0-0.48,0.07-0.64,0.2c-0.14,0.13-0.22,0.29-0.22,0.51v0.17h-1.75v-0.18
			c0-0.68,0.25-1.21,0.73-1.6c0.47-0.39,1.1-0.58,1.9-0.58c0.88,0,1.57,0.21,2.07,0.64C472.42,69.15,472.67,69.79,472.67,70.61z
			 M470.81,72.65V72.3h-1.04c-0.61,0-0.88,0.22-0.88,0.69c0,0.49,0.27,0.71,0.86,0.71c0.39,0,0.66-0.09,0.82-0.25
			C470.73,73.29,470.81,73.01,470.81,72.65z"/>
		<path class="st5" d="M473.75,75.42c0.09-0.09,0.13-0.26,0.13-0.49v-6.76h1.86v6.86c0,0.69-0.19,1.24-0.57,1.61
			c-0.38,0.38-0.91,0.57-1.6,0.57h-0.88v-1.65h0.68C473.55,75.56,473.67,75.51,473.75,75.42z M475.74,67.5h-1.9v-1.55h1.9V67.5z"/>
		<path class="st5" d="M476.83,72.3v-1.26c0-1,0.26-1.74,0.78-2.22c0.51-0.48,1.21-0.73,2.09-0.73c0.87,0,1.57,0.25,2.08,0.73
			s0.77,1.22,0.77,2.22v1.26c0,1-0.26,1.75-0.77,2.24c-0.51,0.48-1.21,0.73-2.08,0.73c-0.88,0-1.59-0.25-2.09-0.73
			C477.09,74.05,476.83,73.3,476.83,72.3z M479.7,69.78c-0.69,0-1.01,0.42-1.01,1.29v1.22c0,0.87,0.33,1.29,1.01,1.29
			c0.66,0,0.99-0.42,0.99-1.29v-1.22C480.69,70.19,480.37,69.78,479.7,69.78z"/>
	</g>
	<g>
		<rect x="509.61" y="51.72" class="st6" width="290.3" height="33.11"/>
		<path class="st5" d="M544.25,60.95h-1.96v-9.23h1.96V60.95z"/>
		<path class="st5" d="M547.37,54.36c0.17-0.13,0.34-0.23,0.55-0.33c0.3-0.12,0.61-0.18,0.92-0.18c0.73,0,1.3,0.23,1.72,0.69
			c0.4,0.47,0.6,1.09,0.6,1.87v4.54h-1.87v-4.34c0-0.35-0.09-0.61-0.25-0.79c-0.17-0.18-0.39-0.27-0.68-0.27
			c-0.27,0-0.51,0.09-0.68,0.27c-0.18,0.18-0.27,0.44-0.27,0.79v4.34h-1.87v-7.02h1.83V54.36z"/>
		<path class="st5" d="M555.19,59.32h0.64v1.62h-0.9c-0.65,0-1.17-0.18-1.55-0.56c-0.39-0.38-0.59-0.88-0.59-1.52v-3.55h-0.94v-1.39
			h0.94v-1.29l1.86-0.65v1.94h1.3v1.39h-1.3v3.45C554.65,59.15,554.82,59.32,555.19,59.32z"/>
		<path class="st5" d="M558.36,58.05v0.05c0,0.47,0.1,0.79,0.3,0.99c0.19,0.2,0.49,0.29,0.87,0.29c0.29,0,0.52-0.06,0.68-0.18
			c0.16-0.1,0.23-0.26,0.25-0.48l0.05-0.14h1.76v0.2c0,0.68-0.26,1.23-0.77,1.65c-0.49,0.4-1.17,0.61-2.03,0.61
			c-0.9,0-1.62-0.26-2.16-0.78c-0.53-0.53-0.81-1.33-0.81-2.41v-0.82c0-1.05,0.26-1.83,0.78-2.37s1.24-0.81,2.13-0.81
			c0.88,0,1.59,0.27,2.12,0.81c0.52,0.53,0.78,1.33,0.78,2.37v1.03H558.36z M558.63,55.77c-0.17,0.17-0.26,0.48-0.27,0.91h2.08
			v-0.04c0-0.79-0.32-1.16-1.03-1.16C559.06,55.49,558.8,55.58,558.63,55.77z"/>
		<path class="st5" d="M563.31,60.86h1.79c0.01,0.22,0.12,0.39,0.3,0.52c0.17,0.12,0.38,0.17,0.66,0.17c0.66,0,0.98-0.35,0.98-1.12
			v-0.51c-0.38,0.34-0.86,0.51-1.46,0.51c-0.69,0-1.26-0.25-1.7-0.74c-0.44-0.48-0.66-1.22-0.66-2.18v-0.74
			c0-0.96,0.22-1.69,0.65-2.18c0.44-0.48,1.01-0.73,1.7-0.73c0.58,0,1.07,0.18,1.44,0.55v-0.47h1.86v6.4c0,0.84-0.26,1.51-0.77,2.02
			c-0.51,0.49-1.21,0.74-2.11,0.74c-0.82,0-1.46-0.18-1.92-0.55C563.58,62.13,563.33,61.57,563.31,60.86z M567.02,57.45v-0.62
			c0-0.43-0.09-0.75-0.26-0.97c-0.17-0.21-0.4-0.31-0.71-0.31c-0.64,0-0.95,0.42-0.95,1.29v0.62c0,0.88,0.3,1.29,0.91,1.29
			c0.32,0,0.57-0.1,0.74-0.31C566.93,58.2,567.02,57.88,567.02,57.45z"/>
		<path class="st5" d="M574,53.86v1.79c-0.35-0.13-0.68-0.2-0.94-0.2c-0.35,0-0.64,0.1-0.85,0.33c-0.22,0.22-0.33,0.55-0.33,0.97
			v4.19h-1.87v-7.02h1.83v0.44c0.13-0.16,0.3-0.27,0.48-0.36c0.3-0.14,0.62-0.22,0.99-0.22C573.56,53.78,573.79,53.81,574,53.86z"/>
		<path class="st5" d="M579.91,56.37v4.58h-1.82v-0.42c-0.17,0.14-0.34,0.25-0.51,0.33c-0.26,0.12-0.58,0.17-0.96,0.17
			c-0.73,0-1.3-0.2-1.7-0.6c-0.4-0.39-0.61-0.95-0.61-1.64c0-0.64,0.22-1.16,0.65-1.53c0.44-0.38,1.04-0.56,1.79-0.56h1.3v-0.4
			c0-0.65-0.3-0.95-0.95-0.95c-0.27,0-0.48,0.07-0.64,0.2c-0.14,0.13-0.22,0.29-0.22,0.51v0.17h-1.75v-0.18
			c0-0.68,0.25-1.21,0.73-1.6c0.47-0.39,1.1-0.59,1.9-0.59c0.88,0,1.57,0.21,2.07,0.64C579.67,54.92,579.91,55.55,579.91,56.37z
			 M578.05,58.41v-0.35h-1.04c-0.61,0-0.88,0.22-0.88,0.69c0,0.49,0.27,0.72,0.86,0.72c0.39,0,0.66-0.09,0.82-0.25
			C577.98,59.05,578.05,58.78,578.05,58.41z"/>
		<path class="st5" d="M580.94,58.06V56.8c0-1,0.26-1.74,0.78-2.22c0.51-0.48,1.21-0.73,2.09-0.73c0.86,0,1.55,0.22,2.04,0.68
			c0.49,0.44,0.74,1.07,0.74,1.86v0.26h-1.79v-0.21c0-0.29-0.08-0.51-0.25-0.66c-0.17-0.16-0.4-0.23-0.72-0.23
			c-0.7,0-1.04,0.42-1.04,1.29v1.22c0,0.48,0.09,0.82,0.27,1c0.18,0.19,0.43,0.29,0.77,0.29c0.31,0,0.55-0.08,0.72-0.22
			c0.17-0.16,0.25-0.36,0.25-0.64v-0.21h1.79v0.22c0,0.78-0.25,1.4-0.74,1.86s-1.18,0.68-2.04,0.68c-0.88,0-1.59-0.25-2.09-0.73
			C581.2,59.82,580.94,59.06,580.94,58.06z"/>
		<path class="st5" d="M589.56,53.26h-1.9v-1.55h1.9V53.26z M589.55,60.95h-1.86v-7.02h1.86V60.95z"/>
		<path class="st5" d="M590.64,58.06V56.8c0-1,0.26-1.74,0.78-2.22c0.51-0.48,1.21-0.73,2.09-0.73c0.87,0,1.57,0.25,2.08,0.73
			s0.77,1.22,0.77,2.22v1.26c0,1-0.26,1.75-0.77,2.24c-0.51,0.48-1.21,0.73-2.08,0.73c-0.88,0-1.59-0.25-2.09-0.73
			C590.9,59.82,590.64,59.06,590.64,58.06z M593.74,53.3h-1.72l1.61-1.99h2.17L593.74,53.3z M593.51,55.54
			c-0.69,0-1.01,0.42-1.01,1.29v1.22c0,0.87,0.33,1.29,1.01,1.29c0.66,0,0.99-0.42,0.99-1.29v-1.22
			C594.5,55.96,594.17,55.54,593.51,55.54z"/>
		<path class="st5" d="M599.22,54.36c0.17-0.13,0.34-0.23,0.55-0.33c0.3-0.12,0.61-0.18,0.92-0.18c0.73,0,1.3,0.23,1.72,0.69
			c0.4,0.47,0.6,1.09,0.6,1.87v4.54h-1.87v-4.34c0-0.35-0.09-0.61-0.25-0.79c-0.17-0.18-0.39-0.27-0.68-0.27
			c-0.27,0-0.51,0.09-0.68,0.27c-0.18,0.18-0.27,0.44-0.27,0.79v4.34h-1.87v-7.02h1.83V54.36z"/>
		<path class="st5" d="M612.62,53.93l-2.63,7.51c-0.18,0.52-0.44,0.91-0.79,1.14c-0.35,0.25-0.81,0.36-1.37,0.36h-0.69v-1.7h0.64
			c0.23,0,0.4-0.04,0.51-0.12c0.09-0.07,0.18-0.22,0.25-0.44l0.03-0.05l-2.34-6.71h1.98l1.23,3.93l1.26-3.93H612.62z"/>
		<path class="st5" d="M621.28,56.37v4.58h-1.82v-0.42c-0.17,0.14-0.34,0.25-0.51,0.33c-0.26,0.12-0.58,0.17-0.96,0.17
			c-0.73,0-1.3-0.2-1.7-0.6c-0.4-0.39-0.61-0.95-0.61-1.64c0-0.64,0.22-1.16,0.65-1.53c0.44-0.38,1.04-0.56,1.79-0.56h1.3v-0.4
			c0-0.65-0.3-0.95-0.95-0.95c-0.27,0-0.48,0.07-0.64,0.2c-0.14,0.13-0.22,0.29-0.22,0.51v0.17h-1.75v-0.18
			c0-0.68,0.25-1.21,0.73-1.6c0.47-0.39,1.1-0.59,1.9-0.59c0.88,0,1.57,0.21,2.07,0.64C621.03,54.92,621.28,55.55,621.28,56.37z
			 M619.42,58.41v-0.35h-1.04c-0.61,0-0.88,0.22-0.88,0.69c0,0.49,0.27,0.72,0.86,0.72c0.39,0,0.66-0.09,0.82-0.25
			C619.34,59.05,619.42,58.78,619.42,58.41z"/>
		<path class="st5" d="M624.26,54.41c0.39-0.38,0.86-0.56,1.42-0.56c0.71,0,1.3,0.25,1.74,0.73c0.45,0.49,0.68,1.22,0.68,2.18v1.34
			c0,0.96-0.22,1.7-0.68,2.18c-0.44,0.49-1.01,0.74-1.69,0.74c-0.57,0-1.05-0.17-1.43-0.49v2.44h-1.87v-9.05h1.83V54.41z
			 M625.96,55.83c-0.17-0.2-0.39-0.29-0.69-0.29c-0.31,0-0.55,0.1-0.71,0.31c-0.18,0.22-0.27,0.55-0.27,0.97v1.22
			c0,0.43,0.09,0.75,0.27,0.98c0.18,0.21,0.43,0.31,0.75,0.31c0.61,0,0.91-0.4,0.91-1.29v-1.22
			C626.22,56.36,626.13,56.02,625.96,55.83z"/>
		<path class="st5" d="M633.1,53.86v1.79c-0.35-0.13-0.68-0.2-0.94-0.2c-0.35,0-0.64,0.1-0.85,0.33c-0.22,0.22-0.33,0.55-0.33,0.97
			v4.19h-1.87v-7.02h1.83v0.44c0.13-0.16,0.3-0.27,0.48-0.36c0.3-0.14,0.62-0.22,0.99-0.22C632.65,53.78,632.89,53.81,633.1,53.86z"
			/>
		<path class="st5" d="M633.39,58.06V56.8c0-1,0.26-1.74,0.78-2.22c0.51-0.48,1.21-0.73,2.09-0.73c0.87,0,1.57,0.25,2.08,0.73
			s0.77,1.22,0.77,2.22v1.26c0,1-0.26,1.75-0.77,2.24c-0.51,0.48-1.21,0.73-2.08,0.73c-0.88,0-1.59-0.25-2.09-0.73
			C633.65,59.82,633.39,59.06,633.39,58.06z M636.27,55.54c-0.69,0-1.01,0.42-1.01,1.29v1.22c0,0.87,0.33,1.29,1.01,1.29
			c0.66,0,0.99-0.42,0.99-1.29v-1.22C637.26,55.96,636.93,55.54,636.27,55.54z"/>
		<path class="st5" d="M640.14,60.95v-9.23h1.87v2.68c0.36-0.36,0.83-0.55,1.38-0.55c0.71,0,1.3,0.25,1.74,0.73
			c0.45,0.49,0.68,1.22,0.68,2.18v1.34c0,0.96-0.22,1.7-0.68,2.18c-0.44,0.49-1.01,0.74-1.69,0.74c-0.6,0-1.09-0.17-1.47-0.51v0.43
			H640.14z M643.68,55.83c-0.17-0.2-0.39-0.29-0.69-0.29c-0.31,0-0.55,0.1-0.71,0.31c-0.18,0.22-0.27,0.55-0.27,0.97v1.22
			c0,0.43,0.09,0.75,0.27,0.98c0.18,0.21,0.43,0.31,0.75,0.31c0.61,0,0.91-0.4,0.91-1.29v-1.22
			C643.94,56.36,643.85,56.02,643.68,55.83z"/>
		<path class="st5" d="M652.21,56.37v4.58h-1.82v-0.42c-0.17,0.14-0.34,0.25-0.51,0.33c-0.26,0.12-0.58,0.17-0.96,0.17
			c-0.73,0-1.3-0.2-1.7-0.6c-0.4-0.39-0.61-0.95-0.61-1.64c0-0.64,0.22-1.16,0.65-1.53c0.44-0.38,1.04-0.56,1.79-0.56h1.3v-0.4
			c0-0.65-0.3-0.95-0.95-0.95c-0.27,0-0.48,0.07-0.64,0.2c-0.14,0.13-0.22,0.29-0.22,0.51v0.17h-1.75v-0.18
			c0-0.68,0.25-1.21,0.73-1.6c0.47-0.39,1.1-0.59,1.9-0.59c0.88,0,1.57,0.21,2.07,0.64C651.96,54.92,652.21,55.55,652.21,56.37z
			 M650.35,58.41v-0.35h-1.04c-0.61,0-0.88,0.22-0.88,0.69c0,0.49,0.27,0.72,0.86,0.72c0.39,0,0.66-0.09,0.82-0.25
			C650.27,59.05,650.35,58.78,650.35,58.41z"/>
		<path class="st5" d="M653.23,58.06V56.8c0-1,0.26-1.74,0.78-2.22c0.51-0.48,1.21-0.73,2.09-0.73c0.86,0,1.55,0.22,2.04,0.68
			c0.49,0.44,0.74,1.07,0.74,1.86v0.26h-1.79v-0.21c0-0.29-0.08-0.51-0.25-0.66c-0.17-0.16-0.4-0.23-0.72-0.23
			c-0.7,0-1.04,0.42-1.04,1.29v1.22c0,0.48,0.09,0.82,0.27,1c0.18,0.19,0.43,0.29,0.77,0.29c0.31,0,0.55-0.08,0.72-0.22
			c0.17-0.16,0.25-0.36,0.25-0.64v-0.21h1.79v0.22c0,0.78-0.25,1.4-0.74,1.86s-1.18,0.68-2.04,0.68c-0.88,0-1.59-0.25-2.09-0.73
			C653.49,59.82,653.23,59.06,653.23,58.06z"/>
		<path class="st5" d="M661.85,53.26h-1.9v-1.55h1.9V53.26z M661.84,60.95h-1.86v-7.02h1.86V60.95z"/>
		<path class="st5" d="M662.93,58.06V56.8c0-1,0.26-1.74,0.78-2.22c0.51-0.48,1.21-0.73,2.09-0.73c0.87,0,1.57,0.25,2.08,0.73
			s0.77,1.22,0.77,2.22v1.26c0,1-0.26,1.75-0.77,2.24c-0.51,0.48-1.21,0.73-2.08,0.73c-0.88,0-1.59-0.25-2.09-0.73
			C663.19,59.82,662.93,59.06,662.93,58.06z M666.04,53.3h-1.72l1.61-1.99h2.17L666.04,53.3z M665.8,55.54
			c-0.69,0-1.01,0.42-1.01,1.29v1.22c0,0.87,0.33,1.29,1.01,1.29c0.66,0,0.99-0.42,0.99-1.29v-1.22
			C666.79,55.96,666.47,55.54,665.8,55.54z"/>
		<path class="st5" d="M671.51,54.36c0.17-0.13,0.34-0.23,0.55-0.33c0.3-0.12,0.61-0.18,0.92-0.18c0.73,0,1.3,0.23,1.72,0.69
			c0.4,0.47,0.6,1.09,0.6,1.87v4.54h-1.87v-4.34c0-0.35-0.09-0.61-0.25-0.79c-0.17-0.18-0.39-0.27-0.68-0.27
			c-0.27,0-0.51,0.09-0.68,0.27c-0.18,0.18-0.27,0.44-0.27,0.79v4.34h-1.87v-7.02h1.83V54.36z"/>
		<path class="st5" d="M679.1,58.1v-1.34c0-0.96,0.22-1.69,0.65-2.18c0.44-0.48,1.01-0.73,1.7-0.73c0.58,0,1.07,0.18,1.44,0.55
			v-2.68h1.86v9.23h-1.83v-0.43c-0.38,0.34-0.86,0.51-1.46,0.51c-0.69,0-1.26-0.25-1.7-0.74C679.32,59.8,679.1,59.06,679.1,58.1z
			 M682.9,58.05v-1.22c0-0.43-0.09-0.75-0.26-0.97c-0.17-0.21-0.4-0.31-0.71-0.31c-0.64,0-0.95,0.42-0.95,1.29v1.22
			c0,0.88,0.3,1.29,0.91,1.29c0.32,0,0.57-0.1,0.74-0.31C682.81,58.8,682.9,58.48,682.9,58.05z"/>
		<path class="st5" d="M687.64,58.05v0.05c0,0.47,0.1,0.79,0.3,0.99c0.19,0.2,0.49,0.29,0.87,0.29c0.29,0,0.52-0.06,0.68-0.18
			c0.16-0.1,0.23-0.26,0.25-0.48l0.05-0.14h1.76v0.2c0,0.68-0.26,1.23-0.77,1.65c-0.49,0.4-1.17,0.61-2.03,0.61
			c-0.9,0-1.62-0.26-2.16-0.78c-0.53-0.53-0.81-1.33-0.81-2.41v-0.82c0-1.05,0.26-1.83,0.78-2.37s1.24-0.81,2.13-0.81
			c0.88,0,1.59,0.27,2.12,0.81c0.52,0.53,0.78,1.33,0.78,2.37v1.03H687.64z M687.92,55.77c-0.17,0.17-0.26,0.48-0.27,0.91h2.08
			v-0.04c0-0.79-0.32-1.16-1.03-1.16C688.34,55.49,688.08,55.58,687.92,55.77z"/>
		<path class="st5" d="M692.62,58.76v-7.05h1.87v6.94c0,0.25,0.04,0.42,0.12,0.51s0.19,0.13,0.39,0.13h0.68v1.65h-0.87
			c-0.69,0-1.22-0.2-1.61-0.57C692.82,60,692.62,59.45,692.62,58.76z"/>
		<path class="st5" d="M705.82,54.67c0,0.87-0.27,1.57-0.83,2.09c-0.55,0.52-1.29,0.78-2.24,0.78h-1.52v3.41h-1.96v-9.23h3.48
			c0.95,0,1.69,0.26,2.24,0.79C705.54,53.03,705.82,53.76,705.82,54.67z M703.85,54.67c0-0.4-0.1-0.7-0.31-0.9
			c-0.19-0.21-0.49-0.31-0.87-0.31h-1.44v2.33h1.44c0.38,0,0.66-0.09,0.87-0.29C703.75,55.31,703.85,55.03,703.85,54.67z"/>
		<path class="st5" d="M710.55,53.86v1.79c-0.35-0.13-0.68-0.2-0.94-0.2c-0.35,0-0.64,0.1-0.85,0.33c-0.22,0.22-0.33,0.55-0.33,0.97
			v4.19h-1.87v-7.02h1.83v0.44c0.13-0.16,0.3-0.27,0.48-0.36c0.3-0.14,0.62-0.22,0.99-0.22C710.11,53.78,710.34,53.81,710.55,53.86z
			"/>
		<path class="st5" d="M710.85,58.06V56.8c0-1,0.26-1.74,0.78-2.22c0.51-0.48,1.21-0.73,2.09-0.73c0.87,0,1.57,0.25,2.08,0.73
			s0.77,1.22,0.77,2.22v1.26c0,1-0.26,1.75-0.77,2.24c-0.51,0.48-1.21,0.73-2.08,0.73c-0.88,0-1.59-0.25-2.09-0.73
			C711.11,59.82,710.85,59.06,710.85,58.06z M713.72,55.54c-0.69,0-1.01,0.42-1.01,1.29v1.22c0,0.87,0.33,1.29,1.01,1.29
			c0.66,0,0.99-0.42,0.99-1.29v-1.22C714.71,55.96,714.38,55.54,713.72,55.54z"/>
		<path class="st5" d="M717.57,60.86h1.79c0.01,0.22,0.12,0.39,0.3,0.52c0.17,0.12,0.38,0.17,0.66,0.17c0.66,0,0.98-0.35,0.98-1.12
			v-0.51c-0.38,0.34-0.86,0.51-1.46,0.51c-0.69,0-1.26-0.25-1.7-0.74c-0.44-0.48-0.66-1.22-0.66-2.18v-0.74
			c0-0.96,0.22-1.69,0.65-2.18c0.44-0.48,1.01-0.73,1.7-0.73c0.58,0,1.07,0.18,1.44,0.55v-0.47h1.86v6.4c0,0.84-0.26,1.51-0.77,2.02
			c-0.51,0.49-1.21,0.74-2.11,0.74c-0.82,0-1.46-0.18-1.92-0.55C717.84,62.13,717.58,61.57,717.57,60.86z M721.27,57.45v-0.62
			c0-0.43-0.09-0.75-0.26-0.97c-0.17-0.21-0.4-0.31-0.72-0.31c-0.64,0-0.95,0.42-0.95,1.29v0.62c0,0.88,0.3,1.29,0.91,1.29
			c0.32,0,0.57-0.1,0.74-0.31C721.18,58.2,721.27,57.88,721.27,57.45z"/>
		<path class="st5" d="M728.25,53.86v1.79c-0.35-0.13-0.68-0.2-0.94-0.2c-0.35,0-0.64,0.1-0.84,0.33c-0.22,0.22-0.33,0.55-0.33,0.97
			v4.19h-1.87v-7.02h1.83v0.44c0.13-0.16,0.3-0.27,0.48-0.36c0.3-0.14,0.62-0.22,0.99-0.22C727.81,53.78,728.05,53.81,728.25,53.86z
			"/>
		<path class="st5" d="M734.17,56.37v4.58h-1.82v-0.42c-0.17,0.14-0.34,0.25-0.51,0.33c-0.26,0.12-0.58,0.17-0.96,0.17
			c-0.73,0-1.3-0.2-1.7-0.6c-0.4-0.39-0.61-0.95-0.61-1.64c0-0.64,0.22-1.16,0.65-1.53c0.44-0.38,1.04-0.56,1.79-0.56h1.3v-0.4
			c0-0.65-0.3-0.95-0.95-0.95c-0.27,0-0.48,0.07-0.64,0.2c-0.14,0.13-0.22,0.29-0.22,0.51v0.17h-1.76v-0.18
			c0-0.68,0.25-1.21,0.73-1.6c0.47-0.39,1.11-0.59,1.9-0.59c0.88,0,1.57,0.21,2.07,0.64C733.92,54.92,734.17,55.55,734.17,56.37z
			 M732.31,58.41v-0.35h-1.04c-0.61,0-0.88,0.22-0.88,0.69c0,0.49,0.27,0.72,0.86,0.72c0.39,0,0.66-0.09,0.82-0.25
			C732.23,59.05,732.31,58.78,732.31,58.41z"/>
		<path class="st5" d="M737.15,54.37c0.16-0.13,0.34-0.25,0.55-0.33c0.29-0.13,0.6-0.2,0.92-0.2c0.74,0,1.33,0.26,1.74,0.78
			c0.52-0.52,1.16-0.78,1.9-0.78c0.75,0,1.35,0.23,1.78,0.69c0.43,0.46,0.64,1.09,0.64,1.87v4.54h-1.87v-4.34
			c0-0.35-0.09-0.62-0.26-0.81c-0.17-0.17-0.39-0.26-0.66-0.26c-0.3,0-0.52,0.09-0.69,0.27c-0.17,0.19-0.26,0.44-0.26,0.75v4.38
			h-1.87v-4.34c0-0.35-0.09-0.62-0.26-0.81c-0.17-0.17-0.39-0.26-0.66-0.26c-0.29,0-0.51,0.09-0.69,0.27
			c-0.17,0.18-0.26,0.44-0.26,0.79v4.34h-1.87v-7.02h1.83V54.37z"/>
		<path class="st5" d="M751.19,56.37v4.58h-1.82v-0.42c-0.17,0.14-0.34,0.25-0.51,0.33c-0.26,0.12-0.58,0.17-0.96,0.17
			c-0.73,0-1.3-0.2-1.7-0.6c-0.4-0.39-0.61-0.95-0.61-1.64c0-0.64,0.22-1.16,0.65-1.53c0.44-0.38,1.04-0.56,1.79-0.56h1.3v-0.4
			c0-0.65-0.3-0.95-0.95-0.95c-0.27,0-0.48,0.07-0.64,0.2c-0.14,0.13-0.22,0.29-0.22,0.51v0.17h-1.75v-0.18
			c0-0.68,0.25-1.21,0.73-1.6c0.47-0.39,1.11-0.59,1.9-0.59c0.88,0,1.57,0.21,2.07,0.64C750.94,54.92,751.19,55.55,751.19,56.37z
			 M749.33,58.41v-0.35h-1.04c-0.61,0-0.88,0.22-0.88,0.69c0,0.49,0.27,0.72,0.86,0.72c0.39,0,0.66-0.09,0.82-0.25
			C749.25,59.05,749.33,58.78,749.33,58.41z"/>
		<path class="st5" d="M754.99,58.1v-1.34c0-0.96,0.22-1.69,0.65-2.18c0.44-0.48,1.01-0.73,1.7-0.73c0.58,0,1.07,0.18,1.44,0.55
			v-2.68h1.86v9.23h-1.83v-0.43c-0.38,0.34-0.86,0.51-1.46,0.51c-0.69,0-1.26-0.25-1.7-0.74C755.21,59.8,754.99,59.06,754.99,58.1z
			 M758.79,58.05v-1.22c0-0.43-0.09-0.75-0.26-0.97c-0.17-0.21-0.4-0.31-0.71-0.31c-0.64,0-0.95,0.42-0.95,1.29v1.22
			c0,0.88,0.3,1.29,0.91,1.29c0.33,0,0.57-0.1,0.74-0.31C758.7,58.8,758.79,58.48,758.79,58.05z"/>
		<path class="st5" d="M763.54,58.05v0.05c0,0.47,0.1,0.79,0.3,0.99c0.2,0.2,0.49,0.29,0.87,0.29c0.29,0,0.52-0.06,0.68-0.18
			c0.16-0.1,0.23-0.26,0.25-0.48l0.05-0.14h1.75v0.2c0,0.68-0.26,1.23-0.77,1.65c-0.49,0.4-1.17,0.61-2.03,0.61
			c-0.9,0-1.62-0.26-2.16-0.78c-0.53-0.53-0.81-1.33-0.81-2.41v-0.82c0-1.05,0.26-1.83,0.78-2.37c0.52-0.53,1.23-0.81,2.13-0.81
			c0.88,0,1.59,0.27,2.12,0.81c0.52,0.53,0.78,1.33,0.78,2.37v1.03H763.54z M763.81,55.77c-0.17,0.17-0.26,0.48-0.27,0.91h2.08
			v-0.04c0-0.79-0.33-1.16-1.03-1.16C764.24,55.49,763.98,55.58,763.81,55.77z"/>
		<path class="st5" d="M524.27,76.55h-1.96v-9.23h1.96V76.55z"/>
		<path class="st5" d="M527.39,69.97c0.16-0.13,0.34-0.25,0.55-0.33c0.29-0.13,0.6-0.19,0.92-0.19c0.74,0,1.33,0.26,1.74,0.78
			c0.52-0.52,1.16-0.78,1.9-0.78c0.75,0,1.35,0.23,1.78,0.69s0.64,1.09,0.64,1.87v4.54h-1.87v-4.34c0-0.35-0.09-0.62-0.26-0.81
			c-0.17-0.17-0.39-0.26-0.66-0.26c-0.3,0-0.52,0.09-0.69,0.27c-0.17,0.19-0.26,0.44-0.26,0.75v4.38h-1.87v-4.34
			c0-0.35-0.09-0.62-0.26-0.81c-0.17-0.17-0.39-0.26-0.66-0.26c-0.29,0-0.51,0.09-0.69,0.27c-0.17,0.18-0.26,0.44-0.26,0.79v4.34
			h-1.87v-7.02h1.83V69.97z"/>
		<path class="st5" d="M537.9,70.01c0.39-0.38,0.86-0.56,1.42-0.56c0.71,0,1.3,0.25,1.74,0.73c0.45,0.49,0.68,1.22,0.68,2.18v1.34
			c0,0.96-0.22,1.7-0.68,2.18c-0.44,0.49-1.01,0.74-1.69,0.74c-0.57,0-1.05-0.17-1.43-0.49v2.44h-1.87v-9.05h1.83V70.01z
			 M539.6,71.43c-0.17-0.2-0.39-0.29-0.69-0.29c-0.31,0-0.55,0.1-0.71,0.31c-0.18,0.22-0.27,0.55-0.27,0.97v1.22
			c0,0.43,0.09,0.75,0.27,0.98c0.18,0.21,0.43,0.31,0.75,0.31c0.61,0,0.91-0.4,0.91-1.29v-1.22
			C539.86,71.96,539.77,71.62,539.6,71.43z"/>
		<path class="st5" d="M542.76,74.36v-7.05h1.87v6.94c0,0.25,0.04,0.42,0.12,0.51c0.08,0.09,0.2,0.13,0.39,0.13h0.68v1.65h-0.87
			c-0.69,0-1.22-0.2-1.61-0.57C542.95,75.6,542.76,75.05,542.76,74.36z"/>
		<path class="st5" d="M548.23,73.65v0.05c0,0.47,0.1,0.79,0.3,0.99c0.19,0.2,0.49,0.29,0.87,0.29c0.29,0,0.52-0.06,0.68-0.18
			c0.16-0.1,0.23-0.26,0.25-0.48l0.05-0.14h1.76v0.2c0,0.68-0.26,1.23-0.77,1.65c-0.49,0.4-1.17,0.61-2.03,0.61
			c-0.9,0-1.62-0.26-2.16-0.78c-0.53-0.53-0.81-1.33-0.81-2.41v-0.82c0-1.05,0.26-1.83,0.78-2.37s1.24-0.81,2.13-0.81
			c0.88,0,1.59,0.27,2.12,0.81c0.52,0.53,0.78,1.33,0.78,2.37v1.03H548.23z M548.51,71.37c-0.17,0.17-0.26,0.48-0.27,0.91h2.08
			v-0.04c0-0.79-0.32-1.16-1.03-1.16C548.93,71.09,548.67,71.18,548.51,71.37z"/>
		<path class="st5" d="M555.04,69.97c0.16-0.13,0.34-0.25,0.55-0.33c0.29-0.13,0.6-0.19,0.92-0.19c0.74,0,1.33,0.26,1.74,0.78
			c0.52-0.52,1.16-0.78,1.9-0.78c0.75,0,1.35,0.23,1.78,0.69c0.43,0.46,0.64,1.09,0.64,1.87v4.54h-1.87v-4.34
			c0-0.35-0.09-0.62-0.26-0.81c-0.17-0.17-0.39-0.26-0.66-0.26c-0.3,0-0.52,0.09-0.69,0.27c-0.17,0.19-0.26,0.44-0.26,0.75v4.38
			h-1.87v-4.34c0-0.35-0.09-0.62-0.26-0.81c-0.17-0.17-0.39-0.26-0.66-0.26c-0.29,0-0.51,0.09-0.69,0.27
			c-0.17,0.18-0.26,0.44-0.26,0.79v4.34h-1.87v-7.02h1.83V69.97z"/>
		<path class="st5" d="M565.46,73.65v0.05c0,0.47,0.1,0.79,0.3,0.99c0.19,0.2,0.49,0.29,0.87,0.29c0.29,0,0.52-0.06,0.68-0.18
			c0.16-0.1,0.23-0.26,0.25-0.48l0.05-0.14h1.76v0.2c0,0.68-0.26,1.23-0.77,1.65c-0.49,0.4-1.17,0.61-2.03,0.61
			c-0.9,0-1.62-0.26-2.16-0.78c-0.53-0.53-0.81-1.33-0.81-2.41v-0.82c0-1.05,0.26-1.83,0.78-2.37s1.24-0.81,2.13-0.81
			c0.88,0,1.59,0.27,2.12,0.81c0.52,0.53,0.78,1.33,0.78,2.37v1.03H565.46z M565.73,71.37c-0.17,0.17-0.26,0.48-0.27,0.91h2.08
			v-0.04c0-0.79-0.32-1.16-1.03-1.16C566.16,71.09,565.9,71.18,565.73,71.37z"/>
		<path class="st5" d="M572.27,69.96c0.17-0.13,0.34-0.23,0.55-0.33c0.3-0.12,0.61-0.18,0.92-0.18c0.73,0,1.3,0.23,1.72,0.69
			c0.4,0.47,0.6,1.09,0.6,1.87v4.54h-1.87v-4.34c0-0.35-0.09-0.61-0.25-0.79c-0.17-0.18-0.39-0.27-0.68-0.27
			c-0.27,0-0.51,0.09-0.68,0.27c-0.18,0.18-0.27,0.44-0.27,0.79v4.34h-1.87v-7.02h1.83V69.96z"/>
		<path class="st5" d="M580.08,74.92h0.64v1.62h-0.9c-0.65,0-1.17-0.18-1.55-0.56c-0.39-0.38-0.59-0.88-0.59-1.52v-3.55h-0.94v-1.39
			h0.94v-1.29l1.86-0.65v1.94h1.3v1.39h-1.3v3.45C579.55,74.75,579.72,74.92,580.08,74.92z"/>
		<path class="st5" d="M586.95,71.97v4.58h-1.82v-0.42c-0.17,0.14-0.34,0.25-0.51,0.33c-0.26,0.12-0.58,0.17-0.96,0.17
			c-0.73,0-1.3-0.2-1.7-0.6c-0.4-0.39-0.61-0.95-0.61-1.64c0-0.64,0.22-1.16,0.65-1.53c0.44-0.38,1.04-0.56,1.79-0.56h1.3v-0.4
			c0-0.65-0.3-0.95-0.95-0.95c-0.27,0-0.48,0.07-0.64,0.2c-0.14,0.13-0.22,0.29-0.22,0.51v0.17h-1.75v-0.18
			c0-0.68,0.25-1.21,0.73-1.6c0.47-0.39,1.1-0.58,1.9-0.58c0.88,0,1.57,0.21,2.07,0.64C586.7,70.52,586.95,71.15,586.95,71.97z
			 M585.09,74.01v-0.35h-1.04c-0.61,0-0.88,0.22-0.88,0.69c0,0.49,0.27,0.71,0.86,0.71c0.39,0,0.66-0.09,0.82-0.25
			C585.01,74.65,585.09,74.38,585.09,74.01z"/>
		<path class="st5" d="M587.97,73.66V72.4c0-1,0.26-1.74,0.78-2.22c0.51-0.48,1.21-0.73,2.09-0.73c0.86,0,1.55,0.22,2.04,0.68
			c0.49,0.44,0.74,1.07,0.74,1.86v0.26h-1.79v-0.21c0-0.29-0.08-0.51-0.25-0.66s-0.4-0.23-0.72-0.23c-0.7,0-1.04,0.42-1.04,1.29
			v1.22c0,0.48,0.09,0.82,0.27,1c0.18,0.2,0.43,0.29,0.77,0.29c0.31,0,0.55-0.08,0.72-0.22c0.17-0.16,0.25-0.36,0.25-0.64v-0.21
			h1.79v0.22c0,0.78-0.25,1.4-0.74,1.86s-1.18,0.68-2.04,0.68c-0.88,0-1.59-0.25-2.09-0.73C588.23,75.42,587.97,74.66,587.97,73.66z
			"/>
		<path class="st5" d="M596.59,68.86h-1.9v-1.55h1.9V68.86z M596.58,76.55h-1.86v-7.02h1.86V76.55z"/>
		<path class="st5" d="M597.67,73.66V72.4c0-1,0.26-1.74,0.78-2.22c0.51-0.48,1.21-0.73,2.09-0.73c0.87,0,1.57,0.25,2.08,0.73
			s0.77,1.22,0.77,2.22v1.26c0,1-0.26,1.75-0.77,2.24c-0.51,0.48-1.21,0.73-2.08,0.73c-0.88,0-1.59-0.25-2.09-0.73
			C597.93,75.42,597.67,74.66,597.67,73.66z M600.78,68.9h-1.72l1.61-1.99h2.17L600.78,68.9z M600.54,71.14
			c-0.69,0-1.01,0.42-1.01,1.29v1.22c0,0.87,0.33,1.29,1.01,1.29c0.66,0,0.99-0.42,0.99-1.29v-1.22
			C601.53,71.56,601.21,71.14,600.54,71.14z"/>
		<path class="st5" d="M606.25,69.96c0.17-0.13,0.34-0.23,0.55-0.33c0.3-0.12,0.61-0.18,0.92-0.18c0.73,0,1.3,0.23,1.72,0.69
			c0.4,0.47,0.6,1.09,0.6,1.87v4.54h-1.87v-4.34c0-0.35-0.09-0.61-0.25-0.79c-0.17-0.18-0.39-0.27-0.68-0.27
			c-0.27,0-0.51,0.09-0.68,0.27c-0.18,0.18-0.27,0.44-0.27,0.79v4.34h-1.87v-7.02h1.83V69.96z"/>
		<path class="st5" d="M613.84,73.7v-1.34c0-0.96,0.22-1.69,0.65-2.18c0.44-0.48,1.01-0.73,1.7-0.73c0.58,0,1.07,0.18,1.44,0.55
			v-2.68h1.86v9.23h-1.83v-0.43c-0.38,0.34-0.86,0.51-1.46,0.51c-0.69,0-1.26-0.25-1.7-0.74C614.06,75.4,613.84,74.66,613.84,73.7z
			 M617.64,73.65v-1.22c0-0.43-0.09-0.75-0.26-0.97c-0.17-0.21-0.4-0.31-0.72-0.31c-0.64,0-0.95,0.42-0.95,1.29v1.22
			c0,0.88,0.3,1.29,0.91,1.29c0.32,0,0.57-0.1,0.74-0.31C617.55,74.4,617.64,74.08,617.64,73.65z"/>
		<path class="st5" d="M622.38,73.65v0.05c0,0.47,0.1,0.79,0.3,0.99c0.19,0.2,0.49,0.29,0.87,0.29c0.29,0,0.52-0.06,0.68-0.18
			c0.16-0.1,0.23-0.26,0.25-0.48l0.05-0.14h1.76v0.2c0,0.68-0.26,1.23-0.77,1.65c-0.49,0.4-1.17,0.61-2.03,0.61
			c-0.9,0-1.62-0.26-2.16-0.78c-0.53-0.53-0.81-1.33-0.81-2.41v-0.82c0-1.05,0.26-1.83,0.78-2.37s1.24-0.81,2.13-0.81
			c0.88,0,1.59,0.27,2.12,0.81c0.52,0.53,0.78,1.33,0.78,2.37v1.03H622.38z M622.66,71.37c-0.17,0.17-0.26,0.48-0.27,0.91h2.08
			v-0.04c0-0.79-0.32-1.16-1.03-1.16C623.09,71.09,622.83,71.18,622.66,71.37z"/>
		<path class="st5" d="M630.08,74.36v-7.05h1.87v6.94c0,0.25,0.04,0.42,0.12,0.51c0.08,0.09,0.19,0.13,0.39,0.13h0.68v1.65h-0.87
			c-0.69,0-1.22-0.2-1.61-0.57C630.28,75.6,630.08,75.05,630.08,74.36z"/>
		<path class="st5" d="M639.18,71.97v4.58h-1.82v-0.42c-0.17,0.14-0.34,0.25-0.51,0.33c-0.26,0.12-0.58,0.17-0.96,0.17
			c-0.73,0-1.3-0.2-1.7-0.6c-0.4-0.39-0.61-0.95-0.61-1.64c0-0.64,0.22-1.16,0.65-1.53c0.44-0.38,1.04-0.56,1.79-0.56h1.3v-0.4
			c0-0.65-0.3-0.95-0.95-0.95c-0.27,0-0.48,0.07-0.64,0.2c-0.14,0.13-0.22,0.29-0.22,0.51v0.17h-1.75v-0.18
			c0-0.68,0.25-1.21,0.73-1.6c0.47-0.39,1.1-0.58,1.9-0.58c0.88,0,1.57,0.21,2.07,0.64C638.93,70.52,639.18,71.15,639.18,71.97z
			 M637.32,74.01v-0.35h-1.04c-0.61,0-0.88,0.22-0.88,0.69c0,0.49,0.27,0.71,0.86,0.71c0.39,0,0.66-0.09,0.82-0.25
			C637.24,74.65,637.32,74.38,637.32,74.01z"/>
		<path class="st5" d="M649.79,70.27c0,0.87-0.27,1.57-0.83,2.09c-0.55,0.52-1.29,0.78-2.24,0.78h-1.52v3.41h-1.96v-9.23h3.48
			c0.95,0,1.69,0.26,2.24,0.79C649.52,68.63,649.79,69.36,649.79,70.27z M647.82,70.27c0-0.4-0.1-0.7-0.31-0.9
			c-0.19-0.21-0.49-0.31-0.87-0.31h-1.44v2.33h1.44c0.38,0,0.66-0.09,0.87-0.29S647.82,70.63,647.82,70.27z"/>
		<path class="st5" d="M657.57,67.32v9.23h-1.91l-3.09-5.25v5.25h-1.96v-9.23h1.91l3.09,5.27v-5.27H657.57z"/>
		<path class="st5" d="M666.22,76.55h-2.08l-0.55-1.74h-2.9l-0.55,1.74h-2.07l3.28-9.23h1.57L666.22,76.55z M663.05,73.13
			l-0.91-2.86l-0.9,2.86H663.05z"/>
		<path class="st5" d="M671.21,70.01c0.39-0.38,0.86-0.56,1.42-0.56c0.71,0,1.3,0.25,1.74,0.73c0.45,0.49,0.68,1.22,0.68,2.18v1.34
			c0,0.96-0.22,1.7-0.68,2.18c-0.44,0.49-1.01,0.74-1.69,0.74c-0.57,0-1.05-0.17-1.43-0.49v2.44h-1.87v-9.05h1.83V70.01z
			 M672.91,71.43c-0.17-0.2-0.39-0.29-0.69-0.29c-0.31,0-0.55,0.1-0.71,0.31c-0.18,0.22-0.27,0.55-0.27,0.97v1.22
			c0,0.43,0.09,0.75,0.27,0.98c0.18,0.21,0.43,0.31,0.75,0.31c0.61,0,0.91-0.4,0.91-1.29v-1.22
			C673.17,71.96,673.08,71.62,672.91,71.43z"/>
		<path class="st5" d="M675.96,73.66V72.4c0-1,0.26-1.74,0.78-2.22c0.51-0.48,1.21-0.73,2.09-0.73c0.87,0,1.57,0.25,2.08,0.73
			s0.77,1.22,0.77,2.22v1.26c0,1-0.26,1.75-0.77,2.24c-0.51,0.48-1.21,0.73-2.08,0.73c-0.88,0-1.59-0.25-2.09-0.73
			C676.22,75.42,675.96,74.66,675.96,73.66z M678.83,71.14c-0.69,0-1.01,0.42-1.01,1.29v1.22c0,0.87,0.33,1.29,1.01,1.29
			c0.66,0,0.99-0.42,0.99-1.29v-1.22C679.82,71.56,679.49,71.14,678.83,71.14z"/>
		<path class="st5" d="M686.68,69.46v1.79c-0.35-0.13-0.68-0.2-0.94-0.2c-0.35,0-0.64,0.1-0.85,0.33c-0.22,0.22-0.33,0.55-0.33,0.98
			v4.19h-1.87v-7.02h1.83v0.44c0.13-0.16,0.3-0.27,0.48-0.36c0.3-0.14,0.62-0.22,0.99-0.22C686.24,69.38,686.47,69.41,686.68,69.46z
			"/>
		<path class="st5" d="M691.91,70.01c0.39-0.38,0.86-0.56,1.42-0.56c0.71,0,1.3,0.25,1.74,0.73c0.46,0.49,0.68,1.22,0.68,2.18v1.34
			c0,0.96-0.22,1.7-0.68,2.18c-0.44,0.49-1.01,0.74-1.69,0.74c-0.57,0-1.05-0.17-1.43-0.49v2.44h-1.87v-9.05h1.83V70.01z
			 M693.61,71.43c-0.17-0.2-0.39-0.29-0.69-0.29c-0.31,0-0.55,0.1-0.71,0.31c-0.18,0.22-0.27,0.55-0.27,0.97v1.22
			c0,0.43,0.09,0.75,0.27,0.98c0.18,0.21,0.43,0.31,0.75,0.31c0.61,0,0.91-0.4,0.91-1.29v-1.22
			C693.87,71.96,693.78,71.62,693.61,71.43z"/>
		<path class="st5" d="M702.14,71.97v4.58h-1.82v-0.42c-0.17,0.14-0.34,0.25-0.51,0.33c-0.26,0.12-0.58,0.17-0.96,0.17
			c-0.73,0-1.3-0.2-1.7-0.6c-0.4-0.39-0.61-0.95-0.61-1.64c0-0.64,0.22-1.16,0.65-1.53c0.44-0.38,1.04-0.56,1.79-0.56h1.3v-0.4
			c0-0.65-0.3-0.95-0.95-0.95c-0.27,0-0.48,0.07-0.64,0.2c-0.14,0.13-0.22,0.29-0.22,0.51v0.17h-1.75v-0.18
			c0-0.68,0.25-1.21,0.73-1.6c0.47-0.39,1.1-0.58,1.9-0.58c0.88,0,1.57,0.21,2.07,0.64C701.89,70.52,702.14,71.15,702.14,71.97z
			 M700.28,74.01v-0.35h-1.04c-0.61,0-0.88,0.22-0.88,0.69c0,0.49,0.27,0.71,0.86,0.71c0.39,0,0.66-0.09,0.82-0.25
			C700.2,74.65,700.28,74.38,700.28,74.01z"/>
		<path class="st5" d="M707.26,69.46v1.79c-0.35-0.13-0.68-0.2-0.94-0.2c-0.35,0-0.64,0.1-0.85,0.33c-0.22,0.22-0.32,0.55-0.32,0.98
			v4.19h-1.87v-7.02h1.83v0.44c0.13-0.16,0.3-0.27,0.48-0.36c0.3-0.14,0.62-0.22,0.99-0.22C706.82,69.38,707.05,69.41,707.26,69.46z
			"/>
		<path class="st5" d="M710.89,74.92h0.64v1.62h-0.9c-0.65,0-1.17-0.18-1.55-0.56c-0.39-0.38-0.59-0.88-0.59-1.52v-3.55h-0.94v-1.39
			h0.94v-1.29l1.86-0.65v1.94h1.3v1.39h-1.3v3.45C710.35,74.75,710.52,74.92,710.89,74.92z"/>
		<path class="st5" d="M714.06,73.65v0.05c0,0.47,0.1,0.79,0.3,0.99c0.19,0.2,0.49,0.29,0.87,0.29c0.29,0,0.52-0.06,0.68-0.18
			c0.16-0.1,0.23-0.26,0.25-0.48l0.05-0.14h1.76v0.2c0,0.68-0.26,1.23-0.77,1.65c-0.49,0.4-1.17,0.61-2.03,0.61
			c-0.9,0-1.62-0.26-2.16-0.78c-0.53-0.53-0.81-1.33-0.81-2.41v-0.82c0-1.05,0.26-1.83,0.78-2.37s1.24-0.81,2.13-0.81
			c0.88,0,1.59,0.27,2.12,0.81c0.52,0.53,0.78,1.33,0.78,2.37v1.03H714.06z M714.33,71.37c-0.17,0.17-0.26,0.48-0.27,0.91h2.08
			v-0.04c0-0.79-0.32-1.16-1.03-1.16C714.76,71.09,714.5,71.18,714.33,71.37z"/>
		<path class="st5" d="M721.7,73.7v-1.34c0-0.96,0.22-1.69,0.65-2.18c0.44-0.48,1.01-0.73,1.7-0.73c0.59,0,1.07,0.18,1.44,0.55
			v-2.68h1.86v9.23h-1.83v-0.43c-0.38,0.34-0.86,0.51-1.46,0.51c-0.69,0-1.26-0.25-1.7-0.74C721.92,75.4,721.7,74.66,721.7,73.7z
			 M725.5,73.65v-1.22c0-0.43-0.09-0.75-0.26-0.97c-0.17-0.21-0.4-0.31-0.71-0.31c-0.64,0-0.95,0.42-0.95,1.29v1.22
			c0,0.88,0.3,1.29,0.91,1.29c0.33,0,0.57-0.1,0.74-0.31C725.41,74.4,725.5,74.08,725.5,73.65z"/>
		<path class="st5" d="M730.24,73.65v0.05c0,0.47,0.1,0.79,0.3,0.99c0.19,0.2,0.49,0.29,0.87,0.29c0.29,0,0.52-0.06,0.68-0.18
			c0.16-0.1,0.23-0.26,0.25-0.48l0.05-0.14h1.75v0.2c0,0.68-0.26,1.23-0.77,1.65c-0.49,0.4-1.17,0.61-2.03,0.61
			c-0.9,0-1.62-0.26-2.16-0.78c-0.53-0.53-0.81-1.33-0.81-2.41v-0.82c0-1.05,0.26-1.83,0.78-2.37c0.52-0.53,1.23-0.81,2.13-0.81
			c0.88,0,1.59,0.27,2.12,0.81c0.52,0.53,0.78,1.33,0.78,2.37v1.03H730.24z M730.52,71.37c-0.17,0.17-0.26,0.48-0.27,0.91h2.08
			v-0.04c0-0.79-0.33-1.16-1.03-1.16C730.94,71.09,730.68,71.18,730.52,71.37z"/>
		<path class="st5" d="M735.22,74.36v-7.05h1.87v6.94c0,0.25,0.04,0.42,0.12,0.51c0.08,0.09,0.19,0.13,0.39,0.13h0.68v1.65h-0.87
			c-0.69,0-1.22-0.2-1.61-0.57C735.42,75.6,735.22,75.05,735.22,74.36z"/>
		<path class="st5" d="M745.3,67.19c1.01,0,1.82,0.27,2.43,0.82c0.6,0.53,0.91,1.31,0.91,2.29v0.22h-1.96v-0.21
			c0-0.43-0.12-0.75-0.36-1c-0.23-0.25-0.57-0.36-1.03-0.36c-0.51,0-0.86,0.16-1.08,0.46c-0.23,0.31-0.35,0.85-0.35,1.59v1.94
			c0,0.7,0.12,1.21,0.35,1.51c0.23,0.3,0.6,0.44,1.11,0.44c0.46,0,0.79-0.12,1.01-0.35c0.23-0.23,0.35-0.56,0.35-0.97v-0.23h1.94
			v0.22c0,1-0.3,1.77-0.9,2.31c-0.6,0.53-1.42,0.81-2.44,0.81c-2.25,0-3.39-1.25-3.39-3.71v-2.05
			C741.88,68.44,743.03,67.19,745.3,67.19z"/>
		<path class="st5" d="M753.1,67.19c1.01,0,1.82,0.27,2.43,0.82c0.6,0.53,0.91,1.31,0.91,2.29v0.22h-1.96v-0.21
			c0-0.43-0.12-0.75-0.36-1c-0.23-0.25-0.57-0.36-1.03-0.36c-0.51,0-0.86,0.16-1.08,0.46c-0.23,0.31-0.35,0.85-0.35,1.59v1.94
			c0,0.7,0.12,1.21,0.35,1.51c0.23,0.3,0.6,0.44,1.11,0.44c0.46,0,0.79-0.12,1.01-0.35c0.23-0.23,0.35-0.56,0.35-0.97v-0.23h1.94
			v0.22c0,1-0.3,1.77-0.9,2.31c-0.6,0.53-1.42,0.81-2.44,0.81c-2.25,0-3.39-1.25-3.39-3.71v-2.05
			C749.68,68.44,750.83,67.19,753.1,67.19z"/>
		<path class="st5" d="M764.22,72.8h-3.83v-1.75h3.83V72.8z"/>
		<path class="st5" d="M764.86,73.56h1.87c0.05,0.52,0.2,0.88,0.44,1.08c0.22,0.18,0.58,0.27,1.05,0.27c0.9,0,1.31-0.34,1.31-1.05
			c0-0.32-0.08-0.56-0.25-0.71c-0.17-0.17-0.46-0.29-0.84-0.35l-0.85-0.14c-1.68-0.29-2.54-1.16-2.54-2.63
			c0-0.87,0.29-1.56,0.87-2.08c0.57-0.51,1.34-0.75,2.28-0.75c0.91,0,1.65,0.25,2.18,0.74c0.57,0.51,0.88,1.25,0.94,2.2h-1.91
			c0-0.47-0.12-0.79-0.34-0.99c-0.2-0.17-0.49-0.26-0.9-0.26c-0.42,0-0.71,0.09-0.91,0.27c-0.21,0.18-0.3,0.42-0.3,0.74
			c0,0.27,0.09,0.49,0.26,0.65s0.45,0.27,0.87,0.35l0.95,0.17c1.6,0.29,2.42,1.18,2.42,2.65c0,0.94-0.3,1.66-0.91,2.17
			c-0.6,0.49-1.4,0.74-2.42,0.74c-0.99,0-1.77-0.25-2.34-0.75C765.22,75.34,764.91,74.57,764.86,73.56z"/>
		<path class="st5" d="M779.41,67.32v9.23h-1.91l-3.09-5.25v5.25h-1.96v-9.23h1.91l3.09,5.27v-5.27H779.41z"/>
		<path class="st5" d="M788.05,76.55h-2.08l-0.55-1.74h-2.9l-0.55,1.74h-2.07l3.28-9.23h1.57L788.05,76.55z M784.88,73.13
			l-0.91-2.86l-0.9,2.86H784.88z"/>
	</g>
</g>
</svg>
