<?xml version="1.0" encoding="UTF-8" standalone="no"?>
<!-- Generator: Adobe Illustrator 26.0.2, SVG Export Plug-In . SVG Version: 6.00 Build 0)  -->

<svg
   version="1.1"
   id="Capa_1"
   x="0px"
   y="0px"
   viewBox="0 0 559.59999 290.35999"
   xml:space="preserve"
   sodipodi:docname="4-implementacion.svg"
   width="559.59998"
   height="290.35999"
   inkscape:version="1.1.1 (3bf5ae0d25, 2021-09-20, custom)"
   xmlns:inkscape="http://www.inkscape.org/namespaces/inkscape"
   xmlns:sodipodi="http://sodipodi.sourceforge.net/DTD/sodipodi-0.dtd"
   xmlns:xlink="http://www.w3.org/1999/xlink"
   xmlns="http://www.w3.org/2000/svg"
   xmlns:svg="http://www.w3.org/2000/svg"><defs
   id="defs331" /><sodipodi:namedview
   id="namedview329"
   pagecolor="#ffffff"
   bordercolor="#666666"
   borderopacity="1.0"
   inkscape:pageshadow="2"
   inkscape:pageopacity="0.0"
   inkscape:pagecheckerboard="false"
   showgrid="false"
   borderlayer="false"
   inkscape:zoom="0.88539766"
   inkscape:cx="-18.635694"
   inkscape:cy="230.96966"
   inkscape:window-width="1920"
   inkscape:window-height="1052"
   inkscape:window-x="1920"
   inkscape:window-y="0"
   inkscape:window-maximized="1"
   inkscape:current-layer="Capa_1" />
<style
   type="text/css"
   id="style2">
	.st0{clip-path:url(#SVGID_00000127766530892979584040000013212897324512460216_);}
	.st1{fill:#6CC72B;}
	.st2{fill:#74598F;}
	.st3{fill:#3E90C5;}
	.st4{fill:#E24486;}
	.st5{fill:#FFFFFF;}
	.st6{fill:none;}
	.st7{fill:#857F7B;}
	.st8{fill:none;stroke:#74598F;stroke-miterlimit:10;}
	.st9{fill:#575756;}
	.st10{fill:none;stroke:#82CCD8;stroke-width:2;stroke-miterlimit:10;}
	.st11{fill:url(#SVGID_00000090296612500615223500000013932239620211470255_);stroke:#6CC72B;stroke-width:3;stroke-miterlimit:10;}
	.st12{fill:#6CC72B;stroke:#6CC72B;stroke-width:3;stroke-miterlimit:10;}
	.st13{fill:#006633;}
	.st14{fill:url(#SVGID_00000127735160479475047370000001806043775776003255_);stroke:#3E90C5;stroke-width:3;stroke-miterlimit:10;}
	.st15{fill:#3E90C5;stroke:#3E90C5;stroke-width:3;stroke-miterlimit:10;}
	.st16{fill:#4390C3;}
	.st17{fill:url(#SVGID_00000149346669287479667700000002557478530706424222_);stroke:#74598F;stroke-width:5;stroke-miterlimit:10;}
	.st18{fill:#74598F;stroke:#74598F;stroke-miterlimit:10;}
	.st19{fill:url(#SVGID_00000054254434177701263180000013447587380002582182_);stroke:#E04264;stroke-width:5;stroke-miterlimit:10;}
	.st20{fill:#E24486;stroke:#E04264;stroke-miterlimit:10;}
	.st21{fill:#CBBBA0;}
	.st22{fill:#3AAA35;}
	.st23{fill:#2D2E83;}
	.st24{fill:#9D9D9C;}
	.st25{clip-path:url(#SVGID_00000147906205590032619230000017936734887071106726_);fill:#857F7B;}
	.st26{clip-path:url(#SVGID_00000095328548223770898880000011134609911586411933_);fill:#857F7B;}
	.st27{clip-path:url(#SVGID_00000142892421349885994190000017827450252317888697_);fill:#857F7B;}
	.st28{clip-path:url(#SVGID_00000151531917159354951810000002724256061081244585_);fill:#6CC72B;}
	.st29{clip-path:url(#SVGID_00000151531917159354951810000002724256061081244585_);fill:#74598F;}
	.st30{fill:#046C76;}
	.st31{fill:#F29177;}
	.st32{fill:#E71D73;}
</style>
<g
   id="g278"
   transform="translate(-31.809999,-94.82)">
	<polygon
   class="st21"
   points="506.5,385.18 327.78,94.82 149.06,385.18 "
   id="polygon4" />
	<g
   id="g276">
		<path
   class="st22"
   d="m 385.06,151.71 h -63.05 c -7.72,0 -13.97,-6.26 -13.97,-13.97 v 0 c 0,-7.72 6.26,-13.97 13.97,-13.97 h 63.05 c 7.72,0 13.97,6.26 13.97,13.97 v 0 c 0.01,7.71 -6.25,13.97 -13.97,13.97 z"
   id="path6" />
		<g
   id="g16">
			<rect
   x="314.41"
   y="131.05"
   class="st6"
   width="71.589996"
   height="20.66"
   id="rect8" />
			<path
   class="st5"
   d="m 347.28,136.07 v 1.41 h -4.86 v 3.81 h 5.68 v 1.41 h -7.21 v -11.66 h 7.21 v 1.41 h -5.68 v 3.61 h 4.86 z"
   id="path10" />
			<path
   class="st5"
   d="m 349.57,143.63 c 0.15,-0.16 0.21,-0.44 0.21,-0.84 v -8.73 h 1.44 v 8.8 c 0,0.76 -0.2,1.33 -0.57,1.74 -0.38,0.41 -0.94,0.61 -1.64,0.61 h -0.95 v -1.35 h 0.84 c 0.33,0 0.54,-0.09 0.67,-0.23 z m 1.67,-10.77 h -1.51 v -1.81 h 1.51 z"
   id="path12" />
			<path
   class="st5"
   d="m 355.2,140.95 c 0.34,0.34 0.84,0.53 1.48,0.53 0.56,0 0.99,-0.13 1.28,-0.39 0.29,-0.25 0.44,-0.59 0.44,-1.05 v -0.21 h 1.41 v 0.25 c 0,0.82 -0.3,1.49 -0.87,2 -0.58,0.49 -1.36,0.74 -2.35,0.74 -1.02,0 -1.84,-0.31 -2.45,-0.92 -0.61,-0.61 -0.92,-1.56 -0.92,-2.82 v -1.45 c 0,-1.23 0.31,-2.17 0.92,-2.77 0.61,-0.6 1.41,-0.9 2.41,-0.9 1,0 1.81,0.31 2.41,0.9 0.61,0.61 0.9,1.54 0.9,2.77 v 1.15 h -5.21 v 0.33 c 0.02,0.89 0.21,1.49 0.55,1.84 z m -0.53,-3.37 v 0.02 h 3.76 v -0.13 c 0,-0.82 -0.16,-1.4 -0.49,-1.71 -0.33,-0.31 -0.79,-0.48 -1.38,-0.48 -0.58,0 -1.03,0.16 -1.38,0.51 -0.34,0.33 -0.51,0.92 -0.51,1.79 z"
   id="path14" />
		</g>
		<path
   class="st23"
   d="m 405.01,207.52 h -58.6 c -8.95,0 -16.2,-7.25 -16.2,-16.2 v -5.9 c 0,-8.95 7.25,-16.2 16.2,-16.2 h 58.6 c 8.95,0 16.2,7.25 16.2,16.2 v 5.9 c 0,8.95 -7.25,16.2 -16.2,16.2 z"
   id="path18" />
		<g
   id="g58">
			<rect
   x="331.04999"
   y="174.49001"
   class="st6"
   width="90.169998"
   height="34.860001"
   id="rect20" />
			<path
   class="st5"
   d="m 349.42,181.77 v -2.94 c 0,-1.54 0.38,-2.68 1.12,-3.42 0.74,-0.72 1.74,-1.08 2.99,-1.08 1.23,0 2.23,0.36 2.97,1.08 0.74,0.74 1.1,1.87 1.1,3.42 v 2.94 c 0,1.54 -0.38,2.68 -1.12,3.42 -0.74,0.72 -1.74,1.08 -2.97,1.08 -1.25,0 -2.25,-0.36 -2.99,-1.08 -0.74,-0.74 -1.1,-1.87 -1.1,-3.42 z m 4.11,-6.02 c -0.87,0 -1.49,0.25 -1.94,0.72 -0.43,0.49 -0.64,1.3 -0.64,2.41 v 2.96 c 0,1.07 0.21,1.84 0.66,2.3 0.43,0.48 1.07,0.71 1.92,0.71 1.71,0 2.54,-0.99 2.54,-3 v -2.96 c 0,-2.12 -0.84,-3.14 -2.54,-3.14 z"
   id="path22" />
			<path
   class="st5"
   d="m 366.08,180.95 v 1.71 c 0,1.21 -0.28,2.12 -0.84,2.69 -0.56,0.59 -1.26,0.89 -2.13,0.89 -0.89,0 -1.59,-0.28 -2.08,-0.84 v 0.74 h -1.44 v -11.66 h 1.44 v 3.79 c 0.18,-0.21 0.39,-0.41 0.64,-0.56 0.39,-0.23 0.85,-0.34 1.36,-0.34 0.9,0 1.64,0.3 2.2,0.89 0.57,0.58 0.85,1.48 0.85,2.69 z m -1.44,0.07 c 0,-1.56 -0.57,-2.3 -1.76,-2.3 -0.62,0 -1.07,0.21 -1.38,0.62 -0.31,0.44 -0.48,1.03 -0.48,1.77 v 1.46 c 0,0.69 0.16,1.26 0.49,1.69 0.33,0.43 0.8,0.64 1.43,0.64 1.13,0 1.69,-0.75 1.69,-2.31 v -1.57 z"
   id="path24" />
			<path
   class="st5"
   d="m 367.74,187.06 c 0.15,-0.16 0.21,-0.44 0.21,-0.84 v -8.73 h 1.44 v 8.8 c 0,0.76 -0.2,1.33 -0.57,1.74 -0.38,0.41 -0.94,0.61 -1.64,0.61 h -0.95 v -1.35 h 0.84 c 0.32,0 0.54,-0.08 0.67,-0.23 z m 1.67,-10.77 h -1.51 v -1.81 h 1.51 z"
   id="path26" />
			<path
   class="st5"
   d="m 373.37,184.39 c 0.34,0.34 0.84,0.53 1.48,0.53 0.56,0 0.99,-0.13 1.28,-0.39 0.29,-0.25 0.44,-0.59 0.44,-1.05 v -0.21 h 1.41 v 0.25 c 0,0.82 -0.3,1.49 -0.87,2 -0.58,0.49 -1.36,0.74 -2.35,0.74 -1.02,0 -1.84,-0.31 -2.45,-0.92 -0.61,-0.61 -0.92,-1.56 -0.92,-2.82 v -1.45 c 0,-1.23 0.31,-2.17 0.92,-2.77 0.61,-0.6 1.41,-0.9 2.41,-0.9 1,0 1.81,0.31 2.41,0.9 0.61,0.61 0.9,1.54 0.9,2.77 v 1.15 h -5.21 v 0.33 c 0.02,0.88 0.2,1.49 0.55,1.84 z m -0.53,-3.37 v 0.02 h 3.76 v -0.13 c 0,-0.82 -0.16,-1.4 -0.49,-1.71 -0.33,-0.31 -0.79,-0.48 -1.38,-0.48 -0.58,0 -1.03,0.16 -1.38,0.51 -0.35,0.33 -0.51,0.92 -0.51,1.79 z"
   id="path28" />
			<path
   class="st5"
   d="m 382.9,184.83 h 0.82 v 1.31 h -1 c -0.67,0 -1.21,-0.2 -1.61,-0.61 -0.38,-0.39 -0.57,-0.94 -0.57,-1.62 v -5.21 h -1.3 v -1.21 h 1.3 v -1.84 l 1.46,-0.69 v 2.53 h 1.87 v 1.21 H 382 v 5.16 c 0,0.67 0.28,0.97 0.9,0.97 z"
   id="path30" />
			<path
   class="st5"
   d="m 387.1,176.46 h -1.51 v -1.81 h 1.51 z m -0.03,9.68 h -1.45 v -8.65 h 1.45 z"
   id="path32" />
			<path
   class="st5"
   d="m 395.47,177.49 -2.99,8.65 h -1.23 l -2.99,-8.65 h 1.56 l 2.05,6.29 2.05,-6.29 z"
   id="path34" />
			<path
   class="st5"
   d="m 396.28,182.66 v -1.71 c 0,-1.23 0.31,-2.13 0.92,-2.71 0.61,-0.57 1.43,-0.87 2.45,-0.87 1,0 1.79,0.3 2.4,0.87 0.62,0.58 0.92,1.48 0.92,2.71 v 1.71 c 0,1.23 -0.3,2.13 -0.92,2.71 -0.61,0.57 -1.4,0.87 -2.4,0.87 -1.02,0 -1.84,-0.28 -2.45,-0.85 -0.61,-0.58 -0.92,-1.5 -0.92,-2.73 z m 5.23,-0.06 v -1.58 c 0,-0.87 -0.16,-1.46 -0.51,-1.79 -0.33,-0.34 -0.79,-0.51 -1.36,-0.51 -0.61,0 -1.07,0.16 -1.41,0.51 -0.35,0.33 -0.51,0.92 -0.51,1.79 v 1.58 c 0,0.87 0.16,1.48 0.51,1.81 0.34,0.34 0.8,0.51 1.41,0.51 0.58,0 1.04,-0.16 1.36,-0.51 0.35,-0.34 0.51,-0.94 0.51,-1.81 z"
   id="path36" />
			<path
   class="st5"
   d="m 348.15,195.92 v 1.41 h -4.86 v 3.81 h 5.68 v 1.41 h -7.21 V 190.9 h 7.21 v 1.41 h -5.68 v 3.61 z"
   id="path38" />
			<path
   class="st5"
   d="m 350.2,200.06 v -0.23 h 1.41 v 0.21 c 0,0.41 0.15,0.72 0.48,0.97 0.31,0.23 0.77,0.36 1.33,0.36 0.59,0 1.05,-0.12 1.38,-0.34 0.31,-0.23 0.46,-0.53 0.46,-0.95 0,-0.38 -0.1,-0.62 -0.31,-0.79 -0.21,-0.18 -0.59,-0.31 -1.12,-0.41 l -1.04,-0.18 c -0.82,-0.15 -1.44,-0.39 -1.85,-0.77 -0.41,-0.36 -0.61,-0.9 -0.61,-1.59 0,-0.77 0.29,-1.4 0.87,-1.86 0.56,-0.46 1.3,-0.69 2.18,-0.69 0.95,0 1.72,0.21 2.3,0.67 0.59,0.44 0.89,1.05 0.89,1.77 v 0.26 h -1.41 v -0.21 c 0,-0.39 -0.15,-0.67 -0.44,-0.9 -0.31,-0.23 -0.74,-0.34 -1.3,-0.34 -0.54,0 -0.97,0.12 -1.25,0.34 -0.3,0.21 -0.43,0.51 -0.43,0.9 0,0.31 0.1,0.56 0.3,0.72 0.2,0.18 0.53,0.31 1.02,0.39 l 1.08,0.2 c 0.84,0.16 1.48,0.43 1.89,0.79 0.43,0.38 0.64,0.92 0.64,1.62 0,0.84 -0.31,1.49 -0.92,1.95 -0.61,0.46 -1.4,0.69 -2.38,0.69 -0.95,0 -1.71,-0.23 -2.28,-0.69 -0.59,-0.46 -0.89,-1.1 -0.89,-1.89 z"
   id="path40" />
			<path
   class="st5"
   d="m 364.74,197.37 v 1.71 c 0,1.23 -0.28,2.13 -0.84,2.71 -0.56,0.57 -1.26,0.87 -2.13,0.87 -0.89,0 -1.59,-0.28 -2.09,-0.84 v 3.23 h -1.44 V 193.9 h 1.44 v 0.79 c 0.18,-0.21 0.39,-0.39 0.64,-0.54 0.39,-0.23 0.85,-0.34 1.36,-0.34 0.9,0 1.64,0.3 2.2,0.87 0.59,0.57 0.86,1.47 0.86,2.69 z m -1.44,0.08 c 0,-1.56 -0.57,-2.31 -1.76,-2.31 -0.62,0 -1.07,0.21 -1.38,0.62 -0.31,0.44 -0.48,1.03 -0.48,1.77 v 1.46 c 0,0.69 0.16,1.26 0.49,1.69 0.33,0.43 0.8,0.64 1.43,0.64 1.13,0 1.69,-0.75 1.69,-2.31 v -1.56 z"
   id="path42" />
			<path
   class="st5"
   d="m 368.32,200.8 c 0.34,0.34 0.84,0.53 1.48,0.53 0.56,0 0.99,-0.13 1.28,-0.39 0.29,-0.25 0.44,-0.59 0.44,-1.05 v -0.21 h 1.41 v 0.25 c 0,0.82 -0.3,1.49 -0.87,2 -0.58,0.49 -1.36,0.74 -2.35,0.74 -1.02,0 -1.84,-0.31 -2.45,-0.92 -0.61,-0.61 -0.92,-1.56 -0.92,-2.82 v -1.45 c 0,-1.23 0.31,-2.17 0.92,-2.77 0.61,-0.6 1.41,-0.9 2.41,-0.9 1,0 1.81,0.31 2.41,0.9 0.61,0.61 0.9,1.54 0.9,2.77 v 1.15 h -5.21 v 0.33 c 0.02,0.88 0.21,1.49 0.55,1.84 z m -0.53,-3.37 v 0.02 h 3.76 v -0.13 c 0,-0.82 -0.16,-1.4 -0.49,-1.71 -0.33,-0.31 -0.79,-0.48 -1.38,-0.48 -0.58,0 -1.03,0.16 -1.38,0.51 -0.34,0.33 -0.51,0.92 -0.51,1.79 z"
   id="path44" />
			<path
   class="st5"
   d="m 374.61,199.07 v -1.71 c 0,-1.23 0.31,-2.13 0.94,-2.71 0.61,-0.57 1.45,-0.87 2.46,-0.87 0.99,0 1.79,0.26 2.36,0.8 0.59,0.53 0.89,1.25 0.89,2.13 v 0.25 h -1.41 v -0.25 c 0,-0.51 -0.15,-0.9 -0.48,-1.17 -0.31,-0.28 -0.75,-0.43 -1.31,-0.43 -0.64,0 -1.13,0.16 -1.48,0.51 -0.34,0.33 -0.53,0.92 -0.53,1.79 v 1.58 c 0,0.87 0.18,1.48 0.51,1.81 0.36,0.34 0.84,0.51 1.48,0.51 0.57,0 1.02,-0.15 1.33,-0.43 0.33,-0.26 0.48,-0.66 0.48,-1.17 v -0.25 h 1.41 v 0.23 c 0,0.89 -0.3,1.61 -0.89,2.13 -0.59,0.54 -1.38,0.8 -2.35,0.8 -1.03,0 -1.87,-0.28 -2.48,-0.85 -0.62,-0.55 -0.93,-1.47 -0.93,-2.7 z"
   id="path46" />
			<path
   class="st5"
   d="m 384.35,193.16 h -1.45 l 1.89,-2.38 h 1.84 z m 0.35,9.39 h -1.45 v -8.65 h 1.45 z"
   id="path48" />
			<path
   class="st5"
   d="m 390.8,193.9 v 1.21 h -1.74 v 7.44 h -1.46 v -7.44 h -1.05 v -1.21 h 1.05 v -0.77 c 0,-0.67 0.2,-1.21 0.57,-1.63 0.39,-0.41 0.92,-0.61 1.59,-0.61 h 1.03 v 1.21 h -0.85 c -0.61,0 -0.89,0.3 -0.89,0.97 v 0.82 h 1.75 z"
   id="path50" />
			<path
   class="st5"
   d="m 393.94,192.87 h -1.51 v -1.81 h 1.51 z m -0.03,9.68 h -1.45 v -8.65 h 1.45 z"
   id="path52" />
			<path
   class="st5"
   d="m 395.91,199.07 v -1.71 c 0,-1.23 0.31,-2.13 0.94,-2.71 0.61,-0.57 1.45,-0.87 2.46,-0.87 0.99,0 1.79,0.26 2.36,0.8 0.59,0.53 0.89,1.25 0.89,2.13 v 0.25 h -1.41 v -0.25 c 0,-0.51 -0.15,-0.9 -0.48,-1.17 -0.31,-0.28 -0.75,-0.43 -1.31,-0.43 -0.64,0 -1.13,0.16 -1.48,0.51 -0.34,0.33 -0.53,0.92 -0.53,1.79 v 1.58 c 0,0.87 0.18,1.48 0.51,1.81 0.36,0.34 0.84,0.51 1.48,0.51 0.57,0 1.02,-0.15 1.33,-0.43 0.33,-0.26 0.48,-0.66 0.48,-1.17 v -0.25 h 1.41 v 0.23 c 0,0.89 -0.3,1.61 -0.89,2.13 -0.59,0.54 -1.38,0.8 -2.35,0.8 -1.03,0 -1.87,-0.28 -2.48,-0.85 -0.62,-0.55 -0.93,-1.47 -0.93,-2.7 z"
   id="path54" />
			<path
   class="st5"
   d="m 404.16,199.07 v -1.71 c 0,-1.23 0.31,-2.13 0.92,-2.71 0.61,-0.57 1.43,-0.87 2.45,-0.87 1,0 1.79,0.3 2.4,0.87 0.62,0.58 0.92,1.48 0.92,2.71 v 1.71 c 0,1.23 -0.3,2.13 -0.92,2.71 -0.61,0.57 -1.4,0.87 -2.4,0.87 -1.02,0 -1.84,-0.28 -2.45,-0.85 -0.61,-0.58 -0.92,-1.5 -0.92,-2.73 z m 5.24,-0.06 v -1.58 c 0,-0.87 -0.16,-1.46 -0.51,-1.79 -0.33,-0.34 -0.79,-0.51 -1.36,-0.51 -0.61,0 -1.07,0.16 -1.41,0.51 -0.35,0.33 -0.51,0.92 -0.51,1.79 v 1.58 c 0,0.87 0.16,1.48 0.51,1.81 0.34,0.34 0.8,0.51 1.41,0.51 0.58,0 1.04,-0.16 1.36,-0.51 0.34,-0.33 0.51,-0.94 0.51,-1.81 z"
   id="path56" />
		</g>
		<path
   class="st24"
   d="m 440.53,258.64 h -59.8 c -8.61,0 -15.6,-6.98 -15.6,-15.6 v 0 c 0,-8.61 6.98,-15.6 15.6,-15.6 h 59.8 c 8.61,0 15.6,6.98 15.6,15.6 v 0 c 0,8.61 -6.99,15.6 -15.6,15.6 z"
   id="path60" />
		<g
   id="g82">
			<rect
   x="370.23001"
   y="236.41"
   class="st6"
   width="78.550003"
   height="13.26"
   id="rect62" />
			<path
   class="st5"
   d="m 387.9,239.95 c 0,1.07 -0.34,1.9 -1.02,2.51 -0.67,0.62 -1.58,0.92 -2.71,0.92 h -2.71 v 4.68 h -1.53 V 236.4 h 4.24 c 1.15,0 2.05,0.31 2.72,0.92 0.68,0.63 1.01,1.5 1.01,2.63 z m -1.53,0 c 0,-0.74 -0.2,-1.26 -0.59,-1.61 -0.39,-0.34 -0.95,-0.53 -1.71,-0.53 h -2.61 v 4.15 h 2.61 c 0.75,0 1.33,-0.16 1.72,-0.51 0.39,-0.32 0.58,-0.81 0.58,-1.5 z"
   id="path64" />
			<path
   class="st5"
   d="m 393.55,239.37 v 1.49 c -0.31,-0.15 -0.66,-0.21 -1.02,-0.21 -0.53,0 -0.94,0.18 -1.26,0.54 -0.33,0.36 -0.49,0.84 -0.49,1.43 v 5.43 h -1.44 v -8.65 h 1.43 v 0.75 c 0.2,-0.23 0.41,-0.41 0.67,-0.54 0.39,-0.23 0.85,-0.33 1.35,-0.33 0.23,0.01 0.49,0.03 0.76,0.09 z"
   id="path66" />
			<path
   class="st5"
   d="m 396.47,238.37 h -1.51 v -1.81 h 1.51 z m -0.04,9.69 h -1.45 v -8.65 h 1.45 z"
   id="path68" />
			<path
   class="st5"
   d="m 398.43,244.58 v -1.71 c 0,-1.23 0.31,-2.13 0.92,-2.71 0.61,-0.57 1.43,-0.87 2.45,-0.87 1,0 1.79,0.3 2.4,0.87 0.62,0.58 0.92,1.48 0.92,2.71 v 1.71 c 0,1.23 -0.3,2.13 -0.92,2.71 -0.61,0.57 -1.4,0.87 -2.4,0.87 -1.02,0 -1.84,-0.28 -2.45,-0.85 -0.6,-0.58 -0.92,-1.5 -0.92,-2.73 z m 5.24,-0.07 v -1.58 c 0,-0.87 -0.16,-1.46 -0.51,-1.79 -0.33,-0.34 -0.79,-0.51 -1.36,-0.51 -0.61,0 -1.07,0.16 -1.41,0.51 -0.35,0.33 -0.51,0.92 -0.51,1.79 v 1.58 c 0,0.87 0.16,1.48 0.51,1.81 0.34,0.34 0.8,0.51 1.41,0.51 0.58,0 1.04,-0.16 1.36,-0.51 0.35,-0.33 0.51,-0.94 0.51,-1.81 z"
   id="path70" />
			<path
   class="st5"
   d="m 411.2,239.37 v 1.49 c -0.31,-0.15 -0.66,-0.21 -1.02,-0.21 -0.53,0 -0.94,0.18 -1.26,0.54 -0.33,0.36 -0.49,0.84 -0.49,1.43 v 5.43 h -1.44 v -8.65 h 1.43 v 0.75 c 0.2,-0.23 0.41,-0.41 0.67,-0.54 0.39,-0.23 0.85,-0.33 1.35,-0.33 0.24,0.01 0.5,0.03 0.76,0.09 z"
   id="path72" />
			<path
   class="st5"
   d="m 414.12,238.37 h -1.51 v -1.81 h 1.51 z m -0.03,9.69 h -1.45 v -8.65 h 1.45 z"
   id="path74" />
			<path
   class="st5"
   d="m 422.61,236.4 v 11.66 h -1.46 v -0.74 c -0.18,0.2 -0.41,0.38 -0.66,0.51 -0.39,0.23 -0.89,0.33 -1.43,0.33 -0.87,0 -1.58,-0.3 -2.13,-0.89 -0.56,-0.57 -0.84,-1.48 -0.84,-2.69 v -1.71 c 0,-1.21 0.28,-2.12 0.84,-2.69 0.56,-0.59 1.28,-0.89 2.15,-0.89 0.87,0 1.56,0.31 2.07,0.9 v -3.79 z m -1.46,8.1 v -1.46 c 0,-0.74 -0.16,-1.33 -0.48,-1.77 -0.31,-0.41 -0.76,-0.62 -1.38,-0.62 -1.17,0 -1.74,0.74 -1.74,2.3 v 1.58 c 0,1.56 0.54,2.31 1.67,2.31 0.64,0 1.12,-0.21 1.43,-0.62 0.34,-0.44 0.5,-1.02 0.5,-1.72 z"
   id="path76" />
			<path
   class="st5"
   d="m 430.77,242.23 v 5.83 h -1.43 v -0.62 c -0.21,0.2 -0.44,0.36 -0.71,0.48 -0.39,0.16 -0.87,0.25 -1.43,0.25 -0.92,0 -1.63,-0.21 -2.15,-0.66 -0.51,-0.46 -0.77,-1.12 -0.77,-1.95 0,-0.79 0.26,-1.41 0.79,-1.87 0.53,-0.44 1.25,-0.67 2.17,-0.67 h 2.09 v -0.79 c 0,-0.56 -0.15,-0.97 -0.44,-1.25 -0.3,-0.28 -0.72,-0.41 -1.28,-0.41 -0.53,0 -0.95,0.12 -1.23,0.34 -0.29,0.23 -0.43,0.54 -0.43,0.94 v 0.21 h -1.41 v -0.25 c 0,-0.76 0.28,-1.38 0.84,-1.84 0.54,-0.44 1.28,-0.67 2.22,-0.67 1.02,0 1.81,0.25 2.35,0.76 0.54,0.48 0.82,1.22 0.82,2.17 z m -1.45,2.84 v -0.92 h -1.92 c -1.13,0 -1.67,0.44 -1.67,1.38 0,0.95 0.53,1.4 1.66,1.4 0.69,0 1.18,-0.15 1.48,-0.46 0.3,-0.3 0.45,-0.76 0.45,-1.4 z"
   id="path78" />
			<path
   class="st5"
   d="m 439.15,236.4 v 11.66 h -1.46 v -0.74 c -0.18,0.2 -0.41,0.38 -0.66,0.51 -0.39,0.23 -0.89,0.33 -1.43,0.33 -0.87,0 -1.58,-0.3 -2.13,-0.89 -0.56,-0.57 -0.84,-1.48 -0.84,-2.69 v -1.71 c 0,-1.21 0.28,-2.12 0.84,-2.69 0.56,-0.59 1.28,-0.89 2.15,-0.89 0.87,0 1.56,0.31 2.07,0.9 v -3.79 z m -1.46,8.1 v -1.46 c 0,-0.74 -0.16,-1.33 -0.48,-1.77 -0.31,-0.41 -0.75,-0.62 -1.38,-0.62 -1.17,0 -1.74,0.74 -1.74,2.3 v 1.58 c 0,1.56 0.54,2.31 1.67,2.31 0.64,0 1.12,-0.21 1.43,-0.62 0.34,-0.44 0.5,-1.02 0.5,-1.72 z"
   id="path80" />
		</g>
		<path
   class="st2"
   d="m 470.59,306.69 h -64.84 c -7.23,0 -13.08,-5.86 -13.08,-13.08 v 0 c 0,-7.23 5.86,-13.08 13.08,-13.08 h 64.84 c 7.23,0 13.08,5.86 13.08,13.08 v 0 c 0,7.22 -5.85,13.08 -13.08,13.08 z"
   id="path84" />
		<g
   id="g108">
			<rect
   x="393.09"
   y="287.20999"
   class="st6"
   width="90.169998"
   height="19.48"
   id="rect86" />
			<path
   class="st5"
   d="m 410.69,292.23 v 1.41 h -4.86 v 3.81 h 5.68 v 1.41 H 404.3 V 287.2 h 7.21 v 1.41 h -5.68 v 3.61 h 4.86 z"
   id="path88" />
			<path
   class="st5"
   d="m 412.73,296.37 v -0.23 h 1.41 v 0.21 c 0,0.41 0.15,0.72 0.48,0.97 0.31,0.23 0.77,0.36 1.33,0.36 0.59,0 1.05,-0.12 1.38,-0.34 0.31,-0.23 0.46,-0.53 0.46,-0.95 0,-0.38 -0.1,-0.62 -0.31,-0.79 -0.21,-0.18 -0.59,-0.31 -1.12,-0.41 l -1.04,-0.18 c -0.82,-0.15 -1.44,-0.39 -1.85,-0.77 -0.41,-0.36 -0.61,-0.9 -0.61,-1.59 0,-0.77 0.29,-1.4 0.87,-1.86 0.56,-0.46 1.3,-0.69 2.18,-0.69 0.95,0 1.72,0.21 2.3,0.67 0.59,0.44 0.89,1.05 0.89,1.77 v 0.26 h -1.41 v -0.21 c 0,-0.39 -0.15,-0.67 -0.44,-0.9 -0.31,-0.23 -0.74,-0.34 -1.3,-0.34 -0.54,0 -0.97,0.12 -1.25,0.34 -0.29,0.21 -0.43,0.51 -0.43,0.9 0,0.31 0.1,0.56 0.3,0.72 0.2,0.18 0.53,0.31 1.02,0.39 l 1.08,0.2 c 0.84,0.16 1.48,0.43 1.89,0.79 0.43,0.38 0.64,0.92 0.64,1.62 0,0.84 -0.31,1.49 -0.92,1.95 -0.61,0.46 -1.4,0.69 -2.38,0.69 -0.95,0 -1.71,-0.23 -2.28,-0.69 -0.59,-0.46 -0.89,-1.1 -0.89,-1.89 z"
   id="path90" />
			<path
   class="st5"
   d="m 423.77,297.55 h 0.82 v 1.31 h -1 c -0.67,0 -1.21,-0.2 -1.61,-0.61 -0.38,-0.39 -0.57,-0.94 -0.57,-1.62 v -5.21 h -1.3 v -1.21 h 1.3 v -1.84 l 1.46,-0.69 v 2.53 h 1.87 v 1.21 h -1.87 v 5.16 c -0.01,0.67 0.27,0.97 0.9,0.97 z"
   id="path92" />
			<path
   class="st5"
   d="m 430.58,290.18 v 1.49 c -0.31,-0.15 -0.66,-0.21 -1.02,-0.21 -0.53,0 -0.94,0.18 -1.26,0.54 -0.33,0.36 -0.49,0.84 -0.49,1.43 v 5.43 h -1.44 v -8.65 h 1.43 v 0.75 c 0.2,-0.23 0.41,-0.41 0.67,-0.54 0.39,-0.23 0.85,-0.33 1.35,-0.33 0.23,0.01 0.49,0.02 0.76,0.09 z"
   id="path94" />
			<path
   class="st5"
   d="m 437.91,293.04 v 5.83 h -1.43 v -0.62 c -0.21,0.2 -0.44,0.36 -0.71,0.48 -0.39,0.16 -0.87,0.25 -1.43,0.25 -0.92,0 -1.62,-0.21 -2.15,-0.66 -0.51,-0.46 -0.77,-1.12 -0.77,-1.95 0,-0.79 0.26,-1.41 0.79,-1.87 0.53,-0.44 1.25,-0.67 2.17,-0.67 h 2.08 v -0.79 c 0,-0.56 -0.15,-0.97 -0.44,-1.25 -0.3,-0.28 -0.72,-0.41 -1.28,-0.41 -0.53,0 -0.95,0.11 -1.23,0.34 -0.29,0.23 -0.43,0.54 -0.43,0.94 v 0.21 h -1.41 v -0.25 c 0,-0.76 0.28,-1.38 0.84,-1.84 0.54,-0.44 1.28,-0.67 2.21,-0.67 1.02,0 1.81,0.25 2.35,0.76 0.56,0.47 0.84,1.21 0.84,2.17 z m -1.44,2.84 v -0.92 h -1.92 c -1.13,0 -1.67,0.44 -1.67,1.38 0,0.95 0.53,1.4 1.66,1.4 0.69,0 1.18,-0.15 1.48,-0.46 0.3,-0.3 0.45,-0.76 0.45,-1.4 z"
   id="path96" />
			<path
   class="st5"
   d="m 443.03,297.55 h 0.82 v 1.31 h -1 c -0.67,0 -1.21,-0.2 -1.61,-0.61 -0.38,-0.39 -0.57,-0.94 -0.57,-1.62 v -5.21 h -1.3 v -1.21 h 1.3 v -1.84 l 1.46,-0.69 v 2.53 H 444 v 1.21 h -1.87 v 5.16 c 0,0.67 0.28,0.97 0.9,0.97 z"
   id="path98" />
			<path
   class="st5"
   d="m 447.33,297.11 c 0.35,0.34 0.84,0.53 1.48,0.53 0.56,0 0.98,-0.13 1.28,-0.39 0.29,-0.25 0.44,-0.59 0.44,-1.05 v -0.21 h 1.41 v 0.25 c 0,0.82 -0.3,1.49 -0.87,2 -0.57,0.49 -1.36,0.74 -2.35,0.74 -1.02,0 -1.84,-0.31 -2.45,-0.92 -0.61,-0.61 -0.92,-1.56 -0.92,-2.82 v -1.45 c 0,-1.23 0.31,-2.17 0.92,-2.77 0.61,-0.6 1.41,-0.9 2.41,-0.9 1,0 1.81,0.31 2.41,0.9 0.61,0.61 0.9,1.54 0.9,2.77 v 1.15 h -5.21 v 0.33 c 0.02,0.88 0.21,1.49 0.55,1.84 z m -0.53,-3.37 v 0.02 h 3.76 v -0.13 c 0,-0.82 -0.16,-1.4 -0.49,-1.71 -0.33,-0.31 -0.79,-0.48 -1.38,-0.48 -0.57,0 -1.03,0.16 -1.38,0.51 -0.34,0.33 -0.51,0.92 -0.51,1.79 z"
   id="path100" />
			<path
   class="st5"
   d="m 460.13,290.15 v 7.9 c 0,1.05 -0.28,1.89 -0.85,2.5 -0.57,0.61 -1.38,0.92 -2.4,0.92 -0.92,0 -1.64,-0.21 -2.2,-0.62 -0.59,-0.46 -0.9,-1.1 -0.94,-1.89 h 1.45 c 0.02,0.38 0.18,0.67 0.51,0.9 0.29,0.21 0.69,0.31 1.18,0.31 1.21,0 1.79,-0.66 1.79,-2.02 v -0.64 c -0.18,0.21 -0.41,0.38 -0.66,0.53 -0.39,0.21 -0.89,0.33 -1.43,0.33 -0.87,0 -1.58,-0.3 -2.13,-0.89 -0.56,-0.57 -0.84,-1.48 -0.84,-2.71 v -1.15 c 0,-1.21 0.28,-2.12 0.84,-2.69 0.56,-0.58 1.28,-0.87 2.15,-0.87 0.87,0 1.56,0.31 2.07,0.9 v -0.8 h 1.46 z m -1.46,4.53 v -0.9 c 0,-0.74 -0.16,-1.33 -0.48,-1.77 -0.31,-0.41 -0.75,-0.62 -1.38,-0.62 -1.16,0 -1.74,0.75 -1.74,2.31 v 1 c 0,1.56 0.54,2.31 1.68,2.31 0.64,0 1.12,-0.21 1.43,-0.62 0.33,-0.43 0.49,-1.01 0.49,-1.71 z"
   id="path102" />
			<path
   class="st5"
   d="m 463.87,289.18 h -1.51 v -1.81 h 1.51 z m -0.03,9.68 h -1.45 v -8.65 h 1.45 z"
   id="path104" />
			<path
   class="st5"
   d="m 472.13,293.04 v 5.83 h -1.43 v -0.62 c -0.21,0.2 -0.44,0.36 -0.71,0.48 -0.39,0.16 -0.87,0.25 -1.43,0.25 -0.92,0 -1.63,-0.21 -2.15,-0.66 -0.51,-0.46 -0.77,-1.12 -0.77,-1.95 0,-0.79 0.26,-1.41 0.79,-1.87 0.53,-0.44 1.25,-0.67 2.17,-0.67 h 2.09 v -0.79 c 0,-0.56 -0.15,-0.97 -0.44,-1.25 -0.29,-0.28 -0.72,-0.41 -1.28,-0.41 -0.53,0 -0.95,0.11 -1.23,0.34 -0.29,0.23 -0.43,0.54 -0.43,0.94 v 0.21 h -1.41 v -0.25 c 0,-0.76 0.28,-1.38 0.84,-1.84 0.54,-0.44 1.28,-0.67 2.22,-0.67 1.02,0 1.81,0.25 2.35,0.76 0.54,0.47 0.82,1.21 0.82,2.17 z m -1.44,2.84 v -0.92 h -1.92 c -1.13,0 -1.67,0.44 -1.67,1.38 0,0.95 0.53,1.4 1.66,1.4 0.69,0 1.18,-0.15 1.48,-0.46 0.3,-0.3 0.45,-0.76 0.45,-1.4 z"
   id="path106" />
		</g>
		<g
   id="g210">
			<rect
   x="221"
   y="332.04999"
   class="st7"
   width="1.83"
   height="9.3500004"
   id="rect110" />
			<g
   id="g122">
				<defs
   id="defs113">
					<rect
   id="SVGID_00000163074401216397803530000006749117050862415258_"
   x="199.47"
   y="281.95001"
   width="192.13"
   height="63.790001" />
				</defs>
				<clipPath
   id="SVGID_00000041287991723100447950000005099584438705381539_">
					<use
   xlink:href="#SVGID_00000163074401216397803530000006749117050862415258_"
   style="overflow:visible"
   id="use115"
   x="0"
   y="0"
   width="100%"
   height="100%" />
				</clipPath>
				<path
   style="fill:#857f7b"
   d="m 208.89,336.74 h 0.61 c 0.57,0 1,-0.11 1.29,-0.34 0.28,-0.23 0.43,-0.56 0.43,-0.99 0,-0.44 -0.12,-0.76 -0.36,-0.97 -0.24,-0.21 -0.61,-0.31 -1.12,-0.31 h -0.85 z m 4.21,-1.39 c 0,0.95 -0.3,1.67 -0.89,2.17 -0.59,0.5 -1.43,0.75 -2.52,0.75 h -0.8 v 3.12 h -1.86 v -8.78 h 2.8 c 1.06,0 1.87,0.23 2.43,0.69 0.56,0.46 0.84,1.14 0.84,2.05"
   clip-path="url(#SVGID_00000041287991723100447950000005099584438705381539_)"
   id="path118" />
				<path
   style="fill:#857f7b"
   d="m 215.46,338.02 c 0,0.66 0.11,1.17 0.33,1.51 0.22,0.34 0.57,0.51 1.07,0.51 0.49,0 0.84,-0.17 1.05,-0.51 0.21,-0.34 0.32,-0.84 0.32,-1.51 0,-0.66 -0.11,-1.16 -0.32,-1.5 -0.22,-0.33 -0.57,-0.5 -1.06,-0.5 -0.49,0 -0.84,0.17 -1.06,0.5 -0.23,0.33 -0.33,0.83 -0.33,1.5 m 4.64,0 c 0,1.09 -0.29,1.95 -0.86,2.56 -0.58,0.62 -1.38,0.93 -2.41,0.93 -0.64,0 -1.21,-0.14 -1.71,-0.42 -0.49,-0.28 -0.87,-0.69 -1.14,-1.22 -0.26,-0.53 -0.4,-1.14 -0.4,-1.85 0,-1.1 0.29,-1.95 0.86,-2.56 0.57,-0.61 1.38,-0.91 2.41,-0.91 0.64,0 1.21,0.14 1.71,0.42 0.49,0.28 0.87,0.68 1.13,1.21 0.28,0.52 0.41,1.14 0.41,1.84"
   clip-path="url(#SVGID_00000041287991723100447950000005099584438705381539_)"
   id="path120" />
			</g>
			<g
   id="g154">
				<defs
   id="defs125">
					<rect
   id="SVGID_00000160153925784110033640000000571912573277653397_"
   x="199.47"
   y="281.95001"
   width="192.13"
   height="63.790001" />
				</defs>
				<clipPath
   id="SVGID_00000052079765144243858650000009604294229732842157_">
					<use
   xlink:href="#SVGID_00000160153925784110033640000000571912573277653397_"
   style="overflow:visible"
   id="use127"
   x="0"
   y="0"
   width="100%"
   height="100%" />
				</clipPath>
				<path
   style="fill:#857f7b"
   d="m 225.97,341.39 h -1.83 v -6.71 h 1.83 z m -1.92,-7.45 v -0.16 c 0.69,-0.8 1.16,-1.4 1.41,-1.81 h 2.05 v 0.13 c -0.21,0.21 -0.56,0.52 -1.07,0.93 -0.5,0.41 -0.9,0.72 -1.18,0.92 h -1.21 z"
   clip-path="url(#SVGID_00000052079765144243858650000009604294229732842157_)"
   id="path130" />
				<path
   style="fill:#857f7b"
   d="m 230.1,340.05 c 0.32,0 0.7,-0.07 1.15,-0.21 v 1.36 c -0.46,0.2 -1.02,0.31 -1.68,0.31 -0.73,0 -1.27,-0.19 -1.6,-0.56 -0.33,-0.37 -0.5,-0.93 -0.5,-1.67 v -3.24 h -0.88 v -0.78 l 1.01,-0.61 0.53,-1.42 h 1.17 v 1.43 h 1.88 v 1.38 h -1.88 v 3.24 c 0,0.26 0.07,0.45 0.22,0.58 0.15,0.13 0.34,0.19 0.58,0.19"
   clip-path="url(#SVGID_00000052079765144243858650000009604294229732842157_)"
   id="path132" />
				<path
   style="fill:#857f7b"
   d="M 233.83,341.39 H 232 v -6.71 h 1.83 z m -1.91,-8.45 c 0,-0.6 0.33,-0.9 1,-0.9 0.67,0 1,0.3 1,0.9 0,0.28 -0.08,0.51 -0.25,0.66 -0.17,0.16 -0.42,0.24 -0.75,0.24 -0.67,0 -1,-0.3 -1,-0.9"
   clip-path="url(#SVGID_00000052079765144243858650000009604294229732842157_)"
   id="path134" />
				<path
   style="fill:#857f7b"
   d="m 237.86,341.51 c -2.09,0 -3.13,-1.15 -3.13,-3.44 0,-1.14 0.28,-2.01 0.85,-2.62 0.57,-0.6 1.38,-0.9 2.44,-0.9 0.78,0 1.47,0.15 2.09,0.46 l -0.54,1.42 c -0.29,-0.12 -0.56,-0.21 -0.81,-0.28 -0.25,-0.07 -0.5,-0.11 -0.74,-0.11 -0.95,0 -1.43,0.68 -1.43,2.03 0,1.31 0.48,1.97 1.43,1.97 0.35,0 0.68,-0.05 0.98,-0.14 0.3,-0.09 0.6,-0.24 0.9,-0.44 v 1.57 c -0.3,0.19 -0.6,0.32 -0.9,0.39 -0.29,0.06 -0.67,0.09 -1.14,0.09"
   clip-path="url(#SVGID_00000052079765144243858650000009604294229732842157_)"
   id="path136" />
				<path
   style="fill:#857f7b"
   d="m 244.57,338.28 -0.71,0.02 c -0.53,0.02 -0.93,0.11 -1.19,0.29 -0.26,0.18 -0.39,0.44 -0.39,0.8 0,0.52 0.3,0.77 0.89,0.77 0.42,0 0.76,-0.12 1.02,-0.37 0.25,-0.24 0.38,-0.57 0.38,-0.97 z m 0.54,3.11 -0.35,-0.91 h -0.05 c -0.31,0.39 -0.63,0.66 -0.95,0.81 -0.33,0.15 -0.75,0.23 -1.28,0.23 -0.64,0 -1.15,-0.18 -1.52,-0.55 -0.37,-0.37 -0.56,-0.89 -0.56,-1.57 0,-0.71 0.25,-1.24 0.75,-1.58 0.5,-0.34 1.25,-0.52 2.26,-0.56 l 1.17,-0.04 v -0.29 c 0,-0.68 -0.35,-1.02 -1.05,-1.02 -0.54,0 -1.17,0.16 -1.89,0.49 l -0.61,-1.24 c 0.77,-0.4 1.63,-0.61 2.57,-0.61 0.9,0 1.59,0.2 2.07,0.59 0.48,0.39 0.72,0.99 0.72,1.79 v 4.47 h -1.28 z"
   clip-path="url(#SVGID_00000052079765144243858650000009604294229732842157_)"
   id="path138" />
				<path
   style="fill:#857f7b"
   d="m 258.18,341.39 h -2.37 l -3.82,-6.64 h -0.05 c 0.08,1.17 0.11,2.01 0.11,2.51 v 4.13 h -1.66 v -8.78 h 2.35 l 3.81,6.58 h 0.04 c -0.06,-1.14 -0.09,-1.95 -0.09,-2.42 v -4.16 h 1.68 z"
   clip-path="url(#SVGID_00000052079765144243858650000009604294229732842157_)"
   id="path140" />
				<path
   style="fill:#857f7b"
   d="m 263.35,338.28 -0.71,0.02 c -0.53,0.02 -0.93,0.11 -1.19,0.29 -0.26,0.18 -0.39,0.44 -0.39,0.8 0,0.52 0.3,0.77 0.89,0.77 0.42,0 0.76,-0.12 1.02,-0.37 0.25,-0.24 0.38,-0.57 0.38,-0.97 z m 0.54,3.11 -0.35,-0.91 h -0.05 c -0.31,0.39 -0.63,0.66 -0.95,0.81 -0.33,0.15 -0.75,0.23 -1.28,0.23 -0.64,0 -1.15,-0.18 -1.52,-0.55 -0.37,-0.37 -0.56,-0.89 -0.56,-1.57 0,-0.71 0.25,-1.24 0.75,-1.58 0.5,-0.34 1.25,-0.52 2.26,-0.56 l 1.17,-0.04 v -0.29 c 0,-0.68 -0.35,-1.02 -1.05,-1.02 -0.54,0 -1.17,0.16 -1.89,0.49 l -0.61,-1.24 c 0.77,-0.4 1.63,-0.61 2.57,-0.61 0.9,0 1.59,0.2 2.07,0.59 0.48,0.39 0.72,0.99 0.72,1.79 v 4.47 h -1.28 z"
   clip-path="url(#SVGID_00000052079765144243858650000009604294229732842157_)"
   id="path142" />
				<path
   style="fill:#857f7b"
   d="m 269.17,341.51 c -2.09,0 -3.13,-1.15 -3.13,-3.44 0,-1.14 0.28,-2.01 0.85,-2.62 0.57,-0.6 1.38,-0.9 2.44,-0.9 0.78,0 1.47,0.15 2.09,0.46 l -0.54,1.42 c -0.29,-0.12 -0.56,-0.21 -0.81,-0.28 -0.25,-0.07 -0.5,-0.11 -0.74,-0.11 -0.95,0 -1.43,0.68 -1.43,2.03 0,1.31 0.48,1.97 1.43,1.97 0.35,0 0.68,-0.05 0.98,-0.14 0.3,-0.09 0.6,-0.24 0.9,-0.44 v 1.57 c -0.3,0.19 -0.6,0.32 -0.9,0.39 -0.3,0.06 -0.68,0.09 -1.14,0.09"
   clip-path="url(#SVGID_00000052079765144243858650000009604294229732842157_)"
   id="path144" />
				<path
   style="fill:#857f7b"
   d="m 273.98,341.39 h -1.83 v -6.71 h 1.83 z m -1.91,-8.45 c 0,-0.6 0.33,-0.9 1,-0.9 0.67,0 1,0.3 1,0.9 0,0.28 -0.08,0.51 -0.25,0.66 -0.17,0.16 -0.42,0.24 -0.75,0.24 -0.66,0 -1,-0.3 -1,-0.9"
   clip-path="url(#SVGID_00000052079765144243858650000009604294229732842157_)"
   id="path146" />
				<path
   style="fill:#857f7b"
   d="m 276.75,338.02 c 0,0.66 0.11,1.17 0.33,1.51 0.22,0.34 0.57,0.51 1.07,0.51 0.49,0 0.84,-0.17 1.05,-0.51 0.21,-0.34 0.32,-0.84 0.32,-1.51 0,-0.66 -0.11,-1.16 -0.32,-1.5 -0.22,-0.33 -0.57,-0.5 -1.06,-0.5 -0.49,0 -0.84,0.17 -1.06,0.5 -0.22,0.33 -0.33,0.83 -0.33,1.5 m 4.64,0 c 0,1.09 -0.29,1.95 -0.86,2.56 -0.58,0.62 -1.38,0.93 -2.41,0.93 -0.64,0 -1.21,-0.14 -1.71,-0.42 -0.49,-0.28 -0.87,-0.69 -1.14,-1.22 -0.26,-0.53 -0.4,-1.14 -0.4,-1.85 0,-1.1 0.29,-1.95 0.86,-2.56 0.57,-0.61 1.38,-0.91 2.41,-0.91 0.64,0 1.21,0.14 1.71,0.42 0.49,0.28 0.87,0.68 1.13,1.21 0.28,0.52 0.41,1.14 0.41,1.84"
   clip-path="url(#SVGID_00000052079765144243858650000009604294229732842157_)"
   id="path148" />
				<path
   style="fill:#857f7b"
   d="m 288.49,341.39 h -1.83 v -3.92 c 0,-0.48 -0.09,-0.85 -0.26,-1.09 -0.17,-0.24 -0.45,-0.36 -0.82,-0.36 -0.51,0 -0.88,0.17 -1.11,0.51 -0.23,0.34 -0.34,0.91 -0.34,1.7 v 3.16 h -1.83 v -6.71 h 1.4 l 0.25,0.86 h 0.1 c 0.2,-0.32 0.49,-0.57 0.84,-0.74 0.36,-0.17 0.77,-0.25 1.22,-0.25 0.78,0 1.37,0.21 1.78,0.63 0.4,0.42 0.61,1.03 0.61,1.83 v 4.38 z"
   clip-path="url(#SVGID_00000052079765144243858650000009604294229732842157_)"
   id="path150" />
				<path
   style="fill:#857f7b"
   d="m 293.48,338.28 -0.71,0.02 c -0.53,0.02 -0.93,0.11 -1.19,0.29 -0.26,0.18 -0.39,0.44 -0.39,0.8 0,0.52 0.3,0.77 0.89,0.77 0.42,0 0.76,-0.12 1.02,-0.37 0.25,-0.24 0.38,-0.57 0.38,-0.97 z m 0.54,3.11 -0.35,-0.91 h -0.05 c -0.31,0.39 -0.63,0.66 -0.95,0.81 -0.33,0.15 -0.75,0.23 -1.28,0.23 -0.64,0 -1.15,-0.18 -1.52,-0.55 -0.37,-0.37 -0.56,-0.89 -0.56,-1.57 0,-0.71 0.25,-1.24 0.75,-1.58 0.5,-0.34 1.25,-0.52 2.26,-0.56 l 1.17,-0.04 v -0.29 c 0,-0.68 -0.35,-1.02 -1.05,-1.02 -0.54,0 -1.17,0.16 -1.89,0.49 l -0.61,-1.24 c 0.77,-0.4 1.63,-0.61 2.57,-0.61 0.9,0 1.59,0.2 2.07,0.59 0.48,0.39 0.72,0.99 0.72,1.79 v 4.47 h -1.28 z"
   clip-path="url(#SVGID_00000052079765144243858650000009604294229732842157_)"
   id="path152" />
			</g>
			<rect
   x="296.57001"
   y="332.04999"
   class="st7"
   width="1.83"
   height="9.3500004"
   id="rect156" />
			<g
   id="g192">
				<defs
   id="defs159">
					<rect
   id="SVGID_00000114046461713959235510000015232130920478639530_"
   x="199.47"
   y="281.95001"
   width="192.13"
   height="63.790001" />
				</defs>
				<clipPath
   id="SVGID_00000016044001688846646640000009356311330536731025_">
					<use
   xlink:href="#SVGID_00000114046461713959235510000015232130920478639530_"
   style="overflow:visible"
   id="use161"
   x="0"
   y="0"
   width="100%"
   height="100%" />
				</clipPath>
				<path
   style="fill:#857f7b"
   d="m 306.73,337.74 c -0.59,-1.89 -0.92,-2.96 -0.99,-3.21 -0.07,-0.25 -0.13,-0.44 -0.16,-0.59 -0.13,0.51 -0.51,1.78 -1.14,3.8 z m 1.08,3.65 -0.64,-2.09 h -3.2 l -0.64,2.09 h -2.01 l 3.1,-8.82 h 2.28 l 3.11,8.82 z"
   clip-path="url(#SVGID_00000016044001688846646640000009356311330536731025_)"
   id="path164" />
				<path
   style="fill:#857f7b"
   d="m 316.36,341.39 h -1.83 v -3.92 c 0,-0.48 -0.09,-0.85 -0.26,-1.09 -0.17,-0.24 -0.45,-0.36 -0.82,-0.36 -0.51,0 -0.88,0.17 -1.11,0.51 -0.23,0.34 -0.34,0.91 -0.34,1.7 v 3.16 h -1.83 v -6.71 h 1.4 l 0.25,0.86 h 0.1 c 0.2,-0.32 0.49,-0.57 0.84,-0.74 0.36,-0.17 0.77,-0.25 1.22,-0.25 0.78,0 1.37,0.21 1.78,0.63 0.4,0.42 0.61,1.03 0.61,1.83 v 4.38 z"
   clip-path="url(#SVGID_00000016044001688846646640000009356311330536731025_)"
   id="path166" />
				<path
   style="fill:#857f7b"
   d="m 320.46,340.05 c 0.32,0 0.7,-0.07 1.15,-0.21 v 1.36 c -0.46,0.2 -1.02,0.31 -1.68,0.31 -0.73,0 -1.27,-0.19 -1.6,-0.56 -0.33,-0.37 -0.5,-0.93 -0.5,-1.67 v -3.24 h -0.88 v -0.78 l 1.01,-0.61 0.53,-1.42 h 1.17 v 1.43 h 1.88 v 1.38 h -1.88 v 3.24 c 0,0.26 0.07,0.45 0.22,0.58 0.15,0.13 0.34,0.19 0.58,0.19"
   clip-path="url(#SVGID_00000016044001688846646640000009356311330536731025_)"
   id="path168" />
				<path
   style="fill:#857f7b"
   d="m 324.19,341.39 h -1.83 v -6.71 h 1.83 z m -1.91,-8.45 c 0,-0.6 0.33,-0.9 1,-0.9 0.67,0 1,0.3 1,0.9 0,0.28 -0.08,0.51 -0.25,0.66 -0.17,0.16 -0.42,0.24 -0.75,0.24 -0.67,0 -1,-0.3 -1,-0.9"
   clip-path="url(#SVGID_00000016044001688846646640000009356311330536731025_)"
   id="path170" />
				<path
   style="fill:#857f7b"
   d="m 328.22,341.51 c -2.09,0 -3.13,-1.15 -3.13,-3.44 0,-1.14 0.28,-2.01 0.85,-2.62 0.57,-0.6 1.38,-0.9 2.44,-0.9 0.78,0 1.47,0.15 2.09,0.46 l -0.54,1.42 c -0.29,-0.12 -0.56,-0.21 -0.81,-0.28 -0.25,-0.07 -0.5,-0.11 -0.74,-0.11 -0.95,0 -1.43,0.68 -1.43,2.03 0,1.31 0.48,1.97 1.43,1.97 0.35,0 0.68,-0.05 0.98,-0.14 0.3,-0.09 0.6,-0.24 0.9,-0.44 v 1.57 c -0.3,0.19 -0.6,0.32 -0.9,0.39 -0.29,0.06 -0.68,0.09 -1.14,0.09"
   clip-path="url(#SVGID_00000016044001688846646640000009356311330536731025_)"
   id="path172" />
				<path
   style="fill:#857f7b"
   d="m 332.67,338.02 c 0,0.66 0.11,1.17 0.33,1.51 0.22,0.34 0.57,0.51 1.07,0.51 0.49,0 0.84,-0.17 1.05,-0.51 0.21,-0.34 0.32,-0.84 0.32,-1.51 0,-0.66 -0.11,-1.16 -0.32,-1.5 -0.22,-0.33 -0.57,-0.5 -1.06,-0.5 -0.49,0 -0.84,0.17 -1.06,0.5 -0.23,0.33 -0.33,0.83 -0.33,1.5 m 4.64,0 c 0,1.09 -0.29,1.95 -0.86,2.56 -0.58,0.62 -1.38,0.93 -2.41,0.93 -0.64,0 -1.21,-0.14 -1.71,-0.42 -0.49,-0.28 -0.87,-0.69 -1.14,-1.22 -0.26,-0.53 -0.4,-1.14 -0.4,-1.85 0,-1.1 0.29,-1.95 0.86,-2.56 0.57,-0.61 1.38,-0.91 2.41,-0.91 0.64,0 1.21,0.14 1.71,0.42 0.49,0.28 0.87,0.68 1.13,1.21 0.28,0.52 0.41,1.14 0.41,1.84"
   clip-path="url(#SVGID_00000016044001688846646640000009356311330536731025_)"
   id="path174" />
				<path
   style="fill:#857f7b"
   d="m 341.96,334.55 c 0.25,0 0.45,0.02 0.62,0.05 l -0.14,1.72 c -0.15,-0.04 -0.33,-0.06 -0.54,-0.06 -0.58,0 -1.04,0.15 -1.37,0.45 -0.33,0.3 -0.49,0.72 -0.49,1.26 v 3.42 h -1.83 v -6.71 h 1.39 l 0.27,1.13 h 0.09 c 0.21,-0.38 0.49,-0.68 0.84,-0.91 0.35,-0.23 0.74,-0.35 1.16,-0.35"
   clip-path="url(#SVGID_00000016044001688846646640000009356311330536731025_)"
   id="path176" />
				<path
   style="fill:#857f7b"
   d="m 346.93,334.55 c 0.25,0 0.45,0.02 0.62,0.05 l -0.14,1.72 c -0.15,-0.04 -0.33,-0.06 -0.54,-0.06 -0.58,0 -1.04,0.15 -1.37,0.45 -0.33,0.3 -0.49,0.72 -0.49,1.26 v 3.42 h -1.83 v -6.71 h 1.39 l 0.27,1.13 h 0.09 c 0.21,-0.38 0.49,-0.68 0.84,-0.91 0.35,-0.23 0.74,-0.35 1.16,-0.35"
   clip-path="url(#SVGID_00000016044001688846646640000009356311330536731025_)"
   id="path178" />
				<path
   style="fill:#857f7b"
   d="m 352.91,341.39 -0.25,-0.86 h -0.1 c -0.2,0.31 -0.47,0.55 -0.83,0.72 -0.36,0.17 -0.77,0.26 -1.23,0.26 -0.79,0 -1.38,-0.21 -1.78,-0.63 -0.4,-0.42 -0.6,-1.03 -0.6,-1.82 v -4.38 h 1.83 v 3.92 c 0,0.48 0.09,0.85 0.26,1.09 0.17,0.24 0.45,0.36 0.82,0.36 0.51,0 0.88,-0.17 1.11,-0.51 0.23,-0.34 0.34,-0.91 0.34,-1.7 v -3.16 h 1.83 v 6.71 z"
   clip-path="url(#SVGID_00000016044001688846646640000009356311330536731025_)"
   id="path180" />
				<path
   style="fill:#857f7b"
   d="m 358.76,336.02 c -0.45,0 -0.78,0.14 -0.99,0.42 -0.21,0.28 -0.32,0.74 -0.32,1.38 v 0.2 c 0,0.72 0.11,1.24 0.32,1.55 0.21,0.31 0.55,0.47 1.02,0.47 0.82,0 1.23,-0.68 1.23,-2.03 0,-0.66 -0.1,-1.16 -0.3,-1.49 -0.21,-0.34 -0.52,-0.5 -0.96,-0.5 m 0.55,5.49 c -0.79,0 -1.41,-0.29 -1.86,-0.86 h -0.1 c 0.06,0.56 0.1,0.89 0.1,0.97 v 2.72 h -1.83 v -9.67 h 1.49 l 0.26,0.87 h 0.08 c 0.43,-0.66 1.06,-1 1.9,-1 0.79,0 1.41,0.31 1.86,0.92 0.45,0.61 0.67,1.46 0.67,2.55 0,0.72 -0.11,1.34 -0.32,1.87 -0.21,0.53 -0.51,0.93 -0.9,1.21 -0.37,0.28 -0.83,0.42 -1.35,0.42"
   clip-path="url(#SVGID_00000016044001688846646640000009356311330536731025_)"
   id="path182" />
				<path
   style="fill:#857f7b"
   d="m 365.51,341.51 c -2.09,0 -3.13,-1.15 -3.13,-3.44 0,-1.14 0.28,-2.01 0.85,-2.62 0.57,-0.6 1.38,-0.9 2.44,-0.9 0.78,0 1.47,0.15 2.09,0.46 l -0.54,1.42 c -0.29,-0.12 -0.56,-0.21 -0.81,-0.28 -0.25,-0.07 -0.5,-0.11 -0.74,-0.11 -0.95,0 -1.43,0.68 -1.43,2.03 0,1.31 0.48,1.97 1.43,1.97 0.35,0 0.68,-0.05 0.98,-0.14 0.3,-0.09 0.6,-0.24 0.9,-0.44 v 1.57 c -0.3,0.19 -0.6,0.32 -0.9,0.39 -0.29,0.06 -0.68,0.09 -1.14,0.09"
   clip-path="url(#SVGID_00000016044001688846646640000009356311330536731025_)"
   id="path184" />
				<path
   style="fill:#857f7b"
   d="m 370.33,341.39 h -1.83 v -6.71 h 1.83 z m -1.91,-8.45 c 0,-0.6 0.33,-0.9 1,-0.9 0.67,0 1,0.3 1,0.9 0,0.28 -0.08,0.51 -0.25,0.66 -0.17,0.16 -0.42,0.24 -0.75,0.24 -0.67,0 -1,-0.3 -1,-0.9"
   clip-path="url(#SVGID_00000016044001688846646640000009356311330536731025_)"
   id="path186" />
				<path
   style="fill:#857f7b"
   d="m 373.48,333.94 v -0.16 c 0.69,-0.8 1.16,-1.4 1.41,-1.81 h 2.05 v 0.13 c -0.21,0.21 -0.56,0.52 -1.07,0.93 -0.5,0.41 -0.9,0.72 -1.18,0.92 h -1.21 z m -0.39,4.08 c 0,0.66 0.11,1.17 0.33,1.51 0.22,0.34 0.57,0.51 1.07,0.51 0.49,0 0.84,-0.17 1.05,-0.51 0.21,-0.34 0.32,-0.84 0.32,-1.51 0,-0.66 -0.11,-1.16 -0.32,-1.5 -0.22,-0.33 -0.57,-0.5 -1.06,-0.5 -0.49,0 -0.84,0.17 -1.06,0.5 -0.22,0.33 -0.33,0.83 -0.33,1.5 m 4.65,0 c 0,1.09 -0.29,1.95 -0.86,2.56 -0.58,0.62 -1.38,0.93 -2.41,0.93 -0.64,0 -1.21,-0.14 -1.71,-0.42 -0.49,-0.28 -0.87,-0.69 -1.14,-1.22 -0.26,-0.53 -0.4,-1.14 -0.4,-1.85 0,-1.1 0.29,-1.95 0.86,-2.56 0.57,-0.61 1.38,-0.91 2.41,-0.91 0.64,0 1.21,0.14 1.71,0.42 0.49,0.28 0.87,0.68 1.13,1.21 0.28,0.52 0.41,1.14 0.41,1.84"
   clip-path="url(#SVGID_00000016044001688846646640000009356311330536731025_)"
   id="path188" />
				<path
   style="fill:#857f7b"
   d="M 384.83,341.39 H 383 v -3.92 c 0,-0.48 -0.09,-0.85 -0.26,-1.09 -0.17,-0.24 -0.45,-0.36 -0.82,-0.36 -0.51,0 -0.88,0.17 -1.11,0.51 -0.23,0.34 -0.34,0.91 -0.34,1.7 v 3.16 h -1.83 v -6.71 h 1.4 l 0.25,0.86 h 0.1 c 0.2,-0.32 0.49,-0.57 0.84,-0.74 0.36,-0.17 0.77,-0.25 1.22,-0.25 0.78,0 1.37,0.21 1.78,0.63 0.4,0.42 0.61,1.03 0.61,1.83 v 4.38 z"
   clip-path="url(#SVGID_00000016044001688846646640000009356311330536731025_)"
   id="path190" />
			</g>
			<rect
   x="199.47"
   y="327.85999"
   class="st7"
   width="192.13"
   height="0.44"
   id="rect194" />
			<rect
   x="199.47"
   y="345.31"
   class="st7"
   width="192.13"
   height="0.44"
   id="rect196" />
			<g
   id="g208">
				<defs
   id="defs199">
					<rect
   id="SVGID_00000158023464956740854490000013057328557706487191_"
   x="199.47"
   y="281.95001"
   width="192.13"
   height="63.790001" />
				</defs>
				<clipPath
   id="SVGID_00000068643155090572292890000005235904295333123461_">
					<use
   xlink:href="#SVGID_00000158023464956740854490000013057328557706487191_"
   style="overflow:visible"
   id="use201"
   x="0"
   y="0"
   width="100%"
   height="100%" />
				</clipPath>
				<path
   style="fill:#6cc72b"
   d="m 292.77,300.57 h -9.02 l 0.14,1.32 c 0,0 1.38,22.34 23.97,22.34 h 4.18 8.41 v -8.77 -33.51 h -8.41 v 33.51 h -5.24 c -8.41,0 -14.03,-6.05 -14.03,-14.79 z"
   clip-path="url(#SVGID_00000068643155090572292890000005235904295333123461_)"
   id="path204" />
				<path
   style="fill:#74598f"
   d="m 298.31,305.61 h 9.02 l -0.14,-1.32 c 0,0 -1.38,-22.34 -23.97,-22.34 h -4.18 -8.41 v 8.77 33.51 h 8.41 v -33.51 h 5.24 c 8.41,0 14.03,6.05 14.03,14.79 z"
   clip-path="url(#SVGID_00000068643155090572292890000005235904295333123461_)"
   id="path206" />
			</g>
		</g>
		<path
   class="st30"
   d="m 532.33,373.84 h -91.09 c -10.58,0 -19.15,-8.57 -19.15,-19.15 v 0 c 0,-10.58 8.57,-19.15 19.15,-19.15 h 91.09 c 10.58,0 19.15,8.57 19.15,19.15 v 0 c 0,10.58 -8.58,19.15 -19.15,19.15 z"
   id="path212" />
		<g
   id="g244">
			<rect
   x="420.59"
   y="347.34"
   class="st6"
   width="132.39"
   height="17.700001"
   id="rect214" />
			<path
   class="st5"
   d="m 432.61,357.58 h 5.65 v 1.41 h -7.17 v -11.66 h 1.53 v 10.25 z"
   id="path216" />
			<path
   class="st5"
   d="m 440.41,349.6 h -1.45 l 1.89,-2.38 h 1.84 z m 0.34,9.39 h -1.45 v -8.65 h 1.45 z"
   id="path218" />
			<path
   class="st5"
   d="m 444.44,351.04 c 0.2,-0.21 0.44,-0.38 0.71,-0.51 0.41,-0.2 0.89,-0.3 1.38,-0.3 0.94,0 1.66,0.28 2.17,0.84 0.51,0.54 0.75,1.31 0.75,2.28 v 5.63 H 448 v -5.47 c 0,-0.66 -0.15,-1.13 -0.46,-1.46 -0.31,-0.33 -0.74,-0.49 -1.3,-0.49 -0.54,0 -0.99,0.16 -1.3,0.49 -0.33,0.34 -0.49,0.82 -0.49,1.46 v 5.47 h -1.44 v -8.65 h 1.43 z"
   id="path220" />
			<path
   class="st5"
   d="m 453.29,357.23 c 0.34,0.34 0.84,0.53 1.48,0.53 0.56,0 0.99,-0.13 1.28,-0.39 0.29,-0.25 0.44,-0.59 0.44,-1.05 v -0.21 h 1.41 v 0.25 c 0,0.82 -0.3,1.49 -0.87,2 -0.58,0.49 -1.36,0.74 -2.35,0.74 -1.02,0 -1.84,-0.31 -2.45,-0.92 -0.61,-0.61 -0.92,-1.56 -0.92,-2.82 v -1.45 c 0,-1.23 0.31,-2.17 0.92,-2.77 0.61,-0.6 1.41,-0.9 2.41,-0.9 1,0 1.81,0.31 2.41,0.9 0.61,0.61 0.9,1.54 0.9,2.77 v 1.15 h -5.21 v 0.33 c 0.02,0.89 0.2,1.5 0.55,1.84 z m -0.53,-3.36 v 0.02 h 3.76 v -0.13 c 0,-0.82 -0.16,-1.4 -0.49,-1.71 -0.33,-0.31 -0.79,-0.48 -1.38,-0.48 -0.58,0 -1.03,0.16 -1.38,0.51 -0.34,0.32 -0.51,0.92 -0.51,1.79 z"
   id="path222" />
			<path
   class="st5"
   d="m 465.86,353.16 v 5.83 h -1.43 v -0.62 c -0.21,0.2 -0.44,0.36 -0.71,0.48 -0.39,0.16 -0.87,0.25 -1.43,0.25 -0.92,0 -1.63,-0.21 -2.15,-0.66 -0.51,-0.46 -0.77,-1.12 -0.77,-1.95 0,-0.79 0.26,-1.41 0.79,-1.87 0.53,-0.44 1.25,-0.67 2.17,-0.67 h 2.09 v -0.79 c 0,-0.56 -0.15,-0.97 -0.44,-1.25 -0.3,-0.28 -0.72,-0.41 -1.28,-0.41 -0.53,0 -0.95,0.11 -1.23,0.34 -0.29,0.23 -0.43,0.54 -0.43,0.94 v 0.21 h -1.41 v -0.25 c 0,-0.76 0.28,-1.38 0.84,-1.84 0.54,-0.44 1.28,-0.67 2.22,-0.67 1.02,0 1.81,0.25 2.35,0.76 0.54,0.48 0.82,1.22 0.82,2.17 z m -1.44,2.84 v -0.92 h -1.92 c -1.13,0 -1.67,0.44 -1.67,1.38 0,0.95 0.53,1.4 1.66,1.4 0.69,0 1.18,-0.15 1.48,-0.46 0.3,-0.3 0.45,-0.76 0.45,-1.4 z"
   id="path224" />
			<path
   class="st5"
   d="m 467.53,356.49 v -0.23 h 1.41 v 0.21 c 0,0.41 0.15,0.72 0.48,0.97 0.31,0.23 0.77,0.36 1.33,0.36 0.59,0 1.05,-0.12 1.38,-0.34 0.31,-0.23 0.46,-0.53 0.46,-0.95 0,-0.38 -0.1,-0.62 -0.31,-0.79 -0.21,-0.18 -0.59,-0.31 -1.12,-0.41 l -1.04,-0.18 c -0.82,-0.15 -1.44,-0.39 -1.85,-0.77 -0.41,-0.36 -0.61,-0.9 -0.61,-1.59 0,-0.77 0.29,-1.4 0.87,-1.86 0.56,-0.46 1.3,-0.69 2.18,-0.69 0.95,0 1.72,0.21 2.3,0.67 0.59,0.44 0.89,1.05 0.89,1.77 v 0.26 h -1.41 v -0.21 c 0,-0.39 -0.15,-0.67 -0.44,-0.9 -0.31,-0.23 -0.74,-0.34 -1.3,-0.34 -0.54,0 -0.97,0.12 -1.25,0.34 -0.3,0.21 -0.43,0.51 -0.43,0.9 0,0.31 0.1,0.56 0.3,0.72 0.2,0.18 0.53,0.31 1.02,0.39 l 1.08,0.2 c 0.84,0.16 1.48,0.43 1.89,0.79 0.43,0.38 0.64,0.92 0.64,1.62 0,0.84 -0.31,1.49 -0.92,1.95 -0.61,0.46 -1.4,0.69 -2.38,0.69 -0.95,0 -1.71,-0.23 -2.28,-0.69 -0.59,-0.46 -0.89,-1.1 -0.89,-1.89 z"
   id="path226" />
			<path
   class="st5"
   d="m 485.39,347.33 v 11.66 h -1.46 v -0.74 c -0.18,0.2 -0.41,0.38 -0.66,0.51 -0.39,0.23 -0.89,0.33 -1.43,0.33 -0.87,0 -1.58,-0.3 -2.13,-0.89 -0.56,-0.57 -0.84,-1.48 -0.84,-2.69 v -1.71 c 0,-1.21 0.28,-2.12 0.84,-2.69 0.56,-0.59 1.28,-0.89 2.15,-0.89 0.87,0 1.56,0.31 2.07,0.9 v -3.79 z m -1.46,8.1 v -1.46 c 0,-0.74 -0.16,-1.33 -0.48,-1.77 -0.31,-0.41 -0.76,-0.62 -1.38,-0.62 -1.17,0 -1.74,0.74 -1.74,2.3 v 1.58 c 0,1.56 0.54,2.31 1.67,2.31 0.64,0 1.12,-0.21 1.43,-0.62 0.33,-0.44 0.5,-1.02 0.5,-1.72 z"
   id="path228" />
			<path
   class="st5"
   d="m 489.23,357.23 c 0.34,0.34 0.84,0.53 1.48,0.53 0.56,0 0.99,-0.13 1.28,-0.39 0.29,-0.25 0.44,-0.59 0.44,-1.05 v -0.21 h 1.41 v 0.25 c 0,0.82 -0.3,1.49 -0.87,2 -0.58,0.49 -1.36,0.74 -2.35,0.74 -1.02,0 -1.84,-0.31 -2.45,-0.92 -0.61,-0.61 -0.92,-1.56 -0.92,-2.82 v -1.45 c 0,-1.23 0.31,-2.17 0.92,-2.77 0.61,-0.6 1.41,-0.9 2.41,-0.9 1,0 1.81,0.31 2.41,0.9 0.61,0.61 0.9,1.54 0.9,2.77 v 1.15 h -5.21 v 0.33 c 0.02,0.89 0.2,1.5 0.55,1.84 z m -0.53,-3.36 v 0.02 h 3.76 v -0.13 c 0,-0.82 -0.16,-1.4 -0.49,-1.71 -0.33,-0.31 -0.79,-0.48 -1.38,-0.48 -0.58,0 -1.03,0.16 -1.38,0.51 -0.34,0.32 -0.51,0.92 -0.51,1.79 z"
   id="path230" />
			<path
   class="st5"
   d="m 505.36,353.16 v 5.83 h -1.43 v -0.62 c -0.21,0.2 -0.44,0.36 -0.71,0.48 -0.39,0.16 -0.87,0.25 -1.43,0.25 -0.92,0 -1.63,-0.21 -2.15,-0.66 -0.51,-0.46 -0.77,-1.12 -0.77,-1.95 0,-0.79 0.26,-1.41 0.79,-1.87 0.53,-0.44 1.25,-0.67 2.17,-0.67 h 2.08 v -0.79 c 0,-0.56 -0.15,-0.97 -0.44,-1.25 -0.3,-0.28 -0.72,-0.41 -1.28,-0.41 -0.53,0 -0.95,0.11 -1.23,0.34 -0.29,0.23 -0.43,0.54 -0.43,0.94 v 0.21 h -1.41 v -0.25 c 0,-0.76 0.28,-1.38 0.84,-1.84 0.54,-0.44 1.28,-0.67 2.22,-0.67 1.02,0 1.81,0.25 2.35,0.76 0.55,0.48 0.83,1.22 0.83,2.17 z m -1.44,2.84 v -0.92 H 502 c -1.13,0 -1.67,0.44 -1.67,1.38 0,0.95 0.53,1.4 1.66,1.4 0.69,0 1.18,-0.15 1.48,-0.46 0.3,-0.3 0.45,-0.76 0.45,-1.4 z"
   id="path232" />
			<path
   class="st5"
   d="m 507.23,355.51 v -1.71 c 0,-1.23 0.31,-2.13 0.94,-2.71 0.61,-0.57 1.45,-0.87 2.46,-0.87 0.99,0 1.79,0.26 2.36,0.8 0.59,0.53 0.89,1.25 0.89,2.13 v 0.25 h -1.41 v -0.25 c 0,-0.51 -0.15,-0.9 -0.48,-1.17 -0.31,-0.28 -0.75,-0.43 -1.31,-0.43 -0.64,0 -1.13,0.16 -1.48,0.51 -0.34,0.33 -0.53,0.92 -0.53,1.79 v 1.58 c 0,0.87 0.18,1.48 0.51,1.81 0.36,0.34 0.84,0.51 1.48,0.51 0.57,0 1.02,-0.15 1.33,-0.43 0.33,-0.26 0.48,-0.66 0.48,-1.17 v -0.25 h 1.41 v 0.23 c 0,0.89 -0.3,1.61 -0.89,2.13 -0.59,0.54 -1.38,0.8 -2.35,0.8 -1.03,0 -1.87,-0.28 -2.48,-0.85 -0.62,-0.55 -0.93,-1.47 -0.93,-2.7 z"
   id="path234" />
			<path
   class="st5"
   d="m 515.49,355.51 v -1.71 c 0,-1.23 0.31,-2.13 0.94,-2.71 0.61,-0.57 1.45,-0.87 2.46,-0.87 0.99,0 1.79,0.26 2.36,0.8 0.59,0.53 0.89,1.25 0.89,2.13 v 0.25 h -1.41 v -0.25 c 0,-0.51 -0.15,-0.9 -0.48,-1.17 -0.31,-0.28 -0.75,-0.43 -1.31,-0.43 -0.64,0 -1.13,0.16 -1.48,0.51 -0.34,0.33 -0.53,0.92 -0.53,1.79 v 1.58 c 0,0.87 0.18,1.48 0.51,1.81 0.36,0.34 0.84,0.51 1.48,0.51 0.57,0 1.02,-0.15 1.33,-0.43 0.33,-0.26 0.48,-0.66 0.48,-1.17 v -0.25 h 1.41 v 0.23 c 0,0.89 -0.3,1.61 -0.89,2.13 -0.59,0.54 -1.38,0.8 -2.35,0.8 -1.03,0 -1.87,-0.28 -2.48,-0.85 -0.62,-0.55 -0.93,-1.47 -0.93,-2.7 z"
   id="path236" />
			<path
   class="st5"
   d="m 525.61,349.3 h -1.51 v -1.81 h 1.51 z m -0.03,9.69 h -1.45 v -8.65 h 1.45 z"
   id="path238" />
			<path
   class="st5"
   d="m 527.58,355.51 v -1.71 c 0,-1.23 0.31,-2.13 0.92,-2.71 0.61,-0.57 1.43,-0.87 2.45,-0.87 1,0 1.79,0.3 2.4,0.87 0.62,0.58 0.92,1.48 0.92,2.71 v 1.71 c 0,1.23 -0.3,2.13 -0.92,2.71 -0.61,0.57 -1.4,0.87 -2.4,0.87 -1.02,0 -1.84,-0.28 -2.45,-0.85 -0.61,-0.58 -0.92,-1.5 -0.92,-2.73 z m 5.24,-0.07 v -1.58 c 0,-0.87 -0.16,-1.46 -0.51,-1.79 -0.33,-0.34 -0.79,-0.51 -1.36,-0.51 -0.61,0 -1.07,0.16 -1.41,0.51 -0.35,0.33 -0.51,0.92 -0.51,1.79 v 1.58 c 0,0.87 0.16,1.48 0.51,1.81 0.34,0.34 0.8,0.51 1.41,0.51 0.58,0 1.04,-0.16 1.36,-0.51 0.34,-0.33 0.51,-0.94 0.51,-1.81 z"
   id="path240" />
			<path
   class="st5"
   d="m 537.56,351.04 c 0.2,-0.21 0.44,-0.38 0.71,-0.51 0.41,-0.2 0.89,-0.3 1.38,-0.3 0.94,0 1.66,0.28 2.17,0.84 0.51,0.54 0.75,1.31 0.75,2.28 v 5.63 h -1.44 v -5.47 c 0,-0.66 -0.15,-1.13 -0.46,-1.46 -0.31,-0.33 -0.74,-0.49 -1.3,-0.49 -0.54,0 -0.99,0.16 -1.3,0.49 -0.33,0.34 -0.49,0.82 -0.49,1.46 v 5.47 h -1.44 v -8.65 h 1.43 v 0.71 z"
   id="path242" />
		</g>
		<path
   class="st31"
   d="M 576.74,306.69 H 511.9 c -7.23,0 -13.08,-5.86 -13.08,-13.08 v 0 c 0,-7.23 5.86,-13.08 13.08,-13.08 h 64.84 c 7.23,0 13.08,5.86 13.08,13.08 v 0 c 0,7.22 -5.86,13.08 -13.08,13.08 z"
   id="path246" />
		<g
   id="g272">
			<rect
   x="501.23999"
   y="286.34"
   class="st6"
   width="90.169998"
   height="19.48"
   id="rect248" />
			<path
   class="st5"
   d="m 509.46,297.99 h -1.53 v -11.66 h 1.53 z"
   id="path250" />
			<path
   class="st5"
   d="m 513.24,290.04 c 0.2,-0.21 0.44,-0.38 0.71,-0.51 0.41,-0.2 0.89,-0.3 1.38,-0.3 0.94,0 1.66,0.28 2.17,0.84 0.51,0.54 0.76,1.31 0.76,2.28 v 5.63 h -1.45 v -5.47 c 0,-0.66 -0.15,-1.13 -0.46,-1.46 -0.31,-0.33 -0.74,-0.49 -1.3,-0.49 -0.54,0 -0.99,0.16 -1.3,0.49 -0.33,0.34 -0.49,0.82 -0.49,1.46 v 5.47 h -1.44 v -8.65 h 1.43 v 0.71 z"
   id="path252" />
			<path
   class="st5"
   d="m 526.63,286.33 v 11.66 h -1.46 v -0.74 c -0.18,0.2 -0.41,0.38 -0.66,0.51 -0.39,0.23 -0.89,0.33 -1.43,0.33 -0.87,0 -1.58,-0.3 -2.13,-0.89 -0.56,-0.57 -0.84,-1.48 -0.84,-2.69 v -1.71 c 0,-1.21 0.28,-2.12 0.84,-2.69 0.56,-0.59 1.28,-0.89 2.15,-0.89 0.87,0 1.56,0.31 2.07,0.9 v -3.79 z m -1.46,8.1 v -1.46 c 0,-0.74 -0.16,-1.33 -0.48,-1.77 -0.31,-0.41 -0.75,-0.62 -1.38,-0.62 -1.16,0 -1.74,0.74 -1.74,2.3 v 1.58 c 0,1.56 0.54,2.31 1.68,2.31 0.64,0 1.12,-0.21 1.43,-0.62 0.32,-0.44 0.49,-1.02 0.49,-1.72 z"
   id="path254" />
			<path
   class="st5"
   d="m 530.37,288.3 h -1.51 v -1.81 h 1.51 z m -0.03,9.69 h -1.45 v -8.65 h 1.45 z"
   id="path256" />
			<path
   class="st5"
   d="m 532.34,294.51 v -1.71 c 0,-1.23 0.31,-2.13 0.94,-2.71 0.61,-0.57 1.45,-0.87 2.46,-0.87 0.99,0 1.79,0.26 2.37,0.8 0.59,0.53 0.89,1.25 0.89,2.13 v 0.25 h -1.41 v -0.25 c 0,-0.51 -0.15,-0.9 -0.48,-1.17 -0.31,-0.28 -0.76,-0.43 -1.31,-0.43 -0.64,0 -1.13,0.16 -1.48,0.51 -0.35,0.33 -0.53,0.92 -0.53,1.79 v 1.58 c 0,0.87 0.18,1.48 0.51,1.81 0.36,0.34 0.84,0.51 1.48,0.51 0.57,0 1.02,-0.15 1.33,-0.43 0.33,-0.26 0.48,-0.66 0.48,-1.17 V 294.9 H 539 v 0.23 c 0,0.89 -0.3,1.61 -0.89,2.13 -0.59,0.54 -1.38,0.8 -2.35,0.8 -1.04,0 -1.87,-0.28 -2.48,-0.85 -0.63,-0.55 -0.94,-1.47 -0.94,-2.7 z"
   id="path258" />
			<path
   class="st5"
   d="m 546.88,292.16 v 5.83 h -1.43 v -0.62 c -0.21,0.2 -0.44,0.36 -0.71,0.48 -0.39,0.16 -0.87,0.25 -1.43,0.25 -0.92,0 -1.62,-0.21 -2.15,-0.66 -0.51,-0.46 -0.77,-1.12 -0.77,-1.95 0,-0.79 0.26,-1.41 0.79,-1.87 0.53,-0.44 1.25,-0.67 2.17,-0.67 h 2.08 v -0.79 c 0,-0.56 -0.15,-0.97 -0.44,-1.25 -0.3,-0.28 -0.72,-0.41 -1.28,-0.41 -0.53,0 -0.95,0.12 -1.23,0.34 -0.29,0.23 -0.43,0.54 -0.43,0.94 v 0.21 h -1.41 v -0.25 c 0,-0.76 0.28,-1.38 0.84,-1.84 0.54,-0.44 1.28,-0.67 2.21,-0.67 1.02,0 1.81,0.25 2.35,0.76 0.56,0.48 0.84,1.22 0.84,2.17 z m -1.44,2.84 v -0.92 h -1.92 c -1.13,0 -1.67,0.44 -1.67,1.38 0,0.95 0.53,1.4 1.66,1.4 0.69,0 1.18,-0.15 1.48,-0.46 0.3,-0.3 0.45,-0.76 0.45,-1.4 z"
   id="path260" />
			<path
   class="st5"
   d="m 555.27,286.33 v 11.66 h -1.46 v -0.74 c -0.18,0.2 -0.41,0.38 -0.66,0.51 -0.39,0.23 -0.89,0.33 -1.43,0.33 -0.87,0 -1.58,-0.3 -2.13,-0.89 -0.56,-0.57 -0.84,-1.48 -0.84,-2.69 v -1.71 c 0,-1.21 0.28,-2.12 0.84,-2.69 0.56,-0.59 1.28,-0.89 2.15,-0.89 0.87,0 1.56,0.31 2.07,0.9 v -3.79 z m -1.46,8.1 v -1.46 c 0,-0.74 -0.16,-1.33 -0.48,-1.77 -0.31,-0.41 -0.76,-0.62 -1.38,-0.62 -1.17,0 -1.74,0.74 -1.74,2.3 v 1.58 c 0,1.56 0.54,2.31 1.67,2.31 0.64,0 1.12,-0.21 1.43,-0.62 0.33,-0.44 0.5,-1.02 0.5,-1.72 z"
   id="path262" />
			<path
   class="st5"
   d="m 557.13,294.51 v -1.71 c 0,-1.23 0.31,-2.13 0.92,-2.71 0.61,-0.57 1.43,-0.87 2.45,-0.87 1,0 1.79,0.3 2.4,0.87 0.62,0.58 0.92,1.48 0.92,2.71 v 1.71 c 0,1.23 -0.29,2.13 -0.92,2.71 -0.61,0.57 -1.4,0.87 -2.4,0.87 -1.02,0 -1.84,-0.28 -2.45,-0.85 -0.6,-0.58 -0.92,-1.5 -0.92,-2.73 z m 5.24,-0.07 v -1.58 c 0,-0.87 -0.16,-1.46 -0.51,-1.79 -0.33,-0.34 -0.79,-0.51 -1.36,-0.51 -0.61,0 -1.07,0.16 -1.41,0.51 -0.34,0.33 -0.51,0.92 -0.51,1.79 v 1.58 c 0,0.87 0.16,1.48 0.51,1.81 0.35,0.34 0.8,0.51 1.41,0.51 0.58,0 1.04,-0.16 1.36,-0.51 0.35,-0.33 0.51,-0.94 0.51,-1.81 z"
   id="path264" />
			<path
   class="st5"
   d="m 569.91,289.3 v 1.49 c -0.31,-0.15 -0.66,-0.21 -1.02,-0.21 -0.53,0 -0.94,0.18 -1.26,0.54 -0.33,0.36 -0.49,0.84 -0.49,1.43 v 5.43 h -1.45 v -8.65 h 1.43 v 0.75 c 0.2,-0.23 0.41,-0.41 0.67,-0.54 0.39,-0.23 0.85,-0.33 1.35,-0.33 0.24,0.01 0.5,0.03 0.77,0.09 z"
   id="path266" />
			<path
   class="st5"
   d="m 572.92,296.23 c 0.34,0.34 0.84,0.53 1.48,0.53 0.56,0 0.99,-0.13 1.28,-0.39 0.29,-0.25 0.44,-0.59 0.44,-1.05 v -0.21 h 1.41 v 0.25 c 0,0.82 -0.29,1.49 -0.87,2 -0.58,0.49 -1.36,0.74 -2.35,0.74 -1.02,0 -1.84,-0.31 -2.45,-0.92 -0.61,-0.61 -0.92,-1.56 -0.92,-2.82 v -1.45 c 0,-1.23 0.31,-2.17 0.92,-2.77 0.61,-0.6 1.41,-0.9 2.41,-0.9 1,0 1.8,0.31 2.41,0.9 0.61,0.61 0.9,1.54 0.9,2.77 v 1.15 h -5.21 v 0.33 c 0.03,0.89 0.21,1.5 0.55,1.84 z m -0.52,-3.36 v 0.02 h 3.76 v -0.13 c 0,-0.82 -0.16,-1.4 -0.49,-1.71 -0.33,-0.31 -0.79,-0.48 -1.38,-0.48 -0.58,0 -1.04,0.16 -1.38,0.51 -0.35,0.33 -0.51,0.92 -0.51,1.79 z"
   id="path268" />
			<path
   class="st5"
   d="m 579.01,295.49 v -0.23 h 1.41 v 0.21 c 0,0.41 0.15,0.72 0.47,0.97 0.31,0.23 0.77,0.36 1.33,0.36 0.59,0 1.05,-0.12 1.38,-0.34 0.31,-0.23 0.46,-0.53 0.46,-0.95 0,-0.38 -0.1,-0.62 -0.31,-0.79 -0.21,-0.18 -0.59,-0.31 -1.12,-0.41 l -1.04,-0.18 c -0.82,-0.15 -1.45,-0.39 -1.86,-0.77 -0.41,-0.36 -0.61,-0.9 -0.61,-1.59 0,-0.77 0.29,-1.4 0.87,-1.86 0.56,-0.46 1.3,-0.69 2.18,-0.69 0.95,0 1.72,0.21 2.3,0.67 0.59,0.44 0.89,1.05 0.89,1.77 v 0.26 h -1.41 v -0.21 c 0,-0.39 -0.15,-0.67 -0.44,-0.9 -0.31,-0.23 -0.74,-0.34 -1.3,-0.34 -0.54,0 -0.97,0.12 -1.25,0.34 -0.3,0.21 -0.43,0.51 -0.43,0.9 0,0.31 0.1,0.56 0.29,0.72 0.2,0.18 0.53,0.31 1.02,0.39 l 1.08,0.2 c 0.84,0.16 1.48,0.43 1.89,0.79 0.43,0.38 0.64,0.92 0.64,1.62 0,0.84 -0.31,1.49 -0.92,1.95 -0.61,0.46 -1.39,0.69 -2.38,0.69 -0.95,0 -1.71,-0.23 -2.28,-0.69 -0.56,-0.46 -0.86,-1.1 -0.86,-1.89 z"
   id="path270" />
		</g>
		<polygon
   class="st32"
   points="492.36,289.53 483.26,289.53 483.26,297.68 492.36,297.68 492.36,302.86 501.61,293.61 492.36,284.35 "
   id="polygon274" />
	</g>
</g>
<g
   id="g326"
   transform="translate(-31.809999,-94.82)">
	<rect
   x="31.809999"
   y="181.24001"
   class="st6"
   width="214.35001"
   height="21.35"
   id="rect280" />
	<path
   class="st9"
   d="m 34.72,187.06 h 5.62 v 1.25 h -5.62 v 4.79 h 6.57 v 1.25 h -7.96 v -13.11 h 7.96 v 1.25 h -6.57 z"
   id="path282" />
	<path
   class="st9"
   d="m 43.1,191.66 v -0.08 h 1.25 v 0.06 c 0,0.53 0.21,0.95 0.62,1.26 0.41,0.31 0.96,0.46 1.66,0.46 0.72,0 1.29,-0.15 1.7,-0.44 0.41,-0.29 0.62,-0.71 0.62,-1.25 0,-0.48 -0.14,-0.84 -0.43,-1.06 -0.28,-0.23 -0.74,-0.4 -1.38,-0.51 l -1.2,-0.21 c -0.94,-0.16 -1.62,-0.44 -2.05,-0.84 -0.43,-0.39 -0.65,-0.96 -0.65,-1.71 0,-0.84 0.31,-1.5 0.93,-2 0.62,-0.5 1.42,-0.75 2.41,-0.75 1.06,0 1.91,0.24 2.55,0.73 0.63,0.49 0.95,1.12 0.95,1.91 v 0.11 h -1.25 v -0.06 c 0,-0.51 -0.2,-0.91 -0.59,-1.2 -0.39,-0.29 -0.93,-0.44 -1.61,-0.44 -0.67,0 -1.19,0.15 -1.57,0.44 -0.37,0.29 -0.56,0.69 -0.56,1.2 0,0.42 0.13,0.74 0.4,0.98 0.27,0.23 0.69,0.4 1.27,0.5 l 1.25,0.23 c 0.95,0.18 1.65,0.47 2.1,0.86 0.45,0.4 0.67,0.98 0.67,1.74 0,0.91 -0.33,1.62 -0.99,2.12 -0.66,0.5 -1.54,0.75 -2.64,0.75 -1.05,0 -1.89,-0.25 -2.53,-0.76 -0.62,-0.5 -0.93,-1.18 -0.93,-2.04 z"
   id="path284" />
	<path
   class="st9"
   d="m 54.44,191.9 c 0,0.87 0.41,1.31 1.23,1.31 h 0.76 v 1.14 h -0.97 c -0.73,0 -1.31,-0.21 -1.72,-0.64 -0.41,-0.42 -0.62,-1.01 -0.62,-1.76 v -6.21 h -1.5 v -1.03 h 1.5 v -2.2 l 1.31,-0.61 v 2.81 h 2.17 v 1.03 h -2.17 v 6.16 z"
   id="path286" />
	<path
   class="st9"
   d="m 60.14,184.72 v 1.29 c 0.27,-0.48 0.62,-0.84 1.05,-1.07 0.44,-0.23 0.93,-0.35 1.47,-0.35 0.24,0 0.47,0.02 0.7,0.06 v 1.29 c -0.3,-0.1 -0.63,-0.15 -0.99,-0.15 -0.66,0 -1.19,0.23 -1.61,0.68 -0.41,0.46 -0.62,1.05 -0.62,1.79 v 6.1 h -1.29 v -9.63 h 1.29 z"
   id="path288" />
	<path
   class="st9"
   d="m 65.27,190.82 v -6.1 h 1.29 v 5.93 c 0,0.89 0.17,1.55 0.51,2 0.34,0.45 0.92,0.67 1.73,0.67 0.81,0 1.39,-0.22 1.73,-0.65 0.34,-0.43 0.51,-1.1 0.51,-2.01 v -5.93 h 1.29 v 6.1 c 0,1.18 -0.29,2.08 -0.88,2.71 -0.59,0.63 -1.48,0.94 -2.67,0.94 -1.17,0 -2.04,-0.31 -2.63,-0.94 -0.59,-0.64 -0.88,-1.54 -0.88,-2.72 z"
   id="path290" />
	<path
   class="st9"
   d="m 74.88,190.52 v -1.98 c 0,-1.37 0.34,-2.37 1.02,-3 0.68,-0.63 1.59,-0.95 2.73,-0.95 1.1,0 1.97,0.29 2.61,0.87 0.64,0.58 0.96,1.36 0.96,2.34 v 0.1 h -1.25 v -0.1 c 0,-0.65 -0.2,-1.15 -0.61,-1.5 -0.41,-0.35 -0.96,-0.53 -1.65,-0.53 -0.79,0 -1.4,0.21 -1.84,0.64 -0.44,0.42 -0.66,1.16 -0.66,2.21 v 1.82 c 0,1.06 0.22,1.81 0.65,2.23 0.44,0.42 1.05,0.64 1.83,0.64 0.71,0 1.27,-0.18 1.67,-0.53 0.4,-0.35 0.61,-0.85 0.61,-1.5 v -0.09 h 1.25 v 0.08 c 0,0.97 -0.32,1.75 -0.97,2.34 -0.65,0.58 -1.51,0.87 -2.58,0.87 -1.15,0 -2.07,-0.31 -2.74,-0.94 -0.69,-0.64 -1.03,-1.64 -1.03,-3.02 z"
   id="path292" />
	<path
   class="st9"
   d="m 86.78,191.9 c 0,0.87 0.41,1.31 1.23,1.31 h 0.76 v 1.14 H 87.8 c -0.73,0 -1.31,-0.21 -1.72,-0.64 -0.41,-0.42 -0.62,-1.01 -0.62,-1.76 v -6.21 h -1.5 v -1.03 h 1.5 v -2.2 l 1.31,-0.61 v 2.81 h 2.17 v 1.03 h -2.17 v 6.16 z"
   id="path294" />
	<path
   class="st9"
   d="m 91.2,190.82 v -6.1 h 1.29 v 5.93 c 0,0.89 0.17,1.55 0.51,2 0.34,0.45 0.92,0.67 1.73,0.67 0.81,0 1.39,-0.22 1.73,-0.65 0.34,-0.43 0.51,-1.1 0.51,-2.01 v -5.93 h 1.29 v 6.1 c 0,1.18 -0.29,2.08 -0.88,2.71 -0.59,0.63 -1.48,0.94 -2.67,0.94 -1.17,0 -2.04,-0.31 -2.63,-0.94 C 91.5,192.9 91.2,192 91.2,190.82 Z"
   id="path296" />
	<path
   class="st9"
   d="m 102.39,184.72 v 1.29 c 0.27,-0.48 0.62,-0.84 1.05,-1.07 0.43,-0.23 0.93,-0.35 1.47,-0.35 0.24,0 0.47,0.02 0.7,0.06 v 1.29 c -0.3,-0.1 -0.63,-0.15 -0.99,-0.15 -0.66,0 -1.19,0.23 -1.61,0.68 -0.42,0.45 -0.62,1.05 -0.62,1.79 v 6.1 h -1.29 v -9.63 h 1.29 z"
   id="path298" />
	<path
   class="st9"
   d="m 114.12,187.8 v 6.55 h -1.27 v -1.03 c -0.29,0.39 -0.65,0.68 -1.08,0.86 -0.43,0.18 -0.96,0.28 -1.58,0.28 -1.01,0 -1.8,-0.24 -2.36,-0.72 -0.56,-0.48 -0.83,-1.18 -0.83,-2.11 0,-0.86 0.28,-1.54 0.84,-2.02 0.56,-0.49 1.36,-0.73 2.38,-0.73 h 2.6 v -1.1 c 0,-0.7 -0.19,-1.22 -0.57,-1.58 -0.38,-0.35 -0.92,-0.53 -1.62,-0.53 -0.66,0 -1.17,0.15 -1.55,0.45 -0.37,0.3 -0.56,0.71 -0.56,1.23 v 0.06 h -1.25 v -0.09 c 0,-0.82 0.3,-1.48 0.89,-1.98 0.59,-0.49 1.41,-0.74 2.45,-0.74 1.13,0 1.99,0.27 2.59,0.82 0.62,0.53 0.92,1.33 0.92,2.38 z m -1.29,3.29 v -1.25 h -2.41 c -1.42,0 -2.13,0.59 -2.13,1.79 0,1.2 0.7,1.8 2.11,1.8 0.85,0 1.47,-0.19 1.85,-0.58 0.38,-0.39 0.58,-0.98 0.58,-1.76 z"
   id="path300" />
	<path
   class="st9"
   d="m 120.79,190.52 v -1.98 c 0,-1.36 0.3,-2.35 0.91,-2.99 0.61,-0.64 1.39,-0.96 2.36,-0.96 1.17,0 2.03,0.49 2.58,1.48 v -4.83 h 1.31 v 13.11 h -1.31 v -1.27 c -0.25,0.46 -0.6,0.8 -1.04,1.04 -0.44,0.24 -0.96,0.35 -1.57,0.35 -0.95,0 -1.73,-0.32 -2.34,-0.96 -0.6,-0.64 -0.9,-1.64 -0.9,-2.99 z m 5.85,-0.1 v -1.69 c 0,-0.9 -0.2,-1.62 -0.59,-2.16 -0.39,-0.54 -0.97,-0.81 -1.75,-0.81 -1.47,0 -2.2,0.95 -2.2,2.85 v 1.82 c 0,1.91 0.71,2.87 2.13,2.87 0.8,0 1.4,-0.27 1.8,-0.8 0.41,-0.52 0.61,-1.22 0.61,-2.08 z"
   id="path302" />
	<path
   class="st9"
   d="m 131.79,190.36 c 0,1.09 0.22,1.85 0.67,2.29 0.44,0.44 1.06,0.66 1.84,0.66 0.68,0 1.22,-0.17 1.61,-0.49 0.39,-0.33 0.58,-0.79 0.58,-1.37 v -0.06 h 1.25 v 0.09 c 0,0.9 -0.31,1.62 -0.94,2.17 -0.63,0.55 -1.49,0.82 -2.59,0.82 -1.13,0 -2.03,-0.33 -2.7,-1.01 -0.67,-0.67 -1.01,-1.72 -1.01,-3.13 v -1.67 c 0,-1.38 0.34,-2.4 1.01,-3.07 0.67,-0.67 1.56,-1 2.66,-1 1.1,0 1.98,0.33 2.65,1 0.66,0.67 1,1.69 1,3.07 v 1.14 h -6.02 v 0.56 z m 0,-1.74 v 0.21 h 4.73 v -0.34 c 0,-1 -0.21,-1.7 -0.63,-2.11 -0.42,-0.41 -0.99,-0.61 -1.73,-0.61 -0.72,0 -1.3,0.21 -1.73,0.64 -0.43,0.42 -0.64,1.16 -0.64,2.21 z"
   id="path304" />
	<path
   class="st9"
   d="m 145.75,191.2 -1.1,3.15 h -1.46 l 4.77,-13.11 h 1.16 l 4.77,13.11 h -1.46 l -1.1,-3.15 z m 2.78,-8.02 -2.38,6.84 h 4.77 z"
   id="path306" />
	<path
   class="st9"
   d="m 155.44,191.83 v -10.58 h 1.29 v 10.51 c 0,0.49 0.09,0.85 0.28,1.08 0.19,0.23 0.5,0.34 0.93,0.34 h 0.78 v 1.18 h -0.91 c -0.77,0 -1.36,-0.22 -1.77,-0.65 -0.41,-0.43 -0.6,-1.06 -0.6,-1.88 z"
   id="path308" />
	<path
   class="st9"
   d="m 162.11,181.44 v 1.71 h -1.37 v -1.71 z m -0.04,3.28 v 9.63 h -1.29 v -9.63 z"
   id="path310" />
	<path
   class="st9"
   d="m 166.35,184.72 v 1.18 c 0.28,-0.43 0.64,-0.75 1.09,-0.97 0.45,-0.21 0.95,-0.32 1.51,-0.32 1.03,0 1.81,0.3 2.37,0.9 0.55,0.6 0.83,1.44 0.83,2.52 v 6.33 h -1.29 v -6.14 c 0,-0.8 -0.2,-1.41 -0.59,-1.82 -0.39,-0.41 -0.94,-0.63 -1.63,-0.63 -0.68,0 -1.23,0.21 -1.64,0.64 -0.41,0.42 -0.62,1.03 -0.62,1.81 v 6.14 h -1.29 v -9.63 h 1.26 z"
   id="path312" />
	<path
   class="st9"
   d="m 175.98,190.36 c 0,1.09 0.22,1.85 0.67,2.29 0.44,0.44 1.06,0.66 1.84,0.66 0.68,0 1.22,-0.17 1.61,-0.49 0.39,-0.33 0.58,-0.79 0.58,-1.37 v -0.06 h 1.25 v 0.09 c 0,0.9 -0.31,1.62 -0.94,2.17 -0.63,0.55 -1.49,0.82 -2.59,0.82 -1.13,0 -2.03,-0.33 -2.7,-1.01 -0.67,-0.67 -1.01,-1.72 -1.01,-3.13 v -1.67 c 0,-1.38 0.34,-2.4 1.01,-3.07 0.67,-0.67 1.56,-1 2.66,-1 1.1,0 1.98,0.33 2.65,1 0.66,0.67 1,1.69 1,3.07 v 1.14 h -6.02 v 0.56 z m 0,-1.74 v 0.21 h 4.73 v -0.34 c 0,-1 -0.21,-1.7 -0.63,-2.11 -0.42,-0.41 -0.99,-0.61 -1.73,-0.61 -0.72,0 -1.3,0.21 -1.73,0.64 -0.42,0.42 -0.64,1.16 -0.64,2.21 z"
   id="path314" />
	<path
   class="st9"
   d="m 191.14,187.8 v 6.55 h -1.27 v -1.03 c -0.29,0.39 -0.65,0.68 -1.08,0.86 -0.43,0.18 -0.96,0.28 -1.58,0.28 -1.01,0 -1.8,-0.24 -2.36,-0.72 -0.56,-0.48 -0.84,-1.18 -0.84,-2.11 0,-0.86 0.28,-1.54 0.85,-2.02 0.56,-0.49 1.36,-0.73 2.38,-0.73 h 2.6 v -1.1 c 0,-0.7 -0.19,-1.22 -0.57,-1.58 -0.38,-0.35 -0.92,-0.53 -1.61,-0.53 -0.66,0 -1.17,0.15 -1.55,0.45 -0.37,0.3 -0.56,0.71 -0.56,1.23 v 0.06 h -1.25 v -0.09 c 0,-0.82 0.3,-1.48 0.89,-1.98 0.6,-0.49 1.41,-0.74 2.45,-0.74 1.13,0 1.99,0.27 2.59,0.82 0.61,0.53 0.91,1.33 0.91,2.38 z m -1.29,3.29 v -1.25 h -2.41 c -1.42,0 -2.13,0.59 -2.13,1.79 0,1.2 0.7,1.8 2.11,1.8 0.85,0 1.47,-0.19 1.85,-0.58 0.39,-0.39 0.58,-0.98 0.58,-1.76 z"
   id="path316" />
	<path
   class="st9"
   d="m 193.69,190.52 v -1.98 c 0,-1.37 0.34,-2.37 1.02,-3 0.68,-0.63 1.59,-0.95 2.73,-0.95 1.1,0 1.97,0.29 2.61,0.87 0.64,0.58 0.96,1.36 0.96,2.34 v 0.1 h -1.25 v -0.1 c 0,-0.65 -0.2,-1.15 -0.61,-1.5 -0.41,-0.35 -0.96,-0.53 -1.65,-0.53 -0.79,0 -1.4,0.21 -1.84,0.64 -0.44,0.42 -0.66,1.16 -0.66,2.21 v 1.82 c 0,1.06 0.22,1.81 0.65,2.23 0.44,0.42 1.05,0.64 1.83,0.64 0.71,0 1.27,-0.18 1.67,-0.53 0.4,-0.35 0.61,-0.85 0.61,-1.5 v -0.09 H 201 v 0.08 c 0,0.97 -0.32,1.75 -0.97,2.34 -0.65,0.58 -1.51,0.87 -2.58,0.87 -1.15,0 -2.07,-0.31 -2.74,-0.94 -0.68,-0.64 -1.02,-1.64 -1.02,-3.02 z"
   id="path318" />
	<path
   class="st9"
   d="m 205.03,181.44 v 1.71 h -1.37 v -1.71 z m -0.04,3.28 v 9.63 h -1.29 v -9.63 z"
   id="path320" />
	<path
   class="st9"
   d="m 207.69,190.52 v -1.98 c 0,-1.37 0.34,-2.37 1.01,-3 0.67,-0.63 1.57,-0.95 2.7,-0.95 1.1,0 1.99,0.32 2.65,0.95 0.67,0.63 1,1.63 1,3 v 1.98 c 0,1.37 -0.33,2.37 -1,3 -0.66,0.63 -1.55,0.95 -2.65,0.95 -1.13,0 -2.03,-0.31 -2.7,-0.94 -0.67,-0.63 -1.01,-1.63 -1.01,-3.01 z m 6.06,-0.08 v -1.82 c 0,-1.05 -0.21,-1.79 -0.64,-2.21 -0.42,-0.42 -1,-0.64 -1.72,-0.64 -0.75,0 -1.34,0.21 -1.77,0.64 -0.43,0.42 -0.65,1.16 -0.65,2.21 v 1.82 c 0,1.06 0.21,1.81 0.65,2.23 0.43,0.42 1.02,0.64 1.77,0.64 0.72,0 1.29,-0.21 1.72,-0.64 0.43,-0.42 0.64,-1.17 0.64,-2.23 z m -0.34,-9.33 -2.28,2.38 h -1.2 l 1.88,-2.38 z"
   id="path322" />
	<path
   class="st9"
   d="m 218.86,184.72 v 1.18 c 0.28,-0.43 0.64,-0.75 1.09,-0.97 0.45,-0.21 0.95,-0.32 1.51,-0.32 1.03,0 1.81,0.3 2.37,0.9 0.56,0.6 0.83,1.44 0.83,2.52 v 6.33 h -1.29 v -6.14 c 0,-0.8 -0.2,-1.41 -0.59,-1.82 -0.39,-0.41 -0.94,-0.63 -1.63,-0.63 -0.68,0 -1.23,0.21 -1.64,0.64 -0.41,0.42 -0.62,1.03 -0.62,1.81 v 6.14 h -1.29 v -9.63 h 1.26 z"
   id="path324" />
</g>
</svg>
