<svg id="Capa_1" data-name="Capa 1" xmlns="http://www.w3.org/2000/svg" viewBox="0 0 329.87 106.21"><defs><style>.cls-1{fill:#91a1b7;}</style></defs><path class="cls-1" d="M163.37,23.63v-11h1.81v11Z"/><path class="cls-1" d="M175.25,23.63h-1.78V18.49a2.23,2.23,0,0,0-.39-1.44,1.49,1.49,0,0,0-1.23-.48,2,2,0,0,0-1.65.67,3.62,3.62,0,0,0-.52,2.22v4.17H167.9V15.27h1.39l.25,1.1h.09a2.39,2.39,0,0,1,1.08-.92,3.51,3.51,0,0,1,1.54-.33q3,0,3,3.06Z"/><path class="cls-1" d="M181.91,16.62h-2v7h-1.78v-7h-1.37v-.83l1.37-.55V14.7a3,3,0,0,1,.7-2.2,2.86,2.86,0,0,1,2.12-.71,5.56,5.56,0,0,1,1.84.31l-.47,1.35a3.79,3.79,0,0,0-1.25-.22,1,1,0,0,0-.88.38,1.9,1.9,0,0,0-.28,1.12v.54h2Z"/><path class="cls-1" d="M190.74,19.43a4.57,4.57,0,0,1-1.05,3.2,3.77,3.77,0,0,1-2.92,1.15,4,4,0,0,1-2.07-.53,3.46,3.46,0,0,1-1.38-1.52,5.22,5.22,0,0,1-.49-2.3,4.51,4.51,0,0,1,1-3.17,3.76,3.76,0,0,1,2.93-1.14,3.67,3.67,0,0,1,2.87,1.17A4.49,4.49,0,0,1,190.74,19.43Zm-6.08,0c0,1.93.71,2.9,2.14,2.9s2.11-1,2.11-2.9-.71-2.86-2.13-2.86a1.84,1.84,0,0,0-1.62.74A3.79,3.79,0,0,0,184.66,19.43Z"/><path class="cls-1" d="M197,15.12a4.19,4.19,0,0,1,.88.08l-.17,1.65a3.42,3.42,0,0,0-.79-.09,2.24,2.24,0,0,0-1.72.7,2.5,2.5,0,0,0-.66,1.8v4.37h-1.78V15.27h1.39l.23,1.48h.1a3.19,3.19,0,0,1,1.08-1.19A2.57,2.57,0,0,1,197,15.12Z"/><path class="cls-1" d="M206.49,23.63h-1.78V18.47a2.3,2.3,0,0,0-.37-1.43,1.35,1.35,0,0,0-1.13-.47,1.76,1.76,0,0,0-1.51.67,3.93,3.93,0,0,0-.48,2.22v4.17h-1.77V15.27h1.39l.25,1.1h.09a2.26,2.26,0,0,1,1-.92,3.19,3.19,0,0,1,1.45-.33,2.52,2.52,0,0,1,2.55,1.32h.13a2.44,2.44,0,0,1,1-1,3.33,3.33,0,0,1,1.54-.35,2.8,2.8,0,0,1,2.18.76,3.36,3.36,0,0,1,.68,2.3v5.45H210V18.47a2.37,2.37,0,0,0-.37-1.43,1.37,1.37,0,0,0-1.14-.47,1.76,1.76,0,0,0-1.51.65,3.32,3.32,0,0,0-.48,2Z"/><path class="cls-1" d="M219.46,23.63l-.35-1.17h-.06a3.34,3.34,0,0,1-1.22,1,3.91,3.91,0,0,1-1.57.28,2.67,2.67,0,0,1-1.92-.67,2.48,2.48,0,0,1-.69-1.88,2.21,2.21,0,0,1,1-1.95,5.6,5.6,0,0,1,2.92-.71l1.44-.05v-.45a1.66,1.66,0,0,0-.37-1.19,1.51,1.51,0,0,0-1.16-.4,3.86,3.86,0,0,0-1.23.19,8.58,8.58,0,0,0-1.13.45l-.58-1.27a6,6,0,0,1,1.49-.54,6.53,6.53,0,0,1,1.53-.19,3.56,3.56,0,0,1,2.4.7,2.72,2.72,0,0,1,.81,2.18v5.63Zm-2.64-1.21a2.2,2.2,0,0,0,1.55-.54,2,2,0,0,0,.59-1.52v-.72l-1.07,0a3.67,3.67,0,0,0-1.83.42,1.28,1.28,0,0,0-.57,1.15,1.11,1.11,0,0,0,.33.86A1.46,1.46,0,0,0,216.82,22.42Z"/><path class="cls-1" d="M226.58,23.78a3.63,3.63,0,0,1-2.88-1.11,4.62,4.62,0,0,1-1-3.18,4.65,4.65,0,0,1,1-3.24,3.84,3.84,0,0,1,3-1.13,5.69,5.69,0,0,1,2.38.49L228.56,17a5.44,5.44,0,0,0-1.85-.44c-1.45,0-2.17,1-2.17,2.88a3.43,3.43,0,0,0,.54,2.11,1.88,1.88,0,0,0,1.58.71,4.55,4.55,0,0,0,2.24-.59v1.55a3.55,3.55,0,0,1-1,.4A6.16,6.16,0,0,1,226.58,23.78Z"/><path class="cls-1" d="M230.76,13.06a1,1,0,0,1,.26-.73,1,1,0,0,1,.75-.26,1,1,0,0,1,.73.26,1,1,0,0,1,.26.73.9.9,0,0,1-1,1,1,1,0,0,1-.75-.26A1,1,0,0,1,230.76,13.06Zm1.88,10.57h-1.77V15.27h1.77Z"/><path class="cls-1" d="M242.59,19.43a4.57,4.57,0,0,1-1.05,3.2,3.77,3.77,0,0,1-2.92,1.15,4,4,0,0,1-2.07-.53,3.46,3.46,0,0,1-1.38-1.52,5.09,5.09,0,0,1-.49-2.3,4.55,4.55,0,0,1,1-3.17,3.8,3.8,0,0,1,2.94-1.14,3.67,3.67,0,0,1,2.87,1.17A4.49,4.49,0,0,1,242.59,19.43Zm-6.08,0c0,1.93.71,2.9,2.14,2.9s2.11-1,2.11-2.9-.71-2.86-2.13-2.86a1.84,1.84,0,0,0-1.62.74A3.79,3.79,0,0,0,236.51,19.43Zm1-5.18v-.19c.29-.35.59-.74.89-1.17s.55-.81.72-1.11h2.06v.15A13.77,13.77,0,0,1,240,13.12a14.06,14.06,0,0,1-1.32,1.13Z"/><path class="cls-1" d="M252,23.63h-1.79V18.49a2.29,2.29,0,0,0-.38-1.44,1.51,1.51,0,0,0-1.24-.48,2,2,0,0,0-1.65.67,3.69,3.69,0,0,0-.52,2.22v4.17h-1.77V15.27H246l.25,1.1h.09a2.41,2.41,0,0,1,1.07-.92,3.54,3.54,0,0,1,1.54-.33q3,0,3,3.06Z"/><path class="cls-1" d="M266,15.92a3.19,3.19,0,0,1-1.13,2.65,4.94,4.94,0,0,1-3.22.92h-1.15v4.14h-1.81v-11h3.18a4.82,4.82,0,0,1,3.1.85A3,3,0,0,1,266,15.92ZM260.46,18h1a3.48,3.48,0,0,0,2-.49,1.76,1.76,0,0,0,.65-1.51,1.75,1.75,0,0,0-.58-1.42,2.92,2.92,0,0,0-1.82-.47h-1.25Z"/><path class="cls-1" d="M273.87,23.63l-.25-1.1h-.09a2.47,2.47,0,0,1-1,.91,3.44,3.44,0,0,1-1.56.34,3.05,3.05,0,0,1-2.27-.76,3.11,3.11,0,0,1-.74-2.29V15.27h1.79v5.15a2.25,2.25,0,0,0,.39,1.44,1.49,1.49,0,0,0,1.23.48,2,2,0,0,0,1.64-.67,3.66,3.66,0,0,0,.53-2.24V15.27h1.78v8.36Zm-3.37-9.38v-.19c.28-.35.58-.74.88-1.17s.55-.81.72-1.11h2.07v.15A15.92,15.92,0,0,1,273,13.12a14.06,14.06,0,0,1-1.32,1.13Z"/><path class="cls-1" d="M282.07,15.12a2.9,2.9,0,0,1,2.43,1.13,5.14,5.14,0,0,1,.87,3.18,5.12,5.12,0,0,1-.88,3.2,3.22,3.22,0,0,1-4.92,0h-.12l-.32,1H277.8V11.87h1.77v2.8c0,.21,0,.51,0,.92s0,.67,0,.78h.07A2.84,2.84,0,0,1,282.07,15.12Zm-.46,1.45a1.82,1.82,0,0,0-1.55.63,3.71,3.71,0,0,0-.49,2.11v.12a3.9,3.9,0,0,0,.49,2.21,1.79,1.79,0,0,0,1.58.69,1.6,1.6,0,0,0,1.43-.75,4,4,0,0,0,.48-2.16C283.55,17.52,282.91,16.57,281.61,16.57Z"/><path class="cls-1" d="M289.21,23.63h-1.77V11.87h1.77Z"/><path class="cls-1" d="M291.64,13.06a1,1,0,0,1,.26-.73,1.05,1.05,0,0,1,.75-.26,1,1,0,0,1,.73.26,1,1,0,0,1,.26.73.9.9,0,0,1-1,1,1,1,0,0,1-.75-.26A1,1,0,0,1,291.64,13.06Zm1.88,10.57h-1.77V15.27h1.77Z"/><path class="cls-1" d="M299.43,23.78a3.66,3.66,0,0,1-2.88-1.11,4.62,4.62,0,0,1-1-3.18,4.7,4.7,0,0,1,1-3.24,3.84,3.84,0,0,1,3-1.13,5.69,5.69,0,0,1,2.38.49L301.42,17a5.43,5.43,0,0,0-1.86-.44c-1.45,0-2.17,1-2.17,2.88a3.43,3.43,0,0,0,.54,2.11,1.88,1.88,0,0,0,1.58.71,4.61,4.61,0,0,0,2.25-.59v1.55a3.74,3.74,0,0,1-1,.4A6.16,6.16,0,0,1,299.43,23.78Z"/><path class="cls-1" d="M309,23.63l-.36-1.17h-.06a3.34,3.34,0,0,1-1.22,1,3.87,3.87,0,0,1-1.57.28,2.67,2.67,0,0,1-1.92-.67,2.48,2.48,0,0,1-.69-1.88,2.21,2.21,0,0,1,1-1.95,5.6,5.6,0,0,1,2.92-.71l1.45-.05v-.45a1.67,1.67,0,0,0-.38-1.19,1.5,1.5,0,0,0-1.16-.4,3.86,3.86,0,0,0-1.23.19,8.58,8.58,0,0,0-1.13.45L304,15.85a6,6,0,0,1,1.49-.54,6.53,6.53,0,0,1,1.53-.19,3.56,3.56,0,0,1,2.4.7,2.72,2.72,0,0,1,.82,2.18v5.63Zm-2.65-1.21a2.18,2.18,0,0,0,1.55-.54,1.94,1.94,0,0,0,.59-1.52v-.72l-1.07,0a3.67,3.67,0,0,0-1.83.42,1.28,1.28,0,0,0-.57,1.15,1.08,1.08,0,0,0,.34.86A1.43,1.43,0,0,0,306.3,22.42Z"/><path class="cls-1" d="M321.35,12.58l-4.11,11h-1.68l4.12-11Z"/><path class="cls-1" d="M172.35,36.56a5.47,5.47,0,0,1-1.52,4.18,6.07,6.07,0,0,1-4.37,1.45h-3.09v-11h3.42a5.69,5.69,0,0,1,4.1,1.42A5.34,5.34,0,0,1,172.35,36.56Zm-1.9.06q0-4-3.71-4h-1.56v8h1.28Q170.45,40.67,170.45,36.62Z"/><path class="cls-1" d="M178.18,42.34a4,4,0,0,1-3.05-1.14A4.32,4.32,0,0,1,174,38.07a4.75,4.75,0,0,1,1-3.22,3.52,3.52,0,0,1,2.8-1.17,3.44,3.44,0,0,1,2.61,1,3.83,3.83,0,0,1,1,2.76v1h-5.57a2.79,2.79,0,0,0,.66,1.87,2.28,2.28,0,0,0,1.75.65,5.94,5.94,0,0,0,1.37-.14,6.49,6.49,0,0,0,1.37-.46v1.44a5.46,5.46,0,0,1-1.31.44A7.69,7.69,0,0,1,178.18,42.34ZM177.86,35a1.81,1.81,0,0,0-1.36.53,2.6,2.6,0,0,0-.61,1.57h3.8a2.32,2.32,0,0,0-.5-1.57A1.7,1.7,0,0,0,177.86,35Z"/><path class="cls-1" d="M190.79,42.19H189V37.05a2.25,2.25,0,0,0-.39-1.44,1.49,1.49,0,0,0-1.23-.48,2,2,0,0,0-1.65.67,3.64,3.64,0,0,0-.52,2.23v4.16h-1.77V33.83h1.39l.25,1.1h.09a2.41,2.41,0,0,1,1.07-.92,3.54,3.54,0,0,1,1.54-.33q3,0,3,3.06Z"/><path class="cls-1" d="M199.16,42.19l-.25-1.1h-.09a2.59,2.59,0,0,1-1.06.92,3.51,3.51,0,0,1-1.56.33,3,3,0,0,1-2.26-.76,3.11,3.11,0,0,1-.75-2.29V33.83H195V39a2.25,2.25,0,0,0,.39,1.44,1.49,1.49,0,0,0,1.23.48,2,2,0,0,0,1.65-.67,3.66,3.66,0,0,0,.52-2.23V33.83h1.78v8.36Z"/><path class="cls-1" d="M210.43,42.19h-1.78V37.05a2.25,2.25,0,0,0-.39-1.44,1.49,1.49,0,0,0-1.23-.48,2,2,0,0,0-1.65.67,3.64,3.64,0,0,0-.52,2.23v4.16h-1.78V33.83h1.39l.25,1.1h.09a2.39,2.39,0,0,1,1.08-.92,3.51,3.51,0,0,1,1.54-.33q3,0,3,3.06Z"/><path class="cls-1" d="M216.27,42.34a3.66,3.66,0,0,1-2.88-1.11,4.61,4.61,0,0,1-1-3.18,4.66,4.66,0,0,1,1-3.23,3.82,3.82,0,0,1,3-1.14,5.69,5.69,0,0,1,2.38.49l-.53,1.43a5.43,5.43,0,0,0-1.86-.44c-1.45,0-2.17,1-2.17,2.88a3.43,3.43,0,0,0,.54,2.11,1.88,1.88,0,0,0,1.58.71,4.61,4.61,0,0,0,2.25-.59v1.55a3.74,3.74,0,0,1-1,.4A6.16,6.16,0,0,1,216.27,42.34Z"/><path class="cls-1" d="M220.45,31.62a1,1,0,0,1,.26-.73,1.05,1.05,0,0,1,.75-.26,1,1,0,0,1,.73.26,1,1,0,0,1,.26.73,1,1,0,0,1-.26.71,1,1,0,0,1-.73.27,1,1,0,0,1-.75-.27A1,1,0,0,1,220.45,31.62Zm1.88,10.57h-1.77V33.83h1.77Z"/><path class="cls-1" d="M230.1,42.19,229.74,41h-.06a3.4,3.4,0,0,1-1.21,1,3.74,3.74,0,0,1-1.57.28,2.67,2.67,0,0,1-1.93-.67,2.48,2.48,0,0,1-.69-1.88,2.21,2.21,0,0,1,1-1.95,5.64,5.64,0,0,1,2.93-.71l1.44-.05v-.44a1.68,1.68,0,0,0-.38-1.2,1.5,1.5,0,0,0-1.16-.4,4.27,4.27,0,0,0-1.23.19,10.23,10.23,0,0,0-1.13.45l-.57-1.27a5.93,5.93,0,0,1,1.48-.54,6.53,6.53,0,0,1,1.53-.19,3.61,3.61,0,0,1,2.41.7,2.72,2.72,0,0,1,.81,2.18v5.63ZM227.46,41a2.2,2.2,0,0,0,1.55-.54,2,2,0,0,0,.58-1.52V38.2l-1.07,0a3.63,3.63,0,0,0-1.82.42,1.28,1.28,0,0,0-.57,1.15,1.11,1.11,0,0,0,.33.86A1.39,1.39,0,0,0,227.46,41Z"/><path class="cls-1" d="M239.46,39.81a2.17,2.17,0,0,1-.9,1.87,4.21,4.21,0,0,1-2.55.66,6,6,0,0,1-2.68-.51V40.3a6.64,6.64,0,0,0,2.74.68c1.1,0,1.64-.33,1.64-1a.79.79,0,0,0-.18-.53,2.11,2.11,0,0,0-.6-.44,9.87,9.87,0,0,0-1.15-.51,5.34,5.34,0,0,1-1.95-1.12,2.05,2.05,0,0,1-.51-1.45,1.88,1.88,0,0,1,.86-1.66,4.07,4.07,0,0,1,2.35-.6,6.63,6.63,0,0,1,2.79.6l-.57,1.34a6.1,6.1,0,0,0-2.28-.56c-.93,0-1.4.26-1.4.8a.8.8,0,0,0,.36.66,8.52,8.52,0,0,0,1.6.75,7.47,7.47,0,0,1,1.5.73,2.12,2.12,0,0,1,.7.77A2.22,2.22,0,0,1,239.46,39.81Z"/><path class="cls-1" d="M169.74,57.75a2.78,2.78,0,0,1-1.07,2.31,4.62,4.62,0,0,1-2.93.84,7,7,0,0,1-3.07-.58V58.61a8.41,8.41,0,0,0,1.6.56,7.2,7.2,0,0,0,1.59.2,2.53,2.53,0,0,0,1.58-.4,1.35,1.35,0,0,0,.51-1.1,1.39,1.39,0,0,0-.47-1,6.93,6.93,0,0,0-1.93-1,5,5,0,0,1-2.13-1.4,2.9,2.9,0,0,1-.62-1.88,2.63,2.63,0,0,1,1-2.18,4.05,4.05,0,0,1,2.64-.79,7.79,7.79,0,0,1,3.15.69L169,51.72a6.77,6.77,0,0,0-2.63-.62,2,2,0,0,0-1.33.38,1.25,1.25,0,0,0-.45,1,1.41,1.41,0,0,0,.18.73,1.76,1.76,0,0,0,.6.58,10,10,0,0,0,1.49.72,7.79,7.79,0,0,1,1.78.94,2.66,2.66,0,0,1,.83,1A2.93,2.93,0,0,1,169.74,57.75Z"/><path class="cls-1" d="M179.1,56.56a4.54,4.54,0,0,1-1,3.19,3.76,3.76,0,0,1-2.93,1.15,4,4,0,0,1-2.07-.53,3.46,3.46,0,0,1-1.38-1.52,5.18,5.18,0,0,1-.48-2.29,4.56,4.56,0,0,1,1-3.18,3.78,3.78,0,0,1,2.94-1.14A3.68,3.68,0,0,1,178,53.41,4.55,4.55,0,0,1,179.1,56.56Zm-6.08,0c0,1.92.71,2.89,2.13,2.89s2.12-1,2.12-2.89-.71-2.87-2.13-2.87a1.81,1.81,0,0,0-1.62.74A3.77,3.77,0,0,0,173,56.56Z"/><path class="cls-1" d="M182.91,60.75h-1.77V49h1.77Z"/><path class="cls-1" d="M185.34,50.18a1,1,0,0,1,.26-.73,1,1,0,0,1,.75-.26,1,1,0,0,1,.73.26,1,1,0,0,1,.26.73.9.9,0,0,1-1,1,1,1,0,0,1-.75-.26A1,1,0,0,1,185.34,50.18Zm1.88,10.57h-1.77V52.39h1.77Z"/><path class="cls-1" d="M193.13,60.9a3.63,3.63,0,0,1-2.88-1.11,4.6,4.6,0,0,1-1-3.17,4.62,4.62,0,0,1,1-3.24,3.82,3.82,0,0,1,3-1.14,5.69,5.69,0,0,1,2.38.49l-.54,1.43a5.39,5.39,0,0,0-1.85-.44c-1.45,0-2.17,1-2.17,2.88a3.43,3.43,0,0,0,.54,2.11,1.88,1.88,0,0,0,1.58.71,4.55,4.55,0,0,0,2.24-.59v1.55a3.55,3.55,0,0,1-1,.4A6.16,6.16,0,0,1,193.13,60.9Z"/><path class="cls-1" d="M197.31,50.18a1,1,0,0,1,.26-.73,1,1,0,0,1,.75-.26,1,1,0,0,1,.73.26,1,1,0,0,1,.26.73.9.9,0,0,1-1,1,1,1,0,0,1-.75-.26A1,1,0,0,1,197.31,50.18Zm1.88,10.57h-1.77V52.39h1.77Z"/><path class="cls-1" d="M204.84,59.46a4.15,4.15,0,0,0,1.3-.2V60.6a4.24,4.24,0,0,1-.76.21,5,5,0,0,1-1,.09c-1.68,0-2.52-.89-2.52-2.66v-4.5h-1.14V53L202,52.3l.6-1.76h1.1v1.85h2.38v1.35h-2.38v4.47a1.28,1.28,0,0,0,.32.95A1.18,1.18,0,0,0,204.84,59.46Z"/><path class="cls-1" d="M213.7,60.75l-.25-1.1h-.09a2.55,2.55,0,0,1-1.05.92,3.57,3.57,0,0,1-1.56.33,3.05,3.05,0,0,1-2.27-.76,3.1,3.1,0,0,1-.75-2.28V52.39h1.79v5.16a2.24,2.24,0,0,0,.4,1.43,1.49,1.49,0,0,0,1.23.48,2,2,0,0,0,1.64-.66,3.71,3.71,0,0,0,.53-2.24V52.39h1.78v8.36Z"/><path class="cls-1" d="M220.45,60.9A2.91,2.91,0,0,1,218,59.77a5.07,5.07,0,0,1-.88-3.18,5.12,5.12,0,0,1,.89-3.2,3,3,0,0,1,2.46-1.15,2.88,2.88,0,0,1,2.5,1.22h.09A11.34,11.34,0,0,1,223,52V49h1.78V60.75h-1.39l-.31-1.1H223A2.85,2.85,0,0,1,220.45,60.9Zm.47-1.44a2,2,0,0,0,1.6-.61,3.27,3.27,0,0,0,.51-2V56.6a3.75,3.75,0,0,0-.51-2.24,1.93,1.93,0,0,0-1.61-.67,1.66,1.66,0,0,0-1.45.76,4,4,0,0,0-.5,2.17,3.74,3.74,0,0,0,.49,2.11A1.65,1.65,0,0,0,220.92,59.46Z"/><path class="cls-1" d="M230.91,60.9a4,4,0,0,1-3-1.14,4.29,4.29,0,0,1-1.1-3.13,4.76,4.76,0,0,1,1-3.22,3.52,3.52,0,0,1,2.8-1.17,3.44,3.44,0,0,1,2.61,1,3.83,3.83,0,0,1,1,2.76v1H228.6a2.72,2.72,0,0,0,.65,1.87,2.29,2.29,0,0,0,1.75.65,5.94,5.94,0,0,0,1.37-.14,6.76,6.76,0,0,0,1.38-.46v1.44a5.69,5.69,0,0,1-1.32.44A7.69,7.69,0,0,1,230.91,60.9Zm-.32-7.31a1.81,1.81,0,0,0-1.36.53,2.53,2.53,0,0,0-.6,1.57h3.79a2.32,2.32,0,0,0-.5-1.57A1.72,1.72,0,0,0,230.59,53.59Z"/><path class="cls-1" d="M241.79,58.37a2.21,2.21,0,0,1-.89,1.88,4.33,4.33,0,0,1-2.55.65,6,6,0,0,1-2.69-.51V58.86a6.68,6.68,0,0,0,2.75.68c1.09,0,1.63-.33,1.63-1a.79.79,0,0,0-.18-.53,2.19,2.19,0,0,0-.59-.44,11,11,0,0,0-1.16-.51,5.34,5.34,0,0,1-2-1.12,2.05,2.05,0,0,1-.51-1.45,1.91,1.91,0,0,1,.86-1.66,4.08,4.08,0,0,1,2.36-.6,6.59,6.59,0,0,1,2.78.6l-.57,1.34a6.06,6.06,0,0,0-2.27-.56c-.94,0-1.41.27-1.41.8a.79.79,0,0,0,.37.66,7.91,7.91,0,0,0,1.6.75,7.75,7.75,0,0,1,1.5.73,2.07,2.07,0,0,1,.92,1.81Z"/><path class="cls-1" d="M165.18,74.9v4.41h-1.81v-11h3.12a5.1,5.1,0,0,1,3.17.8,2.87,2.87,0,0,1,1,2.41,3,3,0,0,1-2.14,2.94l3.12,4.89H169.6L167,74.9Zm0-1.5h1.25a2.83,2.83,0,0,0,1.83-.47,1.67,1.67,0,0,0,.56-1.38,1.49,1.49,0,0,0-.61-1.35,3.34,3.34,0,0,0-1.84-.41h-1.19Z"/><path class="cls-1" d="M176.72,79.46a4,4,0,0,1-3.05-1.14,4.31,4.31,0,0,1-1.1-3.13,4.76,4.76,0,0,1,1-3.22,3.55,3.55,0,0,1,2.8-1.17,3.45,3.45,0,0,1,2.62,1,3.87,3.87,0,0,1,1,2.76v1H174.4a2.68,2.68,0,0,0,.66,1.87,2.26,2.26,0,0,0,1.74.65,6.74,6.74,0,0,0,1.38-.13,7.7,7.7,0,0,0,1.37-.47v1.44a5,5,0,0,1-1.32.44A7.59,7.59,0,0,1,176.72,79.46Zm-.33-7.31a1.77,1.77,0,0,0-1.35.54,2.48,2.48,0,0,0-.61,1.56h3.79a2.34,2.34,0,0,0-.5-1.57A1.71,1.71,0,0,0,176.39,72.15Z"/><path class="cls-1" d="M185.35,79.46a3.66,3.66,0,0,1-2.88-1.11,4.58,4.58,0,0,1-1-3.17,4.67,4.67,0,0,1,1-3.24,3.82,3.82,0,0,1,3-1.14,5.54,5.54,0,0,1,2.38.5l-.53,1.42a5.38,5.38,0,0,0-1.86-.43c-1.45,0-2.17.95-2.17,2.87a3.43,3.43,0,0,0,.54,2.11,1.88,1.88,0,0,0,1.58.71,4.61,4.61,0,0,0,2.25-.59v1.55a3.44,3.44,0,0,1-1,.4A6.16,6.16,0,0,1,185.35,79.46Z"/><path class="cls-1" d="M195.53,79.31l-.25-1.1h-.09a2.55,2.55,0,0,1-1.05.92,3.57,3.57,0,0,1-1.56.33,3.09,3.09,0,0,1-2.27-.75,3.14,3.14,0,0,1-.75-2.29V71h1.79v5.15a2.19,2.19,0,0,0,.4,1.44A1.49,1.49,0,0,0,193,78a2,2,0,0,0,1.64-.67,3.71,3.71,0,0,0,.52-2.24V71h1.79v8.35Z"/><path class="cls-1" d="M203.69,70.8a4.3,4.3,0,0,1,.89.08l-.18,1.65a3.33,3.33,0,0,0-.78-.09,2.3,2.3,0,0,0-1.73.7,2.5,2.5,0,0,0-.66,1.8v4.37h-1.77V71h1.39l.23,1.47h.09a3.38,3.38,0,0,1,1.09-1.19A2.56,2.56,0,0,1,203.69,70.8Z"/><path class="cls-1" d="M211.74,76.93a2.2,2.2,0,0,1-.89,1.88,4.34,4.34,0,0,1-2.56.65,6,6,0,0,1-2.68-.51V77.42a6.68,6.68,0,0,0,2.74.68c1.1,0,1.64-.33,1.64-1a.79.79,0,0,0-.18-.53,2.42,2.42,0,0,0-.59-.44,11,11,0,0,0-1.16-.51,5.21,5.21,0,0,1-1.95-1.12,2.05,2.05,0,0,1-.51-1.45,1.91,1.91,0,0,1,.86-1.66,4.08,4.08,0,0,1,2.36-.6,6.59,6.59,0,0,1,2.78.6L211,72.74a6.25,6.25,0,0,0-2.28-.56c-.93,0-1.4.27-1.4.8a.79.79,0,0,0,.37.66,7.47,7.47,0,0,0,1.59.75,7.27,7.27,0,0,1,1.51.74,2.15,2.15,0,0,1,.69.76A2.25,2.25,0,0,1,211.74,76.93Z"/><path class="cls-1" d="M221.07,75.12a4.54,4.54,0,0,1-1,3.19,3.76,3.76,0,0,1-2.93,1.15,4,4,0,0,1-2.07-.53,3.46,3.46,0,0,1-1.38-1.52,5.18,5.18,0,0,1-.48-2.29,4.53,4.53,0,0,1,1-3.17,3.74,3.74,0,0,1,2.94-1.15A3.68,3.68,0,0,1,220,72,4.55,4.55,0,0,1,221.07,75.12Zm-6.08,0c0,1.93.71,2.89,2.13,2.89s2.12-1,2.12-2.89-.71-2.87-2.13-2.87a1.81,1.81,0,0,0-1.62.74A3.77,3.77,0,0,0,215,75.12Z"/><path class="cls-1" d="M228.72,76.93a2.2,2.2,0,0,1-.89,1.88,4.34,4.34,0,0,1-2.56.65,6,6,0,0,1-2.68-.51V77.42a6.64,6.64,0,0,0,2.74.68c1.1,0,1.64-.33,1.64-1a.79.79,0,0,0-.18-.53,2.32,2.32,0,0,0-.6-.44,9.87,9.87,0,0,0-1.15-.51,5.21,5.21,0,0,1-1.95-1.12,2.05,2.05,0,0,1-.51-1.45,1.88,1.88,0,0,1,.86-1.66,4.07,4.07,0,0,1,2.35-.6,6.63,6.63,0,0,1,2.79.6L228,72.74a6.3,6.3,0,0,0-2.28-.56c-.93,0-1.4.27-1.4.8a.8.8,0,0,0,.36.66,7.91,7.91,0,0,0,1.6.75,6.9,6.9,0,0,1,1.5.74,2.09,2.09,0,0,1,.7.76A2.25,2.25,0,0,1,228.72,76.93Z"/><path class="cls-1" d="M163.37,86.83h3.28a6.28,6.28,0,0,1,3.3.66,2.35,2.35,0,0,1,1,2.1,2.5,2.5,0,0,1-.5,1.61A2.21,2.21,0,0,1,169,92v.07a2.91,2.91,0,0,1,1.71.87,2.64,2.64,0,0,1,.55,1.75,2.84,2.84,0,0,1-1,2.33,4.48,4.48,0,0,1-2.89.84h-4Zm1.81,4.56h1.73a3,3,0,0,0,1.66-.36,1.36,1.36,0,0,0,.52-1.22,1.22,1.22,0,0,0-.56-1.12,3.44,3.44,0,0,0-1.79-.35h-1.56Zm0,1.47v3.49h1.92a2.84,2.84,0,0,0,1.71-.43,1.62,1.62,0,0,0,.57-1.37,1.44,1.44,0,0,0-.59-1.28,3.08,3.08,0,0,0-1.79-.41Z"/><path class="cls-1" d="M179.28,97.87l-.24-1.1h-.1a2.43,2.43,0,0,1-1.05.92,3.51,3.51,0,0,1-1.56.33,3.05,3.05,0,0,1-2.26-.75,3.14,3.14,0,0,1-.75-2.29V89.52h1.79v5.15a2.25,2.25,0,0,0,.39,1.44,1.49,1.49,0,0,0,1.23.48,2,2,0,0,0,1.64-.67,3.71,3.71,0,0,0,.53-2.24V89.52h1.78v8.35Z"/><path class="cls-1" d="M188.82,95.49a2.18,2.18,0,0,1-.89,1.88,4.28,4.28,0,0,1-2.55.65,6,6,0,0,1-2.68-.51V96a6.6,6.6,0,0,0,2.74.68c1.09,0,1.64-.33,1.64-1a.79.79,0,0,0-.18-.53,2.11,2.11,0,0,0-.6-.43,8.85,8.85,0,0,0-1.15-.52,5.18,5.18,0,0,1-2-1.12,2.05,2.05,0,0,1-.51-1.45,1.89,1.89,0,0,1,.87-1.66,4,4,0,0,1,2.35-.59,6.66,6.66,0,0,1,2.79.59l-.58,1.34a6.26,6.26,0,0,0-2.27-.56c-.94,0-1.4.27-1.4.8a.83.83,0,0,0,.36.67,8.06,8.06,0,0,0,1.6.74,6.9,6.9,0,0,1,1.5.74,2.18,2.18,0,0,1,.7.76A2.25,2.25,0,0,1,188.82,95.49Z"/><path class="cls-1" d="M194.11,98a3.66,3.66,0,0,1-2.88-1.11,4.58,4.58,0,0,1-1-3.17,4.67,4.67,0,0,1,1-3.24,3.82,3.82,0,0,1,3-1.13,5.54,5.54,0,0,1,2.38.49l-.53,1.42a5.38,5.38,0,0,0-1.86-.43c-1.45,0-2.17,1-2.17,2.87a3.43,3.43,0,0,0,.54,2.11,1.88,1.88,0,0,0,1.58.71,4.61,4.61,0,0,0,2.25-.59V97.5a3.44,3.44,0,0,1-1,.4A6.16,6.16,0,0,1,194.11,98Z"/><path class="cls-1" d="M203.63,97.87l-.36-1.16h-.06a3.51,3.51,0,0,1-1.21,1,4,4,0,0,1-1.58.27,2.66,2.66,0,0,1-1.92-.66,2.5,2.5,0,0,1-.69-1.88,2.2,2.2,0,0,1,1-2,5.5,5.5,0,0,1,2.92-.72l1.45,0v-.44a1.71,1.71,0,0,0-.38-1.2,1.54,1.54,0,0,0-1.16-.4,4.16,4.16,0,0,0-1.23.19,10.23,10.23,0,0,0-1.13.45l-.58-1.27a6,6,0,0,1,1.49-.54,7.06,7.06,0,0,1,1.53-.18,3.62,3.62,0,0,1,2.4.69,2.72,2.72,0,0,1,.82,2.18v5.63ZM201,96.66a2.23,2.23,0,0,0,1.56-.54,1.94,1.94,0,0,0,.58-1.51v-.73l-1.07.05a3.67,3.67,0,0,0-1.83.42,1.27,1.27,0,0,0-.57,1.14,1.12,1.12,0,0,0,.34.87A1.43,1.43,0,0,0,201,96.66Z"/><path class="cls-1" d="M210.19,98a2.92,2.92,0,0,1-2.44-1.13,6.19,6.19,0,0,1,0-6.38,2.94,2.94,0,0,1,2.46-1.14,2.89,2.89,0,0,1,2.51,1.21h.09a10,10,0,0,1-.13-1.42v-3h1.78V97.87h-1.39l-.31-1.1h-.08A2.82,2.82,0,0,1,210.19,98Zm.48-1.43a1.94,1.94,0,0,0,1.59-.62,3.27,3.27,0,0,0,.51-2v-.25a3.75,3.75,0,0,0-.51-2.24,1.91,1.91,0,0,0-1.61-.66,1.63,1.63,0,0,0-1.44.75,4.85,4.85,0,0,0,0,4.29A1.68,1.68,0,0,0,210.67,96.59Z"/><path class="cls-1" d="M224.42,93.68a4.54,4.54,0,0,1-1,3.19A3.75,3.75,0,0,1,220.45,98a3.94,3.94,0,0,1-2.07-.53A3.54,3.54,0,0,1,217,96a5.18,5.18,0,0,1-.48-2.29,4.53,4.53,0,0,1,1-3.17,3.8,3.8,0,0,1,2.94-1.14,3.66,3.66,0,0,1,2.87,1.16A4.5,4.5,0,0,1,224.42,93.68Zm-6.08,0c0,1.93.71,2.89,2.14,2.89s2.11-1,2.11-2.89-.71-2.86-2.13-2.86a1.81,1.81,0,0,0-1.62.74A3.79,3.79,0,0,0,218.34,93.68Z"/><path class="cls-1" d="M230.69,89.37a4.39,4.39,0,0,1,.89.07l-.18,1.66a3.33,3.33,0,0,0-.78-.1,2.3,2.3,0,0,0-1.73.7,2.5,2.5,0,0,0-.66,1.8v4.37h-1.77V89.52h1.39l.23,1.47h.09a3.38,3.38,0,0,1,1.09-1.19A2.55,2.55,0,0,1,230.69,89.37Z"/><rect class="cls-1" x="149.62" y="14.68" width="5.62" height="5.62" rx="1.33"/><rect class="cls-1" x="149.62" y="52.02" width="5.62" height="5.62" rx="1.33"/><rect class="cls-1" x="149.62" y="70.77" width="5.62" height="5.62" rx="1.33"/><rect class="cls-1" x="149.62" y="90.55" width="5.62" height="5.62" rx="1.33"/><path class="cls-1" d="M21.81,80.62a1.19,1.19,0,0,1,.86.29,1.1,1.1,0,0,1,.29.81,1,1,0,0,1-1.15,1.1H20.68v1.53h-.5V80.62Zm-.16,1.78a.83.83,0,0,0,.61-.17.75.75,0,0,0,0-1,.93.93,0,0,0-.61-.17h-1V82.4Z"/><path class="cls-1" d="M25.66,80.62v3.31h2v.42H25.17V80.62Z"/><path class="cls-1" d="M31.24,80.62l1.45,3.73h-.54l-.41-1.13H30.16l-.41,1.13h-.51l1.45-3.73Zm.34,2.19L31,81.07h0l-.63,1.74Z"/><path class="cls-1" d="M34.27,81v-.42h3V81H36v3.31h-.5V81Z"/><path class="cls-1" d="M40.83,80.62l1.46,3.73h-.55l-.41-1.13H39.75l-.41,1.13h-.51l1.45-3.73Zm.34,2.19-.62-1.74h0l-.63,1.74Z"/><path class="cls-1" d="M46.71,80.62V81h-2v1.18h1.72v.42H44.75v1.71h-.49V80.62Z"/><path class="cls-1" d="M48.76,81.75a1.86,1.86,0,0,1,.34-.62,1.74,1.74,0,0,1,.56-.44,2,2,0,0,1,1.55,0,1.64,1.64,0,0,1,.56.44,1.86,1.86,0,0,1,.34.62,2.53,2.53,0,0,1,.11.73,2.6,2.6,0,0,1-.11.74,2,2,0,0,1-.34.62,1.61,1.61,0,0,1-.56.43,1.77,1.77,0,0,1-2.11-.43,2,2,0,0,1-.34-.62,2.6,2.6,0,0,1-.11-.74A2.53,2.53,0,0,1,48.76,81.75ZM49.22,83a1.58,1.58,0,0,0,.23.49,1.12,1.12,0,0,0,.4.35,1.22,1.22,0,0,0,.59.14,1.18,1.18,0,0,0,.58-.14,1,1,0,0,0,.4-.35,1.38,1.38,0,0,0,.23-.49,2.1,2.1,0,0,0,.08-.56,2,2,0,0,0-.08-.55,1.43,1.43,0,0,0-.23-.5,1.14,1.14,0,0,0-.4-.35,1.18,1.18,0,0,0-.58-.13,1.22,1.22,0,0,0-.59.13,1.35,1.35,0,0,0-.4.35,1.64,1.64,0,0,0-.23.5,2,2,0,0,0-.07.55A2.1,2.1,0,0,0,49.22,83Z"/><path class="cls-1" d="M56.19,80.62a1.25,1.25,0,0,1,.83.26.89.89,0,0,1,.3.72,1.15,1.15,0,0,1-.15.59.81.81,0,0,1-.5.35h0a.67.67,0,0,1,.27.11.52.52,0,0,1,.16.17.79.79,0,0,1,.09.23,2,2,0,0,1,0,.26c0,.09,0,.18,0,.27a2.46,2.46,0,0,0,0,.28l.06.26a.94.94,0,0,0,.12.22H56.9a.26.26,0,0,1-.07-.16,1.46,1.46,0,0,1,0-.22,2.62,2.62,0,0,0,0-.27,1.24,1.24,0,0,0,0-.27,2,2,0,0,0,0-.26.62.62,0,0,0-.1-.22.44.44,0,0,0-.18-.14.6.6,0,0,0-.29-.06H54.93v1.6h-.5V80.62Zm.1,1.69a.77.77,0,0,0,.28-.1.58.58,0,0,0,.18-.2.69.69,0,0,0,.07-.34.71.71,0,0,0-.15-.46.7.7,0,0,0-.51-.17H54.93v1.3h1A1.69,1.69,0,0,0,56.29,82.31Z"/><path class="cls-1" d="M60.31,80.62l1.17,3.13,1.18-3.13h.68v3.73h-.47v-3.1h0l-1.17,3.1h-.42l-1.16-3.1h0v3.1h-.47V80.62Z"/><path class="cls-1" d="M67.33,80.62l1.46,3.73h-.55l-.41-1.13H66.25l-.41,1.13h-.51l1.45-3.73Zm.34,2.19-.62-1.74h0l-.63,1.74Z"/><path class="cls-1" d="M75.87,80.62l2,3h0v-3h.47v3.73h-.54l-2-3h0v3h-.47V80.62Z"/><path class="cls-1" d="M82.28,80.62l1.46,3.73h-.55l-.41-1.13H81.21l-.42,1.13h-.51l1.45-3.73Zm.35,2.19L82,81.07h0l-.63,1.74Z"/><path class="cls-1" d="M88,81.15a1.09,1.09,0,0,0-.67-.2,1.09,1.09,0,0,0-1,.46,1.32,1.32,0,0,0-.22.48,2.12,2.12,0,0,0-.08.57,2.35,2.35,0,0,0,.08.6,1.41,1.41,0,0,0,.22.5,1.08,1.08,0,0,0,.4.33,1.14,1.14,0,0,0,.57.13,1.23,1.23,0,0,0,.44-.08,1,1,0,0,0,.32-.23.87.87,0,0,0,.22-.34,1.5,1.5,0,0,0,.1-.43h.49a1.73,1.73,0,0,1-.48,1.1,1.58,1.58,0,0,1-1.13.39,1.81,1.81,0,0,1-.76-.15,1.68,1.68,0,0,1-.54-.41,1.74,1.74,0,0,1-.32-.62,2.64,2.64,0,0,1-.1-.76,2.37,2.37,0,0,1,.11-.76,1.77,1.77,0,0,1,.34-.62,1.67,1.67,0,0,1,.55-.43,1.84,1.84,0,0,1,.76-.15,1.92,1.92,0,0,1,.55.08,1.47,1.47,0,0,1,.47.23,1.38,1.38,0,0,1,.34.38,1.23,1.23,0,0,1,.17.52h-.49A.93.93,0,0,0,88,81.15Z"/><path class="cls-1" d="M91.6,80.62v3.73h-.49V80.62Z"/><path class="cls-1" d="M94,81.75a1.68,1.68,0,0,1,.33-.62,1.74,1.74,0,0,1,.56-.44,1.87,1.87,0,0,1,.78-.16,1.9,1.9,0,0,1,.78.16,1.74,1.74,0,0,1,.56.44,1.84,1.84,0,0,1,.33.62,2.23,2.23,0,0,1,.11.73,2.29,2.29,0,0,1-.11.74,1.94,1.94,0,0,1-.33.62,1.71,1.71,0,0,1-.56.43,1.75,1.75,0,0,1-.78.16,1.67,1.67,0,0,1-1.34-.59,1.76,1.76,0,0,1-.33-.62,2.3,2.3,0,0,1-.12-.74A2.24,2.24,0,0,1,94,81.75ZM94.4,83a1.58,1.58,0,0,0,.23.49,1.07,1.07,0,0,0,.41.35,1.27,1.27,0,0,0,1.16,0,1.07,1.07,0,0,0,.41-.35,1.58,1.58,0,0,0,.23-.49,2.6,2.6,0,0,0,.07-.56,2.51,2.51,0,0,0-.07-.55,1.64,1.64,0,0,0-.23-.5,1.27,1.27,0,0,0-.41-.35,1.36,1.36,0,0,0-1.16,0,1.27,1.27,0,0,0-.41.35,1.64,1.64,0,0,0-.23.5,2,2,0,0,0-.07.55A2.1,2.1,0,0,0,94.4,83Z"/><path class="cls-1" d="M100.14,80.62l2,3h0v-3h.47v3.73H102l-2-3h0v3h-.47V80.62Z"/><path class="cls-1" d="M106.55,80.62,108,84.35h-.55l-.41-1.13h-1.57l-.42,1.13h-.51L106,80.62Zm.35,2.19-.62-1.74h0l-.63,1.74Z"/><path class="cls-1" d="M110.48,80.62v3.31h2v.42H110V80.62Z"/><path class="cls-1" d="M120.36,80.62a1.86,1.86,0,0,1,1.32.44,1.75,1.75,0,0,1,.47,1.33,3.05,3.05,0,0,1-.11.84,1.69,1.69,0,0,1-.32.61,1.59,1.59,0,0,1-.56.38,2.44,2.44,0,0,1-.8.13h-1.28V80.62Zm0,3.31h.21a.92.92,0,0,0,.26-.07,1,1,0,0,0,.28-.14.89.89,0,0,0,.25-.26,1.5,1.5,0,0,0,.18-.4,2,2,0,0,0,.07-.59,2.25,2.25,0,0,0-.07-.6,1.06,1.06,0,0,0-.21-.44,1,1,0,0,0-.38-.29,1.64,1.64,0,0,0-.58-.09h-.84v2.89Z"/><path class="cls-1" d="M126.93,80.62V81h-2.08v1.18h1.94v.42h-1.94v1.29H127v.42h-2.59V80.62Z"/><path class="cls-1" d="M27.84,88.31v-.84H31.6v.84H30.22v3.74h-1V88.31Z"/><path class="cls-1" d="M37.49,87.47a1.38,1.38,0,0,1,.55.1,1.12,1.12,0,0,1,.43.27,1.56,1.56,0,0,1,.27.4,1.33,1.33,0,0,1,.09.49,1.39,1.39,0,0,1-.17.7,1,1,0,0,1-.56.45h0a.82.82,0,0,1,.31.16,1,1,0,0,1,.2.25,1.1,1.1,0,0,1,.11.32,2.11,2.11,0,0,1,.05.35,1.93,1.93,0,0,1,0,.25l0,.31a2.5,2.5,0,0,0,0,.29.7.7,0,0,0,.1.23H38a1.83,1.83,0,0,1-.11-.52c0-.2,0-.39-.05-.58a.93.93,0,0,0-.22-.52.77.77,0,0,0-.55-.17H36v1.79H35V87.47Zm-.36,2.07a.79.79,0,0,0,.52-.15.67.67,0,0,0,.17-.5.63.63,0,0,0-.17-.49.79.79,0,0,0-.52-.15H36v1.29Z"/><path class="cls-1" d="M44.83,87.47l1.71,4.58h-1l-.35-1H43.43l-.35,1h-1l1.73-4.58Zm.06,2.81-.58-1.68h0l-.6,1.68Z"/><path class="cls-1" d="M50.83,87.47l1.92,3.07h0V87.47h.94v4.58h-1L50.79,89h0v3.07h-1V87.47Z"/><path class="cls-1" d="M58.25,90.92a.71.71,0,0,0,.22.26.91.91,0,0,0,.33.15,1.58,1.58,0,0,0,.38,0l.29,0a1.23,1.23,0,0,0,.29-.09.58.58,0,0,0,.23-.18.43.43,0,0,0,.09-.28A.41.41,0,0,0,60,90.5a1.17,1.17,0,0,0-.31-.19,3.88,3.88,0,0,0-.44-.13l-.5-.13a4.83,4.83,0,0,1-.5-.16,1.64,1.64,0,0,1-.43-.24,1.12,1.12,0,0,1-.31-.37,1.13,1.13,0,0,1-.12-.54,1.2,1.2,0,0,1,.15-.61,1.34,1.34,0,0,1,.39-.43,1.8,1.8,0,0,1,.56-.26,2.55,2.55,0,0,1,.61-.08,2.61,2.61,0,0,1,.69.08,1.66,1.66,0,0,1,.59.26,1.3,1.3,0,0,1,.41.46,1.38,1.38,0,0,1,.15.67h-1a1.06,1.06,0,0,0-.08-.34.58.58,0,0,0-.2-.21,1,1,0,0,0-.28-.11,1.79,1.79,0,0,0-.34,0,1.07,1.07,0,0,0-.25,0,.47.47,0,0,0-.22.09.41.41,0,0,0-.16.16.36.36,0,0,0-.07.24.48.48,0,0,0,0,.22.44.44,0,0,0,.21.15,2.61,2.61,0,0,0,.41.15l.7.18a1.86,1.86,0,0,1,.36.09,1.52,1.52,0,0,1,.45.21,1.36,1.36,0,0,1,.39.4,1.09,1.09,0,0,1,.16.63,1.45,1.45,0,0,1-.12.59,1.31,1.31,0,0,1-.36.46,1.88,1.88,0,0,1-.6.31,2.91,2.91,0,0,1-.82.11,3,3,0,0,1-.74-.1,1.82,1.82,0,0,1-.63-.29,1.34,1.34,0,0,1-.43-.51,1.51,1.51,0,0,1-.16-.73h1A.9.9,0,0,0,58.25,90.92Z"/><path class="cls-1" d="M66.61,87.47a2,2,0,0,1,.73.12,1.5,1.5,0,0,1,.49.33,1.34,1.34,0,0,1,.28.47,1.7,1.7,0,0,1,.08.55,1.68,1.68,0,0,1-.08.54,1.18,1.18,0,0,1-.28.47,1.25,1.25,0,0,1-.49.33,1.77,1.77,0,0,1-.73.13H65.55v1.64h-1V87.47Zm-.28,2.16a1.87,1.87,0,0,0,.34,0,.85.85,0,0,0,.28-.1.48.48,0,0,0,.19-.21.72.72,0,0,0,.08-.35.74.74,0,0,0-.08-.36.41.41,0,0,0-.19-.2.67.67,0,0,0-.28-.1,1.87,1.87,0,0,0-.34,0h-.78v1.38Z"/><path class="cls-1" d="M74,87.47l1.72,4.58h-1l-.35-1H72.61l-.36,1h-1L73,87.47Zm.06,2.81-.58-1.68h0l-.6,1.68Z"/><path class="cls-1" d="M81.48,87.47a1.38,1.38,0,0,1,.55.1,1.12,1.12,0,0,1,.43.27,1.56,1.56,0,0,1,.27.4,1.33,1.33,0,0,1,.09.49,1.39,1.39,0,0,1-.17.7,1,1,0,0,1-.56.45h0a.82.82,0,0,1,.31.16,1,1,0,0,1,.2.25,1.1,1.1,0,0,1,.11.32,2.11,2.11,0,0,1,.05.35,1.93,1.93,0,0,1,0,.25l0,.31a1.35,1.35,0,0,0,0,.29.7.7,0,0,0,.1.23H82a1.83,1.83,0,0,1-.11-.52c0-.2,0-.39,0-.58a.93.93,0,0,0-.22-.52.77.77,0,0,0-.55-.17H80v1.79H79V87.47Zm-.36,2.07a.79.79,0,0,0,.52-.15.67.67,0,0,0,.17-.5.63.63,0,0,0-.17-.49.79.79,0,0,0-.52-.15H80v1.29Z"/><path class="cls-1" d="M90,87.47v.84H87.54v1h2.22v.78H87.54V91.2H90v.85H86.53V87.47Z"/><path class="cls-1" d="M94.59,87.47l1.91,3.07h0V87.47h.95v4.58h-1L94.54,89h0v3.07h-1V87.47Z"/><path class="cls-1" d="M104.17,88.69a.88.88,0,0,0-.22-.25.9.9,0,0,0-.3-.17,1.13,1.13,0,0,0-.36-.06,1.16,1.16,0,0,0-.58.13.92.92,0,0,0-.38.35,1.73,1.73,0,0,0-.22.5,2.88,2.88,0,0,0-.07.59,2.6,2.6,0,0,0,.07.56,1.56,1.56,0,0,0,.22.49,1,1,0,0,0,.38.35,1.16,1.16,0,0,0,.58.13A.91.91,0,0,0,104,91a1.36,1.36,0,0,0,.32-.74h1a2.64,2.64,0,0,1-.2.77,1.9,1.9,0,0,1-1,1,2.45,2.45,0,0,1-.78.13,2.4,2.4,0,0,1-1-.19,2,2,0,0,1-.71-.5,2.3,2.3,0,0,1-.44-.76,2.84,2.84,0,0,1-.16-.93,2.91,2.91,0,0,1,.16-1,2.25,2.25,0,0,1,.44-.77,2.08,2.08,0,0,1,.71-.52,2.4,2.4,0,0,1,1-.18,2.23,2.23,0,0,1,1.32.42,1.84,1.84,0,0,1,.44.52,2,2,0,0,1,.22.71h-1A.88.88,0,0,0,104.17,88.69Z"/><path class="cls-1" d="M109.89,87.47v4.58h-1V87.47Z"/><path class="cls-1" d="M116,87.47l1.72,4.58h-1l-.34-1h-1.72l-.36,1h-1l1.73-4.58Zm.06,2.81-.58-1.68h0l-.6,1.68Z"/><path class="cls-1" d="M94.31,42.68l-2.89,4.2-24-30.7a5.85,5.85,0,0,0-4.65-2.28H23.36a7.49,7.49,0,0,0-7.46,7.5,7.41,7.41,0,0,0,1.68,4.74L38.77,53.58H51.89L66.67,72.52s1.17,1.42,2.07,2.4a3.85,3.85,0,0,0,1.71,1h0s.18.06.5.13l.24,0,.19,0,.36.05h.09a9.18,9.18,0,0,0,1.55,0h31.23a11.76,11.76,0,0,0,9.69-5.1l19.61-28.46ZM41.1,48.79,21.28,23.15a2.67,2.67,0,0,1-.62-1.74,2.71,2.71,0,0,1,2.7-2.71h.25A3.3,3.3,0,0,1,25.69,20L48.15,48.79ZM30.73,18.7H62.81a1.17,1.17,0,0,1,.9.44L88.58,51,75.09,70.55a2,2,0,0,1-1.7.9h-.52a2.25,2.25,0,0,1-1-.26,4.85,4.85,0,0,1-1-1.06Zm79.65,49.71a7,7,0,0,1-5.77,3H80.27l16.54-24h28Z"/></svg>