<svg id="Capa_1" data-name="Capa 1" xmlns="http://www.w3.org/2000/svg" viewBox="0 0 329.87 106.21"><defs><style>.cls-1{fill:#fff;}</style></defs><path class="cls-1" d="M163.37,21.52v-11h1.81v11Z"/><path class="cls-1" d="M175.25,21.52h-1.78V16.39a2.26,2.26,0,0,0-.39-1.45,1.52,1.52,0,0,0-1.23-.47,2,2,0,0,0-1.65.66,3.68,3.68,0,0,0-.52,2.23v4.16H167.9V13.17h1.39l.25,1.1h.09a2.47,2.47,0,0,1,1.08-.93,3.66,3.66,0,0,1,1.54-.32q3,0,3,3.06Z"/><path class="cls-1" d="M181.91,14.52h-2v7h-1.78v-7h-1.37v-.84l1.37-.54V12.6a3,3,0,0,1,.7-2.2,2.86,2.86,0,0,1,2.12-.71,5.56,5.56,0,0,1,1.84.31l-.47,1.34a4,4,0,0,0-1.25-.21,1,1,0,0,0-.88.38,1.88,1.88,0,0,0-.28,1.12v.54h2Z"/><path class="cls-1" d="M190.74,17.33a4.57,4.57,0,0,1-1.05,3.2,3.77,3.77,0,0,1-2.92,1.14,4,4,0,0,1-2.07-.52,3.51,3.51,0,0,1-1.38-1.52,5.22,5.22,0,0,1-.49-2.3,4.51,4.51,0,0,1,1-3.17A3.76,3.76,0,0,1,186.81,13a3.67,3.67,0,0,1,2.87,1.17A4.46,4.46,0,0,1,190.74,17.33Zm-6.08,0c0,1.93.71,2.89,2.14,2.89s2.11-1,2.11-2.89-.71-2.86-2.13-2.86a1.84,1.84,0,0,0-1.62.74A3.79,3.79,0,0,0,184.66,17.33Z"/><path class="cls-1" d="M197,13a3.61,3.61,0,0,1,.88.08l-.17,1.65a3.42,3.42,0,0,0-.79-.09,2.27,2.27,0,0,0-1.72.69,2.54,2.54,0,0,0-.66,1.81v4.36h-1.78V13.17h1.39l.23,1.47h.1a3.16,3.16,0,0,1,1.08-1.18A2.57,2.57,0,0,1,197,13Z"/><path class="cls-1" d="M206.49,21.52h-1.78V16.37a2.28,2.28,0,0,0-.37-1.43,1.35,1.35,0,0,0-1.13-.47,1.73,1.73,0,0,0-1.51.67,3.88,3.88,0,0,0-.48,2.22v4.16h-1.77V13.17h1.39l.25,1.1h.09a2.34,2.34,0,0,1,1-.93,3.31,3.31,0,0,1,1.45-.32,2.53,2.53,0,0,1,2.55,1.31h.13a2.48,2.48,0,0,1,1-1A3.33,3.33,0,0,1,208.9,13a2.84,2.84,0,0,1,2.18.75,3.41,3.41,0,0,1,.68,2.31v5.44H210V16.37a2.35,2.35,0,0,0-.37-1.43,1.37,1.37,0,0,0-1.14-.47,1.78,1.78,0,0,0-1.51.64,3.37,3.37,0,0,0-.48,2Z"/><path class="cls-1" d="M219.46,21.52l-.35-1.16h-.06a3.44,3.44,0,0,1-1.22,1,3.92,3.92,0,0,1-1.57.27,2.66,2.66,0,0,1-1.92-.66,2.48,2.48,0,0,1-.69-1.88,2.21,2.21,0,0,1,1-1.95,5.5,5.5,0,0,1,2.92-.72l1.44,0V16a1.71,1.71,0,0,0-.37-1.2,1.55,1.55,0,0,0-1.16-.39,3.86,3.86,0,0,0-1.23.19,8.54,8.54,0,0,0-1.13.44l-.58-1.27A6.92,6.92,0,0,1,216,13.2a7.06,7.06,0,0,1,1.53-.18,3.62,3.62,0,0,1,2.4.69,2.74,2.74,0,0,1,.81,2.19v5.62Zm-2.64-1.2a2.16,2.16,0,0,0,1.55-.55,1.94,1.94,0,0,0,.59-1.51v-.72l-1.07,0a3.67,3.67,0,0,0-1.83.42,1.27,1.27,0,0,0-.57,1.14,1.12,1.12,0,0,0,.33.87A1.46,1.46,0,0,0,216.82,20.32Z"/><path class="cls-1" d="M226.58,21.67a3.62,3.62,0,0,1-2.88-1.1,4.62,4.62,0,0,1-1-3.18,4.65,4.65,0,0,1,1-3.24,3.84,3.84,0,0,1,3-1.13,5.54,5.54,0,0,1,2.38.49l-.54,1.43a5.44,5.44,0,0,0-1.85-.44c-1.45,0-2.17,1-2.17,2.88a3.45,3.45,0,0,0,.54,2.11,1.87,1.87,0,0,0,1.58.7,4.54,4.54,0,0,0,2.24-.58v1.54a3.28,3.28,0,0,1-1,.4A6.16,6.16,0,0,1,226.58,21.67Z"/><path class="cls-1" d="M230.76,11a1,1,0,1,1,2,0,.9.9,0,0,1-1,1,1,1,0,0,1-.75-.26A1,1,0,0,1,230.76,11Zm1.88,10.56h-1.77V13.17h1.77Z"/><path class="cls-1" d="M242.59,17.33a4.57,4.57,0,0,1-1.05,3.2,3.77,3.77,0,0,1-2.92,1.14,4,4,0,0,1-2.07-.52,3.51,3.51,0,0,1-1.38-1.52,5.09,5.09,0,0,1-.49-2.3,4.55,4.55,0,0,1,1-3.17A3.8,3.8,0,0,1,238.66,13a3.67,3.67,0,0,1,2.87,1.17A4.46,4.46,0,0,1,242.59,17.33Zm-6.08,0c0,1.93.71,2.89,2.14,2.89s2.11-1,2.11-2.89-.71-2.86-2.13-2.86a1.84,1.84,0,0,0-1.62.74A3.79,3.79,0,0,0,236.51,17.33Zm1-5.18V12c.29-.35.59-.74.89-1.18a11.09,11.09,0,0,0,.72-1.11h2.06v.16A13.77,13.77,0,0,1,240,11a15.76,15.76,0,0,1-1.32,1.13Z"/><path class="cls-1" d="M252,21.52h-1.79V16.39a2.33,2.33,0,0,0-.38-1.45,1.54,1.54,0,0,0-1.24-.47,2,2,0,0,0-1.65.66,3.75,3.75,0,0,0-.52,2.23v4.16h-1.77V13.17H246l.25,1.1h.09a2.5,2.5,0,0,1,1.07-.93A3.69,3.69,0,0,1,249,13q3,0,3,3.06Z"/><path class="cls-1" d="M266,13.82a3.2,3.2,0,0,1-1.13,2.65,4.94,4.94,0,0,1-3.22.92h-1.15v4.13h-1.81v-11h3.18a4.76,4.76,0,0,1,3.1.85A3,3,0,0,1,266,13.82Zm-5.5,2h1a3.49,3.49,0,0,0,2-.48,1.76,1.76,0,0,0,.65-1.51,1.74,1.74,0,0,0-.58-1.42,2.92,2.92,0,0,0-1.82-.47h-1.25Z"/><path class="cls-1" d="M273.87,21.52l-.25-1.09h-.09a2.47,2.47,0,0,1-1,.91,3.57,3.57,0,0,1-1.56.33,3.09,3.09,0,0,1-2.27-.75,3.12,3.12,0,0,1-.74-2.29V13.17h1.79v5.15a2.25,2.25,0,0,0,.39,1.44,1.49,1.49,0,0,0,1.23.48,2,2,0,0,0,1.64-.67,3.66,3.66,0,0,0,.53-2.24V13.17h1.78v8.35Zm-3.37-9.37V12c.28-.35.58-.74.88-1.18a11.09,11.09,0,0,0,.72-1.11h2.07v.16A15.92,15.92,0,0,1,273,11a15.76,15.76,0,0,1-1.32,1.13Z"/><path class="cls-1" d="M282.07,13a2.9,2.9,0,0,1,2.43,1.13,5.14,5.14,0,0,1,.87,3.18,5.12,5.12,0,0,1-.88,3.2,3.22,3.22,0,0,1-4.92,0h-.12l-.32,1H277.8V9.77h1.77v2.8c0,.2,0,.51,0,.92s0,.66,0,.78h.07A2.84,2.84,0,0,1,282.07,13Zm-.46,1.45a1.82,1.82,0,0,0-1.55.63,3.69,3.69,0,0,0-.49,2.11v.12a3.9,3.9,0,0,0,.49,2.21,1.79,1.79,0,0,0,1.58.68,1.59,1.59,0,0,0,1.43-.74,4,4,0,0,0,.48-2.16C283.55,15.42,282.91,14.47,281.61,14.47Z"/><path class="cls-1" d="M289.21,21.52h-1.77V9.77h1.77Z"/><path class="cls-1" d="M291.64,11a1,1,0,0,1,.26-.73,1,1,0,0,1,.75-.26,1,1,0,1,1,0,2,1,1,0,0,1-.75-.26A1,1,0,0,1,291.64,11Zm1.88,10.56h-1.77V13.17h1.77Z"/><path class="cls-1" d="M299.43,21.67a3.65,3.65,0,0,1-2.88-1.1,4.62,4.62,0,0,1-1-3.18,4.7,4.7,0,0,1,1-3.24,3.84,3.84,0,0,1,3-1.13,5.54,5.54,0,0,1,2.38.49l-.53,1.43a5.43,5.43,0,0,0-1.86-.44c-1.45,0-2.17,1-2.17,2.88a3.45,3.45,0,0,0,.54,2.11,1.87,1.87,0,0,0,1.58.7,4.6,4.6,0,0,0,2.25-.58v1.54a3.44,3.44,0,0,1-1,.4A6.16,6.16,0,0,1,299.43,21.67Z"/><path class="cls-1" d="M309,21.52l-.36-1.16h-.06a3.44,3.44,0,0,1-1.22,1,3.88,3.88,0,0,1-1.57.27,2.66,2.66,0,0,1-1.92-.66,2.48,2.48,0,0,1-.69-1.88,2.21,2.21,0,0,1,1-1.95,5.5,5.5,0,0,1,2.92-.72l1.45,0V16a1.71,1.71,0,0,0-.38-1.2,1.53,1.53,0,0,0-1.16-.39,3.86,3.86,0,0,0-1.23.19,8.54,8.54,0,0,0-1.13.44L304,13.74a6.92,6.92,0,0,1,1.49-.54A7.06,7.06,0,0,1,307,13a3.62,3.62,0,0,1,2.4.69,2.74,2.74,0,0,1,.82,2.19v5.62Zm-2.65-1.2a2.15,2.15,0,0,0,1.55-.55,1.9,1.9,0,0,0,.59-1.51v-.72l-1.07,0a3.67,3.67,0,0,0-1.83.42,1.27,1.27,0,0,0-.57,1.14,1.09,1.09,0,0,0,.34.87A1.43,1.43,0,0,0,306.3,20.32Z"/><path class="cls-1" d="M321.35,10.48l-4.11,11h-1.68l4.12-11Z"/><path class="cls-1" d="M172.35,34.46a5.49,5.49,0,0,1-1.52,4.18,6.11,6.11,0,0,1-4.37,1.44h-3.09V29h3.42a5.69,5.69,0,0,1,4.1,1.42A5.34,5.34,0,0,1,172.35,34.46Zm-1.9.06q0-4-3.71-4h-1.56v8h1.28Q170.45,38.57,170.45,34.52Z"/><path class="cls-1" d="M178.18,40.24a4,4,0,0,1-3.05-1.14A4.32,4.32,0,0,1,174,36a4.73,4.73,0,0,1,1-3.22,3.52,3.52,0,0,1,2.8-1.17,3.44,3.44,0,0,1,2.61,1,3.82,3.82,0,0,1,1,2.76v1h-5.57a2.79,2.79,0,0,0,.66,1.87,2.32,2.32,0,0,0,1.75.65,6.55,6.55,0,0,0,1.37-.14,7.12,7.12,0,0,0,1.37-.46v1.44a5.46,5.46,0,0,1-1.31.44A8.53,8.53,0,0,1,178.18,40.24Zm-.32-7.31a1.77,1.77,0,0,0-1.36.53,2.59,2.59,0,0,0-.61,1.56h3.8a2.29,2.29,0,0,0-.5-1.56A1.7,1.7,0,0,0,177.86,32.93Z"/><path class="cls-1" d="M190.79,40.08H189V35a2.21,2.21,0,0,0-.39-1.44,1.49,1.49,0,0,0-1.23-.48,2,2,0,0,0-1.65.66,3.68,3.68,0,0,0-.52,2.23v4.16h-1.77V31.73h1.39l.25,1.1h.09a2.41,2.41,0,0,1,1.07-.92,3.54,3.54,0,0,1,1.54-.33q3,0,3,3.06Z"/><path class="cls-1" d="M199.16,40.08,198.91,39h-.09a2.5,2.5,0,0,1-1.06.91,3.51,3.51,0,0,1-1.56.34,3.07,3.07,0,0,1-2.26-.76,3.13,3.13,0,0,1-.75-2.29V31.73H195v5.15a2.25,2.25,0,0,0,.39,1.44,1.49,1.49,0,0,0,1.23.48,2,2,0,0,0,1.65-.67,3.67,3.67,0,0,0,.52-2.24V31.73h1.78v8.35Z"/><path class="cls-1" d="M210.43,40.08h-1.78V35a2.21,2.21,0,0,0-.39-1.44A1.49,1.49,0,0,0,207,33a2,2,0,0,0-1.65.66,3.68,3.68,0,0,0-.52,2.23v4.16h-1.78V31.73h1.39l.25,1.1h.09a2.39,2.39,0,0,1,1.08-.92,3.51,3.51,0,0,1,1.54-.33q3,0,3,3.06Z"/><path class="cls-1" d="M216.27,40.24a3.66,3.66,0,0,1-2.88-1.11,4.62,4.62,0,0,1-1-3.18,4.7,4.7,0,0,1,1-3.24,3.84,3.84,0,0,1,3-1.13,5.54,5.54,0,0,1,2.38.49l-.53,1.43a5.43,5.43,0,0,0-1.86-.44c-1.45,0-2.17,1-2.17,2.88a3.45,3.45,0,0,0,.54,2.11,1.88,1.88,0,0,0,1.58.71,4.61,4.61,0,0,0,2.25-.59v1.54a3.44,3.44,0,0,1-1,.4A6.1,6.1,0,0,1,216.27,40.24Z"/><path class="cls-1" d="M220.45,29.52a1,1,0,0,1,.26-.73,1,1,0,0,1,.75-.26,1,1,0,1,1,0,2,1,1,0,0,1-.75-.26A1,1,0,0,1,220.45,29.52Zm1.88,10.56h-1.77V31.73h1.77Z"/><path class="cls-1" d="M230.1,40.08l-.36-1.16h-.06a3.4,3.4,0,0,1-1.21,1,3.91,3.91,0,0,1-1.57.28,2.71,2.71,0,0,1-1.93-.67,2.48,2.48,0,0,1-.69-1.88,2.21,2.21,0,0,1,1-1.95,5.54,5.54,0,0,1,2.93-.72l1.44,0v-.45a1.67,1.67,0,0,0-.38-1.19,1.5,1.5,0,0,0-1.16-.4,4,4,0,0,0-1.23.19,8.54,8.54,0,0,0-1.13.44l-.57-1.26a5.93,5.93,0,0,1,1.48-.54,6.53,6.53,0,0,1,1.53-.19,3.66,3.66,0,0,1,2.41.69,2.75,2.75,0,0,1,.81,2.19v5.62Zm-2.64-1.2a2.2,2.2,0,0,0,1.55-.54,2,2,0,0,0,.58-1.52V36.1l-1.07,0a3.63,3.63,0,0,0-1.82.42,1.28,1.28,0,0,0-.57,1.15,1.11,1.11,0,0,0,.33.86A1.44,1.44,0,0,0,227.46,38.88Z"/><path class="cls-1" d="M239.46,37.71a2.17,2.17,0,0,1-.9,1.87,4.21,4.21,0,0,1-2.55.66,6,6,0,0,1-2.68-.51V38.2a6.64,6.64,0,0,0,2.74.68c1.1,0,1.64-.33,1.64-1a.79.79,0,0,0-.18-.53,2.11,2.11,0,0,0-.6-.44,9.87,9.87,0,0,0-1.15-.51,5.49,5.49,0,0,1-1.95-1.12,2.07,2.07,0,0,1-.51-1.45,1.9,1.9,0,0,1,.86-1.67,4.15,4.15,0,0,1,2.35-.59,6.63,6.63,0,0,1,2.79.6l-.57,1.33a6.3,6.3,0,0,0-2.28-.56c-.93,0-1.4.27-1.4.81a.8.8,0,0,0,.36.66,8.52,8.52,0,0,0,1.6.75,7.47,7.47,0,0,1,1.5.73,2.12,2.12,0,0,1,.7.77A2.22,2.22,0,0,1,239.46,37.71Z"/><path class="cls-1" d="M169.74,55.65A2.78,2.78,0,0,1,168.67,58a4.62,4.62,0,0,1-2.93.84,7,7,0,0,1-3.07-.59v-1.7a8.41,8.41,0,0,0,1.6.56,7.2,7.2,0,0,0,1.59.2,2.53,2.53,0,0,0,1.58-.41,1.32,1.32,0,0,0,.51-1.09,1.39,1.39,0,0,0-.47-1.05,6.93,6.93,0,0,0-1.93-1,5,5,0,0,1-2.13-1.4,2.91,2.91,0,0,1-.62-1.89,2.62,2.62,0,0,1,1-2.17,4.06,4.06,0,0,1,2.64-.8,7.81,7.81,0,0,1,3.15.7L169,49.61a7,7,0,0,0-2.63-.62,2,2,0,0,0-1.33.38,1.28,1.28,0,0,0-.45,1,1.42,1.42,0,0,0,.18.74,1.86,1.86,0,0,0,.6.58,9.24,9.24,0,0,0,1.49.71,8.16,8.16,0,0,1,1.78,1,2.66,2.66,0,0,1,.83,1A2.93,2.93,0,0,1,169.74,55.65Z"/><path class="cls-1" d="M179.1,54.45a4.57,4.57,0,0,1-1,3.2,3.8,3.8,0,0,1-2.93,1.15,4,4,0,0,1-2.07-.53,3.46,3.46,0,0,1-1.38-1.52,5.19,5.19,0,0,1-.48-2.3,4.55,4.55,0,0,1,1-3.17,3.78,3.78,0,0,1,2.94-1.14A3.68,3.68,0,0,1,178,51.31,4.52,4.52,0,0,1,179.1,54.45Zm-6.08,0c0,1.93.71,2.9,2.13,2.9s2.12-1,2.12-2.9-.71-2.86-2.13-2.86a1.81,1.81,0,0,0-1.62.74A3.73,3.73,0,0,0,173,54.45Z"/><path class="cls-1" d="M182.91,58.65h-1.77V46.89h1.77Z"/><path class="cls-1" d="M185.34,48.08a1,1,0,0,1,.26-.73,1,1,0,0,1,.75-.26,1,1,0,0,1,.73.26,1,1,0,0,1,.26.73.9.9,0,0,1-1,1,1,1,0,0,1-.75-.26A1,1,0,0,1,185.34,48.08Zm1.88,10.57h-1.77V50.29h1.77Z"/><path class="cls-1" d="M193.13,58.8a3.63,3.63,0,0,1-2.88-1.11,4.62,4.62,0,0,1-1-3.18,4.65,4.65,0,0,1,1-3.24,3.84,3.84,0,0,1,3-1.13,5.69,5.69,0,0,1,2.38.49l-.54,1.43a5.39,5.39,0,0,0-1.85-.44c-1.45,0-2.17,1-2.17,2.88a3.43,3.43,0,0,0,.54,2.11,1.88,1.88,0,0,0,1.58.71,4.55,4.55,0,0,0,2.24-.59v1.54a3.3,3.3,0,0,1-1,.41A6.16,6.16,0,0,1,193.13,58.8Z"/><path class="cls-1" d="M197.31,48.08a1,1,0,0,1,.26-.73,1,1,0,0,1,.75-.26,1,1,0,0,1,.73.26,1,1,0,0,1,.26.73.9.9,0,0,1-1,1,1,1,0,0,1-.75-.26A1,1,0,0,1,197.31,48.08Zm1.88,10.57h-1.77V50.29h1.77Z"/><path class="cls-1" d="M204.84,57.36a4.46,4.46,0,0,0,1.3-.2v1.33a3.49,3.49,0,0,1-.76.22,5,5,0,0,1-1,.09c-1.68,0-2.52-.89-2.52-2.66v-4.5h-1.14v-.79L202,50.2l.6-1.76h1.1v1.85h2.38v1.35h-2.38v4.47a1.28,1.28,0,0,0,.32,1A1.18,1.18,0,0,0,204.84,57.36Z"/><path class="cls-1" d="M213.7,58.65l-.25-1.1h-.09a2.53,2.53,0,0,1-1.05.91,3.44,3.44,0,0,1-1.56.34,3.09,3.09,0,0,1-2.27-.76,3.13,3.13,0,0,1-.75-2.29V50.29h1.79v5.15a2.25,2.25,0,0,0,.4,1.44,1.49,1.49,0,0,0,1.23.48,2,2,0,0,0,1.64-.67,3.66,3.66,0,0,0,.53-2.24V50.29h1.78v8.36Z"/><path class="cls-1" d="M220.45,58.8A2.89,2.89,0,0,1,218,57.66a5,5,0,0,1-.88-3.18,5.09,5.09,0,0,1,.89-3.19,2.92,2.92,0,0,1,2.46-1.15,2.88,2.88,0,0,1,2.5,1.22h.09a11.49,11.49,0,0,1-.12-1.42v-3h1.78V58.65h-1.39l-.31-1.1H223A2.85,2.85,0,0,1,220.45,58.8Zm.47-1.44a2,2,0,0,0,1.6-.61,3.27,3.27,0,0,0,.51-2V54.5a3.75,3.75,0,0,0-.51-2.24,1.9,1.9,0,0,0-1.61-.67,1.63,1.63,0,0,0-1.45.76,4,4,0,0,0-.5,2.16,3.76,3.76,0,0,0,.49,2.12A1.65,1.65,0,0,0,220.92,57.36Z"/><path class="cls-1" d="M230.91,58.8a4,4,0,0,1-3-1.14,4.29,4.29,0,0,1-1.1-3.13,4.75,4.75,0,0,1,1-3.22,3.52,3.52,0,0,1,2.8-1.17,3.44,3.44,0,0,1,2.61,1,3.83,3.83,0,0,1,1,2.76v1H228.6a2.74,2.74,0,0,0,.65,1.87,2.33,2.33,0,0,0,1.75.65,5.94,5.94,0,0,0,1.37-.14,7.43,7.43,0,0,0,1.38-.46v1.44a5.69,5.69,0,0,1-1.32.44A8.53,8.53,0,0,1,230.91,58.8Zm-.32-7.31a1.77,1.77,0,0,0-1.36.53,2.53,2.53,0,0,0-.6,1.57h3.79a2.32,2.32,0,0,0-.5-1.57A1.69,1.69,0,0,0,230.59,51.49Z"/><path class="cls-1" d="M241.79,56.27a2.18,2.18,0,0,1-.89,1.87,4.25,4.25,0,0,1-2.55.66,6,6,0,0,1-2.69-.51V56.76a6.68,6.68,0,0,0,2.75.68c1.09,0,1.63-.33,1.63-1a.79.79,0,0,0-.18-.53,2.19,2.19,0,0,0-.59-.44,11,11,0,0,0-1.16-.51,5.34,5.34,0,0,1-2-1.12,2.07,2.07,0,0,1-.51-1.45,1.93,1.93,0,0,1,.86-1.67,4.16,4.16,0,0,1,2.36-.59,6.59,6.59,0,0,1,2.78.6l-.57,1.33a6.21,6.21,0,0,0-2.27-.55c-.94,0-1.41.26-1.41.8a.79.79,0,0,0,.37.66,7.91,7.91,0,0,0,1.6.75,7.75,7.75,0,0,1,1.5.73,2.18,2.18,0,0,1,.69.77A2.22,2.22,0,0,1,241.79,56.27Z"/><path class="cls-1" d="M165.18,72.8v4.41h-1.81v-11h3.12a5.1,5.1,0,0,1,3.17.81,2.86,2.86,0,0,1,1,2.41,3,3,0,0,1-2.14,2.94l3.12,4.89H169.6L167,72.8Zm0-1.5h1.25a2.89,2.89,0,0,0,1.83-.47,1.68,1.68,0,0,0,.56-1.39,1.48,1.48,0,0,0-.61-1.34,3.34,3.34,0,0,0-1.84-.41h-1.19Z"/><path class="cls-1" d="M176.72,77.36a4,4,0,0,1-3.05-1.14,4.33,4.33,0,0,1-1.1-3.13,4.75,4.75,0,0,1,1-3.22,3.52,3.52,0,0,1,2.8-1.17,3.45,3.45,0,0,1,2.62,1,3.87,3.87,0,0,1,1,2.76v1H174.4a2.7,2.7,0,0,0,.66,1.87,2.29,2.29,0,0,0,1.74.65,6.09,6.09,0,0,0,1.38-.14,6.89,6.89,0,0,0,1.37-.46v1.44a5.39,5.39,0,0,1-1.32.44A7.59,7.59,0,0,1,176.72,77.36Zm-.33-7.31a1.8,1.8,0,0,0-1.35.53,2.54,2.54,0,0,0-.61,1.57h3.79a2.32,2.32,0,0,0-.5-1.57A1.68,1.68,0,0,0,176.39,70.05Z"/><path class="cls-1" d="M185.35,77.36a3.66,3.66,0,0,1-2.88-1.11,4.61,4.61,0,0,1-1-3.17,4.67,4.67,0,0,1,1-3.24,3.82,3.82,0,0,1,3-1.14,5.69,5.69,0,0,1,2.38.49l-.53,1.43a5.43,5.43,0,0,0-1.86-.44c-1.45,0-2.17,1-2.17,2.88a3.43,3.43,0,0,0,.54,2.11,1.88,1.88,0,0,0,1.58.71,4.61,4.61,0,0,0,2.25-.59v1.55a3.74,3.74,0,0,1-1,.4A6.16,6.16,0,0,1,185.35,77.36Z"/><path class="cls-1" d="M195.53,77.21l-.25-1.1h-.09a2.53,2.53,0,0,1-1.05.91,3.44,3.44,0,0,1-1.56.34,3.05,3.05,0,0,1-2.27-.76,3.11,3.11,0,0,1-.75-2.29V68.85h1.79V74a2.19,2.19,0,0,0,.4,1.44,1.49,1.49,0,0,0,1.23.48,2,2,0,0,0,1.64-.67,3.66,3.66,0,0,0,.52-2.23V68.85h1.79v8.36Z"/><path class="cls-1" d="M203.69,68.7a4.3,4.3,0,0,1,.89.08l-.18,1.65a3.33,3.33,0,0,0-.78-.09,2.26,2.26,0,0,0-1.73.7,2.5,2.5,0,0,0-.66,1.8v4.37h-1.77V68.85h1.39l.23,1.48h.09a3.3,3.3,0,0,1,1.09-1.19A2.56,2.56,0,0,1,203.69,68.7Z"/><path class="cls-1" d="M211.74,74.83a2.18,2.18,0,0,1-.89,1.87,4.27,4.27,0,0,1-2.56.66,6,6,0,0,1-2.68-.51V75.32a6.68,6.68,0,0,0,2.74.68c1.1,0,1.64-.33,1.64-1a.79.79,0,0,0-.18-.53,2.19,2.19,0,0,0-.59-.44,11,11,0,0,0-1.16-.51,5.34,5.34,0,0,1-1.95-1.12A2.07,2.07,0,0,1,205.6,71a1.91,1.91,0,0,1,.86-1.66,4.08,4.08,0,0,1,2.36-.6,6.59,6.59,0,0,1,2.78.6L211,70.64a6.06,6.06,0,0,0-2.28-.56c-.93,0-1.4.26-1.4.8a.79.79,0,0,0,.37.66,8,8,0,0,0,1.59.75,7.9,7.9,0,0,1,1.51.73,2.18,2.18,0,0,1,.69.77A2.25,2.25,0,0,1,211.74,74.83Z"/><path class="cls-1" d="M221.07,73a4.56,4.56,0,0,1-1,3.19,3.76,3.76,0,0,1-2.93,1.15,4,4,0,0,1-2.07-.53,3.46,3.46,0,0,1-1.38-1.52,5.18,5.18,0,0,1-.48-2.29,4.56,4.56,0,0,1,1-3.18,3.77,3.77,0,0,1,2.94-1.14A3.68,3.68,0,0,1,220,69.87,4.55,4.55,0,0,1,221.07,73ZM215,73c0,1.92.71,2.89,2.13,2.89s2.12-1,2.12-2.89-.71-2.87-2.13-2.87a1.81,1.81,0,0,0-1.62.74A3.75,3.75,0,0,0,215,73Z"/><path class="cls-1" d="M228.72,74.83a2.18,2.18,0,0,1-.89,1.87,4.27,4.27,0,0,1-2.56.66,6,6,0,0,1-2.68-.51V75.32a6.64,6.64,0,0,0,2.74.68c1.1,0,1.64-.33,1.64-1a.79.79,0,0,0-.18-.53,2.11,2.11,0,0,0-.6-.44,9.87,9.87,0,0,0-1.15-.51,5.34,5.34,0,0,1-1.95-1.12,2.07,2.07,0,0,1-.51-1.45,1.88,1.88,0,0,1,.86-1.66,4.07,4.07,0,0,1,2.35-.6,6.63,6.63,0,0,1,2.79.6L228,70.64a6.1,6.1,0,0,0-2.28-.56c-.93,0-1.4.26-1.4.8a.8.8,0,0,0,.36.66,8.52,8.52,0,0,0,1.6.75,7.47,7.47,0,0,1,1.5.73,2.12,2.12,0,0,1,.7.77A2.25,2.25,0,0,1,228.72,74.83Z"/><path class="cls-1" d="M163.37,84.73h3.28a6.28,6.28,0,0,1,3.3.66,2.33,2.33,0,0,1,1,2.1,2.52,2.52,0,0,1-.5,1.61,2.21,2.21,0,0,1-1.43.81V90a2.91,2.91,0,0,1,1.71.87,2.64,2.64,0,0,1,.55,1.75,2.86,2.86,0,0,1-1,2.33,4.48,4.48,0,0,1-2.89.84h-4Zm1.81,4.56h1.73a3,3,0,0,0,1.66-.36,1.37,1.37,0,0,0,.52-1.22,1.25,1.25,0,0,0-.56-1.13,3.56,3.56,0,0,0-1.79-.34h-1.56Zm0,1.46v3.5h1.92a2.84,2.84,0,0,0,1.71-.43,1.63,1.63,0,0,0,.57-1.38,1.42,1.42,0,0,0-.59-1.27,3.07,3.07,0,0,0-1.79-.42Z"/><path class="cls-1" d="M179.28,95.77l-.24-1.1h-.1a2.5,2.5,0,0,1-1.05.92,3.51,3.51,0,0,1-1.56.33,3,3,0,0,1-2.26-.76,3.11,3.11,0,0,1-.75-2.29V87.41h1.79v5.16A2.22,2.22,0,0,0,175.5,94a1.49,1.49,0,0,0,1.23.48,2,2,0,0,0,1.64-.66,3.71,3.71,0,0,0,.53-2.24V87.41h1.78v8.36Z"/><path class="cls-1" d="M188.82,93.39a2.19,2.19,0,0,1-.89,1.88,4.28,4.28,0,0,1-2.55.65,6,6,0,0,1-2.68-.51V93.88a6.6,6.6,0,0,0,2.74.68c1.09,0,1.64-.33,1.64-1a.79.79,0,0,0-.18-.53,2.11,2.11,0,0,0-.6-.44,10.7,10.7,0,0,0-1.15-.51,5.32,5.32,0,0,1-2-1.12,2.05,2.05,0,0,1-.51-1.45,1.89,1.89,0,0,1,.87-1.66,4,4,0,0,1,2.35-.6,6.66,6.66,0,0,1,2.79.6l-.58,1.34a6.06,6.06,0,0,0-2.27-.56c-.94,0-1.4.26-1.4.8a.8.8,0,0,0,.36.66,8.52,8.52,0,0,0,1.6.75,7.47,7.47,0,0,1,1.5.73,2.3,2.3,0,0,1,.7.77A2.25,2.25,0,0,1,188.82,93.39Z"/><path class="cls-1" d="M194.11,95.92a3.66,3.66,0,0,1-2.88-1.11,4.6,4.6,0,0,1-1-3.17,4.67,4.67,0,0,1,1-3.24,3.83,3.83,0,0,1,3-1.14,5.69,5.69,0,0,1,2.38.49l-.53,1.43a5.43,5.43,0,0,0-1.86-.44c-1.45,0-2.17,1-2.17,2.88a3.43,3.43,0,0,0,.54,2.11,1.88,1.88,0,0,0,1.58.71,4.61,4.61,0,0,0,2.25-.59V95.4a3.74,3.74,0,0,1-1,.4A6.16,6.16,0,0,1,194.11,95.92Z"/><path class="cls-1" d="M203.63,95.77l-.36-1.16h-.06a3.47,3.47,0,0,1-1.21,1,3.79,3.79,0,0,1-1.58.28,2.63,2.63,0,0,1-1.92-.67,2.48,2.48,0,0,1-.69-1.88,2.18,2.18,0,0,1,1-1.94,5.5,5.5,0,0,1,2.92-.72l1.45,0v-.44a1.68,1.68,0,0,0-.38-1.2,1.54,1.54,0,0,0-1.16-.4,4.16,4.16,0,0,0-1.23.19,10.23,10.23,0,0,0-1.13.45L198.66,88a6,6,0,0,1,1.49-.54,7.11,7.11,0,0,1,1.53-.19,3.62,3.62,0,0,1,2.4.7,2.72,2.72,0,0,1,.82,2.18v5.63ZM201,94.56a2.23,2.23,0,0,0,1.56-.54,2,2,0,0,0,.58-1.51v-.73l-1.07,0a3.8,3.8,0,0,0-1.83.41,1.28,1.28,0,0,0-.57,1.15,1.08,1.08,0,0,0,.34.86A1.38,1.38,0,0,0,201,94.56Z"/><path class="cls-1" d="M210.19,95.92a2.92,2.92,0,0,1-2.44-1.13,6.19,6.19,0,0,1,0-6.38,3,3,0,0,1,2.46-1.15,2.89,2.89,0,0,1,2.51,1.22h.09a10,10,0,0,1-.13-1.42V84h1.78V95.77h-1.39l-.31-1.1h-.08A2.84,2.84,0,0,1,210.19,95.92Zm.48-1.44a1.93,1.93,0,0,0,1.59-.61,3.27,3.27,0,0,0,.51-2v-.25a3.75,3.75,0,0,0-.51-2.24,1.92,1.92,0,0,0-1.61-.67,1.64,1.64,0,0,0-1.44.76,4.85,4.85,0,0,0,0,4.29A1.67,1.67,0,0,0,210.67,94.48Z"/><path class="cls-1" d="M224.42,91.58a4.54,4.54,0,0,1-1,3.19,3.75,3.75,0,0,1-2.92,1.15,4,4,0,0,1-2.07-.53A3.54,3.54,0,0,1,217,93.87a5.18,5.18,0,0,1-.48-2.29,4.56,4.56,0,0,1,1-3.18,3.8,3.8,0,0,1,2.94-1.14,3.67,3.67,0,0,1,2.87,1.17A4.5,4.5,0,0,1,224.42,91.58Zm-6.08,0c0,1.92.71,2.89,2.14,2.89s2.11-1,2.11-2.89-.71-2.87-2.13-2.87a1.84,1.84,0,0,0-1.62.74A3.83,3.83,0,0,0,218.34,91.58Z"/><path class="cls-1" d="M230.69,87.26a4.3,4.3,0,0,1,.89.08L231.4,89a3.33,3.33,0,0,0-.78-.09,2.26,2.26,0,0,0-1.73.7,2.5,2.5,0,0,0-.66,1.8v4.37h-1.77V87.41h1.39l.23,1.48h.09a3.3,3.3,0,0,1,1.09-1.19A2.56,2.56,0,0,1,230.69,87.26Z"/><rect class="cls-1" x="149.62" y="12.58" width="5.62" height="5.62" rx="1.33"/><rect class="cls-1" x="149.62" y="49.92" width="5.62" height="5.62" rx="1.33"/><rect class="cls-1" x="149.62" y="68.67" width="5.62" height="5.62" rx="1.33"/><rect class="cls-1" x="149.62" y="88.45" width="5.62" height="5.62" rx="1.33"/><path class="cls-1" d="M21.81,78.52a1.15,1.15,0,0,1,.86.29,1.28,1.28,0,0,1,0,1.62,1.15,1.15,0,0,1-.86.29H20.68v1.52h-.5V78.52Zm-.16,1.78a.83.83,0,0,0,.61-.17.75.75,0,0,0,0-1,.87.87,0,0,0-.61-.18h-1V80.3Z"/><path class="cls-1" d="M25.66,78.52v3.31h2v.41H25.17V78.52Z"/><path class="cls-1" d="M31.24,78.52l1.45,3.72h-.54l-.41-1.12H30.16l-.41,1.12h-.51l1.45-3.72Zm.34,2.18L31,79h0l-.63,1.73Z"/><path class="cls-1" d="M34.27,78.93v-.41h3v.41H36v3.31h-.5V78.93Z"/><path class="cls-1" d="M40.83,78.52l1.46,3.72h-.55l-.41-1.12H39.75l-.41,1.12h-.51l1.45-3.72Zm.34,2.18L40.55,79h0l-.63,1.73Z"/><path class="cls-1" d="M46.71,78.52v.41h-2v1.19h1.72v.42H44.75v1.7h-.49V78.52Z"/><path class="cls-1" d="M48.76,79.65A1.91,1.91,0,0,1,49.1,79a1.85,1.85,0,0,1,2.11-.43,1.61,1.61,0,0,1,.56.43,1.91,1.91,0,0,1,.34.63,2.48,2.48,0,0,1,0,1.46,1.91,1.91,0,0,1-.34.63,1.61,1.61,0,0,1-.56.43,2,2,0,0,1-1.55,0,1.71,1.71,0,0,1-.56-.43,1.91,1.91,0,0,1-.34-.63,2.48,2.48,0,0,1,0-1.46Zm.46,1.29a1.69,1.69,0,0,0,.23.49,1.14,1.14,0,0,0,1,.48,1.18,1.18,0,0,0,.58-.13,1,1,0,0,0,.4-.35,1.47,1.47,0,0,0,.23-.49,2,2,0,0,0,0-1.12,1.47,1.47,0,0,0-.23-.49A1.14,1.14,0,0,0,51,79a1.18,1.18,0,0,0-.58-.13,1.22,1.22,0,0,0-.59.13,1.35,1.35,0,0,0-.4.35,1.69,1.69,0,0,0-.23.49,2.27,2.27,0,0,0,0,1.12Z"/><path class="cls-1" d="M56.19,78.52a1.2,1.2,0,0,1,.83.26.89.89,0,0,1,.3.71,1.16,1.16,0,0,1-.15.6.85.85,0,0,1-.5.35h0a.66.66,0,0,1,.27.1.69.69,0,0,1,.16.18.85.85,0,0,1,.09.22,2.51,2.51,0,0,1,0,.27c0,.09,0,.18,0,.27a2.46,2.46,0,0,0,0,.28l.06.26a.72.72,0,0,0,.12.21H56.9a.26.26,0,0,1-.07-.15,1.46,1.46,0,0,1,0-.22,2.53,2.53,0,0,0,0-.27,1.24,1.24,0,0,0,0-.27,1.72,1.72,0,0,0,0-.26.5.5,0,0,0-.1-.22.37.37,0,0,0-.18-.14.6.6,0,0,0-.29-.06H54.93v1.59h-.5V78.52Zm.1,1.69a.77.77,0,0,0,.28-.1.53.53,0,0,0,.18-.21.62.62,0,0,0,.07-.33.69.69,0,0,0-.15-.46.66.66,0,0,0-.51-.18H54.93v1.3h1A1.72,1.72,0,0,0,56.29,80.21Z"/><path class="cls-1" d="M60.31,78.52l1.17,3.13,1.18-3.13h.68v3.72h-.47v-3.1h0l-1.17,3.1h-.42l-1.16-3.1h0v3.1h-.47V78.52Z"/><path class="cls-1" d="M67.33,78.52l1.46,3.72h-.55l-.41-1.12H66.25l-.41,1.12h-.51l1.45-3.72Zm.34,2.18L67.05,79h0l-.63,1.73Z"/><path class="cls-1" d="M75.87,78.52l2,3h0v-3h.47v3.72h-.54l-2-3h0v3h-.47V78.52Z"/><path class="cls-1" d="M82.28,78.52l1.46,3.72h-.55l-.41-1.12H81.21l-.42,1.12h-.51l1.45-3.72Zm.35,2.18L82,79h0l-.63,1.73Z"/><path class="cls-1" d="M88,79a1.15,1.15,0,0,0-.67-.19,1.28,1.28,0,0,0-.58.12,1.16,1.16,0,0,0-.39.34,1.32,1.32,0,0,0-.22.48,2.1,2.1,0,0,0-.08.56,2.37,2.37,0,0,0,.08.61,1.29,1.29,0,0,0,.22.49,1.1,1.1,0,0,0,.4.34,1.26,1.26,0,0,0,.57.12,1,1,0,0,0,.44-.08.87.87,0,0,0,.32-.22,1,1,0,0,0,.22-.34,1.5,1.5,0,0,0,.1-.43h.49a1.75,1.75,0,0,1-.48,1.1,1.58,1.58,0,0,1-1.13.39,1.81,1.81,0,0,1-.76-.15,1.68,1.68,0,0,1-.54-.41,1.82,1.82,0,0,1-.32-.62,2.64,2.64,0,0,1-.1-.76,2.33,2.33,0,0,1,.11-.76A1.91,1.91,0,0,1,86,79a1.79,1.79,0,0,1,.55-.42,1.84,1.84,0,0,1,.76-.15,1.63,1.63,0,0,1,.55.08,1.47,1.47,0,0,1,.47.23,1.25,1.25,0,0,1,.34.38,1.23,1.23,0,0,1,.17.52h-.49A1,1,0,0,0,88,79Z"/><path class="cls-1" d="M91.6,78.52v3.72h-.49V78.52Z"/><path class="cls-1" d="M94,79.65a1.67,1.67,0,0,1,1.67-1.22,1.75,1.75,0,0,1,.78.16A1.71,1.71,0,0,1,97,79a1.89,1.89,0,0,1,.33.63,2.48,2.48,0,0,1,0,1.46,1.89,1.89,0,0,1-.33.63,1.71,1.71,0,0,1-.56.43,1.9,1.9,0,0,1-.78.16,1.87,1.87,0,0,1-.78-.16A1.65,1.65,0,0,1,94,81.11a2.28,2.28,0,0,1,0-1.46Zm.45,1.29a1.69,1.69,0,0,0,.23.49,1.24,1.24,0,0,0,2,0,1.69,1.69,0,0,0,.23-.49,2.27,2.27,0,0,0,0-1.12,1.69,1.69,0,0,0-.23-.49A1.27,1.27,0,0,0,96.2,79,1.36,1.36,0,0,0,95,79a1.27,1.27,0,0,0-.41.35,1.69,1.69,0,0,0-.23.49,2.27,2.27,0,0,0,0,1.12Z"/><path class="cls-1" d="M100.14,78.52l2,3h0v-3h.47v3.72H102l-2-3h0v3h-.47V78.52Z"/><path class="cls-1" d="M106.55,78.52,108,82.24h-.55l-.41-1.12h-1.57l-.42,1.12h-.51L106,78.52Zm.35,2.18L106.28,79h0l-.63,1.73Z"/><path class="cls-1" d="M110.48,78.52v3.31h2v.41H110V78.52Z"/><path class="cls-1" d="M120.36,78.52a1.82,1.82,0,0,1,1.32.44,1.74,1.74,0,0,1,.47,1.33,3,3,0,0,1-.11.83,1.54,1.54,0,0,1-.32.61,1.36,1.36,0,0,1-.56.38,2.2,2.2,0,0,1-.8.13h-1.28V78.52Zm0,3.31.21,0,.26-.06a1,1,0,0,0,.28-.14,1,1,0,0,0,.25-.26,1.66,1.66,0,0,0,.18-.4,2.08,2.08,0,0,0,.07-.59,2.25,2.25,0,0,0-.07-.6,1.17,1.17,0,0,0-.21-.45A1.08,1.08,0,0,0,121,79a1.63,1.63,0,0,0-.58-.1h-.84v2.9Z"/><path class="cls-1" d="M126.93,78.52v.41h-2.08v1.19h1.94v.42h-1.94v1.29H127v.41h-2.59V78.52Z"/><path class="cls-1" d="M27.84,86.21v-.85H31.6v.85H30.22V90h-1V86.21Z"/><path class="cls-1" d="M37.49,85.36a1.58,1.58,0,0,1,.55.1,1.28,1.28,0,0,1,.43.28,1.41,1.41,0,0,1,.27.4,1.3,1.3,0,0,1,.09.49,1.42,1.42,0,0,1-.17.7,1,1,0,0,1-.56.45h0a.8.8,0,0,1,.51.41,1.1,1.1,0,0,1,.11.32,2,2,0,0,1,.05.35,1.85,1.85,0,0,1,0,.25l0,.3a2.68,2.68,0,0,0,0,.3A.7.7,0,0,0,39,90H38a1.83,1.83,0,0,1-.11-.52c0-.2,0-.39-.05-.58a.93.93,0,0,0-.22-.52.73.73,0,0,0-.55-.17H36V90H35V85.36Zm-.36,2.08a.79.79,0,0,0,.52-.15.68.68,0,0,0,.17-.51.62.62,0,0,0-.17-.48.79.79,0,0,0-.52-.15H36v1.29Z"/><path class="cls-1" d="M44.83,85.36,46.54,90h-1l-.35-1H43.43l-.35,1h-1l1.73-4.59Zm.06,2.82-.58-1.68h0l-.6,1.68Z"/><path class="cls-1" d="M50.83,85.36l1.92,3.08h0V85.36h.94V90h-1l-1.91-3.07h0V90h-1V85.36Z"/><path class="cls-1" d="M58.25,88.82a.8.8,0,0,0,.22.26.91.91,0,0,0,.33.15,1.58,1.58,0,0,0,.38,0l.29,0a.89.89,0,0,0,.29-.08A.68.68,0,0,0,60,89a.44.44,0,0,0,.09-.29.41.41,0,0,0-.12-.3,1.17,1.17,0,0,0-.31-.19,3.81,3.81,0,0,0-.44-.14l-.5-.12-.5-.16a1.64,1.64,0,0,1-.43-.24,1.12,1.12,0,0,1-.31-.37,1.13,1.13,0,0,1-.12-.54A1.2,1.2,0,0,1,57.5,86a1.34,1.34,0,0,1,.39-.43,1.6,1.6,0,0,1,.56-.26,2.13,2.13,0,0,1,.61-.08,2.61,2.61,0,0,1,.69.08,1.66,1.66,0,0,1,.59.26,1.3,1.3,0,0,1,.41.46,1.38,1.38,0,0,1,.15.67h-1a1.06,1.06,0,0,0-.08-.34.58.58,0,0,0-.2-.21.78.78,0,0,0-.28-.11A1.79,1.79,0,0,0,59,86l-.25,0a.85.85,0,0,0-.22.09.52.52,0,0,0-.16.17.36.36,0,0,0-.07.24.48.48,0,0,0,0,.22.63.63,0,0,0,.21.15,1.93,1.93,0,0,0,.41.14l.7.18.36.1a1.52,1.52,0,0,1,.45.21,1.36,1.36,0,0,1,.39.4,1.09,1.09,0,0,1,.16.63,1.4,1.4,0,0,1-.12.58,1.26,1.26,0,0,1-.36.47,1.69,1.69,0,0,1-.6.3,2.58,2.58,0,0,1-.82.11,3,3,0,0,1-.74-.09,1.82,1.82,0,0,1-.63-.29,1.34,1.34,0,0,1-.43-.51,1.54,1.54,0,0,1-.16-.73h1A.93.93,0,0,0,58.25,88.82Z"/><path class="cls-1" d="M66.61,85.36a2,2,0,0,1,.73.13,1.3,1.3,0,0,1,.77.8,1.7,1.7,0,0,1,.08.55,1.68,1.68,0,0,1-.08.54,1.3,1.3,0,0,1-.77.8,2,2,0,0,1-.73.13H65.55V90h-1V85.36Zm-.28,2.16.34,0a.85.85,0,0,0,.28-.1.48.48,0,0,0,.19-.21.72.72,0,0,0,.08-.35.74.74,0,0,0-.08-.36.48.48,0,0,0-.19-.21.85.85,0,0,0-.28-.1l-.34,0h-.78v1.37Z"/><path class="cls-1" d="M74,85.36,75.72,90h-1l-.35-1H72.61l-.36,1h-1L73,85.36Zm.06,2.82-.58-1.68h0l-.6,1.68Z"/><path class="cls-1" d="M81.48,85.36a1.58,1.58,0,0,1,.55.1,1.28,1.28,0,0,1,.43.28,1.41,1.41,0,0,1,.27.4,1.3,1.3,0,0,1,.09.49,1.42,1.42,0,0,1-.17.7,1,1,0,0,1-.56.45h0a.8.8,0,0,1,.51.41,1.1,1.1,0,0,1,.11.32,2,2,0,0,1,.05.35,1.85,1.85,0,0,1,0,.25l0,.3a1.45,1.45,0,0,0,0,.3A.7.7,0,0,0,83,90H82a1.83,1.83,0,0,1-.11-.52c0-.2,0-.39,0-.58a.93.93,0,0,0-.22-.52.73.73,0,0,0-.55-.17H80V90H79V85.36Zm-.36,2.08a.79.79,0,0,0,.52-.15.68.68,0,0,0,.17-.51.62.62,0,0,0-.17-.48.79.79,0,0,0-.52-.15H80v1.29Z"/><path class="cls-1" d="M90,85.36v.85H87.54v1h2.22V88H87.54V89.1H90V90H86.53V85.36Z"/><path class="cls-1" d="M94.59,85.36l1.91,3.08h0V85.36h.95V90h-1l-1.91-3.07h0V90h-1V85.36Z"/><path class="cls-1" d="M104.17,86.59a1.09,1.09,0,0,0-.22-.26,1.11,1.11,0,0,0-.3-.17,1.13,1.13,0,0,0-.36-.06,1.27,1.27,0,0,0-.58.13,1,1,0,0,0-.38.36,1.62,1.62,0,0,0-.22.5,2.88,2.88,0,0,0-.07.59,2.6,2.6,0,0,0,.07.56,1.67,1.67,0,0,0,.22.49,1,1,0,0,0,.38.35,1.16,1.16,0,0,0,.58.13.91.91,0,0,0,.72-.28,1.36,1.36,0,0,0,.32-.75h1a2.62,2.62,0,0,1-.2.78,1.83,1.83,0,0,1-.43.59,1.59,1.59,0,0,1-.61.37,2.2,2.2,0,0,1-.78.13,2.4,2.4,0,0,1-1-.18,2,2,0,0,1-.71-.5,2.3,2.3,0,0,1-.44-.76,2.84,2.84,0,0,1-.16-.93,3,3,0,0,1,.16-1,2.2,2.2,0,0,1,.44-.76,2.08,2.08,0,0,1,.71-.52,2.4,2.4,0,0,1,1-.18,2.34,2.34,0,0,1,.71.1,2.08,2.08,0,0,1,.61.32,1.72,1.72,0,0,1,.44.52,1.91,1.91,0,0,1,.22.71h-1A.82.82,0,0,0,104.17,86.59Z"/><path class="cls-1" d="M109.89,85.36V90h-1V85.36Z"/><path class="cls-1" d="M116,85.36,117.67,90h-1l-.34-1h-1.72l-.36,1h-1l1.73-4.59Zm.06,2.82-.58-1.68h0l-.6,1.68Z"/><path class="cls-1" d="M94.31,40.57l-2.89,4.2-24-30.69a5.85,5.85,0,0,0-4.65-2.28H23.36a7.51,7.51,0,0,0-5.78,12.24L38.77,51.47H51.89L66.67,70.41s1.17,1.43,2.07,2.41a3.85,3.85,0,0,0,1.71,1h0s.18.06.5.13l.24,0,.19,0,.36,0h.09a9.18,9.18,0,0,0,1.55,0h31.23A11.79,11.79,0,0,0,114.3,69l19.61-28.47ZM41.1,46.69,21.28,21a2.64,2.64,0,0,1-.62-1.73,2.71,2.71,0,0,1,2.7-2.71h.25a3.3,3.3,0,0,1,2.08,1.3L48.15,46.69ZM30.73,16.6H62.81a1.14,1.14,0,0,1,.9.44L88.58,48.89,75.09,68.45a2.07,2.07,0,0,1-1.7.9h-.52a2.13,2.13,0,0,1-1-.27,4.66,4.66,0,0,1-1-1Zm79.65,49.71a7,7,0,0,1-5.77,3H80.27l16.54-24h28Z"/></svg>