<?xml version="1.0" encoding="UTF-8"?>
<svg id="Capa_1" data-name="Capa 1" xmlns="http://www.w3.org/2000/svg" viewBox="-20 0 340 256" overflow="visible">
  <defs>
    <style>
      .cls-1 {
        fill: #ee8163;
      }

      .cls-2 {
        fill: #fff;
      }

      .cls-3 {
        fill: #753936;
      }

      .cls-4, .cls-5 {
        fill: #72588f;
      }

      .cls-6 {
        fill: #e4eaef;
      }

      .cls-7 {
        fill: #f6b796;
      }

      .cls-8 {
        fill: #826d9e;
      }

      .cls-9 {
        fill: #8e4443;
      }

      .cls-10 {
        fill: #96a2bb;
      }

      .cls-11 {
        fill: #586584;
      }

      .cls-12 {
        fill: #dfe9ee;
      }

      .cls-13 {
        fill: #f19570;
      }

      .cls-5 {
        opacity: .2;
      }

      .cls-14 {
        fill: #bdd5e4;
      }
    </style>
  </defs>
  <rect class="cls-5" x=".22" width="255.78" height="256"/>
  <g>
    <path class="cls-5" d="M168.97,134.34l-18.83,1.71s-2.2,12.96-1.22,13.21c.93.23,27.87,93.4,32.04,104.78h40.22c.09-7.4-2.65-49.68-8.43-70.79-6.36-23.24-28.86-44.27-43.78-48.92Z"/>
    <path class="cls-8" d="M166.52,113.55s-.49,13.7,2.45,20.79c0,0-7.51,7.5-18.59,3.42-11.08-4.07-1.71-22.99-.98-24.95s5.14-5.87,6.36-7.09c1.22-1.22,10.76,7.83,10.76,7.83Z"/>
    <path class="cls-4" d="M124.94,45.56s6.96-15.9,19.4-13.45c0,0,29.09-20.54,42.03-13.7,12.93,6.85,9.45,15.9,9.45,15.9,0,0,7.21,4.16,2.98,14.43,0,0,4.72,7.34-2.74,14.19,0,0,5.47,26.9-13.93,42.07-19.4,15.16-33.07-13.21-34.32-13.45-1.24-.24-22.88-45.98-22.88-45.98Z"/>
    <path class="cls-11" d="M166.6,120.42c-.18-3.9-.08-6.87-.08-6.87,0,0-2.8-2.65-5.56-4.89-.83.46-1.62,1-2.19,1.33-2.37,1.38-4.8,2.81-6.83,4.67-2.35,2.16-4.45,4.96-4.63,8.26-.26,4.74,4.46,6.67,8.41,5.29,3.48-1.22,5.8-3.15,8.48-5.57.7-.64,1.58-1.4,2.4-2.2Z"/>
    <path class="cls-8" d="M160.65,70.75s5.87,4.4,11.98,3.67c6.11-.73,5.38-4.4,5.38-4.4,0,0,4.16,3.91,11.5,2.93,0,0,6.6,46.96-31.31,47.2,0,0-2.93-33.75-3.18-34.98-.24-1.22,5.63-14.43,5.63-14.43Z"/>
    <path class="cls-5" d="M34,191.97c-.52-20.53,30.74-51.51,57.3-58.77,0,0,7.24,24.05,5.41,23.81-1.84-.24-50.51,31.55-51.49,31.8-.98.24-11.22,3.17-11.22,3.17Z"/>
    <path class="cls-3" d="M123.53,39.12c-45.71,0-47.26,51.4-41.92,72.1,5.35,20.7,9.66,36.57,6.21,58.47,0,0,76.93,1.21,76.93,0s-7.24-24.84-1.9-51.92c5.35-27.08,7.76-78.66-39.33-78.66Z"/>
    <path class="cls-2" d="M98.53,164.67s-37.5,17.45-42.88,30.49c-4.54,11.02-7.58,47.74-8.41,58.88h156.51c-1.31-10.96-6.62-46.9-11.14-63.45-5.38-19.73-19.4-31.47-31.63-33.26l-62.45,7.34Z"/>
    <path class="cls-14" d="M168.49,159.61c-2.52-1.15-5.05-1.92-7.51-2.28l-62.45,7.34s-4.72,2.2-11.05,5.61c6.27,8.68,20.03,20.65,43.58,18.6,31.97-2.79,36.49-20.07,37.43-29.27Z"/>
    <path class="cls-7" d="M138.64,129.12s1.47,25.11,22.34,28.21c0,0,1.14,22.01-32.12,22.01s-35.55-21.69-35.55-21.69c0,0,19.08-8.97,18.43-28.21l26.9-.33Z"/>
    <path class="cls-13" d="M138.64,129.12l-26.9.33c.5,14.78-10.64,23.49-15.83,26.74,8.23,2.87,18.03-1.12,25.45-4.66,6.96-3.32,13.54-7.29,19.57-12.09-2.01-5.6-2.29-10.31-2.29-10.31Z"/>
    <path class="cls-7" d="M95.41,97.59s-6.04-1.38-6.55,6.21c-.52,7.59,6.9,7.76,6.9,7.76,0,0,6.9,30.19,29.5,30.19s26.91-30.01,26.91-30.01c0,0,5.52-1.55,5.17-7.93-.34-6.38-4.83-6.9-4.83-6.9,0,0-5-8.97-12.59-13.11-9.07-4.95-13.45-12.07-15.18-15.87,0,0-6.55,11.21-13.45,15.52-6.9,4.31-12.94,6.73-15.87,14.14Z"/>
    <path class="cls-4" d="M44.29,180.57c-8.21,6.04-9.62,14.51-4.4,19.89,5.22,5.38,16.31,6.85,28.21.82,11.9-6.03,49.41-34.08,56.42-40.27,1.85-1.64,4.02-3.21,5.62-5.11,2.68-3.2,2.73-7.24,7.26-8.75,2.45-.82,2.91-1.85,3.4-4.14s-3.24-7.6-6.01-9.72c-2.77-2.12-5.32-.41-6.2.65,0,0,1.3-15.49.16-18.75-1.14-3.26-3.42-1.96-3.91-.33-.49,1.63-3.26,17.61-4.4,20.38-1.14,2.77-3.38,9.18-5.2,11.07-1.82,1.89-56.76,23.83-70.95,34.26Z"/>
    <g>
      <path class="cls-13" d="M96.1,103.98c-.09-.48-.18-.95-.33-1.42-.34-1.04-.95-2.01-2-2.45-.55-.23-1.13-.32-1.72-.21-.61.11-1.27.65-1.23,1.31.02.35.27.63.64.64.17,0,.31,0,.47-.06.06-.02.12-.04.18-.05,0,0,.02,0,.03,0,0,0,0,0-.02,0-.15,0,.13-.01.13-.01.03,0,.05,0,.07-.01.01,0,.02,0,.04,0,.07,0,.14,0,.2,0,0,0,0,0,0,0,.03,0,.05.01.05.01.08.02.16.05.23.07,0,0,0,0,0,0,0,0,.02.01.03.02.06.03.12.07.18.11,0,0,.02.01.03.02.05.06.12.11.17.17,0,0,.01.01.02.02,0,0,0,.01.01.02.05.07.09.14.13.21.04.07.08.15.12.22,0,0,0,.01,0,.02.01.03.02.07.03.08.07.21.12.43.17.64-.25.05-.49.17-.69.34-.57.5-.63,1.54-.67,2.25-.02.41,0,.84.23,1.19.3.48.79.74,1.34.79.74.06,1.39-.38,1.81-.96.32-.44.44-.99.47-1.53.03-.48-.05-.97-.13-1.44Z"/>
      <path class="cls-13" d="M92.14,101.73c.05,0,.03,0,0,0h0Z"/>
    </g>
    <path class="cls-13" d="M153.63,103.32c.05-.19.12-.38.18-.55,0-.01,0-.02,0-.03,0,0,0,0,0-.01.04-.07.07-.15.11-.22.07-.13.14-.26.23-.38,0-.01.04-.06.07-.11.03-.04.09-.11.1-.13.16-.18.34-.33.45-.54.19-.38.18-.79-.08-1.14-.23-.3-.69-.5-1.07-.37-.82.29-1.44,1.23-1.78,2-.35.8-.56,1.65-.53,2.53.03.93.27,1.93.86,2.66.42.52,1.1.78,1.76.62.68-.17,1.09-.74,1.29-1.37.41-1.27-.1-2.88-1.61-2.97Z"/>
    <path class="cls-9" d="M158,96.36c-.09.04-.12.06-.14.09-.3-.12-.5-.15-.83-.11-.27.04-.52.08-.79.08-.66,0-1.28-.03-1.92-.21-1.35-.39-2.51-1.22-3.47-2.23-2.22-2.37-3.6-5.38-6-7.62-4.5-4.21-10.66-6.24-14.43-11.3-1.11-1.49-2.03-3.11-2.85-4.77-.4-.8-.77-1.62-1.14-2.44-.18-.41-.34-.83-.54-1.23-.25-.51-.45-.77-.95-1.03-.05-.03-.11-.04-.17-.05-.28-.24-.79-.22-1.01.13-.46.73-1.05,1.33-1.45,2.11-.43.83-.77,1.71-1.2,2.54-.79,1.54-1.71,3.02-2.74,4.41-2.05,2.77-4.6,5.13-7.41,7.1-2.8,1.96-5.77,3.64-8.51,5.69-1.44,1.07-2.83,2.22-4.05,3.54-1.17,1.26-2.04,2.76-3.17,4.06-1.26,1.45-2.79,2.26-4.69,2.5-1.01.13-2.03.11-3.04.05-.93-.05-2-.38-2.81.18-.17.12-.29.38-.15.57.57.76,1.39.8,2.28.95.91.16,1.82.27,2.74.3,1.84.07,3.73-.24,5.34-1.17,1.63-.94,2.75-2.44,3.9-3.87,1.13-1.41,2.36-2.7,3.75-3.86,2.75-2.29,5.9-4.05,8.86-6.04,3.11-2.09,5.97-4.49,8.32-7.44,1.31-1.64,2.48-3.38,3.47-5.24.49-.93.95-1.88,1.34-2.86.07-.18.13-.37.18-.55.31.75.62,1.49.95,2.23.7,1.56,1.48,3.09,2.41,4.53,1.84,2.85,4.25,5.02,7.05,6.91,2.61,1.76,5.41,3.3,7.75,5.43,2.59,2.37,3.98,5.62,6.34,8.17,1.23,1.33,2.82,2.37,4.59,2.81.86.22,1.77.32,2.64.14.41-.09.86-.23,1.23-.43.47-.26.54-.7.89-1.02.44-.4-.02-1.28-.61-1.04Z"/>
    <path class="cls-9" d="M117.56,62.51c-.84,1.27-1.8,2.44-2.67,3.68-.81,1.15-1.77,2.2-2.81,3.15-2.17,1.97-4.72,3.48-7.38,4.69-1.46.66-2.99,1.18-4.41,1.94-1.47.78-2.7,1.84-3.68,3.18-1.74,2.37-2.46,5.31-4.12,7.73-.89,1.3-2.17,2.32-3.63,2.9-1.56.61-3.18.68-4.82.49-1-.11-1.1,1.4-.23,1.68,3.06.99,6.6-.08,9.01-2.1,2.4-2.02,3.38-5.06,4.82-7.73.74-1.36,1.63-2.6,2.94-3.46,1.44-.93,3.07-1.49,4.64-2.15,2.9-1.23,5.63-2.81,8.06-4.83,1.36-1.13,2.57-2.42,3.63-3.84,1.06-1.43,1.62-3.24,1.78-5.01.06-.64-.82-.76-1.13-.3Z"/>
    <path class="cls-9" d="M119.7,50.67c-.44.65-.71,1.39-1.12,2.06-.41.67-.94,1.29-1.39,1.93-.86,1.21-1.81,2.4-2.82,3.48-2.12,2.26-4.72,4.05-7.64,5.1-3.45,1.24-7.16,1.69-10.47,3.35-1.44.72-2.82,1.68-3.87,2.91-1.12,1.31-1.77,2.84-2.19,4.5-.46,1.82-.72,3.77-1.86,5.32-.48.65-1.13,1.23-1.87,1.55-.73.31-1.51.24-2.27.42-.09.02-.12.12-.08.2.69,1.35,2.65.84,3.71.26,1.5-.81,2.49-2.17,3.09-3.74.65-1.71.87-3.57,1.61-5.25.69-1.59,1.89-2.84,3.34-3.76,3.23-2.06,7.11-2.48,10.69-3.63,3.2-1.03,6.15-2.73,8.62-5.02,1.38-1.28,2.59-2.71,3.49-4.37.45-.84.74-1.67,1.01-2.58.26-.86.63-1.65.67-2.56.02-.36-.46-.44-.64-.17Z"/>
    <path class="cls-9" d="M158.23,85.34c-1.18-.1-2.42-.33-3.47-.9-1.16-.63-2.09-1.59-2.82-2.67-1.6-2.35-2.8-4.99-5.18-6.68-2.45-1.73-5.56-1.94-8.16-3.33-2.4-1.28-4.28-3.32-5.62-5.68-.88-1.56-1.49-3.24-1.95-4.97-.47-1.77-.58-3.64-1.17-5.36-.17-.5-1.04-.62-1.15,0-.08.46-.18.89-.17,1.35.01.4.07.8.12,1.19.1.88.23,1.75.39,2.61.33,1.74.86,3.42,1.57,5.04,1.22,2.78,3.12,5.26,5.58,7.05,1.29.93,2.75,1.55,4.25,2.06,1.43.49,2.92.88,4.25,1.63,2.66,1.5,3.7,4.51,5.41,6.87.99,1.37,2.25,2.6,3.8,3.33,1.56.74,3.53.92,4.76-.51.35-.41.11-.99-.43-1.03Z"/>
    <path class="cls-9" d="M154.86,73.66c-.1-.52-.38-.99-.61-1.45-.26-.52-.5-1.01-.87-1.47-.69-.88-1.45-1.71-2.24-2.5-1.49-1.5-3.12-3.05-5.05-3.97-1.93-.92-4.16-1.08-6.02-2.16-1.65-.95-2.83-2.51-3.67-4.19-.55-1.12-.94-2.31-1.26-3.51-.16-.6-.29-1.2-.43-1.81-.14-.64-.25-1.38-.61-1.93-.29-.45-1.09-.43-1.22.16-.23,1.09.17,2.38.41,3.45.25,1.13.55,2.24.96,3.32.72,1.87,1.75,3.66,3.23,5.04,1.65,1.53,3.64,2.14,5.73,2.8,2.16.68,3.78,1.9,5.38,3.47.91.89,1.79,1.83,2.63,2.79.44.49.84.95,1.36,1.36.49.4.93.9,1.48,1.21.42.24.87-.15.78-.6Z"/>
    <path class="cls-9" d="M113.61,47.33c-2.62,2.76-4.56,6.41-8.02,8.25-1.93,1.03-4.16,1.29-6.23,1.92-1.93.59-3.7,1.53-5.08,3.03-.72.78-1.27,1.71-1.68,2.68-.34.8-.89,2.04-.43,2.87.11.2.36.19.51.07.61-.52.8-1.61,1.19-2.31.45-.81,1.04-1.52,1.68-2.19,1.42-1.46,3.22-2.18,5.17-2.66,2.05-.5,4.13-.86,6.01-1.86,1.67-.89,3.17-2.19,4.38-3.65,1.4-1.69,2.47-3.68,3.19-5.75.14-.4-.42-.7-.7-.41Z"/>
    <path class="cls-9" d="M155.49,62.68c-.09-.23-.16-.49-.28-.72-.23-.42-.55-.83-.87-1.19-.63-.71-1.39-1.36-2.18-1.89-.99-.66-2.08-.97-3.25-1.12-1.04-.13-2.04-.26-3.02-.64-1.93-.75-3.48-2.17-4.81-3.72-.73-.85-1.38-1.76-2-2.7-.55-.83-1.06-2.05-2.05-2.42-.17-.06-.39.07-.42.24-.21,1.04.58,2.12,1.07,3,.58,1.04,1.2,2.07,1.91,3.03,1.27,1.72,2.89,3.26,4.8,4.26.95.5,1.96.86,3.01,1.05,1.1.2,2.26.27,3.25.83.85.49,1.47,1.21,2.23,1.82.37.3.83.65,1.28.81.36.13.86.31,1.24.21.15-.04.24-.17.24-.32.01-.22-.06-.34-.14-.55Z"/>
    <path class="cls-9" d="M95.18,139.72c-.37-2.9-1.04-5.74-1.89-8.54-1.69-5.55-4.05-10.87-5.56-16.48-.4-1.51-.75-3.03-1.02-4.57-.14-.82-.26-1.65-.34-2.48-.08-.8-.06-1.59-.35-2.34-.16-.43-.7-.42-.86,0-.49,1.26-.22,2.86-.1,4.18.13,1.38.32,2.76.6,4.12.57,2.8,1.39,5.55,2.27,8.27,1.77,5.49,3.82,10.95,4.69,16.68.23,1.53.36,3.09.39,4.64.03,1.6.07,3.26.38,4.83.08.4.65.43.84.11,1.47-2.48,1.3-5.65.95-8.42Z"/>
    <path class="cls-9" d="M102,142.22c-.04-1.1-.16-2.18-.31-3.27-.3-2.27-.69-4.53-1.21-6.76-.52-2.21-1.14-4.41-1.91-6.54-.36-1.02-.76-2.03-1.09-3.06-.17-.55-.34-1.1-.52-1.65-.18-.53-.42-.91-.73-1.36-.06-.08-.2-.11-.25,0-.21.44-.37.81-.39,1.3-.02.54.08,1.14.18,1.67.2,1.06.53,2.1.82,3.13.63,2.18,1.26,4.36,1.72,6.58.47,2.21.84,4.44,1.08,6.69.12,1.09.2,2.18.31,3.27.06.61.16,1.18.3,1.77.14.58.32.96.67,1.45.16.23.49.25.65,0,.33-.51.48-.84.56-1.45.08-.6.15-1.17.12-1.77Z"/>
    <path class="cls-9" d="M106.71,139.19c-.08-.23-.15-.48-.26-.7-.1-.21-.29-.35-.51-.45-.18-.15-.48-.13-.6.1,0,0,0,0,0,0-.14.12-.25.26-.31.44-.05.15-.05.32-.07.47,0,.03-.04.29-.01.12-.06.47-.07.95-.05,1.43.02.47.06.95.18,1.41.1.4.26.74.43,1.11.08.16.34.19.46.06.12-.14.26-.3.37-.45.14-.2.25-.48.33-.72.16-.44.23-.94.23-1.41,0-.46-.04-1-.18-1.43Z"/>
    <path class="cls-9" d="M157.19,119.95c.17-1.57.34-3.14.51-4.7.09-.78.16-1.57.22-2.35.06-.7.17-1.43-.39-1.95-.12-.11-.29-.13-.43-.06-.54.3-.68.81-.78,1.39-.12.72-.24,1.45-.33,2.18-.19,1.44-.37,2.87-.55,4.31-.37,2.87-.73,5.75-1.1,8.62-.36,2.85-.75,5.72-.78,8.6-.03,2.84.3,5.67.8,8.46.27,1.52.59,3.03.95,4.53.18.76.46,1.47.75,2.2.3.77.74,1.45,1.14,2.18.17.31.66.17.66-.18,0-.66.06-1.34,0-1.99-.06-.68-.15-1.36-.27-2.03-.24-1.39-.63-2.76-.9-4.15-.54-2.71-.92-5.46-.96-8.23-.04-2.79.23-5.57.53-8.35.31-2.83.62-5.66.93-8.49Z"/>
    <path class="cls-9" d="M150.4,129.82c-.03-.07-.12-.11-.19-.11-1.25-.01-1.46,1.58-1.58,2.56-.18,1.44-.14,2.92-.18,4.37-.08,3.03-.09,6.06-.06,9.1,0,.75.03,1.5.11,2.24.06.59.11,1.52.59,1.93.96.81,1.19-1.47,1.23-1.93.13-1.53.04-3.08.03-4.61,0-1.54-.01-3.08-.03-4.61-.01-1.67-.02-3.34-.01-5.01,0-.74-.02-1.49.1-2.22.05-.31.15-.62.18-.93.03-.35-.07-.48-.2-.77Z"/>
    <path class="cls-9" d="M145.45,140.99s0-.06-.01-.09c0-.01,0-.03,0-.05-.01-.11-.03-.22-.04-.33,0-.03,0-.05-.01-.08,0,0,0-.03,0-.06,0-.08-.02-.16-.02-.24-.02-.31-.02-.63-.03-.94,0-.18-.04-.35-.07-.52-.02-.15-.1-.27-.16-.41-.05-.11-.21-.14-.3-.08-.16.1-.28.19-.4.35-.12.17-.2.34-.28.54-.13.35-.16.73-.18,1.1-.02.38.01.76.09,1.13.08.42.3.77.57,1.09.13.16.4.19.58.11.19-.09.32-.27.32-.48,0-.35,0-.69-.05-1.04Z"/>
    <path class="cls-8" d="M135.83,144.02c-1.01.21-2.03.19-3.06.24.07-.26.08-.53.03-.86-.08-.54-.26-1.02-.51-1.51-.49-.98-1.25-1.79-2.13-2.42-.72-.52-1.68.18-1.69.97-.03,1.48-.15,2.94-.43,4.39-.11.55-.26,1.1-.42,1.65-.43.48-.84,1.03-1.26,1.66-1.38,2.11-2.82,4.35-4.36,6.43-2.03,2.74-4.64,4.37-7.18,6.57-6.89,5.95-14.79,10.86-22.56,15.56-9.75,5.91-19.54,12.37-30.2,16.6-4.46,1.77-21.15,7.25-25.24,1.56.5,1.06,1.61,4.93,3.96,6.23,3.35,1.86,12.58,5.49,24.48-.55,11.9-6.03,49.41-34.08,56.42-40.27,1.85-1.64,4.02-3.21,5.62-5.11,2.68-3.2,2.73-7.24,7.26-8.75,2.09-.7,2.73-1.56,3.18-3.21-.55.36-1.16.66-1.92.82Z"/>
    <path class="cls-8" d="M125.76,133.2s1.3-15.49.16-18.75c-.51-1.47-1.26-2.01-1.97-2.01.55,1.89,1.04,4.86.5,8.86-.98,7.34-.82,14.76,1.3,11.9Z"/>
    <path class="cls-14" d="M78.67,198.94c-.06-.51-.16-.76-.54-1.13-.15-.15-.4-.19-.58-.07-.33.21-.53.34-.69.7-.17.37-.28.78-.44,1.16-.36.84-.4,1.88-.55,2.78-.3,1.79-.53,3.59-.73,5.39-.4,3.56-.79,7.12-1.16,10.67-.75,7.03-1.44,14.07-2.1,21.1-.19,2.02-.39,4.05-.56,6.07-.17,2.02-.43,4.05-.5,6.07-.02.58.33,1.2.85,1.47.45.24.82.34,1.31.17.8-.27,1.15-.85,1.25-1.65.46-3.49.63-7.05.93-10.56.3-3.56.62-7.13.95-10.69.66-7.08,1.35-14.15,2.07-21.22.2-1.93.4-3.86.53-5.8.06-.96.15-1.94.15-2.9,0-.53-.12-1.05-.18-1.58Z"/>
    <path class="cls-14" d="M181.02,248.72c-.09-1.05-.18-2.1-.29-3.15-.2-2.01-.44-4.03-.67-6.04-.45-3.94-.94-7.87-1.45-11.79-1.05-8-2.14-15.98-3.4-23.95-.34-2.17-.72-4.33-1.12-6.49-.21-1.12-.42-2.24-.68-3.35-.26-1.11-.61-2.07-1.53-2.81-.23-.19-.55-.18-.72.09-1.08,1.73-.47,3.95-.19,5.84.29,2.01.56,4.01.87,6.02.6,3.91,1.17,7.83,1.71,11.75,1.08,7.86,2.01,15.74,2.79,23.64.22,2.19.42,4.37.62,6.56.1,1.14.23,2.28.34,3.41.13,1.33.05,2.88,1.3,3.68,0-.01.01-.03.02-.04.55.31,1.27.33,1.83-.2.89-.84.67-2.09.57-3.18Z"/>
    <path class="cls-12" d="M172.27,228.5c-2.85-2.59-6.58,1.5-8.48,4.23-1.08.52-1.93,1.33-3.03,2.25-1.37,1.15-2.92,2.15-4.48,3.04-3.24,1.86-7.25,3.25-11.03,2.78-3.77-.46-7.21-2.71-10.68-4.12-3.73-1.51-7.56-2.22-11.57-1.61-7.42,1.13-14.22,7.05-21.87,6.66-4.2-.21-8.26-2.56-11.25-5.39-2.98-2.82-4.97-6.41-7.91-9.24-1.2-1.15-2.76.06-2.56,1.49,1.2,8.69,10.11,16.57,18.32,18.69,4.21,1.09,8.39,1.05,12.53-.25,4.16-1.31,8.07-3.51,12.38-4.35,4.47-.88,7.9,1.03,11.74,3.02,4,2.07,8.25,3.74,12.84,3.6,4.68-.14,9.3-1.66,13.35-3.96,2.92-1.66,7.02-4.22,8.5-7.54,2.64-2.24,6.13-6.66,3.21-9.32Z"/>
    <path class="cls-6" d="M63.6,206.19c-.02-.09-.06-.18-.08-.27-.03-.21-.08-.4-.2-.59-.11-.17-.24-.32-.37-.48-.1-.13-.19-.25-.29-.38-.18-.23-.41-.43-.62-.64-.29-.29-.65-.52-.98-.76-.21-.15-.44-.24-.67-.34-.23-.1-.47-.08-.71-.1-.29-.02-.68.15-.87.36-.21.23-.38.54-.36.87.02.23,0,.46.08.69.1.25.19.49.34.71.23.35.45.69.72,1.02.19.23.37.47.57.68.1.11.21.21.31.31.15.15.29.29.48.4.15.09.27.13.39.16.13.07.25.13.39.16.49.14,1.12.02,1.48-.37.37-.4.5-.92.39-1.46Z"/>
    <path class="cls-6" d="M69.64,221.94c-.63-.18-1.23.21-1.65.65-.33.35-.6.74-.88,1.14-.27.38-.57.82-.67,1.28-.05.24-.14.51-.14.76s.08.47.19.69c.06.41.43.61.82.53.01,0,.02,0,.03,0,.03,0,.05,0,.08,0,.23,0,.49-.06.69-.18.22-.13.46-.35.66-.52.21-.18.35-.43.49-.66.11-.18.22-.35.32-.54.23-.42.45-.84.6-1.3.2-.61.22-1.62-.55-1.84Z"/>
    <path class="cls-6" d="M62.54,245.14c0-.13-.03-.26-.09-.4-.07-.18-.14-.31-.29-.45-.07-.07-.15-.14-.22-.2-.23-.22-.48-.41-.74-.59-.18-.13-.39-.23-.58-.35-.19-.12-.39-.2-.6-.29-.13-.06-.26-.13-.38-.16-.15-.03-.29-.04-.44-.02-.04,0-.08.02-.12.03-.2.01-.38.07-.54.23-.18.18-.27.45-.24.7-.01.27.07.52.23.76.06.09.13.18.2.28.15.2.28.34.45.49.1.08.19.17.29.25.17.14.35.28.54.4.19.12.39.2.6.28.12.05.23.09.35.13.14.05.3.06.45.06.19,0,.35-.05.49-.13,0,0,0,0,0,0,.46-.16.69-.56.62-1.03Z"/>
    <path class="cls-6" d="M90.67,187.88c-.17-.09-.36-.14-.54-.18-.84-.57-2.07-.41-3.01-.2-.4.09-.81.22-1.2.35-.12.04-.24.1-.36.13-.03,0-.05.01-.06.02-.15.02-.3.06-.44.14.04-.01.06-.02.09-.03-.57.21-.9.89-.56,1.44.69,1.1,2.13.85,3.22.66.6-.1,1.18-.31,1.71-.6.26-.14.49-.29.68-.51.1-.12.18-.24.29-.34.09-.08.19-.14.27-.24.15-.19.16-.49-.08-.62Z"/>
    <path class="cls-6" d="M111.16,196.48c-.12-.29-.33-.44-.62-.55-.25-.1-.53-.13-.79-.05-.2.06-.35.15-.5.27-.11.06-.21.13-.31.24-.04.05-.09.1-.13.15-.09.1-.18.2-.27.29-.18.18-.36.36-.53.54-.18.18-.36.36-.56.52-.1.09-.21.17-.3.27-.16.17-.26.36-.38.56-.26.42-.2.98.1,1.36.13.17.29.29.49.38.27.12.5.11.8.06.24-.04.44-.08.66-.2.21-.11.4-.26.58-.42.21-.18.42-.37.61-.58.25-.28.47-.57.65-.9.06-.12.12-.24.18-.36.03-.06.06-.12.08-.19.07-.16.13-.29.15-.46.02-.03.03-.05.05-.08.16-.26.16-.58.05-.85Z"/>
    <path class="cls-6" d="M97.92,217.75c-.05-.12-.12-.23-.22-.34-.02-.02-.04-.06-.05-.07-.1-.14-.21-.27-.32-.39-.27-.29-.57-.54-.82-.86.06.08.13.17.19.25-.31-.41-.66-.81-1.01-1.19-.07-.07-.14-.15-.21-.22-.08-.08-.17-.16-.27-.22-.05-.04-.1-.07-.17-.08-.09-.04-.12-.05-.12-.05-.21-.1-.44-.16-.67-.14.01,0,.03,0,.04-.01-.02,0-.05,0-.08.01,0,0-.01,0-.02,0-.2.03-.5.11-.54.31,0,0,0,.02,0,.03-.05.11-.06.24-.07.36h0c0,.1,0,.2.04.32.01.04.03.09.04.13.01.05.01.19.01.03,0-.24.01.14.04.24.04.13.1.23.16.35.05.09.09.18.14.27.18.39.32.82.57,1.17.17.24.36.49.56.7.29.3.61.47.99.62.56.22,1.48.1,1.78-.48.03-.02.06-.03.08-.05.12-.09.21-.21.18-.38-.02-.14-.12-.28-.27-.31Z"/>
    <g>
      <path class="cls-6" d="M123.78,227.78c-.08-.03-.16-.07-.23-.1.08.04.16.07.23.1Z"/>
      <path class="cls-6" d="M123.14,226.15c-.04.08-.08.17-.11.26.04-.09.07-.17.11-.26Z"/>
      <path class="cls-6" d="M123.81,227.8s-.02-.01-.03-.01c0,0,0,0,0,0,.01,0,.02,0,.03.01Z"/>
      <path class="cls-6" d="M127.99,224.59c-.25-.43-.78-.79-1.3-.75-.09,0-.17.02-.26.03-.2,0-.39.07-.57.18-.04.02-.08.03-.11.05-.1.05-.2.1-.3.16-.18.12-.36.24-.55.36-.17.11-.34.24-.51.36-.09.06-.19.13-.28.19-.19.12-.34.25-.48.4.01-.02.03-.04.04-.05-.2.21-.39.38-.53.62-.08.15-.14.31-.2.47-.12.34.08.8.39.97.14.07.29.14.45.19.2.07.4.09.62.08.22-.01.44,0,.65-.06.26-.06.53-.17.78-.26.36-.13.7-.29,1.04-.47.42-.22.89-.54,1.12-.96.26-.48.28-1.04,0-1.52Z"/>
      <polygon class="cls-6" points="123.14 226.15 123.14 226.15 123.14 226.15 123.14 226.15"/>
    </g>
    <path class="cls-6" d="M131.75,207.12c-.18-.3-.37-.57-.61-.83-.08-.09-.17-.18-.25-.27-.14-.15-.29-.27-.46-.39-.09-.07-.18-.14-.27-.21-.1-.07-.2-.12-.31-.15-.05-.03-.1-.06-.16-.09-.16-.09-.3-.13-.45-.13-.1-.03-.2-.03-.3-.02-.05-.02-.1-.04-.15-.06-.13-.05-.27.07-.26.2,0,.06,0,.11,0,.16-.03.07-.05.14-.06.22-.06.18-.05.37-.01.57,0,.04.02.08.02.12,0,.12,0,.24.05.35.03.11.08.22.12.33.11.3.25.57.4.85.15.28.32.53.53.77.08.09.16.19.24.27.15.15.37.3.58.35.1.02.21.03.31.04.07.01.15.02.22.02.46,0,.82-.31.97-.74.05-.15.1-.41.1-.54-.01-.3-.13-.56-.27-.81Z"/>
    <path class="cls-6" d="M153.01,189.88c-.02-.29-.22-.5-.52-.52-.11,0-.21-.01-.32,0-.06,0-.12.03-.18.05-.2,0-.41.02-.6.07-.37.09-.65.38-.94.6-.33.26-.61.59-.89.9-.34.37-.62.79-.91,1.2-.27.37-.58.9-.52,1.38,0,.05-.01.09,0,.14.02.38.3.69.7.7.06,0,.12,0,.18-.01.54.04,1.09-.38,1.48-.69.33-.26.68-.51.98-.81.36-.37.72-.71,1.02-1.13.17-.24.35-.46.43-.74.05-.18.07-.42.06-.64.04-.16.04-.32.03-.49Z"/>
    <path class="cls-6" d="M161.98,210.02c-.04-.06-.08-.12-.12-.17-.13-.19-.28-.42-.44-.57-.28-.25-.59-.5-.92-.7-.2-.12-.43-.2-.64-.28-.13-.05-.25-.1-.38-.13-.21-.05-.42-.05-.63-.05-.13,0-.25-.02-.38-.01-.28.01-.54.14-.68.39-.03.06-.06.12-.08.18,0,.03-.02.08-.03.18-.01.15.02.31.1.44.05.09.12.17.18.24,0,0,0,.01.01.02.01.04.05.08.07.11.17.29.38.52.6.77.17.19.34.36.52.53.09.09.17.18.26.27.13.14.29.25.45.36,0,0,0,0,.01,0,.15.12.27.22.45.29.17.07.36.12.55.11.29-.02.54-.1.78-.28.21-.16.41-.4.46-.67.07-.37.07-.71-.13-1.05Z"/>
    <path class="cls-6" d="M154.67,229.17c0-.13.02-.27.03-.4.01-.23-.11-.51-.3-.67-.12-.16-.32-.25-.52-.23-.27-.03-.55.09-.74.26-.05.04-.09.08-.14.12-.09.05-.18.1-.25.18-.04.04-.07.09-.1.13-.07.09-.14.17-.22.25-.21.24-.41.47-.6.72l.2-.26c-.18.22-.36.44-.56.64-.3.3-.6.78-.64,1.23-.02.06-.04.12-.05.19,0,.05-.03.24-.03.25,0,.06,0,.12,0,.17-.02.19.1.36.28.44,0,0,.01.01.03.02.06.04.12.06.19.07.1.03.21.04.32.04.08,0,.16,0,.24-.01.15.02.3.02.45-.03.13-.04.25-.1.37-.16.21-.09.37-.18.55-.35.19-.18.37-.39.53-.59.23-.28.44-.55.59-.88.09-.19.17-.39.26-.59.02-.05.04-.1.06-.15.06-.16.06-.3.05-.45,0,.02,0,.04,0,.05Z"/>
    <path class="cls-6" d="M85.71,248.08c-.08-.25-.22-.48-.32-.72.04.09.08.19.12.28-.14-.34-.33-.69-.55-.98-.16-.2-.37-.37-.55-.56-.17-.18-.44-.24-.67-.18-.24.07-.4.25-.48.48-.07.19-.12.38-.16.58-.02.12-.04.24-.04.37,0,.13.04.29.06.42.02.11.04.21.07.32.07.29.23.57.38.82.14.22.33.44.57.55.11.05.24.1.35.15.11.04.21.05.31.04.21.03.41-.02.58-.15.16-.12.24-.27.28-.45.12-.29.13-.69.04-.97Z"/>
    <path class="cls-6" d="M130.52,247.89c0-.2-.14-.4-.34-.45-.02-.05-.05-.08-.12-.08-.09-.05-.19-.07-.29-.07-.44-.13-.97,0-1.34.18-.25.13-.48.27-.72.42-.22.15-.45.27-.68.41-.11.07-.21.15-.31.23,0,0,0,0,0,0-.07.05-.14.1-.21.16-.12.09-.19.19-.25.31-.12.11-.22.24-.25.4-.06.08-.04.2.04.26.08.17.25.27.43.34.22.17.44.2.73.24.13.02.25.03.38.02.36-.03.72-.1,1.07-.18.37-.09.71-.24,1.03-.44.26-.16.46-.36.61-.63.03-.05.06-.1.09-.16.08-.16.12-.3.13-.45,0-.02.02-.04.02-.06l.03-.22c.04-.12.02-.2-.06-.24Z"/>
    <path class="cls-6" d="M172.39,247.18c-.09-.3-.33-.67-.57-.86-.15-.12-.29-.25-.45-.34-.09-.05-.18-.09-.28-.14-.28-.13-.58-.23-.89-.27-.17-.02-.38,0-.55.04-.09.02-.17.06-.25.11-.03.02-.06.04-.09.07-.02,0-.04.02-.06.02-.01,0-.02,0-.03,0-.23,0-.37.3-.19.46,0,0,.02.02.03.02,0,0,0,.02.01.03,0,.05.01.09.02.14,0,.03.01.06.02.09.03.12.1.23.16.34.11.2.29.35.45.52.11.12.23.22.35.33.12.11.26.19.39.29.04.03.08.06.12.08.07.04.14.07.22.1.13.07.27.14.41.16.35.06.68.01.94-.25.24-.24.35-.61.25-.94Z"/>
    <path class="cls-6" d="M171.7,181.52c-.18-.32-.54-.52-.91-.52-.21,0-.39.05-.58.13-.28.12-.43.28-.61.52-.03.04-.06.08-.09.12.06-.08.13-.17.19-.25-.14.17-.26.35-.38.53-.06.09-.12.17-.18.25-.06.08-.13.16-.2.23-.1.11-.19.22-.27.34-.02.02-.04.05-.06.07-.09.11-.18.24-.23.37-.05.07-.09.14-.11.22-.05.17-.03.34.04.5.11.26.4.49.7.47.02,0,.03,0,.05,0,.36.06.8-.09,1.1-.24.27-.14.51-.32.75-.5.21-.16.4-.33.56-.54.15-.2.3-.4.36-.64.09-.33.04-.75-.14-1.06Z"/>
    <path class="cls-6" d="M188.73,193.21c-.05-.34-.2-.65-.46-.89-.2-.19-.42-.36-.67-.48-.51-.26-1.09-.57-1.68-.44-.14.02-.28.04-.42.07-.56.13-.85.74-.72,1.27.02.07.03.15.06.22.01.03.03.06.04.1,0,.07.03.14.08.2.06.17.15.32.28.44.2.23.44.4.68.58.08.06.15.11.23.17.17.13.37.2.57.29.19.08.38.12.59.13.31.01.56-.12.83-.24.19-.11.34-.26.46-.46.12-.2.17-.41.17-.64,0-.11-.02-.21-.03-.31Z"/>
    <path class="cls-6" d="M185.64,215.3c-.23-.3-.6-.42-.97-.33-.16.04-.31.07-.47.11-.25.06-.47.18-.69.3-.3.15-.55.33-.82.52-.44.31-.89.6-1.19,1.07-.31.47-.52,1.19-.14,1.68.38.49,1.12.46,1.65.28.52-.18.9-.52,1.3-.87.26-.23.51-.44.73-.7.16-.19.34-.38.46-.6.08-.14.15-.29.22-.44.17-.33.16-.72-.07-1.02Z"/>
    <path class="cls-6" d="M195.75,233.17c-.05-.14-.11-.32-.18-.43-.07-.11-.19-.25-.29-.37-.15-.19-.35-.33-.55-.46-.12-.08-.23-.16-.35-.24-.19-.13-.42-.2-.63-.29-.33-.13-.66-.29-1.01-.27-.12,0-.24,0-.37,0-.12,0-.23,0-.36.03-.12.03-.22.09-.31.16,0,0,0,0,0,0-.21.13-.36.37-.36.62,0,.01,0,.02,0,.03-.01.11,0,.23.02.34.04.11.09.22.15.31.06.11.13.21.18.32-.01-.03-.02-.06-.04-.09.07.16.15.29.3.43.04.04.09.08.13.12.1.09.2.19.3.28.27.25.56.45.86.65.4.27.84.42,1.31.43.43,0,.9-.17,1.11-.57.17-.32.2-.68.08-1.02Z"/>
    <g>
      <path class="cls-6" d="M193.97,245.71c-.12-.21-.33-.33-.56-.36-.26-.03-.44.05-.63.2-.12.09-.23.18-.32.32-.03.05-.06.09-.09.13-.11.13-.22.26-.33.4.06-.07.11-.15.17-.22-.15.19-.31.37-.46.56l.18-.23c-.09.12-.2.24-.31.34-.05.05-.11.1-.17.15-.08.07-.13.15-.19.24-.08.09-.16.17-.25.25-.2.16-.3.38-.32.63-.08.17-.04.36.13.49.17.25.45.42.77.41.21,0,.43-.04.63-.09.22-.05.44-.09.64-.23.18-.13.36-.27.53-.42.16-.16.32-.33.43-.53.11-.19.23-.42.28-.63.05-.22.08-.44.09-.66.02-.27-.06-.51-.2-.75Z"/>
      <path class="cls-6" d="M192.77,245.56s0,0,0,0c.04-.03.08-.06.13-.1-.05.03-.09.07-.14.1Z"/>
      <path class="cls-6" d="M192.74,245.57s.02-.01.02-.02c0,0,0,0,0,0,0,0-.02.01-.02.02Z"/>
    </g>
    <path class="cls-6" d="M175.77,169.01c-.08-.25-.2-.43-.35-.63-.1-.13-.2-.24-.32-.34-.15-.13-.31-.28-.5-.36-.18-.08-.37-.17-.56-.22-.19-.05-.4-.07-.6-.08-.18-.01-.37-.01-.55.03-.17.04-.32.13-.46.23-.23.16-.38.36-.42.65-.04.28.05.49.21.7l-.07-.09s.04.06.07.09c0,.01.02.02.03.03,0,0,0,0,0,0,.02.02.04.04.05.06l-.04-.05c.12.16.25.28.42.39.1.06.19.12.28.19l-.24-.19c.1.08.21.16.31.24.14.11.28.23.43.32.08.05.16.1.23.16.09.07.18.14.28.2.22.14.53.21.8.19.23-.01.43-.08.62-.22.19-.14.28-.31.36-.53.01-.03.02-.07.02-.1.04-.24.08-.45,0-.69Z"/>
    <path class="cls-8" d="M195.58,74.01c-.16-.13-.33-.21-.5-.29-.06-.07-.12-.13-.2-.18-.08-.05-.17-.08-.25-.12,0,0-.11-.05-.14-.06-.03-.01-.08-.04-.09-.04-.05-.02-.1-.05-.15-.07-.13-.06-.25-.13-.38-.19-.25-.11-.53-.18-.79-.27-.11-.04-.22-.07-.33-.12-.04-.01-.08-.03-.11-.04-.02,0-.06-.03-.1-.04-.44-.2-.86-.45-1.25-.73-.02-.02-.04-.03-.05-.04-.07-.06-.15-.12-.22-.17-.09-.07-.2-.12-.29-.18-.12-.08-.25-.15-.38-.21-.15-.29-.44-.52-.79-.49-.3.03-.55.02-.83.16-.12.06-.24.12-.37.18-.05.02-.17.06-.18.07-.11.03-.22.07-.33.09-.18.04-.36.08-.54.11-.05,0-.22.02-.22.02-.12.01-.25.02-.38.03-.21.01-.42.01-.62.02-.44,0-.88,0-1.31-.03-.08,0-.16-.02-.24-.02-.02,0-.02,0-.03,0,0,0-.01,0-.02,0-.2-.04-.39-.08-.59-.12-.58-.14-1.16-.3-1.73-.47-.57-.17-1.12-.37-1.66-.63-.55-.26-.98-.69-1.5-.97-.24-.13-.56-.06-.76.11-.33-.02-.68.11-1,.45-.34.36-.43.92-.69,1.34-.22.37-.55.66-.91.89-.85.54-1.81.9-2.77,1.16-1.1.29-2.22.39-3.36.27-.58-.06-1.16-.19-1.72-.38-.58-.2-1.11-.53-1.71-.67-.85-.19-1.51,1.1-.63,1.48.97.42,1.83,1,2.86,1.29,1.01.29,2.08.38,3.13.33,2.03-.09,4.36-.56,6.05-1.77.79-.56,1.49-1.36,1.81-2.29.62.47,1.34.85,1.94,1.13,1.03.49,2.16.9,3.29,1.07,1.13.17,2.23.2,3.36.03.63-.09,1.39-.28,1.92-.68.09.11.19.21.3.3.45.39.93.74,1.45,1.03.51.28,1.06.53,1.63.65.32.07.64.05.96.01.32-.03.61-.06.85-.25.23-.07.42-.16.61-.33.1-.09.11-.3,0-.38Z"/>
    <path class="cls-11" d="M172.48,95.62s0-.02,0-.03c-.02-.19-.13-.4-.34-.44-.01,0-.03,0-.04-.01-.12-.07-.24-.12-.38-.14-.06,0-.12-.01-.17-.02-.34-.08-.69-.04-1.02.05-.2.05-.38.13-.58.18-.12.03-.5.06-.05.02-.14.01-.28.03-.43.05,0,0,0,0-.01,0-.06,0-.11.01-.17.01-.1,0-.2,0-.3,0-.2,0-.4-.02-.6-.02-.08,0-.17,0-.25-.01-.04,0-.09-.01-.12-.02-.3-.05-.6-.06-.87.06,0,0,0,0,0,0-.31.04-.48.38-.47.67-.05.65.64,1.14,1.14,1.43.54.31,1.2.42,1.82.45.61.03,1.3-.14,1.86-.4.35-.17.67-.44.84-.8.17-.36.27-.66.18-1.02Z"/>
    <path class="cls-10" d="M174.07,102.54c-.24-.58-.92-.98-1.85-.85-.35.05-.78.27-1.12.41-.06.02-.12.05-.18.07-.11.03-.22.06-.33.08-.15.03-.31.06-.46.08-.05,0-.1,0-.14.01-.55,0-1.08-.02-1.63-.09-.69-.08-1.99-.4-2,.74,0,.71.69,1.31,1.23,1.66.69.44,1.52.7,2.33.7.86,0,1.65-.12,2.46-.41.38-.13.75-.37,1.05-.63.68-.58.83-1.25.62-1.78Z"/>
    <g>
      <path class="cls-3" d="M110.59,90.91c-.14-.02-.17,0-.09.01.02,0,.04,0,.07,0,0,0,.02,0,.03,0Z"/>
      <path class="cls-3" d="M115.45,90.45c-.08-.38-.34-.65-.71-.75-.52-.22-1.07-.03-1.57.19.07-.03.14-.06.21-.09-.12.05-.24.1-.36.15-.06.03-.11.07-.17.11-.11.08-.23.15-.35.21-.23.13-.46.22-.7.34.42-.21.02-.01-.11.03-.13.04-.26.08-.39.11-.24.06-.47.11-.71.16.01,0,.02,0,.03,0-.02,0-.04,0-.06,0,0,0,0,0,0,0-.03,0-.04,0-.06,0-.03,0-.06.01-.08.01-.2.02-.4.04-.59.07-.01,0-.14.02-.14.02-.01,0-.02,0-.03,0-.18.01-.38,0-.55.05-.33.09-.67.36-.69.72-.06.77.86,1.27,1.49,1.5.6.22,1.31.29,1.94.22.79-.09,1.47-.27,2.18-.63.87-.44,1.8-1.41,1.43-2.43Z"/>
    </g>
    <path class="cls-3" d="M141.06,90.87c-.11-.34-.32-.62-.63-.82-.44-.27-1.02-.28-1.53-.25-.29.02-.58,0-.87-.03-.21-.03-.42-.07-.63-.1.13.02.26.04.39.05-.38-.05-.74-.12-1.12-.15-.05,0-.11-.01-.16-.01-.07,0-.14-.02-.21-.03-.13,0-.25,0-.38,0-.33,0-.65.19-.82.47-.19.32-.14.64,0,.96.41.92,1.36,1.53,2.33,1.73.47.1.95.16,1.43.16.31,0,.61-.05.91-.13.19-.05.39-.11.56-.21.27-.16.41-.34.59-.59.19-.26.23-.76.14-1.05Z"/>
    <path class="cls-3" d="M114.95,101.04c-.44-1.48-1.34-2.81-2.83-2.37-.51.15-.84.47-1.09.87-.05.05-.1.1-.15.16-.34.44-.56.97-.7,1.51-.27.99-.28,2.07-.03,3.06.13.52.4,1.07.81,1.43.62.54,1.37.72,2.17.57,1.13-.21,1.97-1.29,2.13-2.39.1-.64.01-1.78-.3-2.85Z"/>
    <path class="cls-3" d="M139.74,101.04c-.44-1.48-1.34-2.81-2.83-2.37-.51.15-.84.47-1.09.87-.05.05-.1.1-.15.16-.34.44-.56.97-.7,1.51-.27.99-.28,2.07-.03,3.06.13.52.4,1.07.81,1.43.62.54,1.37.72,2.17.57,1.13-.21,1.97-1.29,2.13-2.39.1-.64.01-1.78-.3-2.85Z"/>
    <path class="cls-1" d="M110.65,111.4c-.14-.48-.37-.86-.66-1.16-.4-.69-1.08-1.09-1.81-1.27-1.2-.29-2.5-.33-3.69.05-1.33.43-2.64,1.43-3.13,2.9-.4,1.19.12,2.32,1.05,2.95.54.37,1.17.63,1.79.78,1.33.31,2.74.23,4-.36,1.38-.64,3-2.03,2.45-3.9Z"/>
    <path class="cls-1" d="M148.48,111.4c-.14-.48-.37-.86-.66-1.16-.4-.69-1.08-1.09-1.81-1.27-1.2-.29-2.5-.33-3.69.05-1.33.43-2.64,1.43-3.13,2.9-.4,1.19.12,2.32,1.05,2.95.54.37,1.17.63,1.79.78,1.33.31,2.74.23,4-.36,1.38-.64,3-2.03,2.45-3.9Z"/>
    <path class="cls-13" d="M128.06,110.1s-.08-.03-.11-.04c-.19-.14-.4-.2-.63-.22-.11-.03-.23-.05-.36-.05-.01,0-.27.02-.27.01.15.03.16.04.04.01-.21-.06-.41-.06-.62,0-.09.02-.18.04-.28.06-.06.01-.11.02-.17.03-.09,0-.18.02-.26.03-.22.03-.44.04-.66.05-.43.01-.87.02-1.31.02-.21,0-.43-.04-.64-.03-.22,0-.45.09-.67.13-.32.06-.49.5-.31.77.17.25.34.51.6.68.27.18.59.3.89.42.58.24,1.19.31,1.81.31.34,0,.68-.04,1.02-.09.33-.05.68-.1.95-.29l.23-.18c-.09.08-.11.1-.04.05.05-.02.11-.07.16-.1.07-.05.14-.1.21-.15.06-.04.35-.4.2-.22.13-.15.25-.28.32-.47.04-.12.04-.24.06-.36.02-.13-.01-.29-.14-.35Z"/>
    <path class="cls-8" d="M186.59,27.43c-.11-.09-.23-.18-.35-.27-.02-.01-.04-.03-.05-.04.15.11.13.09-.06-.05-.27-.21-.57-.34-.89-.46-1.01-.38-2.07-.54-3.14-.52-.05-.08-.1-.17-.17-.24-1.1-1.21-2.82-1.8-4.39-2.16-1.57-.37-3.2-.48-4.8-.28-1.59.2-3.09.67-4.53,1.4-1.33.68-3.16,1.68-3.27,3.32-.03.46.42.84.85.85,1.32.02,2.47-1.15,3.62-1.7,1.1-.52,2.34-.86,3.55-.99,1.27-.14,2.56-.06,3.8.24.53.13,1.04.32,1.54.52-.24.14-.47.3-.67.48-.32.29-.69.71-.85,1.13-.11.28-.18.88.17,1.04.29.13.59.22,1.01.14.37-.06.75-.11,1.12-.2.35-.09.7-.2,1.06-.27.16-.03.32-.05.48-.08.09-.02.18-.03.27-.05.03,0,.05,0,.07-.01.02,0,.04,0,.07,0,.37-.03.73-.05,1.1-.04.16,0,.32.02.48.03.02,0,.08,0,.13.01.07.01.18.03.21.03.75.13,1.46.37,2.19.56.55.14,1.05.28,1.58-.05.28-.17.47-.4.55-.73.16-.66-.16-1.22-.66-1.62Z"/>
    <path class="cls-8" d="M194.79,41c.01-.37-.05-.73-.12-1.09-.15-.74-.59-1.4-1.05-1.99-.41-.51-.9-.92-1.5-1.19-.39-.18-.81-.37-1.25-.36-.27,0-.55.04-.79.17-.29.16-.58.54-.55.88.03.36.12.6.37.87.16.17.32.31.51.45.02.01.03.02.05.03.03.03.07.05.1.08.12.11.23.22.34.35.1.12.21.22.31.34.04.04.07.08.11.13.18.25.33.53.45.81.07.16.14.33.21.49-.05-.12-.1-.23-.15-.35.1.24.17.49.25.74.08.23.2.49.38.66l.05.04s.05.1.08.14c.34.7,1.32.57,1.69,0,.06-.09.2-.27.16-.27.02-.02.04-.04.05-.05.21-.27.29-.55.31-.89Z"/>
    <g>
      <path class="cls-8" d="M152.81,34.45c-.05-.06-.1-.13-.15-.19-.06-.07-.09-.09-.02,0-.16-.18-.29-.34-.51-.44-.26-.12-.52-.18-.81-.16-.21.02-.43.04-.64.08-.58.12-1.18.42-1.68.75-.58.39-1.05.85-1.47,1.41-.16.22-.31.45-.43.7-.08.17-.17.35-.23.53-.01.03-.02.06-.02.09,0,.03-.01.04-.01.05-.01.03-.03.06-.04.1,0,.02-.01.05-.02.07.01-.02.02-.04.03-.05-.1.25-.12.54.05.77.22.29.49.51.88.51.33,0,.63-.13.86-.37.08-.08.2-.23.24-.31.02-.04.04-.09.06-.13,0-.01.01-.02.02-.04.06-.11.11-.23.18-.34.07-.11.14-.22.22-.33.04-.05.08-.09.12-.14.09-.1.19-.2.29-.29.05-.05.1-.09.16-.14.06,0,.28-.19.34-.23.11-.07.22-.13.33-.18.05-.02.1-.05.15-.07.13-.04.25-.09.38-.13.31-.09.72-.13.99-.3.05-.03.1-.07.15-.11.02-.01.03-.02.05-.03.14-.08.24-.19.33-.32,0,0,0,0,0,0,0,0,.02-.02.02-.02,0,0-.01,0-.02.02,0,0,0,0,0-.01.02-.01.02-.01.02-.01.03-.03.06-.06.08-.09.15-.15.22-.46.08-.64Z"/>
      <path class="cls-8" d="M152.64,35.17s0,0,0,0c0,0,0,0,0,0Z"/>
    </g>
  </g>
</svg>