<?xml version="1.0" encoding="UTF-8"?>
<svg id="Capa_1" xmlns="http://www.w3.org/2000/svg" version="1.1" viewBox="0 0 256 256">
  <!-- Generator: Adobe Illustrator 30.4.0, SVG Export Plug-In . SVG Version: 2.1.4 Build 226)  -->
  <defs>
    <style>
      .st0 {
        fill: #fff;
      }

      .st1 {
        fill: #a02142;
      }
    </style>
  </defs>
  <circle class="st1" cx="128" cy="128" r="128"/>
  <g>
    <path class="st0" d="M18.74,89.07v-5.01c.56-3.02,1.4-6.04,3.25-8.63,5.43-7.61,16.72-5.72,25.34-2.62l17.27,6.21c2.91,1.05,6.18,2.21,9.26,2.18l16.51-.15c-8.26-19.32.2-41.52,18.94-50.78,10.69-5.29,22.96-6.07,34.1-1.43,7.55,3.14,13.54,8.56,17.99,15.34,1.07,1.63.43,3.6-.82,4.44-1.41.95-3.57.64-4.48-.8-8.26-13.19-23.84-18.63-38.62-14.01-17.32,5.42-27.67,23.35-22.5,41,4.4,15,19.99,30.72,32.57,40.64,12.43-10.29,25.05-22.07,31.26-36.9,2.26-5.75,3.28-11.69,2.23-17.77-.32-1.88.64-3.56,2.3-3.96,1.67-.41,3.54.55,3.94,2.41,1.1,5.16.78,10.28-.44,15.41-3.8,14.05-13.47,25.78-24.04,36.07l20.78,17.49c5.18,4.36,7.16,10.75,6.13,17.23l-2.36,11.66c-1.39,6.88,1.53,13.87,7.34,17.7,4.38,2.88,9.58,3.17,14.51,1.7,7.3-2.18,12.66-7.73,14.39-15.1.51-2.18,2.46-3.75,4.66-3.99,8.46-.93,16.75-.05,24.78,2.65,1.96.66,3.28,2.44,3.65,4.46,1.78,9.79-.4,23.38-7.7,29.51-4.95,4.16-11.83-2.49-18.02,3.17-2.78,2.55-3.79,5.95-3.12,9.84.62,3.57-1.46,6.53-4.79,7.67l-12.02,4.11c-3.47,1.19-7.48-.11-9.29-3.17l-2.75-4.64c-.92-1.55-2.99-2.68-4.95-2.61l-9.37.37c-2.15.08-3.83-1.16-3.85-3.21-.01-1.78,1.42-3.19,3.43-3.24l10.18-.27c5.48-.15,9.58,3.46,11.58,8.44.68,1.68,1.97,2.73,3.81,2.09l11.84-4.18c-1.23-5.94.25-11.13,4.26-15.2,4.14-4.21,9.7-5.88,15.54-4.42,1.03.26,2.58.27,3.75.23,2.03-2.55,3.44-5.31,4.47-8.38,1.22-4.83,1.58-9.55.74-14.69-6.71-2.18-13.63-2.94-20.82-2.25-3.69,13.77-17.91,22.8-31.99,19.27-11.61-2.91-18.94-14.72-16.66-26.26l2.38-12.04c.95-4.8-.87-9.32-4.66-12.34l-9.04-7.19-11.62-10.03-6.26,5.18c-2.6,2.15-6.12,1.89-8.68-.19-11.57-9.39-21.85-19.55-29.51-32.46-11.1-.66-19.52,1.64-30.18-2.21l-17.58-6.35c-4.07-1.47-8.33-2.45-12.52-2.57-3.91-.11-6.55,2.16-7.55,5.65-2.58,8.94,3.34,15.25,10.25,20.85,1.95,1.58,2.43,4.48,2.02,6.89-.84,5.03,1.63,7.74,4.87,11.81,1.18,1.48,1.19,3.4-.14,4.61-1.23,1.13-3.38,1.17-4.61-.3-4.72-5.65-7.99-10.56-6.33-18-6.27-5.42-11.53-10.71-13.04-18.93Z"/>
    <path class="st0" d="M94.28,153.36l-9.41-9.18c-9.36-9.13-9.45-18.07-13.46-22.4-4.08-4.41-9.4-6.89-15.44-8.49,1.71,5.85,4.06,10.8,6.61,16.02l8.71,17.79c2.27,5.7,3.84,12.27-1.59,14.49-2.54,1.05-5.37,1.62-8.12,1.63-3.6.01-6.66-2.43-7.25-6.03-1.15-7.05-3.4-13.6-7.32-19.6-1-1.52-.53-3.38.64-4.31,1.31-1.05,3.44-.98,4.45.51,4.72,6.93,7.36,14.56,8.61,22.93,2.39.14,4.12-.17,6.39-.95-.59-2.8-1.2-5.2-2.42-7.67l-10.12-20.58c-2.57-5.24-7.58-17.91-5.2-20.63.84-.95,2.35-1.19,3.65-.93,6.55,1.3,12.6,3.45,18.06,7.1,11.02,7.38,9.36,17.59,16.43,24.6l7.74,7.67c5.57,5.52,11.44,10.87,11.99,19.15.7,10.64,7.69,14.41,16.25,19.66l14.29,8.77c4.22,2.59,8.48,4.69,13.01,6.65,1.72.75,2.31,2.74,1.55,4.31-.69,1.43-2.59,2.22-4.33,1.47-5.01-2.16-9.72-4.57-14.38-7.44l-13.48-8.29c-4.25-2.61-8.36-5.11-11.98-8.49-8.36-7.82-6.35-15.52-8.13-19.73-1.26-2.99-3.37-5.66-5.79-8.02Z"/>
    <path class="st0" d="M147.88,69.98c-1.12,9.11-7.56,15.55-16.27,17.31-8.91,1.8-17.69-2.59-21.87-10.22-4.41-8.05-2.86-17.86,3.3-24.11,6.6-6.7,16.41-8.03,24.78-3.53,7.33,3.93,11.1,12.08,10.06,20.55ZM125.97,81.16c7.93,1.02,14.67-4.73,15.66-12,1.06-7.76-4.37-14.77-11.84-15.82-7.77-1.08-14.9,3.95-15.95,11.8s3.92,14.96,12.13,16.01Z"/>
  </g>
</svg>