<?xml version="1.0" encoding="UTF-8"?>
<svg id="Capa_1" xmlns="http://www.w3.org/2000/svg" version="1.1" viewBox="0 0 256 256">
  <!-- Generator: Adobe Illustrator 30.4.0, SVG Export Plug-In . SVG Version: 2.1.4 Build 226)  -->
  <defs>
    <style>
      .st0 {
        fill: #fff;
      }

      .st1 {
        fill: #a02142;
      }
    </style>
  </defs>
  <circle class="st1" cx="128" cy="128" r="128"/>
  <g>
    <path class="st0" d="M155.19,202.76c0,1.35-1.71,2.27-2.96,2.27h-48.82c-1.08-.08-2.63-1.17-2.62-2.24l.06-9.75h-36.37c-.92,0-2.03-.42-2.51-.97-.41-.48-.74-1.77-.58-2.54l5.92-29.26h-34.38c-1.71,0-2.85-1.21-2.93-2.84l.04-6.5c.06-10.55,8.55-18.79,19.06-18.77l17.01.03c2.2,0,4.35.58,6.58,1.33l8.24-40.9c.35-1.1,1.4-2.13,2.51-2.13l15.11-.04c1.05-10.56,9.68-18.42,20.14-18.45l18.22-.05c10.61-.03,19.46,7.71,20.54,18.52h14.68c1.54.01,2.7.92,3.03,2.49l8.17,40.57c2.22-.75,4.37-1.32,6.57-1.33l17.01-.03c10.51-.02,18.99,8.22,19.06,18.78l.04,6.55c-.06,1.23-1.07,2.79-2.55,2.79h-34.73s5.94,29.57,5.94,29.57c.37,1.86-1.35,3.4-3.15,3.21h-36.38s.05,9.71.05,9.71ZM137.56,77.57h-19.29c-7.27.28-13.21,5.73-14.08,12.9l47.63-.02c-1.07-7.43-6.92-12.63-14.27-12.89ZM137.51,176.94c6.91.56,12.63,4.26,15.78,10.51l35.2.02-5.49-27.18h-8.88c-1.43-.19-2.49-1.26-2.65-2.66l.02-6.92c.15-5.48,2.42-10.43,6.73-14.11l-8.15-40.54h-84.13s-8.14,40.56-8.14,40.56c4.4,3.75,6.67,8.86,6.71,14.49l.02,6.17c0,1.59-1.04,2.83-2.66,3l-8.85.02-5.49,27.17h35.1c3.27-6.26,9.29-10.29,16.45-10.52h18.43ZM78.92,154.65l-.02-3.73c-.04-7.33-5.99-13.16-13.29-13.15l-16.83.02c-6.89,0-13.1,5.41-13.1,12.29v4.58s43.24-.01,43.24-.01ZM220.32,154.66v-4.58c-.43-6.9-6.2-12.29-13.1-12.3h-16.83c-6.97-.02-13.14,5.41-13.25,12.41l-.07,4.46h43.25ZM149.54,199.44l-.03-5.24c-.75-6.63-6.29-11.65-13-11.65h-17.04c-6.55,0-12.04,4.81-12.94,11.26-.27,1.89-.18,3.78-.07,5.63h43.07Z"/>
    <path class="st0" d="M126.36,35.44c9.04-.94,16.55,5.72,17.38,14.18.86,8.74-5.54,16.43-14.26,17.29-8.48.84-16.19-5.36-17.2-13.81-1.03-8.63,5.01-16.72,14.08-17.66ZM126.36,41.1c-5.93.96-9.4,6.44-8.39,11.98.97,5.34,6.21,9.05,11.6,8.17,5.59-.92,9.38-6.01,8.53-11.65-.81-5.37-5.84-9.46-11.74-8.51Z"/>
    <path class="st0" d="M54.34,98.98c8.33-1.67,15.84,3.75,17.38,11.66,1.52,7.84-3.66,15.58-11.56,17.17-7.8,1.57-15.46-3.37-17.23-11.07-1.83-7.93,3-16.08,11.41-17.77ZM54.76,104.64c-5.24,1.49-7.72,6.86-6.11,11.68,1.51,4.53,6.46,7.15,11.09,5.84,4.83-1.36,7.63-6.41,6.33-11.11-1.32-4.82-6.19-7.86-11.31-6.4Z"/>
    <path class="st0" d="M195.97,98.94c8.28-1.58,15.79,3.9,17.24,11.8s-3.81,15.72-12.08,17.15c-7.59,1.32-15.23-3.7-16.82-11.58-1.57-7.77,3.25-15.77,11.67-17.38ZM196.37,104.6c-5.23,1.41-7.73,6.7-6.4,11.32,1.39,4.8,6.34,7.42,10.81,6.33,5.16-1.26,7.99-6.3,6.78-11.11-1.22-4.82-6.07-7.92-11.19-6.54Z"/>
    <path class="st0" d="M126.78,143.48c8.44-.71,15.21,5.63,15.88,13.38.71,8.2-5.37,15.19-13.29,15.93-8.14.77-15.23-5.21-16.01-13.18-.78-8.03,4.96-15.42,13.42-16.13ZM126.77,149.13c-5.25.69-8.45,5.57-7.8,10.23.71,5.11,5.33,8.53,10.39,7.8,4.76-.69,8.28-5.17,7.7-10.03-.59-4.92-4.93-8.7-10.28-8Z"/>
  </g>
</svg>