<?xml version="1.0" encoding="UTF-8"?>
<svg id="Capa_1" xmlns="http://www.w3.org/2000/svg" version="1.1" viewBox="0 0 256 256">
  <!-- Generator: Adobe Illustrator 30.4.0, SVG Export Plug-In . SVG Version: 2.1.4 Build 226)  -->
  <defs>
    <style>
      .st0 {
        fill: #fff;
      }

      .st1 {
        fill: #a02142;
      }
    </style>
  </defs>
  <circle class="st1" cx="128" cy="128" r="128"/>
  <path class="st0" d="M169.13,208.12c0,2.42-1.45,4-3.84,3.94h-74.94c-1.98-.09-3.48-1.47-3.48-3.45v-27.4s-41.1,0-41.1,0c-2.01,0-3.36-1.53-3.46-3.44l.03-38c.01-16.86,10.39-31.56,25.9-37.92-13.65-7.98-19.12-24.2-13.39-38.42,5.71-14.14,21.05-22.1,36-18.38,14.68,3.65,24.84,17.53,23.27,33.2,8.97-4.36,18.75-4.35,27.72,0-1.57-15.55,8.46-29.36,23-33.12,14.93-3.86,30.34,3.96,36.17,18.06,5.89,14.26.47,30.63-13.29,38.66,15.83,6.45,25.96,21.49,25.95,38.61l-.02,36.97c.07,2.29-1.54,3.8-3.79,3.8h-40.76s.01,26.9.01,26.9ZM105.25,84.95c5.32-11.64.55-25-10.26-30.97-10.86-6-24.45-2.64-31.38,7.54-6.98,10.27-4.94,24.1,4.6,31.97,9.52,7.84,23.64,7.29,32.31-1.75,1.38-2.46,2.82-4.5,4.72-6.79ZM155.54,91.84c8.94,9.14,23.19,9.41,32.61,1.34,9.4-8.06,11.13-21.95,3.94-32.06-7.14-10.05-20.82-13.11-31.54-6.88-10.62,6.17-15.08,19.48-9.74,30.84,1.82,2.14,3.23,4.19,4.73,6.77ZM125.25,82.02c-13.48,1.57-22.7,13.82-21.04,26.82,1.66,12.99,13.54,22.32,26.53,20.81,13.1-1.53,22.59-13.44,21.07-26.58-1.49-12.9-13.18-22.6-26.56-21.05ZM86.97,174.36c-1.33-18.5,9.14-34.81,25.82-41.65-8.91-5.28-14.51-13.93-15.49-23.97-11.14-4.82-23.76-3.61-33.75,3.49-9.16,6.52-14.8,17.46-14.37,29.29v32.86s37.79-.02,37.79-.02ZM169.04,174.37h37.78s-.03-34.56-.03-34.56c0-11.51-6.07-21.97-14.97-28.01-10.02-6.79-22.27-7.74-33.14-3.07-.98,10.06-6.57,18.68-15.49,23.98,16.88,6.88,27.14,23.44,25.84,41.66ZM162.27,205.21l-.04-34.55c-.02-19.04-15.74-34.07-34.4-33.98-18.51.09-34.05,15.06-34.07,33.98l-.03,34.56h68.55Z"/>
</svg>